ply
format ascii 1.0
comment Created by CloudCompare v2.10.1 (Zephyrus)
comment Created 1/31/20 6:25 PM
obj_info Generated by CloudCompare!
element vertex 1936
property float x
property float y
property float z
property uchar red
property uchar green
property uchar blue
end_header
471 873 223 85 64 57 
471 874 223 83 63 56 
471 875 223 89 64 62 
470 876 223 86 68 63 
470 877 223 84 69 60 
471 876 222 87 67 60 
471 876 223 89 67 65 
471 877 222 87 70 62 
471 877 223 84 68 60 
471 878 221 89 72 62 
471 879 221 93 75 66 
470 878 223 85 73 61 
470 879 222 91 75 62 
470 879 223 86 73 59 
471 878 222 88 73 62 
471 878 223 86 73 62 
471 879 222 91 74 63 
472 871 223 85 60 56 
473 870 223 89 64 60 
473 871 223 85 62 56 
474 869 223 91 67 59 
475 868 223 97 68 64 
475 869 222 96 69 63 
475 869 223 93 66 59 
475 870 221 97 72 65 
475 871 221 96 72 63 
474 870 222 93 70 60 
474 870 223 92 69 61 
474 871 222 88 66 56 
475 870 222 96 71 62 
475 871 222 94 70 60 
478 871 219 99 75 61 
476 869 221 97 71 63 
476 869 222 97 72 64 
476 869 223 96 68 62 
476 870 221 96 72 65 
476 871 220 91 70 64 
476 871 221 94 72 66 
477 870 220 95 71 62 
477 870 221 95 70 62 
477 871 220 92 71 63 
478 871 220 96 73 62 
475 875 219 91 70 63 
473 873 221 90 72 61 
472 872 223 85 64 56 
472 873 222 84 68 57 
472 873 223 85 66 57 
473 872 222 88 68 58 
473 872 223 86 64 57 
473 873 222 87 69 59 
472 875 221 90 69 62 
473 874 221 90 69 62 
473 875 220 92 72 68 
473 875 221 91 69 63 
472 874 222 87 68 59 
472 874 223 85 65 58 
472 875 222 89 66 60 
474 872 221 92 72 60 
474 873 221 95 76 65 
475 872 220 95 76 62 
475 872 221 96 75 63 
475 873 220 97 79 66 
475 873 221 97 78 65 
474 872 222 91 71 61 
474 874 220 97 73 72 
474 874 221 95 72 69 
474 875 220 95 73 71 
475 874 220 95 76 63 
475 875 220 95 75 63 
473 878 219 90 71 65 
473 879 219 89 69 62 
474 876 219 88 67 61 
474 877 219 91 71 65 
475 876 219 89 68 61 
475 877 218 89 70 65 
475 877 219 89 66 60 
474 878 218 89 66 60 
474 878 219 89 68 62 
474 879 219 90 69 63 
475 878 218 91 71 65 
472 876 221 90 71 63 
472 877 220 90 73 65 
472 877 221 87 70 61 
473 876 220 92 74 68 
473 876 221 92 73 68 
473 877 220 92 75 68 
472 876 222 87 68 59 
472 878 220 90 74 64 
472 878 221 90 74 63 
472 879 220 93 74 66 
473 878 220 92 74 67 
474 876 220 92 72 68 
477 872 219 92 69 59 
477 873 219 92 67 59 
476 874 219 92 67 63 
476 875 219 91 68 67 
477 874 219 92 64 62 
477 875 219 92 66 67 
478 872 219 94 72 61 
478 873 219 92 69 62 
479 872 219 96 75 63 
479 873 219 96 77 68 
478 874 219 94 70 67 
478 875 219 95 72 72 
479 874 219 97 79 72 
479 875 219 99 81 76 
476 872 220 93 73 64 
476 873 220 94 73 63 
477 872 220 92 71 61 
476 874 220 94 70 63 
476 876 218 91 74 71 
476 876 219 91 71 69 
476 877 218 92 77 72 
477 876 218 93 74 72 
477 876 219 92 70 69 
477 877 218 93 79 73 
478 876 218 98 79 76 
478 876 219 96 75 74 
479 876 219 100 84 78 
471 881 219 93 72 65 
470 880 221 95 72 62 
470 881 220 102 77 69 
470 881 221 102 76 66 
471 880 220 95 72 66 
471 880 221 96 74 66 
471 881 220 99 75 69 
471 881 221 98 73 64 
470 880 222 95 75 63 
470 880 223 89 73 60 
470 881 222 98 74 62 
470 881 223 95 74 63 
471 880 222 95 76 66 
470 882 220 103 78 68 
470 882 221 106 80 69 
470 882 222 97 74 64 
470 882 223 79 65 56 
470 883 223 67 59 51 
472 880 219 90 69 61 
472 880 220 91 70 63 
451 895 225 84 68 64 
450 895 227 79 67 61 
451 895 226 86 69 66 
451 895 227 82 67 62 
450 895 228 77 66 60 
450 895 229 73 60 52 
451 895 228 76 62 53 
451 895 229 74 60 51 
450 895 230 72 61 53 
450 895 231 72 61 51 
451 894 230 75 62 53 
451 894 231 72 61 51 
451 895 230 73 61 52 
451 895 231 73 61 51 
452 895 224 89 73 64 
452 895 225 88 71 64 
453 894 225 89 73 66 
453 895 225 92 75 67 
452 894 227 82 66 56 
452 895 226 87 69 62 
452 895 227 82 66 58 
453 894 226 88 73 65 
453 894 227 85 70 62 
453 895 226 90 74 66 
455 893 225 96 79 76 
454 893 227 85 69 63 
455 893 226 96 79 76 
455 893 227 86 69 64 
454 894 224 102 86 83 
454 894 225 93 77 73 
454 894 226 88 71 66 
454 894 227 86 70 64 
455 894 226 97 81 78 
453 893 229 89 75 60 
453 893 230 82 69 57 
453 893 231 77 65 52 
452 894 228 80 66 53 
452 894 229 78 64 52 
452 895 228 77 63 51 
452 895 229 77 63 51 
453 894 228 80 66 55 
453 894 229 80 65 54 
452 894 230 78 65 54 
452 894 231 71 58 49 
453 894 230 84 70 56 
453 894 231 70 58 47 
454 893 228 80 65 58 
454 893 229 80 66 58 
455 893 228 89 72 67 
455 893 229 83 67 62 
454 893 230 78 65 57 
454 893 231 78 65 56 
455 892 231 79 64 53 
455 893 230 81 66 57 
455 893 231 79 64 53 
454 894 228 82 67 60 
449 895 233 68 57 47 
449 895 234 65 55 45 
449 895 235 64 55 46 
450 895 232 71 60 50 
450 895 233 67 57 47 
451 894 232 70 59 49 
451 894 233 67 56 47 
450 895 234 66 56 47 
450 895 235 68 58 50 
451 894 234 70 60 51 
451 894 235 73 63 54 
449 895 236 69 59 51 
449 895 237 71 62 55 
450 895 236 68 58 50 
450 895 237 70 61 53 
451 894 236 70 59 50 
451 894 237 71 60 50 
451 895 237 70 60 50 
450 895 238 62 52 44 
450 895 239 55 45 37 
451 894 238 69 59 50 
451 895 238 64 54 45 
451 895 239 53 43 34 
453 893 232 73 61 50 
453 893 233 73 61 51 
452 893 235 76 65 55 
453 893 234 76 64 54 
453 893 235 78 66 56 
452 894 232 68 56 46 
452 894 233 69 58 49 
452 894 234 74 63 54 
452 894 235 75 64 54 
454 893 232 79 65 57 
454 893 233 78 64 55 
455 892 232 81 65 55 
455 892 233 79 64 53 
455 893 232 81 65 55 
455 893 233 80 66 56 
454 893 234 79 66 55 
454 893 235 82 70 59 
455 892 234 80 65 53 
455 892 235 85 73 62 
452 893 236 73 62 50 
453 893 236 71 60 48 
453 893 237 66 55 44 
453 893 238 62 54 46 
453 893 239 53 45 38 
452 894 236 70 59 47 
452 894 237 69 58 48 
453 894 237 65 54 43 
452 894 238 63 52 44 
452 894 239 53 43 34 
453 894 238 61 51 42 
453 894 239 52 44 35 
454 893 236 78 66 57 
454 893 237 68 57 49 
455 892 236 78 68 59 
455 892 237 65 56 49 
454 893 238 60 53 47 
454 893 239 48 43 39 
455 892 238 57 51 47 
455 892 239 47 43 40 
461 887 235 60 50 46 
463 885 235 65 53 51 
463 887 232 75 60 54 
463 887 233 72 59 54 
462 886 235 61 51 49 
462 887 234 73 59 54 
462 887 235 62 51 48 
463 886 234 79 62 58 
463 886 235 67 54 51 
463 887 234 51 45 42 
460 887 237 37 33 31 
461 887 236 45 40 38 
461 887 237 39 34 32 
460 886 239 36 34 33 
460 887 238 34 31 30 
460 887 239 35 32 31 
461 886 238 34 32 31 
461 886 239 35 33 32 
461 887 238 34 31 30 
462 885 237 36 32 31 
463 884 237 44 37 35 
463 885 236 49 42 40 
463 885 237 41 36 34 
462 885 238 38 35 32 
462 885 239 38 34 32 
463 884 238 39 34 32 
463 884 239 39 34 31 
463 885 238 38 34 32 
463 885 239 37 34 31 
462 886 236 52 43 41 
462 886 237 35 31 30 
462 887 236 42 37 35 
463 886 236 54 45 43 
462 886 238 38 34 33 
459 891 227 91 73 73 
457 891 230 81 65 58 
457 891 231 82 65 59 
458 891 228 85 71 67 
458 891 229 78 64 56 
459 891 228 88 73 68 
459 891 229 80 65 57 
458 891 230 78 63 56 
458 891 231 78 63 56 
459 890 231 78 63 57 
459 891 230 80 65 57 
459 891 231 79 64 57 
456 893 225 98 82 79 
456 893 226 98 79 76 
456 893 227 90 73 68 
457 892 226 87 72 70 
457 892 227 91 74 72 
457 893 227 90 74 72 
458 892 226 90 74 73 
458 892 227 88 72 71 
456 892 229 85 68 62 
456 893 228 92 75 70 
456 893 229 84 68 62 
457 892 228 92 75 73 
457 892 229 86 69 65 
456 892 230 82 66 57 
456 892 231 83 66 55 
457 892 230 84 67 61 
457 892 231 78 64 56 
458 892 228 89 73 71 
460 891 227 98 76 73 
461 890 227 101 71 65 
461 889 230 112 85 73 
461 889 231 106 80 64 
460 890 228 91 76 70 
460 890 229 90 70 58 
460 891 228 95 76 70 
460 891 229 83 67 59 
461 890 228 101 74 64 
461 890 229 104 78 68 
460 890 230 89 70 57 
460 890 231 83 66 57 
461 890 230 105 80 68 
461 890 231 111 84 65 
463 889 229 101 74 68 
462 888 231 104 75 68 
462 889 230 110 82 75 
462 889 231 103 77 68 
463 888 230 101 74 67 
463 888 231 84 65 59 
463 889 230 99 72 67 
462 890 228 107 79 74 
462 890 229 110 82 77 
457 891 232 80 56 54 
457 891 233 79 61 54 
457 891 234 78 67 56 
457 891 235 74 66 57 
458 891 232 78 62 55 
458 891 233 75 60 52 
459 890 232 77 61 56 
459 890 233 76 61 53 
459 891 232 79 62 54 
459 891 233 79 66 54 
458 891 234 73 64 54 
458 891 235 69 61 54 
459 890 234 73 62 52 
459 890 235 68 60 55 
459 891 234 73 63 54 
459 891 235 73 64 57 
457 891 236 70 62 55 
457 891 237 64 56 50 
456 891 238 52 49 47 
456 891 239 49 45 44 
457 890 239 51 46 43 
457 891 238 57 51 46 
457 891 239 50 45 42 
459 889 237 50 45 43 
458 889 239 38 34 32 
459 888 238 31 29 27 
459 888 239 33 31 29 
459 889 238 39 36 34 
459 889 239 36 33 31 
458 890 237 58 53 48 
458 891 236 66 59 54 
458 891 237 61 55 49 
459 890 236 66 59 55 
459 890 237 58 53 50 
459 891 236 69 61 54 
458 890 238 49 45 43 
458 890 239 45 41 39 
458 891 238 57 51 46 
459 890 238 45 41 39 
456 892 232 81 65 53 
456 892 233 78 53 50 
457 892 232 77 58 53 
457 892 233 81 57 54 
456 892 234 83 63 57 
456 892 235 82 71 61 
457 892 234 82 66 57 
457 892 235 76 67 57 
456 892 236 74 65 57 
456 892 237 63 57 51 
457 892 236 73 65 57 
457 892 237 64 57 51 
456 892 238 56 51 48 
456 892 239 48 43 42 
460 889 232 95 73 53 
460 889 233 84 66 52 
461 888 233 81 62 55 
461 889 232 94 71 56 
461 889 233 82 62 53 
460 889 234 64 54 48 
460 889 235 61 56 54 
461 888 234 75 61 56 
461 888 235 63 55 52 
461 889 234 69 56 51 
461 889 235 67 57 54 
460 890 232 79 63 55 
460 890 233 78 63 50 
460 890 234 69 58 49 
460 890 235 65 59 55 
462 888 232 83 64 58 
462 888 233 90 68 61 
462 889 232 102 74 66 
463 888 232 75 59 53 
462 888 234 81 63 58 
460 888 236 51 46 44 
460 888 237 41 37 34 
460 889 236 56 52 50 
460 889 237 48 44 42 
461 888 236 50 44 42 
460 888 238 33 30 28 
460 890 236 65 60 57 
450 895 240 52 42 36 
450 895 241 52 42 38 
451 895 240 51 41 35 
451 895 241 51 44 38 
450 895 242 52 44 39 
451 895 242 51 44 38 
451 895 243 48 42 37 
451 895 244 43 36 34 
453 893 240 48 41 34 
453 893 241 48 42 38 
453 893 242 45 40 38 
453 893 243 40 36 35 
452 894 240 49 41 33 
452 894 241 50 43 36 
453 894 240 49 41 33 
453 894 241 49 42 36 
452 894 242 51 44 38 
452 894 243 46 39 37 
453 894 242 49 42 39 
453 894 243 42 37 35 
454 892 241 40 38 37 
454 893 240 40 35 32 
454 893 241 40 37 35 
455 892 240 39 36 35 
455 892 241 37 35 35 
454 892 242 39 36 35 
454 892 243 36 34 33 
454 893 242 40 37 37 
454 893 243 38 36 35 
455 892 242 36 34 34 
455 892 243 36 34 34 
453 893 244 37 35 34 
453 893 245 35 33 32 
452 894 244 39 34 32 
452 894 245 35 32 31 
452 895 244 40 35 33 
452 895 245 34 31 31 
453 894 244 36 33 31 
453 894 245 34 32 31 
453 895 245 33 31 31 
453 894 246 34 33 33 
453 895 246 33 32 31 
453 895 247 35 33 33 
454 892 244 37 35 34 
454 893 244 37 35 34 
454 893 245 35 33 32 
455 892 244 36 34 34 
455 892 245 35 34 33 
455 893 245 34 32 31 
455 893 246 35 30 30 
454 894 245 34 32 31 
454 894 246 34 32 31 
454 895 246 33 31 30 
454 895 247 34 32 31 
455 894 246 34 29 30 
455 894 247 35 29 30 
455 895 247 36 34 33 
460 886 240 33 32 31 
460 886 241 34 32 31 
460 887 240 32 31 31 
460 887 241 36 35 34 
461 886 240 33 31 30 
461 886 241 36 34 33 
460 887 242 42 40 40 
461 887 242 43 40 40 
461 887 243 43 40 38 
462 885 240 35 32 30 
462 885 241 37 34 33 
463 884 240 37 33 32 
463 884 241 36 35 36 
463 885 240 36 33 30 
463 885 241 36 34 34 
462 885 242 41 39 39 
463 884 242 43 41 40 
463 885 242 42 40 40 
463 885 243 45 42 42 
462 886 241 40 38 37 
462 886 242 43 41 40 
462 886 243 44 41 39 
462 887 243 43 40 38 
463 886 243 47 43 42 
461 887 244 40 36 35 
461 887 245 37 33 33 
463 885 244 43 39 38 
462 886 244 42 39 38 
462 887 244 41 37 35 
462 887 245 38 35 33 
463 886 244 42 39 38 
463 886 245 39 35 33 
463 887 245 40 36 34 
462 887 246 39 35 33 
463 886 246 36 32 30 
463 887 246 37 33 31 
463 887 247 36 32 30 
456 891 240 40 38 38 
456 891 241 38 36 37 
457 890 240 47 42 39 
457 890 241 43 39 36 
457 891 240 43 40 39 
457 891 241 39 37 36 
456 891 242 39 37 37 
456 891 243 36 35 36 
457 890 242 39 37 36 
457 890 243 37 35 35 
457 891 242 37 36 36 
457 891 243 34 34 34 
458 889 240 41 38 36 
458 889 241 44 42 41 
459 888 240 37 35 35 
459 888 241 41 40 40 
459 889 240 40 37 35 
459 889 241 43 41 40 
458 889 242 43 40 40 
458 889 243 37 36 36 
459 888 242 43 41 41 
459 889 242 41 39 39 
459 889 243 37 36 35 
458 890 240 45 41 39 
458 890 242 41 39 39 
458 890 243 35 33 33 
456 891 244 34 32 34 
457 891 244 34 32 33 
457 891 245 37 33 34 
459 889 244 37 28 34 
458 890 244 35 31 32 
458 890 245 36 33 33 
458 891 245 36 34 33 
459 890 244 37 32 34 
459 890 245 37 31 34 
458 891 246 35 33 34 
459 890 246 34 32 34 
459 891 246 36 35 34 
459 891 247 36 35 36 
456 892 240 42 38 38 
456 892 244 35 33 34 
456 892 245 36 32 32 
456 893 245 37 31 32 
457 892 245 36 31 32 
456 893 246 37 31 32 
457 892 246 36 33 33 
457 893 246 35 32 31 
457 893 247 36 33 32 
456 894 246 34 29 30 
456 894 247 35 33 32 
456 895 247 36 34 34 
457 894 247 36 34 33 
457 895 247 36 35 34 
458 892 246 33 32 33 
458 892 247 34 32 33 
458 893 247 35 33 33 
460 888 241 42 40 40 
460 888 242 44 42 41 
460 888 243 41 38 38 
460 889 243 39 34 36 
460 888 244 41 35 37 
460 888 245 39 34 36 
460 889 244 39 31 35 
460 889 245 37 29 34 
461 888 244 39 36 35 
461 888 245 38 34 34 
460 889 246 35 30 34 
461 888 246 36 33 33 
461 889 246 35 31 33 
461 889 247 34 32 33 
460 890 245 39 31 37 
460 890 246 36 32 36 
460 890 247 35 33 35 
460 891 247 38 36 37 
461 890 247 35 34 35 
462 888 246 37 34 33 
462 888 247 37 34 33 
462 889 247 34 32 31 
463 888 247 37 34 32 
463 889 247 35 32 31 
462 890 247 34 33 34 
463 891 247 36 35 36 
463 892 247 38 37 37 
463 893 247 42 39 39 
463 894 246 42 39 38 
463 894 247 42 39 39 
459 891 248 35 33 34 
456 895 248 38 36 36 
457 894 248 34 32 32 
457 895 248 34 32 31 
458 892 248 33 32 31 
458 893 248 36 34 35 
459 892 248 34 32 32 
459 893 248 37 35 36 
458 894 248 36 35 35 
458 895 248 33 32 31 
459 894 248 37 36 36 
460 891 248 35 33 34 
461 890 248 34 32 34 
461 891 248 35 34 35 
463 889 248 35 33 33 
462 890 248 35 33 35 
462 891 248 35 34 35 
463 890 248 35 33 34 
463 891 248 36 34 35 
460 892 248 34 32 33 
461 892 248 35 34 34 
462 892 248 35 34 35 
462 893 248 40 39 40 
463 893 248 43 41 40 
471 867 230 61 52 46 
470 869 227 74 61 55 
471 868 227 78 63 57 
471 869 226 97 69 70 
471 869 227 75 61 56 
471 870 225 94 64 64 
471 871 225 88 59 54 
470 870 227 73 62 55 
470 871 226 77 65 58 
470 871 227 76 65 58 
471 870 226 87 64 60 
471 870 227 76 63 57 
471 871 226 95 66 61 
469 869 229 63 54 46 
469 869 230 60 52 44 
469 870 228 71 62 56 
469 870 229 65 56 50 
469 871 228 71 62 56 
469 871 229 61 53 47 
469 870 230 59 51 44 
469 871 230 58 50 43 
470 868 229 68 58 51 
470 869 228 69 58 52 
470 869 229 69 59 52 
471 868 228 75 62 54 
471 868 229 69 59 50 
470 868 230 64 55 46 
470 869 230 60 52 44 
470 869 231 50 43 37 
471 868 230 60 51 44 
471 868 231 47 40 35 
471 869 231 48 42 37 
470 870 228 71 60 54 
470 871 228 72 62 56 
470 870 231 50 44 39 
470 871 230 55 47 40 
470 871 231 48 43 39 
470 869 232 41 36 33 
471 868 232 37 31 30 
471 868 233 39 34 33 
471 869 232 38 32 31 
471 869 233 40 36 36 
471 868 234 40 36 33 
471 868 235 37 33 30 
471 869 234 42 37 34 
471 869 235 38 33 30 
470 870 232 41 36 34 
470 870 233 36 32 34 
470 871 232 40 35 33 
470 871 233 37 33 32 
470 870 234 41 37 36 
470 870 235 40 35 32 
470 871 234 40 35 34 
470 871 235 39 34 31 
471 870 234 43 38 35 
471 870 235 41 37 33 
471 868 236 37 33 30 
471 868 237 38 34 32 
471 869 236 36 33 30 
471 869 237 37 34 32 
471 869 238 38 33 29 
471 869 239 41 34 29 
470 870 236 39 35 31 
470 870 237 38 33 32 
470 871 236 38 34 31 
470 871 237 39 34 32 
471 870 236 39 35 32 
471 870 237 36 34 33 
470 870 238 37 33 31 
470 871 238 38 33 30 
470 871 239 40 35 31 
471 870 238 38 33 30 
471 870 239 41 35 31 
471 871 239 40 34 30 
470 873 225 83 60 55 
471 872 224 86 61 56 
471 872 225 88 62 58 
471 873 224 84 62 56 
471 873 225 85 62 57 
470 872 226 91 65 61 
470 872 227 81 64 56 
470 873 226 84 62 57 
470 873 227 77 61 56 
471 872 226 91 62 57 
470 874 225 81 61 56 
470 875 224 83 60 59 
470 875 225 78 59 54 
471 874 224 83 62 57 
471 874 225 82 61 56 
471 875 224 82 60 56 
470 874 226 80 60 56 
470 874 227 70 55 51 
470 875 226 69 56 50 
470 875 227 65 51 48 
470 872 228 66 57 50 
470 872 229 59 51 44 
470 873 228 59 51 46 
470 873 229 56 48 42 
470 872 230 53 45 38 
470 872 231 45 40 36 
470 873 230 53 45 38 
470 873 231 44 39 35 
470 874 228 52 45 41 
470 874 229 52 45 40 
470 875 228 49 43 38 
470 875 229 51 45 40 
470 874 230 53 45 39 
470 874 231 41 36 31 
470 875 230 53 45 41 
470 875 231 42 36 34 
470 876 224 89 66 66 
470 876 225 84 63 63 
470 877 224 83 66 60 
470 877 225 82 65 61 
471 876 224 89 66 66 
470 876 226 73 57 54 
470 876 227 61 46 43 
470 877 226 77 60 57 
470 877 227 57 46 41 
470 878 224 81 69 59 
470 878 225 79 65 58 
470 879 224 83 70 61 
470 879 225 78 65 59 
470 878 226 70 58 51 
470 878 227 49 41 34 
470 879 226 60 51 42 
470 879 227 49 40 34 
469 877 231 39 34 36 
469 878 231 45 37 39 
469 879 230 44 37 36 
469 879 231 46 38 39 
470 876 228 45 38 34 
470 876 229 48 41 37 
470 877 228 47 40 35 
470 877 229 48 42 37 
470 876 230 49 39 40 
470 876 231 41 34 35 
470 877 230 48 38 39 
470 877 231 43 34 38 
470 878 228 45 39 33 
470 878 229 50 43 38 
470 879 228 54 44 41 
470 879 229 54 44 42 
470 878 230 51 41 40 
470 878 231 40 34 35 
470 879 230 51 42 40 
467 879 236 41 35 31 
467 879 237 40 36 35 
467 879 238 39 37 36 
467 879 239 38 36 35 
469 873 233 41 36 33 
469 873 234 39 35 33 
469 873 235 38 33 33 
469 874 233 43 38 35 
469 875 233 42 36 37 
469 874 234 39 34 33 
469 874 235 37 32 33 
469 875 234 39 35 35 
469 875 235 40 36 36 
470 872 232 39 35 32 
470 872 233 38 34 31 
470 873 232 39 35 31 
470 873 233 39 35 32 
470 872 234 40 35 33 
470 872 235 40 35 34 
470 873 234 41 36 33 
470 874 232 42 37 33 
470 874 233 42 38 34 
470 875 232 41 35 35 
469 872 236 42 38 36 
469 873 236 40 36 36 
469 873 237 41 38 36 
469 873 238 42 39 38 
469 873 239 40 35 31 
469 874 236 36 33 33 
469 874 237 39 36 35 
469 875 236 38 35 35 
469 875 237 38 36 35 
469 874 238 39 37 36 
469 874 239 39 35 32 
469 875 238 38 36 36 
469 875 239 39 37 36 
470 872 236 40 36 34 
470 872 237 39 36 34 
470 872 238 39 35 33 
470 872 239 39 34 31 
469 876 232 41 35 38 
469 876 233 44 37 39 
469 877 232 45 37 41 
469 877 233 45 37 40 
468 877 235 38 33 32 
469 876 234 41 36 36 
469 876 235 39 35 34 
469 877 234 40 35 36 
469 877 235 39 35 33 
468 879 233 45 40 40 
469 878 232 46 38 41 
469 878 233 43 37 39 
469 879 232 46 39 40 
469 879 233 44 38 39 
468 878 234 40 35 35 
468 878 235 40 35 33 
468 879 234 42 37 37 
468 879 235 41 36 34 
469 878 234 40 35 37 
470 876 232 40 34 36 
468 876 236 35 32 32 
468 876 237 39 36 36 
468 877 236 38 35 34 
468 877 237 39 36 36 
469 876 236 35 32 33 
469 876 237 39 36 36 
468 876 238 39 37 36 
468 876 239 38 36 36 
468 877 238 39 37 36 
468 877 239 38 36 36 
468 878 236 39 35 33 
468 878 237 38 35 35 
468 879 236 41 36 32 
468 879 237 40 36 35 
468 878 238 38 36 35 
468 878 239 37 36 36 
473 867 227 83 62 66 
474 867 226 87 68 60 
474 867 227 84 64 61 
472 867 228 81 65 62 
472 867 229 74 62 55 
473 866 228 81 64 64 
473 866 229 73 60 57 
473 867 228 82 64 65 
472 867 230 61 51 45 
472 867 231 46 38 34 
473 866 230 57 45 42 
473 866 231 44 33 30 
473 869 225 87 60 63 
472 868 227 85 64 65 
472 869 226 85 61 64 
472 869 227 88 66 68 
473 868 226 89 63 70 
473 868 227 87 64 70 
473 869 226 89 61 68 
472 870 224 86 57 59 
472 870 225 86 58 61 
472 871 224 84 58 55 
472 871 225 85 57 55 
473 870 224 87 60 60 
473 870 225 87 59 62 
474 868 225 88 66 60 
474 869 224 89 66 58 
474 869 225 90 65 62 
475 868 224 96 69 65 
475 868 225 89 68 58 
475 869 224 96 70 63 
474 868 226 88 65 63 
474 870 224 90 65 60 
472 868 228 77 63 57 
472 867 232 41 34 32 
472 867 233 42 37 36 
473 866 232 41 34 35 
473 866 233 41 37 38 
472 866 234 37 35 33 
472 866 235 34 32 30 
472 867 234 39 35 33 
472 867 235 33 30 28 
473 866 234 38 35 34 
473 866 235 33 31 29 
473 865 237 39 33 31 
473 865 238 41 34 31 
473 865 239 40 36 33 
472 867 236 36 32 30 
472 867 237 40 35 31 
473 866 236 37 33 30 
473 866 237 41 36 31 
472 867 238 41 35 29 
472 867 239 42 36 30 
473 866 238 42 35 29 
473 866 239 39 35 32 
473 867 238 42 35 29 
473 867 239 42 36 31 
472 868 232 38 31 30 
472 868 233 38 32 32 
472 868 234 37 34 31 
472 868 235 36 32 30 
472 868 236 37 34 32 
472 868 237 39 34 31 
472 868 238 39 33 28 
472 868 239 41 35 29 
472 869 238 40 34 28 
472 869 239 42 35 29 
472 872 224 86 61 56 
471 869 240 44 37 31 
471 870 240 44 37 33 
471 870 241 44 38 34 
471 871 240 42 36 34 
471 871 241 45 38 36 
467 879 240 37 35 35 
467 879 241 40 36 34 
469 873 240 43 36 31 
469 874 240 42 35 31 
469 874 241 44 36 32 
469 875 240 40 36 33 
469 875 241 41 33 29 
469 874 242 43 37 34 
469 875 242 42 35 33 
470 872 240 41 34 33 
470 872 241 44 37 35 
470 873 240 42 35 32 
470 873 241 44 36 33 
471 872 241 46 39 37 
470 873 242 42 35 33 
471 872 242 43 37 34 
471 872 243 40 35 30 
471 873 242 41 35 32 
471 873 243 40 35 30 
470 874 241 45 38 35 
470 874 242 41 35 33 
470 874 243 40 34 31 
470 875 242 42 36 35 
470 875 243 41 34 33 
471 874 243 40 35 31 
471 873 244 40 36 32 
470 875 244 39 34 31 
471 874 244 40 35 33 
471 875 244 41 35 34 
471 875 245 41 36 35 
468 876 240 39 36 33 
468 876 241 39 34 30 
468 877 240 38 35 34 
468 877 241 39 35 32 
469 876 240 40 36 32 
469 876 241 40 33 29 
468 877 242 41 36 33 
469 876 242 42 36 33 
469 876 243 41 36 35 
469 877 242 41 35 33 
469 877 243 39 35 34 
468 878 240 37 34 34 
468 878 241 40 36 33 
468 879 241 40 36 34 
468 878 242 41 36 34 
468 878 243 40 37 36 
468 879 242 40 36 33 
468 879 243 41 38 36 
469 878 243 39 37 35 
469 876 244 39 34 34 
469 877 244 39 34 35 
469 877 245 39 33 35 
468 878 244 39 37 36 
468 879 244 39 37 37 
468 879 245 38 35 37 
469 878 244 39 35 36 
469 878 245 40 35 36 
469 879 245 39 35 37 
469 879 246 39 35 35 
470 876 244 40 34 34 
470 876 245 40 34 34 
470 877 245 39 34 34 
471 876 245 41 36 36 
471 877 245 40 35 35 
471 876 246 41 37 37 
471 877 246 40 36 35 
470 878 245 39 35 35 
470 878 246 40 36 35 
470 879 246 38 35 34 
471 878 246 40 36 36 
471 879 246 39 34 34 
471 879 247 39 35 36 
473 866 240 41 37 34 
473 867 240 41 37 33 
473 867 241 40 35 31 
474 866 240 42 37 35 
474 866 241 40 35 31 
474 867 241 40 35 31 
474 867 242 43 37 33 
475 866 242 42 36 33 
475 867 242 42 37 34 
475 867 243 42 37 34 
472 868 240 42 37 32 
472 868 241 42 37 33 
472 869 240 44 38 32 
472 869 241 43 38 34 
473 868 240 42 37 33 
473 868 241 42 38 35 
473 869 241 40 36 34 
473 868 242 42 38 35 
473 869 242 41 37 34 
472 870 241 43 38 34 
472 871 241 42 37 35 
472 870 242 42 37 36 
472 871 242 43 37 35 
472 871 243 42 38 37 
473 870 242 41 37 35 
473 870 243 41 37 35 
473 871 243 43 38 37 
474 868 242 43 38 35 
474 869 242 42 38 34 
474 869 243 42 38 36 
475 868 242 43 38 34 
475 868 243 43 39 36 
475 869 243 43 39 37 
474 870 243 40 37 35 
473 871 244 42 37 37 
475 869 244 44 40 39 
474 870 244 40 38 36 
474 871 244 42 37 38 
475 870 244 45 41 40 
475 871 244 43 38 38 
475 871 245 46 41 39 
476 867 243 42 37 34 
476 868 243 44 39 37 
477 868 243 46 41 37 
476 869 244 47 41 38 
477 868 244 49 43 39 
477 869 244 52 44 40 
476 870 244 51 45 41 
476 870 245 53 46 41 
476 871 245 53 45 40 
477 870 244 53 46 41 
477 870 245 54 46 41 
477 871 245 56 47 41 
478 869 244 56 47 42 
479 869 244 61 51 44 
478 870 244 60 50 45 
478 870 245 58 48 43 
478 871 245 62 50 44 
479 870 244 64 52 45 
479 870 245 63 51 45 
479 871 245 68 55 46 
472 872 242 43 36 34 
472 872 243 42 36 34 
473 872 243 43 37 36 
472 872 244 42 38 37 
472 873 244 41 37 35 
473 872 244 41 37 37 
473 873 244 41 37 38 
473 873 245 44 39 40 
472 874 244 41 37 35 
472 874 245 41 37 37 
472 875 245 41 36 36 
473 874 245 43 39 39 
473 875 245 42 38 39 
473 875 246 43 38 38 
474 872 244 43 37 38 
474 872 245 45 40 40 
474 873 245 45 40 40 
475 872 245 48 42 40 
475 873 245 46 40 39 
475 872 246 51 45 40 
475 873 246 47 41 38 
474 874 245 44 39 38 
474 874 246 43 37 36 
474 875 246 44 38 37 
475 874 246 46 40 37 
475 875 246 45 39 37 
475 875 247 49 42 38 
472 876 245 41 37 37 
472 876 246 41 37 37 
472 877 246 40 36 36 
473 876 246 41 38 37 
473 877 246 41 37 37 
472 878 246 41 37 37 
472 879 247 40 36 36 
473 878 246 41 37 37 
473 878 247 40 36 36 
473 879 247 40 36 36 
474 876 246 42 36 34 
474 877 246 40 35 34 
474 877 247 41 36 34 
475 876 246 43 37 34 
475 876 247 44 39 35 
475 877 247 45 39 35 
474 878 247 40 35 33 
474 879 247 41 37 34 
475 878 247 45 39 34 
475 879 247 45 39 35 
476 872 245 53 45 40 
477 872 245 57 47 43 
476 872 246 53 45 39 
476 873 246 53 46 41 
477 872 246 57 48 43 
477 873 246 58 49 42 
476 874 246 53 46 41 
476 874 247 53 45 40 
476 875 247 52 45 39 
477 874 247 59 50 43 
477 875 247 60 51 42 
478 872 245 62 51 45 
479 872 245 69 56 46 
478 872 246 63 52 45 
478 873 246 67 56 47 
479 872 246 70 57 46 
479 873 246 73 60 49 
478 874 247 70 59 48 
478 875 247 71 61 50 
479 874 246 76 63 50 
479 874 247 77 64 51 
479 875 247 75 63 51 
476 876 247 53 45 39 
476 877 247 53 44 38 
477 876 247 62 52 43 
478 876 247 71 60 50 
475 879 248 45 38 32 
476 877 248 56 47 39 
477 876 248 65 54 45 
477 877 248 62 52 44 
476 878 248 54 45 38 
476 879 248 54 45 38 
477 878 248 61 52 43 
477 879 248 61 52 44 
478 876 248 69 58 48 
478 877 248 66 56 46 
479 876 248 70 58 47 
479 877 248 68 57 47 
478 878 248 64 54 45 
478 879 248 63 53 45 
479 878 248 68 58 48 
479 879 248 70 59 49 
467 883 231 66 53 51 
464 887 230 98 72 64 
464 887 231 98 73 67 
465 886 231 94 72 65 
465 887 230 97 71 61 
465 887 231 99 75 68 
466 885 231 78 60 58 
467 884 231 77 61 59 
467 885 230 85 65 59 
467 885 231 88 68 64 
466 887 229 97 73 62 
467 887 229 97 74 66 
466 886 230 94 71 64 
466 886 231 87 66 60 
466 887 230 98 73 64 
466 887 231 99 74 66 
467 886 230 88 68 62 
467 887 230 97 74 66 
469 880 225 71 60 54 
469 880 226 60 51 43 
469 880 227 61 47 48 
469 881 227 62 48 48 
469 882 227 63 50 49 
469 883 227 69 56 55 
470 880 224 82 69 59 
470 880 225 76 64 57 
470 881 224 84 69 58 
470 881 225 66 58 51 
470 880 226 55 47 39 
470 880 227 57 46 43 
470 881 226 53 45 38 
470 881 227 62 50 47 
470 882 224 84 68 58 
470 882 225 57 50 44 
470 883 224 64 55 47 
470 883 225 66 54 48 
470 882 226 48 41 37 
470 882 227 54 44 41 
470 883 226 49 43 39 
470 883 227 54 46 44 
469 880 228 59 48 48 
469 880 229 43 37 36 
469 881 228 49 40 41 
469 881 229 46 38 37 
468 881 231 53 44 43 
469 880 230 45 37 37 
469 880 231 49 41 41 
469 881 230 54 43 44 
469 881 231 51 42 42 
469 882 228 50 40 42 
469 882 229 57 45 45 
469 883 228 65 52 50 
469 883 229 66 53 50 
468 882 230 56 46 45 
468 882 231 58 48 47 
468 883 230 67 54 51 
468 883 231 66 53 51 
469 882 230 57 45 45 
469 883 230 61 49 47 
470 880 228 59 48 46 
470 880 229 55 44 43 
469 884 227 73 60 57 
469 885 227 83 67 62 
470 884 226 80 63 56 
470 884 227 54 47 44 
468 884 229 81 63 57 
468 885 229 84 65 59 
469 884 228 74 60 56 
469 884 229 73 58 54 
469 885 228 94 73 68 
469 885 229 85 67 61 
468 884 230 71 56 52 
468 885 230 85 65 59 
468 886 229 99 75 67 
468 886 230 91 71 64 
465 883 234 66 55 54 
465 883 235 62 52 50 
466 881 235 46 40 38 
467 880 234 45 39 37 
467 880 235 44 38 36 
467 881 234 52 44 43 
467 881 235 46 40 38 
466 883 233 67 55 55 
467 882 233 58 49 49 
467 883 232 72 58 57 
467 883 233 63 52 53 
466 882 234 57 48 48 
466 882 235 53 45 45 
466 883 234 65 54 54 
466 883 235 61 52 52 
467 882 234 56 47 47 
464 883 237 48 40 38 
465 882 237 47 41 36 
465 883 236 54 47 44 
465 883 237 47 41 38 
464 883 238 40 35 31 
464 883 239 39 34 32 
465 882 238 42 36 31 
465 882 239 37 34 32 
465 883 238 45 39 35 
466 881 236 45 38 35 
466 881 237 43 36 31 
467 880 236 43 37 33 
467 880 237 41 35 32 
467 881 236 45 38 35 
466 880 238 40 36 36 
466 880 239 39 37 37 
466 881 238 40 36 33 
466 881 239 37 35 35 
467 880 238 40 36 36 
467 880 239 39 37 37 
466 882 236 49 42 39 
466 882 237 46 39 34 
466 882 238 43 36 30 
465 885 232 89 69 67 
465 885 233 92 71 70 
464 884 235 80 63 64 
464 885 234 81 64 63 
464 885 235 67 54 54 
465 884 234 74 60 58 
465 884 235 64 52 52 
465 885 234 87 69 66 
464 886 232 92 72 67 
464 886 233 84 66 62 
464 887 232 100 76 69 
464 887 233 74 59 55 
465 886 232 99 77 72 
465 886 233 98 76 73 
464 886 234 80 64 60 
466 884 232 73 59 56 
466 884 233 77 62 60 
466 885 232 82 64 62 
466 885 233 84 67 67 
467 884 232 76 61 59 
466 884 234 68 56 55 
464 884 236 53 44 43 
464 884 237 45 37 36 
464 885 236 64 51 51 
464 884 238 40 35 32 
468 880 232 50 43 42 
468 880 233 49 43 42 
468 881 232 55 46 46 
468 881 233 55 47 46 
469 880 232 50 43 43 
468 880 234 47 41 40 
468 880 235 44 38 36 
468 881 234 50 43 42 
468 882 232 60 50 50 
468 882 233 56 48 48 
468 883 232 61 50 49 
464 888 229 96 73 65 
464 889 229 97 72 65 
465 888 229 94 73 61 
464 888 230 98 72 65 
464 888 231 99 73 65 
464 889 230 96 71 66 
465 888 230 95 71 59 
464 883 240 37 31 37 
464 883 241 36 33 37 
465 882 240 36 33 35 
465 882 241 37 34 38 
465 883 240 36 31 39 
465 883 241 36 33 37 
464 883 242 40 38 39 
464 883 243 41 39 39 
465 882 242 38 37 38 
465 883 242 40 38 39 
465 883 243 41 39 39 
466 880 240 37 35 36 
466 881 240 36 33 33 
466 881 241 37 35 34 
467 880 240 37 35 34 
467 880 241 37 35 34 
466 881 242 40 38 38 
466 881 243 40 37 37 
467 880 242 39 36 35 
467 880 243 41 36 37 
467 881 242 39 36 36 
467 881 243 40 35 37 
466 882 240 35 34 33 
466 882 241 38 35 35 
466 882 242 40 38 39 
466 882 243 40 38 39 
465 883 244 40 37 37 
465 883 245 38 35 34 
467 880 244 39 35 37 
467 880 245 39 35 37 
467 881 244 39 34 36 
467 881 245 39 35 36 
466 882 244 39 37 37 
466 882 245 39 37 36 
466 883 244 40 38 37 
466 883 245 38 35 34 
467 882 245 40 36 36 
466 883 246 36 33 32 
467 882 246 38 35 34 
467 883 246 38 35 34 
467 883 247 37 34 33 
464 884 241 38 37 38 
464 884 242 42 40 40 
464 884 243 43 41 40 
464 884 244 42 39 38 
464 884 245 41 37 36 
464 885 244 43 39 38 
464 885 245 39 35 33 
465 884 245 40 36 35 
464 885 246 37 33 30 
465 884 246 38 35 34 
465 885 246 37 33 31 
465 885 247 37 34 32 
464 886 245 37 33 30 
464 886 246 36 32 30 
464 886 247 35 32 30 
464 887 247 37 33 32 
465 886 247 36 33 31 
465 887 247 38 34 32 
466 884 246 38 35 33 
466 884 247 37 34 32 
466 885 247 36 33 32 
467 884 247 36 33 32 
467 885 247 35 32 32 
466 886 247 35 32 31 
468 880 243 40 37 35 
468 880 244 39 37 37 
468 880 245 39 36 37 
468 881 245 40 36 37 
468 880 246 40 37 36 
468 881 246 38 35 34 
469 880 246 39 36 35 
469 880 247 38 35 33 
469 881 247 39 36 34 
468 882 246 37 34 33 
468 882 247 37 34 31 
468 883 247 37 34 32 
469 882 247 39 35 32 
469 883 247 38 34 32 
470 880 246 38 35 34 
470 880 247 39 36 34 
470 881 247 40 36 34 
471 880 247 40 37 36 
471 881 247 40 37 36 
470 882 247 40 36 33 
470 883 247 39 34 32 
471 882 247 42 37 35 
471 883 247 41 36 33 
468 884 247 36 33 33 
470 884 247 40 35 33 
470 885 247 39 34 34 
471 884 247 42 37 35 
471 885 247 43 37 36 
470 887 247 41 36 37 
471 886 247 43 38 37 
471 887 247 46 41 40 
465 887 248 38 34 31 
467 885 248 34 32 32 
466 886 248 35 32 31 
466 887 248 37 33 32 
467 886 248 33 31 31 
467 887 248 36 33 33 
468 884 248 37 34 33 
468 885 248 35 33 34 
469 884 248 38 34 34 
469 885 248 37 34 34 
468 886 248 36 34 35 
468 887 248 36 34 35 
469 886 248 39 35 37 
469 887 248 39 35 36 
470 884 248 39 34 33 
470 885 248 38 34 35 
470 886 248 40 35 37 
470 887 248 40 35 37 
464 888 247 35 32 31 
464 891 247 37 36 36 
465 891 247 37 35 35 
466 891 247 39 35 32 
467 890 247 42 37 31 
467 891 247 42 37 31 
464 892 247 38 37 37 
464 893 247 40 38 38 
465 892 247 38 36 35 
465 893 247 38 36 35 
464 894 246 41 39 38 
464 894 247 37 36 37 
465 894 247 36 35 36 
466 892 247 40 35 31 
466 893 247 40 34 30 
467 892 247 43 36 29 
467 893 247 41 33 27 
468 889 247 41 36 35 
469 888 247 41 36 36 
469 889 247 42 37 36 
468 890 247 43 38 34 
468 891 247 44 38 33 
469 890 247 44 37 35 
469 891 247 48 40 34 
470 888 247 43 37 37 
470 889 247 44 38 38 
471 888 247 47 42 40 
471 889 247 50 44 41 
470 890 247 47 41 38 
470 891 247 52 44 39 
471 890 247 52 46 43 
468 892 247 47 40 34 
464 888 248 36 33 31 
464 889 248 36 34 34 
465 888 248 36 33 32 
465 889 248 37 35 35 
464 890 248 34 34 35 
464 891 248 36 35 35 
465 890 248 35 35 36 
466 888 248 37 33 33 
466 889 248 37 34 34 
467 888 248 38 34 34 
467 889 248 40 35 34 
466 890 248 39 36 34 
467 890 248 42 37 34 
468 888 248 39 36 36 
468 889 248 41 36 35 
469 888 248 40 36 36 
468 890 248 41 36 34 
472 880 247 41 37 36 
472 881 247 41 37 36 
473 880 247 41 37 35 
473 881 247 41 37 35 
472 882 247 43 39 36 
472 883 247 43 38 35 
473 882 247 45 40 37 
473 883 246 46 40 37 
473 883 247 45 40 37 
474 880 247 42 38 34 
474 881 247 43 38 35 
475 880 247 47 39 34 
475 881 247 50 41 37 
474 882 246 46 40 37 
474 882 247 45 39 37 
474 883 246 49 41 38 
475 882 247 51 43 39 
475 883 246 53 45 40 
475 883 247 56 47 41 
472 884 247 47 41 37 
472 885 247 53 46 41 
473 884 246 49 43 38 
473 885 246 53 46 41 
472 886 247 53 46 40 
472 887 246 54 46 40 
472 887 247 51 45 41 
473 886 246 53 46 40 
473 887 246 55 47 40 
474 884 246 51 42 38 
474 885 246 53 44 40 
475 884 246 54 45 38 
475 885 246 56 48 40 
474 886 246 55 47 41 
474 887 246 57 49 41 
475 886 246 60 51 44 
475 887 246 66 57 49 
476 880 247 55 45 38 
476 881 247 59 49 43 
477 881 247 63 53 46 
476 882 247 62 52 46 
476 883 246 62 53 46 
476 883 247 65 55 48 
477 882 247 68 58 50 
477 883 246 72 63 55 
477 883 247 70 61 52 
478 882 247 73 64 56 
478 883 246 75 66 58 
478 883 247 75 67 60 
479 882 247 81 74 68 
479 883 247 84 78 72 
476 885 245 65 57 49 
477 885 245 73 64 56 
476 884 246 62 53 45 
476 885 246 63 54 46 
477 884 246 73 63 55 
477 885 246 68 59 51 
476 886 245 67 58 51 
477 886 245 74 66 59 
476 887 246 78 69 62 
478 885 245 80 70 62 
478 884 246 78 69 61 
478 885 246 80 70 63 
479 884 246 86 79 72 
479 885 246 87 79 71 
475 880 248 48 39 31 
476 880 248 56 46 39 
477 880 248 63 53 45 
477 881 248 66 56 49 
478 880 248 66 57 49 
478 881 248 71 62 55 
479 880 248 75 65 57 
479 881 248 79 71 64 
478 882 248 74 66 59 
479 882 248 81 74 69 
472 888 246 53 46 41 
472 888 247 50 45 43 
472 889 246 54 47 42 
473 888 246 57 49 42 
474 888 246 63 55 48 
480 872 219 99 77 66 
480 873 219 100 81 70 
481 873 219 100 78 71 
480 874 219 102 82 72 
480 875 219 102 81 73 
481 874 219 101 79 73 
482 874 219 99 76 71 
480 870 244 67 53 44 
480 871 244 70 57 46 
480 871 245 71 58 46 
481 871 244 72 59 47 
482 871 244 77 64 52 
480 872 245 72 58 47 
481 872 244 74 61 50 
481 872 245 76 63 52 
481 873 245 80 68 58 
480 873 246 76 63 52 
481 873 246 79 67 57 
480 874 246 78 66 55 
480 874 247 78 65 55 
480 875 247 75 63 53 
481 874 246 80 68 59 
481 874 247 79 67 58 
481 875 247 77 65 56 
482 872 244 80 67 56 
482 872 245 82 69 60 
482 873 245 82 71 63 
483 872 244 85 72 61 
483 872 245 86 74 64 
483 873 245 86 74 67 
482 873 246 81 70 62 
483 873 246 85 73 67 
482 874 246 80 68 61 
482 874 247 79 67 59 
482 875 247 78 67 58 
483 874 246 82 71 64 
483 875 247 81 70 62 
482 876 247 78 67 58 
483 876 247 82 71 62 
484 873 246 86 75 66 
485 873 246 87 76 65 
484 874 246 84 73 65 
484 875 247 84 73 65 
485 874 246 85 74 64 
485 875 247 85 74 65 
486 874 246 87 77 67 
486 874 247 89 79 70 
486 875 247 88 78 69 
487 875 247 90 80 72 
484 876 247 83 72 64 
484 877 247 85 75 67 
485 876 247 85 75 66 
485 877 247 85 73 65 
484 878 247 88 77 70 
485 878 247 86 75 66 
485 879 247 84 74 65 
486 876 247 89 79 71 
486 877 247 87 77 68 
487 876 247 86 78 70 
487 877 247 86 78 71 
486 878 247 88 78 69 
486 879 246 83 75 69 
486 879 247 91 79 68 
487 878 246 84 78 72 
487 878 247 84 77 71 
487 879 246 83 77 71 
480 876 248 72 60 50 
480 877 248 72 60 51 
481 876 248 76 64 56 
481 877 248 76 65 58 
480 878 248 73 62 54 
480 879 248 75 65 58 
481 878 248 77 67 61 
481 879 248 79 71 65 
482 876 248 78 67 59 
482 877 248 80 69 62 
483 876 248 80 70 62 
483 877 248 83 73 65 
482 878 248 81 72 66 
482 879 248 79 70 64 
483 878 248 84 74 67 
483 879 248 79 70 63 
484 877 248 86 76 68 
484 878 248 84 74 66 
484 879 248 82 72 64 
488 876 247 84 77 71 
488 877 247 81 75 71 
489 876 247 80 75 70 
489 877 247 79 74 70 
488 878 246 82 76 71 
488 878 247 80 75 71 
488 879 246 82 77 72 
488 879 247 79 74 70 
489 878 247 80 75 70 
489 876 248 79 73 68 
489 877 248 81 75 71 
489 878 248 88 82 77 
489 879 248 84 79 74 
490 877 248 83 77 72 
490 877 249 84 79 74 
490 878 248 90 84 79 
490 878 249 88 82 77 
480 883 247 88 82 78 
481 882 247 90 83 78 
481 883 247 91 85 80 
483 881 247 77 71 65 
482 882 247 90 83 78 
482 883 247 92 86 81 
483 882 247 85 79 74 
480 884 246 92 86 80 
480 884 247 92 86 81 
481 884 247 94 88 83 
484 880 247 77 70 64 
484 881 247 74 68 63 
485 880 247 79 72 67 
485 881 247 76 71 67 
484 882 247 81 77 73 
486 880 246 80 73 68 
486 880 247 84 74 67 
480 880 248 80 71 63 
480 881 248 83 75 68 
481 880 248 85 76 69 
481 881 248 87 80 73 
480 882 248 85 78 72 
481 882 248 88 82 76 
482 880 248 80 72 64 
482 881 248 88 81 75 
483 880 248 75 67 60 
483 881 248 82 75 68 
482 882 248 89 82 77 
484 880 248 79 71 64 
443 899 229 69 59 51 
443 899 230 70 59 49 
443 899 231 70 57 47 
441 901 227 67 58 52 
440 902 226 67 59 55 
440 902 227 66 58 53 
440 903 226 68 60 55 
441 902 226 67 59 54 
441 902 227 67 59 54 
441 903 226 68 60 56 
443 901 225 68 60 56 
442 900 227 65 58 53 
442 901 226 67 59 55 
442 901 227 66 57 53 
443 900 227 67 58 53 
443 901 226 66 58 54 
443 901 227 65 57 52 
442 902 225 71 63 59 
442 902 226 68 60 56 
440 901 228 63 54 49 
441 901 228 66 57 52 
441 901 229 64 55 49 
441 901 230 68 56 51 
442 900 228 67 57 51 
442 900 229 68 57 50 
442 901 228 65 55 49 
443 900 228 70 60 53 
443 900 229 70 59 52 
442 900 230 69 57 50 
442 900 231 70 57 48 
444 899 227 71 61 55 
445 899 226 72 62 56 
445 899 227 72 61 55 
446 899 225 72 61 56 
446 898 227 73 62 57 
446 899 226 73 62 57 
446 899 227 73 63 57 
447 898 226 76 64 58 
447 898 227 77 65 59 
447 899 226 74 63 58 
444 899 228 69 59 53 
444 899 229 69 60 53 
445 898 229 71 60 54 
445 899 228 74 63 55 
445 899 229 71 60 53 
444 898 231 72 59 50 
444 899 230 74 61 52 
444 899 231 75 61 51 
445 898 230 76 63 55 
445 898 231 74 60 52 
445 899 230 73 61 52 
447 897 228 78 65 57 
447 897 229 73 60 51 
446 897 230 70 57 50 
446 897 231 66 57 49 
447 897 230 70 59 51 
447 897 231 69 59 51 
446 898 228 73 62 56 
446 898 229 76 62 56 
446 899 228 73 62 56 
447 898 228 79 65 58 
447 898 229 75 62 54 
446 898 230 73 60 53 
446 898 231 65 55 48 
445 900 225 66 57 55 
444 900 226 67 58 53 
444 900 227 70 60 54 
444 901 226 66 57 52 
445 900 226 70 60 55 
444 900 228 70 60 54 
442 899 232 69 55 44 
442 899 233 64 55 46 
443 899 232 70 57 46 
443 899 233 67 56 48 
443 898 234 66 56 50 
443 898 235 62 51 44 
443 899 234 65 55 49 
442 900 232 67 53 48 
445 897 234 60 49 41 
445 897 235 59 49 39 
444 898 232 71 58 50 
444 898 233 65 55 49 
444 899 232 67 56 47 
445 898 232 67 56 49 
445 898 233 65 55 48 
444 898 234 63 53 46 
444 898 235 61 51 43 
445 898 234 62 51 44 
445 898 235 61 51 42 
446 897 232 66 56 49 
446 897 233 68 57 51 
447 897 232 69 59 52 
447 897 233 67 57 50 
446 897 234 64 54 46 
446 897 235 60 50 41 
447 897 234 63 53 45 
447 897 235 62 53 45 
446 898 232 64 54 47 
446 898 233 66 55 48 
445 897 236 64 54 45 
445 897 237 67 58 50 
444 898 236 65 56 48 
444 898 237 68 59 51 
445 898 236 65 55 47 
445 898 237 68 59 51 
445 898 238 64 55 47 
445 898 239 59 51 44 
445 899 239 54 45 42 
446 897 236 64 55 46 
446 897 237 67 58 50 
447 897 236 69 60 52 
447 897 237 68 60 53 
446 897 238 63 55 48 
446 897 239 59 51 47 
447 897 238 59 50 45 
447 897 239 56 47 44 
446 898 238 60 52 45 
446 898 239 57 48 44 
447 897 240 53 42 43 
447 897 241 50 40 41 
446 898 240 53 43 43 
446 899 240 48 40 36 
446 899 241 51 44 40 
447 898 241 48 38 40 
447 899 241 45 40 36 
447 898 242 46 40 37 
447 899 242 44 39 35 
446 900 240 50 43 38 
447 900 241 46 41 38 
447 901 241 46 41 38 
447 900 242 46 41 38 
447 901 242 46 42 39 
447 902 241 46 41 37 
449 897 224 77 63 57 
449 897 225 78 66 59 
448 897 227 77 65 59 
449 896 227 77 65 60 
449 897 226 79 65 61 
449 897 227 80 67 61 
448 898 225 74 63 58 
448 898 226 76 64 59 
448 898 227 83 70 63 
450 896 224 82 67 61 
450 896 225 81 68 62 
451 896 225 83 68 63 
450 896 226 81 67 63 
450 896 227 79 66 61 
450 897 226 80 65 61 
451 896 226 84 69 65 
448 897 228 76 64 56 
448 897 229 72 60 53 
449 896 228 76 63 56 
449 896 229 73 61 53 
449 897 228 75 62 56 
448 896 230 71 60 52 
448 896 231 70 60 52 
448 897 230 71 61 53 
448 897 231 70 60 52 
449 896 230 71 60 52 
449 896 231 71 61 52 
450 896 228 77 65 58 
450 896 229 75 63 56 
450 896 230 72 62 53 
448 896 232 70 60 52 
448 896 233 69 58 50 
448 897 232 68 58 51 
448 897 233 66 56 49 
449 896 232 71 60 50 
449 896 233 71 59 49 
448 896 234 61 51 42 
448 896 235 62 53 44 
448 897 234 60 50 41 
448 897 235 63 54 46 
449 896 234 65 54 44 
449 896 235 63 53 44 
448 896 236 67 58 52 
448 896 237 67 59 55 
448 897 236 69 61 54 
449 896 236 67 59 51 
449 896 237 69 59 54 
448 896 238 58 49 45 
448 896 239 52 43 39 
448 897 239 54 45 43 
449 896 238 59 49 43 
449 896 239 50 40 33 
450 896 239 54 43 36 
448 896 240 47 39 36 
448 896 241 46 38 36 
448 897 240 52 43 42 
448 897 241 47 39 38 
449 896 240 48 38 33 
449 896 241 49 40 35 
448 897 242 47 40 39 
448 897 243 46 40 39 
449 896 242 51 41 39 
449 896 243 51 42 40 
449 897 242 47 40 38 
449 897 243 46 39 38 
448 898 242 46 40 36 
448 898 243 46 39 38 
448 899 242 46 41 37 
448 899 243 44 39 35 
450 896 240 51 41 34 
450 896 241 51 41 37 
450 896 242 52 44 40 
450 896 243 48 41 35 
449 897 244 42 37 34 
449 897 245 38 35 34 
449 898 244 42 37 35 
449 898 245 38 34 31 
449 899 244 44 37 34 
449 899 245 40 34 31 
449 899 246 36 33 31 
449 899 247 38 36 34 
450 896 244 43 36 30 
450 896 245 39 33 28 
450 897 244 42 36 30 
450 897 245 39 34 29 
451 896 244 39 32 27 
451 896 245 37 32 30 
450 897 246 36 33 32 
451 896 246 33 33 33 
451 897 246 34 33 34 
451 897 247 33 33 35 
450 898 245 36 33 31 
450 898 246 35 33 31 
450 898 247 35 34 33 
450 899 246 36 33 31 
450 899 247 37 35 34 
448 900 242 44 39 37 
448 900 243 45 40 36 
448 901 242 46 42 40 
448 901 243 46 41 38 
448 902 242 46 41 39 
448 902 243 45 40 38 
448 903 242 47 42 38 
448 903 243 45 40 37 
449 900 244 45 38 35 
449 900 245 40 34 31 
449 901 244 45 39 35 
449 901 245 40 35 32 
449 900 246 35 33 31 
449 901 246 37 34 33 
449 902 244 45 40 37 
449 902 245 41 36 34 
452 896 245 34 32 31 
452 896 246 33 32 33 
452 896 247 34 34 35 
452 897 247 35 35 36 
453 896 246 34 33 33 
453 896 247 34 33 33 
454 896 247 34 33 32 
451 897 248 33 34 35 
450 898 248 35 34 33 
451 898 248 34 33 33 
452 897 248 33 34 35 
453 896 248 34 33 34 
453 897 248 33 33 34 
454 896 248 34 32 33 
455 896 248 33 32 32 
456 896 248 35 33 33 
