ply
format ascii 1.0
comment Created by CloudCompare v2.10.1 (Zephyrus)
comment Created 1/31/20 6:24 PM
obj_info Generated by CloudCompare!
element vertex 2228
property float x
property float y
property float z
property uchar red
property uchar green
property uchar blue
end_header
408 911 233 67 61 60 
408 911 234 63 57 57 
408 911 235 63 55 53 
409 911 234 63 59 58 
409 911 235 62 57 57 
410 911 235 61 57 56 
408 911 236 65 56 54 
408 911 237 66 57 54 
409 911 236 64 57 54 
409 911 237 65 56 53 
408 911 238 65 56 53 
408 911 239 64 56 53 
409 911 238 66 57 54 
410 911 236 64 58 55 
410 911 237 65 56 54 
411 911 237 61 54 54 
410 911 238 64 55 54 
410 911 239 66 58 56 
411 911 238 64 55 53 
411 911 239 67 59 56 
413 911 235 58 53 53 
414 911 234 61 56 54 
414 911 235 61 55 54 
415 911 234 59 54 53 
415 911 235 59 54 53 
412 911 236 57 51 51 
412 911 237 59 52 51 
413 911 236 57 51 51 
413 911 237 59 53 52 
412 911 238 66 58 55 
412 911 239 69 61 57 
413 910 239 69 61 58 
413 911 238 64 57 55 
413 911 239 68 61 57 
414 911 236 59 53 52 
414 911 237 61 54 52 
415 910 237 58 52 51 
415 911 236 58 52 50 
415 911 237 59 54 52 
414 910 238 60 54 52 
414 910 239 65 58 55 
414 911 238 61 55 52 
414 911 239 68 61 57 
415 910 238 58 53 52 
415 910 239 57 51 49 
411 911 240 66 59 56 
411 911 241 64 58 54 
411 911 245 54 48 45 
411 911 246 52 47 45 
411 911 247 48 44 43 
412 911 240 67 59 56 
412 911 241 64 57 54 
413 910 240 67 59 55 
413 911 240 67 60 56 
413 911 241 63 56 53 
412 911 242 60 54 50 
412 911 243 58 52 49 
413 911 242 60 54 50 
413 911 243 57 51 47 
414 910 240 63 56 53 
414 910 241 62 55 51 
414 911 241 60 53 50 
415 910 240 59 52 48 
415 910 241 53 46 42 
414 910 242 57 50 46 
414 910 243 54 47 44 
414 911 242 56 50 46 
414 911 243 55 48 44 
415 910 242 53 47 43 
415 910 243 54 48 45 
412 911 244 55 50 46 
412 911 245 53 48 45 
413 911 244 55 49 46 
413 911 245 52 47 44 
412 911 246 51 46 44 
412 911 247 48 44 42 
413 911 246 50 45 43 
413 911 247 46 43 42 
414 911 244 53 47 44 
414 911 245 49 45 42 
415 910 244 51 46 43 
415 910 245 49 45 42 
414 910 246 47 44 42 
414 910 247 45 41 40 
414 911 246 48 44 42 
414 911 247 46 42 40 
415 910 246 47 43 40 
415 910 247 45 41 40 
413 910 248 43 39 39 
413 911 248 44 40 40 
414 910 248 44 40 39 
414 910 249 42 38 38 
414 911 248 45 41 40 
415 910 248 43 39 38 
415 910 249 41 38 37 
415 910 250 40 37 37 
408 912 231 70 64 64 
408 912 232 69 63 62 
408 912 233 66 60 59 
408 913 232 67 60 59 
409 912 233 64 59 58 
409 913 233 66 58 57 
409 912 234 62 58 59 
409 912 235 64 60 60 
410 912 233 64 59 57 
410 912 234 65 60 60 
410 912 235 64 60 60 
411 912 234 61 55 54 
411 912 235 63 57 57 
408 912 239 66 58 55 
409 912 238 67 57 55 
409 912 239 69 62 59 
410 912 236 60 56 56 
411 912 236 56 52 52 
411 912 237 56 50 52 
410 912 239 68 60 57 
412 912 233 67 62 62 
412 912 234 66 61 60 
412 912 235 64 58 57 
413 912 234 65 62 63 
413 912 235 62 58 58 
414 912 235 60 55 54 
412 912 236 56 50 50 
407 913 240 68 62 59 
407 913 241 68 61 58 
407 913 242 66 60 57 
407 913 243 63 57 56 
406 914 241 61 55 51 
406 914 242 60 54 52 
408 912 240 67 60 57 
408 912 241 66 60 57 
408 913 241 68 62 59 
409 912 240 69 61 58 
409 912 241 67 61 57 
408 913 242 66 60 57 
408 913 243 68 62 59 
409 912 242 66 59 55 
409 912 243 62 56 52 
409 913 242 65 58 55 
409 913 243 62 56 53 
410 912 240 69 61 57 
410 912 241 66 59 55 
411 912 240 66 59 55 
411 912 241 64 57 54 
410 912 242 63 57 53 
410 912 243 60 54 50 
411 912 242 61 55 51 
411 912 243 59 53 49 
408 913 244 58 52 50 
409 912 244 57 52 49 
409 912 245 55 50 47 
409 913 244 59 53 51 
410 912 244 57 51 48 
410 912 245 55 49 47 
411 912 244 56 50 47 
411 912 245 54 49 46 
410 912 246 52 47 45 
412 912 243 58 52 48 
412 912 244 55 49 46 
416 911 233 59 53 54 
416 911 234 55 50 50 
416 911 235 56 51 50 
417 911 234 57 51 50 
417 911 235 58 51 52 
418 910 235 57 52 50 
418 911 235 58 52 51 
419 910 234 59 54 52 
419 910 235 57 52 51 
417 909 239 54 49 48 
416 910 236 56 51 50 
416 910 237 56 51 50 
416 911 236 56 51 48 
417 910 236 57 52 50 
417 910 237 55 51 50 
417 911 236 58 52 52 
416 910 238 56 52 50 
416 910 239 56 50 50 
417 910 238 55 50 49 
417 910 239 55 50 49 
419 909 237 54 49 47 
418 909 238 54 49 47 
418 909 239 53 47 45 
419 908 239 56 50 45 
419 909 238 52 47 44 
419 909 239 56 49 45 
418 910 236 57 51 49 
418 910 237 55 50 48 
419 910 236 56 51 50 
419 910 237 55 51 49 
418 910 238 55 50 48 
423 907 237 60 54 50 
422 907 238 59 53 48 
422 907 239 57 52 48 
423 907 238 60 54 49 
423 907 239 58 51 46 
420 909 235 56 49 49 
420 910 234 59 56 55 
420 910 235 57 52 51 
421 910 235 58 52 52 
422 909 234 59 53 55 
422 909 235 59 51 53 
423 908 235 59 49 50 
423 909 234 60 53 55 
423 909 235 59 52 53 
420 909 236 57 51 50 
420 909 237 56 50 48 
421 908 237 57 51 47 
421 909 236 59 52 52 
421 909 237 57 50 49 
420 908 238 55 49 46 
420 908 239 56 49 44 
420 909 238 56 50 47 
420 909 239 54 47 44 
421 908 238 57 51 46 
421 908 239 57 51 46 
420 910 236 55 49 48 
422 908 236 59 51 50 
422 908 237 58 52 48 
422 909 236 61 51 53 
423 908 236 62 51 51 
423 908 237 60 51 49 
422 908 238 58 52 48 
428 907 231 64 55 55 
429 906 231 64 55 55 
430 905 231 60 54 54 
431 905 230 62 54 54 
431 905 231 61 52 53 
430 906 230 65 55 56 
430 906 231 62 54 54 
431 906 230 63 53 54 
424 907 235 57 50 47 
425 907 234 57 51 49 
425 907 235 60 54 51 
426 907 233 60 55 51 
427 907 232 60 53 51 
427 907 233 59 53 50 
426 906 234 59 53 50 
426 906 235 58 52 49 
426 907 234 59 54 51 
426 907 235 61 54 51 
427 906 234 57 52 49 
427 906 235 59 53 50 
427 907 234 61 55 51 
424 907 236 59 52 50 
424 907 237 60 53 50 
425 906 236 58 52 48 
425 906 237 59 52 48 
425 907 236 60 53 51 
424 907 238 58 51 45 
424 907 239 60 52 46 
425 906 238 60 51 45 
425 907 239 61 52 45 
426 906 236 59 53 48 
426 906 237 59 51 45 
427 906 236 62 56 51 
427 906 237 61 52 45 
426 906 238 61 52 45 
426 906 239 61 52 45 
426 907 239 61 52 45 
427 906 238 62 53 45 
427 906 239 61 53 46 
424 908 233 65 52 54 
425 908 233 63 54 53 
424 908 234 61 51 51 
424 908 235 62 51 50 
424 909 234 61 56 56 
425 908 234 62 53 51 
426 908 233 62 56 53 
429 905 233 59 53 51 
428 905 234 62 55 52 
428 905 235 62 56 51 
429 905 234 63 55 51 
429 905 235 61 53 48 
428 906 232 60 54 54 
428 906 233 60 52 49 
428 907 232 61 53 53 
428 907 233 60 54 53 
429 906 232 60 54 55 
429 906 233 60 50 52 
428 906 234 58 52 50 
430 904 233 63 51 49 
430 905 232 61 52 52 
430 905 233 60 51 49 
431 905 232 60 51 51 
431 905 233 58 50 47 
430 904 234 60 52 47 
430 905 234 61 53 48 
430 905 235 59 51 44 
431 904 234 58 50 44 
431 904 235 57 49 43 
431 905 235 57 49 43 
430 906 232 60 55 55 
428 905 236 61 54 48 
428 905 237 63 54 47 
429 905 236 62 53 45 
429 905 237 63 55 48 
428 905 238 64 55 49 
429 905 238 59 51 45 
429 905 239 54 46 40 
428 906 237 62 54 46 
428 906 238 63 54 48 
428 906 239 58 50 44 
430 905 236 59 51 44 
430 905 237 61 53 47 
431 904 236 57 49 43 
431 905 236 59 51 46 
431 905 237 59 52 47 
430 905 238 60 51 45 
430 905 239 55 47 39 
431 904 238 59 50 43 
431 904 239 58 48 41 
431 905 238 59 51 45 
431 905 239 57 48 40 
417 909 241 55 49 44 
416 910 240 56 50 45 
416 910 241 53 46 41 
417 910 240 56 49 45 
417 910 241 56 49 44 
416 910 242 56 49 44 
416 910 243 54 48 45 
417 910 242 55 49 44 
417 910 243 54 46 40 
418 909 240 54 48 43 
418 909 241 58 51 45 
419 908 240 56 50 45 
419 909 240 58 51 45 
419 909 241 60 52 44 
418 909 242 57 50 43 
418 909 243 56 48 41 
419 909 242 56 48 41 
419 909 243 51 43 36 
418 910 243 55 46 40 
416 910 244 49 44 40 
416 910 245 47 42 39 
417 910 244 53 45 39 
417 910 245 47 41 38 
416 910 246 46 41 39 
416 910 247 44 39 38 
417 910 246 48 42 41 
417 910 247 44 40 39 
418 909 244 52 44 37 
419 909 244 48 39 32 
419 909 245 49 41 35 
419 909 246 45 40 36 
419 909 247 40 36 34 
418 910 244 52 43 37 
418 910 245 49 40 34 
418 910 246 46 41 38 
418 910 247 43 39 37 
419 910 246 45 38 34 
422 907 240 58 52 47 
423 907 240 58 51 46 
423 907 241 56 49 42 
420 908 240 58 51 46 
420 908 241 60 53 47 
420 909 240 61 53 46 
420 909 241 59 51 44 
421 908 240 60 53 47 
421 908 241 58 51 47 
420 908 242 57 50 44 
420 909 242 54 47 41 
420 909 243 47 39 32 
421 908 242 54 47 41 
421 909 242 53 46 40 
421 909 243 47 40 33 
422 908 240 59 52 48 
422 908 241 56 50 45 
423 908 241 54 47 41 
422 908 242 51 44 38 
422 908 243 47 41 36 
422 909 243 46 40 35 
423 908 242 47 40 34 
423 908 243 47 41 37 
420 909 244 47 39 32 
420 909 245 48 42 38 
421 909 244 47 41 36 
421 909 245 46 42 39 
420 909 246 44 39 37 
420 909 247 40 37 35 
421 909 246 42 38 37 
421 909 247 42 38 37 
422 909 244 46 42 38 
422 909 245 41 38 37 
423 908 244 47 42 40 
423 908 245 48 43 42 
423 909 244 46 41 39 
423 909 245 43 39 38 
422 909 246 42 38 37 
422 909 247 40 36 36 
423 909 246 43 39 38 
423 909 247 39 35 34 
417 909 249 39 37 36 
416 909 251 38 36 36 
417 909 250 38 36 36 
417 909 251 38 35 35 
416 910 248 43 39 38 
416 910 249 41 38 38 
417 910 248 42 38 38 
417 910 249 40 37 37 
416 910 250 39 36 36 
416 910 251 39 36 36 
417 910 250 39 36 36 
418 909 248 40 37 36 
418 909 249 39 36 36 
419 909 248 41 37 36 
419 909 249 39 37 35 
418 909 250 37 35 35 
418 909 251 35 34 35 
419 909 250 37 35 34 
419 909 251 36 34 35 
418 910 248 41 38 36 
418 910 249 40 37 36 
417 909 252 37 34 35 
418 909 252 36 34 35 
418 909 253 36 33 34 
419 909 252 36 33 34 
419 909 253 36 33 34 
419 908 254 35 32 33 
419 909 254 36 33 34 
420 909 248 41 37 36 
420 909 249 39 36 35 
421 909 248 40 36 34 
421 909 249 40 36 34 
420 909 250 36 33 32 
420 909 251 36 34 33 
421 909 250 36 34 32 
421 909 251 36 33 32 
422 909 248 37 34 33 
422 909 249 38 35 33 
423 908 248 40 36 33 
423 908 249 37 34 33 
423 909 248 36 33 33 
423 909 249 39 36 34 
422 908 250 35 31 31 
422 908 251 35 32 32 
422 909 250 37 33 32 
422 909 251 35 33 32 
423 908 250 35 32 32 
423 908 251 33 30 32 
420 908 253 35 32 32 
420 909 252 35 33 33 
420 909 253 35 32 33 
421 908 252 35 31 31 
421 908 253 34 31 32 
421 909 252 35 32 31 
420 908 254 35 32 33 
421 908 254 35 32 32 
421 908 255 35 31 34 
422 908 252 34 30 31 
422 908 253 34 30 32 
423 908 252 34 29 32 
423 908 253 34 30 32 
422 908 254 35 31 32 
422 908 255 34 31 34 
423 908 254 33 30 33 
423 908 255 33 31 33 
424 907 240 61 53 46 
424 907 241 53 46 39 
425 907 240 59 50 43 
425 907 241 52 46 40 
425 907 242 49 45 41 
426 907 240 57 49 42 
426 907 241 54 47 41 
427 906 240 57 49 42 
427 906 241 55 47 40 
427 907 240 56 49 42 
427 907 241 56 48 42 
426 907 242 52 46 42 
426 907 243 48 43 40 
427 907 242 54 48 43 
427 907 243 55 48 44 
426 907 244 50 45 43 
427 907 244 50 44 44 
427 907 245 42 39 39 
427 907 246 39 35 36 
427 907 247 36 33 34 
424 908 241 50 43 36 
424 908 242 48 42 37 
424 908 243 49 44 40 
425 908 242 48 43 39 
425 908 243 48 44 41 
424 908 244 49 44 41 
424 908 245 47 42 40 
425 908 244 48 43 40 
425 908 245 46 42 40 
424 908 246 43 39 37 
424 908 247 35 34 35 
425 908 246 39 37 37 
425 908 247 34 34 35 
426 908 244 48 43 41 
426 908 245 42 40 39 
426 908 246 39 37 37 
426 908 247 37 33 35 
427 908 247 37 33 34 
429 905 240 54 46 38 
429 905 241 56 48 40 
429 905 242 59 51 46 
429 905 243 55 48 43 
428 906 240 55 47 40 
428 906 241 56 48 40 
428 906 242 60 51 45 
428 906 243 57 51 49 
428 907 243 57 51 49 
429 906 242 57 50 44 
429 906 243 55 48 43 
430 905 240 55 46 39 
430 905 241 57 49 43 
431 904 240 58 48 41 
431 904 241 60 52 46 
431 905 240 57 47 40 
431 905 241 60 52 46 
430 905 242 60 52 46 
430 905 243 58 51 45 
431 904 242 59 52 46 
431 905 242 60 52 46 
431 905 243 55 48 43 
428 906 244 50 44 43 
428 906 245 43 38 37 
428 907 244 50 45 46 
428 907 245 42 37 38 
429 906 244 49 43 39 
429 906 245 42 37 34 
428 907 246 39 35 35 
428 907 247 35 32 32 
429 906 246 37 34 33 
429 906 247 35 33 33 
429 907 246 36 32 31 
429 907 247 35 32 32 
430 905 244 50 43 38 
430 905 245 43 37 34 
431 905 244 49 42 38 
431 905 245 42 36 34 
431 905 246 40 36 35 
430 906 245 41 36 33 
430 906 246 38 35 34 
430 906 247 35 33 33 
431 906 246 38 35 33 
431 906 247 35 33 33 
427 907 248 33 32 32 
427 907 249 33 34 34 
427 907 250 34 33 35 
427 907 251 32 32 35 
425 907 254 33 31 32 
425 907 255 33 30 32 
426 907 252 33 32 35 
426 907 253 32 30 33 
427 907 252 32 30 34 
427 907 253 32 29 32 
426 907 254 32 29 32 
426 907 255 33 29 32 
427 907 254 32 29 32 
427 907 255 33 29 32 
424 908 248 34 33 34 
424 908 249 34 33 33 
425 908 248 32 33 35 
425 908 249 32 32 34 
424 908 250 33 32 33 
424 908 251 33 30 33 
425 908 250 33 32 33 
425 908 251 34 32 34 
426 908 248 32 31 34 
426 908 249 32 32 34 
427 908 248 33 32 32 
426 908 250 33 31 34 
426 908 251 34 31 34 
424 908 252 34 31 33 
424 908 253 34 31 33 
425 908 252 34 32 35 
425 908 253 32 31 34 
424 908 254 32 30 33 
424 908 255 33 30 33 
425 908 254 32 30 32 
426 908 252 34 32 35 
428 907 248 34 32 32 
428 907 249 34 33 34 
429 906 248 34 33 32 
429 907 248 34 33 33 
429 907 249 32 32 34 
428 907 250 31 32 35 
428 907 251 31 30 34 
429 907 250 34 32 35 
429 907 251 33 31 34 
430 906 248 33 32 32 
430 906 249 34 32 33 
431 906 248 33 32 31 
431 906 249 33 33 34 
430 906 250 33 32 33 
430 906 251 31 30 32 
430 907 251 31 29 31 
431 906 250 32 32 33 
431 906 251 32 30 31 
428 907 252 32 29 33 
428 907 253 32 28 32 
429 907 252 32 29 32 
429 907 253 33 29 31 
428 907 254 32 28 31 
428 907 255 33 28 32 
429 907 254 33 29 31 
429 907 255 34 29 32 
430 906 252 31 29 30 
430 906 253 32 28 31 
430 907 252 31 29 31 
430 907 253 32 28 31 
431 906 252 32 30 30 
431 906 253 32 30 30 
430 907 254 34 30 30 
430 907 255 33 29 31 
431 906 254 33 31 30 
431 906 255 31 29 29 
435 903 227 64 55 54 
433 903 230 60 50 49 
433 903 231 60 51 46 
434 903 229 63 54 53 
435 903 228 64 55 54 
435 903 229 65 56 54 
434 903 230 61 52 48 
434 903 231 56 48 44 
435 902 230 63 53 49 
435 902 231 58 49 46 
435 903 230 64 54 51 
435 903 231 62 52 47 
436 903 227 64 55 54 
437 903 227 64 56 53 
438 903 227 66 57 52 
439 902 227 67 58 52 
439 903 227 69 60 54 
436 902 229 66 55 52 
436 903 228 65 56 53 
436 903 229 65 56 53 
437 902 229 68 57 53 
437 903 228 67 57 53 
436 902 230 65 54 50 
436 902 231 62 52 48 
436 903 231 67 57 52 
437 902 230 67 56 51 
437 902 231 71 59 52 
438 902 228 66 56 49 
438 902 229 66 56 50 
438 903 228 68 58 52 
439 902 228 65 56 50 
439 902 229 65 55 49 
438 902 230 67 56 50 
438 902 231 68 56 49 
439 902 230 64 54 49 
439 902 231 64 54 47 
433 903 232 60 51 46 
433 903 233 65 55 49 
433 903 234 62 53 47 
434 903 232 58 50 45 
434 903 233 66 56 50 
435 903 232 63 54 49 
435 903 233 63 54 48 
434 903 234 61 51 45 
435 903 234 59 50 43 
435 903 235 60 51 44 
433 903 239 58 50 43 
434 903 237 56 45 39 
435 903 236 59 50 43 
435 903 237 58 49 41 
434 903 238 58 49 42 
434 903 239 58 50 43 
435 902 239 63 51 45 
435 903 238 61 51 44 
435 903 239 60 51 44 
436 903 232 68 58 51 
436 903 233 62 52 45 
437 903 232 67 56 49 
437 903 233 63 52 45 
436 903 234 59 50 43 
436 903 235 59 50 43 
437 903 234 61 52 45 
437 903 235 63 54 47 
439 901 235 69 61 54 
438 902 232 65 54 46 
438 903 232 64 54 46 
438 903 233 62 52 44 
439 902 232 61 51 43 
439 902 233 61 51 45 
438 902 234 64 55 48 
438 902 235 65 56 49 
438 903 234 63 53 46 
439 902 234 64 54 48 
439 902 235 67 58 51 
436 902 237 63 53 45 
436 903 236 60 51 43 
436 903 237 62 53 45 
437 902 236 64 55 47 
437 902 237 63 54 46 
437 903 236 64 55 47 
436 902 238 64 53 46 
436 902 239 64 52 46 
437 902 238 65 54 47 
437 902 239 64 52 45 
439 901 236 66 57 49 
439 901 237 62 51 44 
439 901 238 63 52 44 
439 901 239 61 52 44 
438 902 236 66 57 50 
438 902 237 65 54 47 
439 902 236 68 59 51 
438 902 238 63 51 44 
438 902 239 60 48 39 
439 902 239 60 50 41 
432 905 227 63 54 54 
434 904 227 65 55 54 
435 904 227 65 55 53 
432 905 228 63 54 54 
432 905 229 63 54 54 
433 904 228 64 56 55 
433 904 229 63 54 55 
432 904 230 61 51 53 
432 904 231 59 50 50 
432 905 230 62 54 54 
432 905 231 61 51 51 
433 904 230 61 51 54 
434 904 228 64 55 56 
434 904 229 63 54 55 
435 904 228 63 55 55 
432 904 232 61 52 49 
432 904 233 63 53 50 
432 905 232 59 50 49 
433 904 233 67 57 50 
432 904 234 60 52 46 
432 904 235 57 49 44 
433 904 234 60 51 45 
433 904 235 57 49 43 
434 904 234 59 50 43 
434 904 235 59 50 44 
435 904 235 60 51 44 
432 904 236 58 51 46 
432 904 237 58 51 46 
433 904 236 56 48 43 
433 904 237 58 50 43 
432 904 238 58 49 42 
432 904 239 59 49 43 
433 904 238 58 49 42 
433 904 239 59 50 44 
434 904 236 59 50 44 
434 904 237 58 49 42 
435 904 236 59 51 44 
434 904 238 58 48 42 
440 901 229 63 54 49 
440 901 230 67 56 52 
440 901 231 65 54 47 
441 901 231 65 54 49 
440 902 228 65 56 51 
440 902 230 67 57 52 
440 902 231 65 54 47 
442 899 234 66 55 49 
442 899 235 65 54 48 
442 899 236 66 56 48 
442 899 237 65 54 45 
443 898 236 65 56 49 
443 898 237 65 55 47 
443 899 237 65 55 46 
442 899 238 65 54 44 
443 898 238 65 55 45 
443 899 238 65 54 44 
443 899 239 62 53 45 
440 901 232 62 51 46 
440 901 233 65 53 49 
441 900 233 64 53 49 
441 901 232 64 51 49 
441 901 233 64 52 49 
440 901 234 68 59 53 
440 901 235 70 60 54 
441 900 234 66 55 50 
441 900 235 68 58 52 
441 901 234 67 56 51 
440 902 232 62 51 46 
440 902 233 64 53 48 
440 902 234 64 54 49 
442 900 233 63 52 48 
442 900 234 67 56 50 
440 900 236 70 59 53 
440 900 237 63 52 43 
440 901 236 68 58 51 
440 901 237 64 53 46 
441 900 236 67 56 48 
441 900 237 63 51 42 
440 901 238 62 51 43 
440 901 239 62 53 44 
441 900 238 62 51 42 
441 901 238 64 55 47 
441 901 239 62 53 44 
442 900 238 65 54 45 
442 900 239 62 53 45 
442 901 239 59 51 43 
443 900 239 60 51 43 
444 898 238 64 55 47 
444 899 238 63 53 45 
444 899 239 60 52 45 
444 900 239 56 48 41 
433 903 240 59 52 46 
433 903 241 63 56 52 
434 903 240 60 52 46 
434 903 241 63 56 51 
435 902 240 60 49 43 
435 903 240 59 50 43 
435 903 241 61 53 47 
434 903 242 59 53 49 
435 903 242 58 52 47 
435 903 243 50 43 39 
436 902 240 62 51 44 
436 902 241 59 50 42 
436 903 241 60 51 44 
437 902 240 59 49 40 
437 902 241 57 49 41 
436 903 242 55 47 41 
436 903 243 45 37 33 
437 903 242 51 42 37 
437 903 243 44 36 33 
438 902 240 58 48 40 
438 902 241 55 46 39 
439 902 240 60 52 45 
439 902 241 54 46 41 
438 903 242 48 40 37 
438 903 243 45 36 34 
439 903 242 48 41 37 
439 903 243 44 37 37 
437 903 244 43 36 33 
438 903 244 42 35 33 
432 904 240 60 51 45 
432 904 241 61 54 49 
433 904 240 60 53 47 
433 904 241 64 57 52 
432 904 242 59 52 48 
432 904 243 53 47 43 
433 904 242 59 53 49 
433 904 243 52 47 42 
434 904 242 59 53 49 
434 904 243 50 44 41 
435 904 243 50 43 40 
432 904 244 46 40 37 
432 905 244 45 39 36 
432 905 245 41 34 33 
433 904 244 44 37 34 
433 904 245 41 34 34 
433 905 245 42 35 35 
432 905 246 39 35 34 
432 905 247 37 34 32 
433 905 246 41 35 32 
433 905 247 38 35 32 
432 906 247 35 32 30 
434 904 244 44 37 33 
434 904 245 45 38 37 
434 905 245 44 38 35 
435 904 244 44 37 34 
435 904 245 42 37 34 
434 905 246 40 36 33 
434 905 247 37 33 33 
435 904 246 39 35 34 
435 905 246 38 34 34 
435 905 247 37 33 34 
436 904 244 44 36 33 
436 904 245 41 36 33 
437 904 244 43 36 34 
437 904 245 42 36 34 
436 904 246 38 35 33 
436 905 247 34 32 33 
437 904 246 37 34 32 
437 904 247 31 30 31 
437 905 247 31 31 32 
438 904 244 43 35 33 
438 904 245 43 36 34 
439 904 244 43 36 36 
439 904 245 42 35 34 
438 904 246 34 33 32 
438 904 247 31 31 32 
438 905 247 32 32 33 
439 904 246 37 32 32 
439 904 247 32 31 31 
439 905 247 34 33 33 
432 905 248 34 32 32 
433 905 248 33 30 32 
433 905 249 32 31 31 
432 906 248 33 31 32 
432 906 249 31 31 32 
433 906 249 33 32 32 
432 906 250 32 31 31 
432 906 251 31 30 31 
433 906 250 31 31 31 
433 906 251 30 30 30 
434 905 248 33 30 33 
434 905 249 32 31 31 
435 905 248 32 31 32 
435 905 249 32 31 33 
434 905 250 32 31 32 
435 905 250 32 31 33 
435 905 251 31 30 32 
434 906 250 32 31 32 
434 906 251 32 31 32 
435 906 251 31 30 32 
432 906 252 32 31 31 
432 906 253 31 30 32 
433 906 252 30 29 30 
433 906 253 31 30 31 
432 906 254 32 30 31 
432 906 255 31 29 31 
433 906 254 32 30 33 
433 906 255 32 30 33 
434 906 252 30 30 31 
434 906 253 32 30 32 
435 906 252 31 30 32 
435 906 253 34 33 34 
434 906 254 32 31 33 
434 906 255 31 30 33 
435 906 254 34 33 34 
435 906 255 32 31 31 
436 905 248 32 32 33 
436 905 249 30 30 32 
437 905 248 33 32 33 
437 905 249 34 33 34 
436 905 250 30 30 32 
436 905 251 32 31 32 
437 905 250 33 32 33 
437 905 251 32 32 33 
438 905 248 33 32 33 
438 905 249 34 33 35 
439 905 248 33 33 33 
439 905 249 34 33 34 
438 905 250 34 33 34 
438 905 251 34 32 33 
439 905 250 35 33 33 
439 905 251 35 33 32 
436 905 252 31 31 33 
437 905 252 33 32 33 
436 906 252 32 31 33 
436 906 253 32 31 32 
437 906 252 34 33 34 
437 906 253 33 32 32 
436 906 254 34 33 33 
436 906 255 34 32 32 
437 906 254 32 30 30 
437 906 255 30 29 29 
438 905 252 35 33 33 
439 905 252 34 31 31 
438 906 253 35 33 32 
439 906 253 35 33 33 
438 906 254 34 32 32 
438 906 255 32 30 30 
439 906 254 35 33 32 
439 906 255 34 32 32 
440 901 240 61 52 45 
441 901 240 59 50 43 
440 902 240 59 51 44 
440 902 241 54 46 40 
441 902 240 58 49 42 
441 902 241 52 45 39 
441 903 241 48 42 36 
440 903 242 47 40 36 
440 903 243 47 41 38 
441 903 242 48 41 37 
441 903 243 47 41 38 
442 901 240 55 48 41 
443 901 240 52 46 40 
442 902 241 51 44 39 
442 903 241 49 42 38 
443 902 241 50 44 41 
443 903 241 51 43 42 
442 903 242 48 41 39 
443 903 242 50 42 40 
445 899 240 53 44 40 
444 900 240 55 46 41 
444 901 240 52 45 38 
444 901 241 50 44 38 
445 900 240 53 45 40 
445 901 240 51 44 38 
445 901 241 50 44 38 
444 902 241 50 44 39 
444 903 241 49 43 39 
445 902 241 50 44 39 
445 903 241 48 43 40 
444 903 242 50 44 40 
446 900 241 46 40 35 
446 901 241 48 42 38 
446 902 241 47 41 37 
446 903 241 46 42 38 
446 903 242 47 42 38 
447 902 242 46 41 37 
447 903 242 46 41 38 
447 903 247 36 34 34 
446 903 248 36 34 34 
446 903 249 35 33 32 
447 902 248 35 32 32 
447 902 249 34 33 32 
447 903 248 37 35 34 
447 903 249 35 34 33 
446 903 250 30 29 30 
446 903 251 30 29 30 
447 902 250 30 29 30 
447 902 251 29 28 30 
447 901 252 34 33 34 
447 901 253 35 35 35 
447 901 254 35 34 34 
446 903 252 32 32 33 
446 903 253 32 32 33 
447 902 252 32 32 33 
447 902 253 33 33 34 
446 903 254 32 32 34 
447 902 254 32 32 33 
447 902 255 31 32 33 
447 903 254 29 30 32 
447 903 255 31 32 34 
440 904 243 45 39 37 
441 904 243 46 40 37 
442 904 242 47 42 37 
442 904 243 47 42 37 
443 904 242 50 44 39 
443 904 243 48 42 37 
443 905 243 48 42 37 
440 904 244 43 37 36 
440 904 245 44 37 35 
441 904 244 45 38 36 
441 904 245 45 37 35 
440 904 246 35 31 31 
440 904 247 32 32 32 
440 905 246 32 31 31 
440 905 247 32 32 31 
441 905 246 37 34 32 
441 905 247 32 31 31 
442 904 244 47 40 35 
442 904 245 45 37 35 
442 905 244 48 41 36 
442 905 245 45 37 34 
443 905 244 49 42 36 
443 905 245 47 39 34 
442 905 246 38 33 32 
442 905 247 32 30 29 
443 905 246 41 36 35 
443 905 247 33 30 29 
442 906 244 61 53 50 
442 906 245 48 42 40 
443 906 244 51 44 39 
443 906 245 43 38 36 
442 907 247 74 63 59 
443 906 246 49 42 41 
443 906 247 46 43 43 
444 904 242 51 45 40 
444 905 242 50 43 38 
444 905 243 50 44 38 
445 904 242 50 44 39 
445 905 242 49 42 37 
446 904 242 48 42 36 
447 904 242 48 42 36 
447 904 243 47 41 37 
444 905 247 51 47 44 
445 905 247 54 48 43 
444 906 247 53 48 45 
445 906 247 62 53 47 
446 905 245 55 49 44 
447 904 245 41 37 35 
447 905 245 46 41 38 
446 904 247 33 32 32 
446 905 246 51 46 42 
446 905 247 51 45 41 
447 904 246 36 34 33 
447 904 247 34 32 32 
447 905 246 40 36 34 
440 905 248 32 32 32 
440 905 249 33 32 32 
441 905 248 31 30 30 
441 905 249 32 31 30 
440 905 250 34 32 31 
440 905 251 36 33 32 
441 905 250 33 31 30 
441 905 251 35 32 31 
442 905 248 32 30 30 
442 905 249 35 32 31 
443 904 249 31 31 31 
443 905 248 31 30 29 
443 905 249 36 34 34 
442 905 250 37 34 34 
442 905 251 36 35 35 
443 904 250 31 30 31 
443 904 251 30 30 31 
443 905 250 35 34 34 
443 905 251 34 33 34 
440 905 252 34 32 32 
441 905 252 34 32 31 
440 906 253 35 33 32 
441 906 253 34 31 30 
440 906 254 36 34 34 
440 906 255 34 33 32 
441 906 254 35 34 33 
441 906 255 34 33 32 
442 905 252 35 34 34 
443 905 252 34 33 34 
443 905 253 33 32 33 
442 906 253 32 31 30 
443 906 253 32 31 32 
442 906 254 31 30 29 
442 906 255 33 32 32 
443 906 254 32 30 31 
443 906 255 32 32 33 
444 904 248 32 31 30 
444 904 249 32 31 31 
444 905 248 41 37 36 
445 904 248 42 39 36 
445 904 249 34 32 32 
445 905 248 45 41 38 
444 904 250 34 32 33 
444 904 251 33 33 34 
445 904 250 33 32 32 
445 904 251 33 33 33 
446 904 248 37 35 34 
446 904 249 31 30 29 
444 904 252 32 32 33 
444 905 252 31 31 32 
444 905 253 32 31 32 
445 904 252 33 32 33 
445 904 253 31 31 32 
445 905 253 30 30 32 
444 905 254 32 30 31 
445 905 254 32 31 31 
445 905 255 34 32 32 
444 906 254 32 31 31 
444 906 255 33 31 32 
445 906 255 35 32 32 
446 904 252 32 32 33 
446 904 253 32 33 34 
446 904 254 31 31 32 
446 904 255 29 30 33 
446 905 254 32 32 34 
446 905 255 31 32 35 
447 904 255 29 31 34 
448 901 247 35 33 32 
449 900 247 35 33 32 
449 901 247 37 35 34 
448 902 244 45 40 36 
448 902 245 40 35 33 
448 903 244 44 39 36 
448 903 245 41 36 33 
448 902 246 36 34 32 
448 902 247 36 34 33 
448 903 246 37 34 34 
448 903 247 35 33 32 
449 899 248 37 35 34 
450 899 250 33 33 32 
450 899 251 35 34 33 
449 899 252 33 32 32 
449 899 253 34 32 31 
449 899 254 36 33 32 
449 899 255 36 34 33 
450 898 252 36 34 34 
450 898 253 36 34 33 
450 899 252 36 34 33 
450 899 253 37 35 34 
451 898 253 34 33 33 
450 898 254 35 33 32 
450 898 255 33 31 31 
450 899 254 37 35 34 
450 899 255 34 32 32 
451 898 254 32 32 32 
451 898 255 31 30 30 
448 901 248 35 33 32 
448 901 249 33 31 31 
449 900 248 35 33 33 
449 900 249 34 32 32 
449 901 248 37 35 34 
449 901 249 34 32 32 
448 901 250 33 32 32 
448 901 251 34 33 33 
449 900 250 32 31 31 
449 900 251 31 31 31 
448 902 248 36 34 33 
448 902 249 35 34 33 
448 900 252 35 34 34 
448 900 253 35 33 32 
448 901 252 33 32 33 
448 901 253 30 30 30 
449 900 252 32 31 31 
449 900 253 34 32 30 
448 900 254 38 36 34 
448 901 254 35 33 32 
448 901 255 34 33 31 
449 900 254 36 33 32 
449 900 255 38 35 34 
448 902 255 32 31 32 
452 897 255 32 29 33 
452 898 255 30 29 32 
448 904 243 48 42 37 
448 904 244 47 42 38 
448 904 245 42 38 35 
423 907 257 33 30 33 
422 908 256 33 30 33 
423 908 256 33 30 33 
423 908 257 32 29 33 
424 907 256 33 30 33 
424 907 257 33 30 33 
425 907 256 33 29 33 
425 907 257 33 29 33 
424 907 258 33 29 34 
425 907 258 33 29 34 
425 907 259 33 29 34 
426 907 256 33 29 33 
426 907 257 33 29 34 
427 907 256 34 29 32 
427 907 257 34 29 34 
426 907 258 33 29 34 
426 907 259 33 29 35 
427 907 258 34 28 35 
427 907 259 33 30 34 
426 907 260 32 31 33 
427 907 260 33 31 34 
424 908 256 33 31 33 
428 907 256 33 28 32 
428 907 257 33 27 34 
429 907 256 33 28 33 
429 907 257 33 29 34 
428 907 258 32 28 34 
428 907 259 31 29 33 
429 906 259 32 31 34 
429 907 258 32 30 34 
429 907 259 32 30 34 
430 907 256 34 29 32 
430 907 257 33 29 34 
431 906 256 32 29 32 
431 906 257 34 31 33 
431 907 256 33 29 33 
431 907 257 34 31 33 
430 906 259 32 31 34 
430 907 258 32 30 33 
430 907 259 32 31 34 
431 906 258 32 30 33 
431 906 259 32 30 33 
428 906 260 32 30 33 
428 906 261 32 31 34 
428 907 260 32 31 34 
429 906 260 32 31 34 
429 906 261 33 32 35 
429 906 262 32 32 35 
430 906 260 33 31 34 
430 906 261 33 32 35 
431 906 260 32 31 34 
431 906 261 33 31 34 
430 906 262 33 32 35 
430 906 263 32 32 34 
431 906 262 33 32 35 
431 906 263 33 32 34 
431 906 264 33 32 35 
432 906 256 31 29 32 
432 906 257 33 32 33 
433 906 256 32 31 33 
433 906 257 33 32 32 
432 906 258 32 32 33 
432 906 259 32 31 34 
433 906 258 33 32 33 
433 906 259 34 32 35 
434 906 256 31 30 31 
434 906 257 31 30 31 
435 906 256 32 30 31 
435 906 257 32 31 32 
434 906 258 31 30 31 
434 906 259 33 32 34 
435 906 258 32 31 32 
435 906 259 32 31 33 
435 907 259 32 32 33 
432 906 260 32 31 34 
432 906 261 32 31 33 
433 906 260 33 32 35 
433 906 261 34 33 35 
432 906 262 33 31 34 
432 906 263 33 31 34 
433 906 262 34 32 34 
433 906 263 33 32 34 
434 906 260 33 32 35 
434 907 260 33 32 34 
434 907 261 34 32 35 
435 907 260 34 32 34 
435 907 261 34 32 34 
434 906 263 32 32 35 
434 907 262 34 32 34 
434 907 263 32 32 35 
435 907 262 33 32 34 
435 907 263 33 32 35 
436 906 256 34 32 32 
436 906 257 33 32 32 
437 906 256 33 31 31 
437 906 257 33 32 32 
436 906 258 33 32 32 
436 906 259 32 32 33 
436 907 259 33 32 32 
437 906 258 31 30 31 
437 907 259 32 31 33 
438 906 256 33 32 32 
438 906 257 34 33 33 
439 906 256 32 31 31 
439 906 257 33 32 33 
439 907 257 33 33 34 
438 906 258 30 30 30 
438 907 258 33 32 32 
438 907 259 33 31 33 
439 907 258 34 32 33 
439 907 259 33 31 32 
436 907 260 34 32 34 
436 907 261 34 32 35 
437 907 260 33 31 33 
437 907 261 33 31 34 
436 907 262 33 32 35 
436 907 263 33 32 35 
437 907 262 32 32 35 
437 907 263 33 32 35 
438 907 260 33 31 33 
438 907 261 32 31 33 
439 907 260 33 31 33 
439 907 261 33 31 34 
438 907 262 32 31 34 
437 908 263 34 33 35 
438 908 261 32 31 33 
439 908 261 39 36 36 
438 908 262 32 30 33 
438 908 263 33 32 35 
439 908 262 44 39 38 
439 908 263 48 42 40 
432 906 264 33 32 36 
432 906 265 34 33 35 
433 906 264 33 32 35 
433 906 265 34 33 34 
433 906 266 34 33 35 
434 906 264 33 32 34 
434 906 265 34 33 34 
435 906 264 35 33 35 
435 906 265 33 32 34 
435 907 264 35 33 35 
435 907 265 34 32 34 
434 906 266 34 33 34 
434 906 267 35 34 35 
435 906 266 34 32 34 
435 906 267 34 33 34 
436 907 264 35 33 35 
436 907 265 35 33 35 
437 907 264 35 33 35 
437 907 265 35 33 35 
436 906 266 34 33 34 
436 906 267 35 33 34 
436 907 266 34 33 34 
437 906 266 35 34 35 
437 906 267 35 34 35 
437 907 266 35 33 34 
438 907 265 35 33 34 
438 906 267 36 34 35 
438 907 266 36 34 35 
438 907 267 36 34 35 
439 906 267 36 35 35 
439 907 266 36 35 35 
439 907 267 36 34 35 
437 905 269 36 35 35 
436 906 268 35 34 35 
437 906 268 36 34 35 
437 906 269 36 35 35 
438 905 269 36 35 35 
439 905 269 36 35 35 
438 905 270 36 35 36 
439 904 271 38 36 37 
439 905 270 37 36 36 
438 906 268 36 35 35 
438 906 269 36 35 35 
439 906 268 36 35 35 
438 908 264 34 33 35 
438 908 265 35 33 34 
439 908 264 43 38 39 
439 908 265 36 35 36 
439 908 266 36 34 34 
447 903 256 31 32 34 
443 903 271 42 39 38 
444 903 271 42 39 38 
445 903 270 44 40 38 
445 903 271 44 39 38 
447 903 269 42 39 37 
446 903 270 43 39 38 
446 903 271 49 44 41 
447 902 271 42 39 37 
447 903 270 43 39 37 
447 903 271 43 39 37 
440 906 256 33 32 32 
440 907 256 34 33 34 
440 907 257 33 33 33 
441 906 256 34 33 33 
441 907 256 33 33 34 
441 907 257 34 33 33 
440 907 258 34 33 33 
440 907 259 34 32 33 
441 907 258 36 34 34 
441 907 259 39 36 36 
442 907 256 33 32 33 
442 907 257 35 33 33 
443 906 256 32 31 32 
443 907 256 33 31 31 
443 907 257 35 33 33 
442 907 258 37 35 34 
442 907 259 37 35 34 
443 907 258 37 35 34 
443 907 259 36 34 33 
440 907 260 34 31 33 
441 907 260 50 43 41 
442 907 260 46 40 40 
443 907 260 36 34 34 
443 907 261 34 32 31 
440 908 260 42 37 37 
440 908 261 49 43 40 
441 908 260 50 43 41 
441 908 261 45 40 39 
440 908 262 46 41 39 
440 908 263 41 38 38 
440 909 263 49 42 42 
441 908 262 43 39 37 
441 908 263 46 41 39 
441 909 263 54 45 45 
442 908 260 52 44 42 
442 908 261 38 36 36 
443 908 261 36 34 33 
442 908 262 35 33 33 
442 908 263 43 39 37 
443 908 262 37 35 35 
443 908 263 35 34 34 
444 906 256 32 31 31 
444 907 256 32 31 31 
444 907 257 38 37 38 
445 906 256 32 32 34 
445 906 257 34 35 37 
445 907 257 36 36 38 
444 907 258 37 35 35 
444 907 259 35 33 33 
445 907 258 35 35 35 
445 907 259 35 33 32 
446 905 256 32 34 37 
447 904 256 29 31 34 
447 905 256 29 32 35 
447 905 257 33 34 36 
446 906 256 31 32 35 
446 906 257 34 35 37 
447 906 257 36 36 38 
446 906 258 35 35 37 
446 906 259 34 33 34 
446 907 258 35 34 35 
446 907 259 35 33 33 
447 906 258 35 35 37 
447 906 259 33 33 35 
444 907 260 37 35 34 
444 907 261 35 33 32 
445 907 260 38 35 34 
445 907 261 36 33 32 
444 907 262 37 34 33 
444 907 263 35 34 34 
445 907 262 34 32 30 
445 907 263 37 35 36 
447 905 263 33 35 37 
446 906 260 37 35 35 
446 906 261 37 35 34 
446 907 260 37 35 34 
446 907 261 36 33 31 
447 906 260 37 35 36 
447 906 261 37 35 37 
446 906 262 34 34 36 
446 906 263 31 33 36 
446 907 262 32 30 29 
446 907 263 31 32 35 
447 906 262 35 35 37 
447 906 263 34 35 37 
444 908 262 36 34 33 
444 908 263 33 32 31 
440 906 267 37 35 35 
440 907 266 37 35 35 
440 907 267 37 35 35 
441 906 267 37 35 35 
441 907 266 45 41 38 
441 907 267 37 35 35 
442 906 267 37 35 34 
442 907 266 52 46 41 
442 907 267 47 43 39 
443 906 267 43 39 37 
443 907 266 52 45 41 
443 907 267 52 46 41 
440 905 269 37 36 36 
441 905 269 38 36 36 
440 904 270 37 36 37 
440 904 271 38 37 38 
440 905 270 37 36 36 
441 904 270 38 37 38 
441 904 271 39 38 38 
441 905 270 38 36 36 
440 906 268 37 35 35 
441 906 268 37 36 36 
442 905 269 39 37 36 
443 905 268 39 37 36 
443 905 269 40 38 37 
442 904 270 38 37 38 
442 904 271 40 38 38 
442 905 270 39 38 38 
443 904 270 40 38 37 
443 904 271 41 39 38 
443 905 270 39 37 37 
442 906 268 38 35 35 
443 906 268 39 37 36 
440 908 264 49 42 42 
440 908 265 47 42 42 
440 909 264 49 42 42 
441 908 264 48 42 42 
441 908 265 48 42 41 
441 909 264 54 45 45 
440 908 266 39 36 36 
441 908 266 50 45 41 
442 908 264 56 47 44 
442 908 265 50 44 42 
443 908 264 39 37 38 
443 908 265 43 41 40 
442 908 266 51 45 42 
443 908 266 52 45 41 
445 905 267 39 36 35 
444 907 264 34 34 36 
444 907 265 47 42 40 
445 906 265 53 45 43 
445 907 264 44 40 40 
445 907 265 52 44 42 
444 906 266 51 44 40 
444 906 267 39 37 35 
444 907 266 43 40 38 
445 906 266 52 45 42 
445 906 267 52 45 42 
445 907 266 52 45 42 
447 905 264 33 35 37 
447 905 265 34 35 37 
446 905 266 40 38 38 
446 905 267 39 36 35 
447 904 266 38 34 34 
447 904 267 40 36 35 
447 905 266 36 35 34 
447 905 267 40 36 35 
446 906 264 32 34 36 
446 906 265 34 35 37 
446 907 264 33 33 35 
447 906 264 34 36 38 
446 906 266 40 39 38 
444 904 269 41 38 37 
444 905 268 39 37 36 
444 905 269 41 38 36 
445 904 269 41 38 37 
445 905 268 40 37 35 
445 905 269 40 37 35 
444 904 270 41 38 37 
445 904 270 42 39 37 
446 904 268 40 37 36 
446 904 269 41 38 36 
446 905 268 41 37 35 
447 904 268 41 38 37 
447 904 269 42 39 37 
446 904 270 43 39 38 
444 908 264 32 34 36 
441 903 272 41 39 38 
441 903 273 41 38 38 
442 903 272 42 38 39 
442 903 273 42 38 38 
443 902 273 43 38 38 
443 903 272 43 39 38 
443 903 273 43 38 38 
443 902 274 43 39 39 
444 902 273 42 39 38 
444 903 272 43 39 38 
444 903 273 43 39 38 
445 902 272 43 40 39 
445 902 273 42 39 38 
445 903 272 43 40 39 
444 902 274 42 40 38 
446 902 272 43 40 38 
446 902 273 42 39 37 
446 903 272 44 41 38 
447 902 272 43 40 38 
440 904 272 39 38 38 
441 904 272 40 39 39 
442 904 272 41 39 39 
450 899 256 32 30 28 
451 898 256 31 29 30 
451 899 256 33 30 31 
451 899 257 34 31 31 
448 901 256 34 32 31 
449 900 256 36 33 31 
449 901 256 34 32 30 
448 902 256 34 32 33 
448 903 256 34 33 33 
449 902 256 35 33 32 
449 902 257 35 33 31 
449 903 257 32 31 30 
450 900 256 35 32 30 
450 900 257 35 32 31 
450 901 256 36 34 32 
450 901 257 35 32 31 
451 900 257 34 31 30 
451 901 257 35 32 31 
450 902 257 34 32 30 
450 903 257 35 33 32 
451 902 257 34 31 31 
451 903 257 35 32 32 
452 898 256 33 28 32 
452 898 257 35 32 31 
452 899 257 33 31 29 
453 898 257 37 34 34 
453 899 257 36 33 31 
454 899 258 36 31 31 
452 900 257 37 33 32 
452 901 257 37 32 32 
453 900 257 37 32 30 
453 901 257 37 31 30 
453 900 258 36 31 30 
453 901 258 38 33 30 
452 902 257 34 29 30 
453 902 257 35 30 28 
452 903 258 36 31 32 
453 902 258 37 32 29 
453 903 258 39 33 31 
453 903 259 43 38 34 
454 900 258 36 31 29 
454 901 258 39 34 31 
454 902 258 40 35 31 
454 902 259 44 39 34 
454 903 259 45 39 35 
455 902 258 41 36 31 
455 902 259 44 38 33 
455 903 259 46 40 36 
453 903 260 42 37 33 
453 903 261 37 34 31 
453 903 262 37 34 34 
453 903 263 41 38 36 
454 903 260 41 37 33 
454 903 261 38 33 31 
455 903 260 43 37 33 
455 903 261 42 36 32 
454 903 262 41 37 34 
454 903 263 41 37 34 
455 902 263 41 37 34 
455 903 262 43 38 33 
455 903 263 40 36 32 
449 903 267 40 37 35 
451 903 265 35 32 31 
450 903 266 37 33 31 
450 903 267 40 36 34 
451 903 266 35 32 31 
451 903 267 40 36 34 
448 903 268 41 38 36 
448 903 269 42 38 36 
449 903 268 41 38 36 
449 903 269 41 38 37 
448 902 270 41 38 36 
448 902 271 42 38 37 
448 903 270 41 38 36 
449 902 270 41 38 37 
449 902 271 42 38 37 
449 903 270 41 38 36 
450 901 271 42 39 38 
451 901 270 42 38 37 
450 902 269 42 38 36 
450 903 268 41 37 36 
450 903 269 41 38 37 
451 902 268 41 37 35 
451 902 269 42 38 36 
451 903 268 40 36 35 
450 902 270 42 38 37 
450 902 271 42 39 38 
451 902 270 42 38 37 
452 903 264 38 36 35 
452 903 265 37 35 34 
453 903 264 38 36 34 
453 903 265 38 35 34 
452 902 267 38 35 34 
452 903 266 36 34 34 
452 903 267 34 33 33 
453 902 266 37 36 35 
453 902 267 38 36 35 
453 903 266 38 35 34 
455 901 267 41 37 36 
454 902 265 39 37 36 
454 903 264 38 35 33 
454 903 265 38 36 35 
455 902 264 40 37 36 
455 902 265 39 37 36 
455 903 264 40 37 35 
454 902 266 40 37 36 
454 902 267 33 33 35 
455 902 266 37 36 36 
455 902 267 44 39 36 
453 901 269 43 38 37 
452 902 268 41 37 35 
452 902 269 42 38 36 
453 902 268 42 37 35 
453 902 269 42 38 36 
454 901 268 43 38 36 
455 901 268 44 39 36 
454 902 268 32 33 34 
448 904 256 31 32 33 
448 904 257 32 31 32 
448 905 257 33 32 34 
449 904 257 34 32 32 
448 905 258 37 35 38 
448 905 259 35 32 35 
449 905 258 35 33 34 
449 905 259 37 33 37 
448 906 258 36 34 37 
448 906 259 34 32 35 
450 904 257 36 34 32 
450 904 258 34 32 32 
450 904 259 37 32 37 
450 905 258 34 32 31 
450 905 259 37 33 37 
451 904 258 37 32 36 
451 904 259 38 34 35 
448 905 260 36 30 37 
448 905 261 35 32 36 
449 905 260 36 31 38 
449 905 261 33 33 37 
448 905 262 33 35 37 
448 905 263 33 34 37 
449 905 262 33 35 37 
449 905 263 33 34 36 
448 906 260 35 32 36 
448 906 261 36 32 36 
448 906 262 34 35 36 
450 904 261 40 37 35 
450 905 260 38 35 37 
450 905 261 34 35 37 
451 904 260 42 37 33 
451 904 261 41 36 31 
450 904 262 37 36 36 
450 904 263 34 34 35 
450 905 262 34 36 38 
450 905 263 35 36 38 
451 904 262 37 32 29 
451 904 263 32 30 30 
452 904 258 38 34 36 
452 904 259 39 36 33 
453 904 259 43 38 33 
452 904 260 41 36 32 
452 904 261 39 34 30 
453 904 260 42 37 32 
453 904 261 38 34 31 
452 904 262 35 32 30 
452 904 263 34 32 34 
453 904 262 35 33 32 
453 904 263 35 33 35 
448 905 264 32 33 35 
448 905 265 35 33 34 
449 904 264 35 35 35 
449 904 265 38 34 34 
449 905 264 33 33 35 
448 904 266 39 35 34 
448 904 267 40 36 35 
448 905 266 38 33 33 
449 904 266 39 35 33 
449 904 267 40 36 34 
450 904 264 33 32 32 
450 904 265 35 32 30 
451 904 264 34 32 32 
451 904 265 33 30 27 
450 904 266 39 35 33 
448 904 268 41 38 36 
452 904 264 36 34 35 
456 902 260 49 42 36 
456 903 260 46 40 35 
456 903 261 45 38 33 
456 902 262 43 37 32 
456 902 263 42 38 34 
456 903 262 43 37 32 
456 903 263 43 38 33 
457 902 262 44 39 33 
457 902 263 41 37 35 
457 901 265 36 35 36 
456 901 266 35 35 36 
456 901 267 33 33 34 
457 901 266 38 36 36 
457 901 267 41 37 36 
456 902 264 40 37 35 
456 902 265 36 35 34 
457 902 264 37 35 34 
457 902 265 40 36 35 
456 902 266 38 36 36 
458 901 265 36 34 34 
458 900 266 35 34 34 
458 901 266 36 35 35 
448 902 272 42 39 38 
455 895 284 38 36 36 
455 895 285 40 37 37 
460 895 279 37 35 35 
461 895 278 37 35 35 
461 895 279 36 35 35 
462 895 277 36 34 34 
462 895 278 36 35 35 
462 895 279 36 34 35 
463 895 279 35 34 34 
456 895 283 38 36 36 
457 895 282 37 36 35 
457 895 283 39 37 37 
458 895 281 35 34 34 
459 895 281 39 38 38 
458 895 282 37 36 36 
458 895 283 39 37 37 
459 894 283 39 39 40 
459 895 282 39 38 39 
459 895 283 39 39 40 
456 895 284 40 38 38 
456 895 285 43 41 41 
457 894 284 39 38 38 
457 894 285 40 39 39 
457 895 284 40 38 38 
457 895 285 41 40 40 
456 895 286 42 40 40 
457 894 286 43 39 38 
459 893 287 41 38 37 
458 894 284 39 38 38 
458 894 285 43 40 39 
458 895 284 38 37 37 
459 894 284 42 41 43 
459 894 285 47 43 45 
458 894 286 43 40 39 
458 894 287 40 37 36 
459 894 286 45 41 41 
459 894 287 41 38 37 
460 895 280 36 35 35 
460 895 281 36 36 37 
461 894 281 35 35 36 
461 895 280 36 35 35 
461 895 281 34 34 35 
460 894 282 38 36 37 
460 894 283 39 38 40 
460 895 282 39 38 40 
461 894 282 37 36 37 
461 894 283 39 37 37 
462 894 281 36 35 35 
462 895 280 36 34 35 
462 895 281 36 34 34 
463 894 280 36 34 34 
463 894 281 37 35 35 
463 895 280 35 34 35 
462 894 282 38 37 37 
462 894 283 41 38 38 
463 894 282 39 37 37 
463 894 283 43 40 39 
460 893 285 43 39 39 
461 893 284 43 40 39 
461 893 285 43 40 38 
460 893 286 44 40 39 
460 893 287 45 41 38 
461 893 286 43 39 38 
461 893 287 44 40 38 
460 894 284 41 39 40 
460 894 285 43 39 39 
461 894 284 41 39 38 
462 893 284 42 39 37 
462 893 285 46 42 39 
463 893 284 46 42 39 
463 893 285 48 43 40 
462 893 286 45 41 39 
462 893 287 42 39 37 
463 893 286 44 40 38 
463 893 287 42 39 37 
462 894 284 42 38 37 
463 894 284 43 39 37 
464 893 282 41 37 35 
464 893 283 43 39 37 
464 894 281 37 35 36 
464 894 282 39 36 36 
464 894 283 42 39 37 
464 893 284 47 42 38 
464 893 285 43 40 38 
465 893 284 45 40 37 
465 893 285 43 39 37 
464 892 287 46 41 37 
464 893 286 42 39 37 
464 893 287 42 38 35 
465 892 286 45 39 35 
465 892 287 48 42 39 
465 893 286 43 39 36 
466 892 287 52 46 41 
459 893 288 42 39 38 
459 894 288 42 39 38 
460 893 288 43 39 37 
460 893 289 40 37 35 
461 893 288 42 38 37 
461 893 289 41 38 37 
461 893 290 42 39 38 
462 893 288 41 38 36 
462 893 289 41 38 36 
463 893 288 42 38 35 
463 893 289 45 41 38 
462 893 290 41 38 36 
462 893 291 40 37 35 
463 893 290 42 38 36 
463 893 291 41 37 35 
463 893 292 41 37 35 
464 892 288 51 46 43 
464 892 289 51 46 43 
464 893 288 46 41 38 
464 893 289 49 44 41 
465 892 288 53 47 44 
465 892 289 51 46 42 
464 892 290 45 40 36 
464 893 290 43 39 35 
464 893 291 41 37 33 
465 892 290 44 39 35 
465 892 291 42 36 31 
465 893 291 43 37 32 
466 892 288 56 50 46 
466 892 289 52 46 42 
467 892 289 51 45 40 
466 892 290 45 39 34 
466 892 291 44 38 32 
467 892 290 46 39 33 
467 892 291 43 38 33 
464 893 292 41 36 32 
464 893 293 41 37 33 
465 893 292 43 38 33 
465 893 293 42 37 34 
464 894 293 43 38 35 
466 892 292 42 37 34 
466 893 292 43 38 34 
466 893 293 43 38 34 
467 892 292 42 38 34 
467 892 293 44 39 35 
467 893 293 45 39 35 
466 893 294 44 39 36 
467 893 294 45 40 35 
467 893 295 45 40 36 
467 894 295 46 40 36 
468 892 291 43 38 35 
468 892 292 43 38 33 
468 892 293 45 39 34 
469 892 293 46 40 35 
468 892 294 46 40 34 
468 893 294 45 39 34 
468 893 295 46 40 35 
469 892 294 46 39 35 
469 893 295 45 39 35 
468 894 295 46 40 35 
469 894 295 43 38 34 
470 892 295 46 39 32 
470 893 295 46 39 34 
468 894 296 46 39 31 
468 895 296 55 46 38 
469 894 296 47 38 32 
469 895 296 56 45 35 
469 895 297 60 49 38 
471 893 296 48 41 34 
470 894 296 47 38 30 
470 895 296 56 45 34 
470 895 297 62 51 39 
471 894 296 48 39 31 
471 895 296 56 45 34 
471 895 297 62 50 38 
472 895 297 63 51 39 
444 901 275 43 41 40 
445 901 275 44 41 40 
444 902 275 44 41 40 
445 902 274 42 40 39 
446 901 274 42 39 38 
446 901 275 43 40 39 
447 901 274 42 39 38 
447 901 275 43 40 39 
447 902 273 43 39 38 
446 902 274 42 39 38 
447 902 274 42 39 38 
445 901 276 43 41 40 
446 900 277 41 38 38 
446 901 276 43 40 39 
446 901 277 42 39 39 
447 900 276 43 40 39 
447 900 277 41 39 38 
447 901 276 43 40 39 
447 900 278 40 38 38 
451 901 271 42 38 37 
452 901 270 42 38 37 
452 901 271 42 38 38 
453 900 271 42 38 38 
453 901 270 42 39 37 
453 901 271 42 38 37 
452 902 270 42 38 37 
454 901 269 44 39 37 
455 901 269 44 39 37 
454 900 270 42 38 38 
454 900 271 42 39 38 
454 901 270 43 39 38 
455 900 270 43 39 38 
455 900 271 42 39 38 
455 901 270 43 39 38 
457 899 270 43 38 36 
457 899 271 38 36 38 
459 899 269 42 38 37 
458 899 270 44 38 36 
458 899 271 37 36 36 
459 899 270 34 33 35 
459 899 271 40 36 34 
458 900 267 35 34 35 
458 901 267 36 35 36 
456 900 269 45 38 36 
456 901 268 39 36 35 
456 901 269 44 39 36 
457 900 268 46 39 37 
457 900 269 45 39 37 
457 901 268 39 36 36 
456 900 270 44 39 38 
456 900 271 42 40 40 
457 900 270 43 38 37 
457 900 271 43 38 38 
458 900 268 35 35 36 
458 900 269 34 34 36 
459 900 268 37 35 35 
459 900 269 33 33 35 
458 900 270 44 39 36 
460 898 271 41 36 33 
460 899 270 38 36 35 
448 899 279 39 36 36 
449 899 278 39 37 37 
449 899 279 39 36 36 
450 899 277 40 37 37 
451 899 276 41 38 38 
451 899 277 40 38 38 
450 899 278 40 37 37 
450 899 279 40 37 36 
451 898 279 40 37 36 
451 899 278 40 38 37 
451 899 279 39 37 36 
448 901 273 43 39 38 
449 901 272 41 38 37 
449 901 273 41 38 37 
448 901 274 42 39 38 
448 901 275 42 39 38 
449 900 275 42 39 39 
449 901 274 42 39 38 
449 901 275 42 39 38 
448 902 273 43 40 38 
449 902 272 42 38 37 
450 901 272 42 39 38 
450 901 273 41 38 37 
451 900 273 40 38 37 
451 901 272 41 38 38 
451 901 273 41 38 37 
450 900 274 40 38 37 
450 900 275 42 39 39 
450 901 274 41 38 38 
451 900 274 40 38 38 
451 900 275 40 38 38 
448 900 276 43 40 39 
448 900 277 41 39 38 
448 901 276 42 39 38 
449 900 276 42 39 39 
449 900 277 41 38 38 
448 900 278 40 38 38 
448 900 279 40 37 37 
449 900 278 40 38 38 
450 900 276 42 39 39 
450 900 277 41 39 39 
451 900 276 41 38 38 
452 899 275 41 38 38 
453 899 274 39 38 38 
453 899 275 40 38 38 
455 899 273 42 41 43 
454 899 274 40 38 38 
454 899 275 40 38 38 
455 899 274 40 38 39 
455 899 275 40 38 38 
452 899 276 41 39 38 
452 899 277 40 38 38 
453 898 277 40 38 38 
453 899 276 40 38 38 
453 899 277 40 38 38 
452 898 278 40 38 37 
452 898 279 40 37 37 
452 899 278 40 38 37 
453 898 278 40 37 37 
453 898 279 40 37 36 
454 897 279 39 37 37 
455 897 278 39 36 36 
455 897 279 38 36 37 
454 898 276 40 38 38 
454 898 277 40 38 38 
454 899 276 40 38 38 
455 898 276 41 38 38 
455 898 277 40 37 37 
454 898 278 40 37 36 
454 898 279 39 37 37 
455 898 278 40 37 36 
452 900 273 40 38 38 
452 901 272 41 38 38 
452 901 273 41 38 38 
453 900 272 41 38 38 
453 900 273 41 38 38 
453 901 272 41 38 38 
452 900 274 41 38 38 
452 900 275 40 38 38 
453 900 274 40 38 38 
453 900 275 40 38 38 
454 900 272 41 39 39 
454 900 273 41 39 40 
455 900 272 46 49 53 
455 900 273 42 40 41 
454 900 274 40 38 38 
449 899 280 38 36 35 
450 898 280 39 36 35 
450 899 280 39 36 35 
451 898 280 39 37 36 
451 898 281 38 36 35 
453 897 280 36 37 38 
453 897 281 37 35 35 
452 897 282 37 35 34 
453 896 283 38 36 36 
453 897 282 38 35 34 
453 897 283 38 36 36 
452 898 280 39 36 35 
452 898 281 38 36 36 
453 898 280 39 37 36 
453 898 281 37 36 36 
452 898 282 36 35 36 
454 897 280 39 37 37 
454 897 281 38 35 33 
455 896 281 38 35 35 
455 897 280 36 33 32 
455 897 281 37 33 29 
454 896 282 37 36 36 
454 896 283 39 36 35 
454 897 282 39 35 34 
455 896 282 38 35 34 
455 896 283 38 35 34 
454 896 284 38 36 35 
455 896 284 37 35 33 
456 899 272 42 41 43 
456 899 273 47 50 53 
457 899 272 40 37 37 
457 899 273 42 39 39 
456 898 275 54 49 47 
456 899 274 49 47 48 
456 899 275 53 50 48 
457 898 274 44 41 39 
457 898 275 53 48 43 
457 899 274 43 41 40 
458 897 275 51 47 45 
459 897 274 42 38 36 
459 897 275 44 41 39 
458 898 273 41 37 36 
458 899 272 41 37 36 
458 899 273 41 37 36 
459 898 272 40 36 34 
459 898 273 38 36 35 
459 899 272 43 38 36 
458 898 274 43 40 39 
458 898 275 44 41 39 
459 898 274 45 40 38 
456 897 277 40 37 36 
457 897 276 56 48 41 
457 897 277 48 42 38 
456 897 278 39 36 36 
456 897 279 38 36 35 
457 896 279 38 35 35 
457 897 278 40 37 36 
457 897 279 38 35 35 
456 898 276 48 44 41 
456 898 277 41 38 36 
457 898 276 55 48 41 
457 898 277 54 47 43 
458 897 276 56 50 44 
458 897 277 47 41 37 
459 896 277 39 36 35 
459 897 276 42 38 37 
459 897 277 41 37 36 
458 896 278 39 36 35 
458 896 279 38 35 34 
458 897 278 40 37 35 
459 896 278 38 35 35 
459 896 279 38 35 35 
456 900 272 41 43 47 
460 897 273 36 37 39 
461 897 273 38 37 38 
460 897 274 39 38 40 
460 897 275 41 38 37 
461 896 275 39 36 36 
461 897 274 40 38 38 
461 897 275 41 39 37 
460 898 272 42 37 35 
460 898 273 37 36 37 
460 898 274 35 36 39 
460 896 276 38 36 35 
460 896 277 37 35 35 
460 897 276 40 37 36 
460 897 277 39 36 35 
461 896 276 38 36 36 
461 896 277 37 35 35 
460 896 278 37 35 35 
460 896 279 37 35 35 
461 896 278 37 35 35 
462 896 276 38 36 36 
462 896 277 37 35 35 
456 896 280 36 33 31 
456 896 281 38 35 35 
456 897 280 35 32 30 
457 896 280 37 35 34 
457 896 281 37 35 35 
457 897 280 36 33 31 
456 896 282 38 36 35 
456 896 283 38 36 36 
457 896 282 38 36 35 
458 896 280 36 34 33 
458 896 281 35 33 32 
459 896 280 36 34 35 
460 896 280 37 35 35 
469 896 297 71 59 48 
469 897 297 81 68 56 
470 896 297 72 60 49 
470 897 297 81 68 56 
471 896 297 73 61 49 
471 897 297 82 68 56 
470 897 298 86 71 58 
471 897 298 86 71 59 
470 898 298 88 73 59 
470 899 298 88 73 59 
471 898 298 87 72 59 
471 899 298 86 72 58 
471 899 299 85 71 57 
471 900 299 84 71 58 
472 896 297 73 61 49 
472 897 297 82 68 56 
472 897 298 86 71 59 
473 897 298 86 72 59 
472 898 298 86 72 59 
472 899 299 85 71 57 
473 898 298 86 72 59 
473 899 299 84 70 57 
474 899 299 83 70 56 
472 900 299 84 71 58 
473 900 299 84 70 57 
473 900 300 82 70 58 
473 901 300 81 69 57 
474 900 300 81 67 55 
