ply
format ascii 1.0
comment Created by CloudCompare v2.10.1 (Zephyrus)
comment Created 1/31/20 6:24 PM
obj_info Generated by CloudCompare!
element vertex 1444
property float x
property float y
property float z
property uchar red
property uchar green
property uchar blue
end_header
488 829 232 46 37 28 
488 829 233 42 33 25 
488 830 232 44 36 28 
489 831 232 39 31 25 
489 831 233 46 37 35 
489 831 234 48 40 38 
489 831 235 49 42 37 
479 855 234 37 36 36 
479 855 235 38 36 35 
479 854 236 40 37 35 
479 854 237 40 37 34 
479 855 236 38 36 34 
479 855 237 40 36 34 
479 855 238 42 37 33 
475 860 235 38 35 34 
475 861 235 39 36 34 
474 862 235 40 37 34 
474 863 235 38 35 33 
475 862 235 40 36 34 
475 860 236 39 36 34 
475 860 237 42 38 35 
475 861 236 40 36 33 
475 861 237 42 37 34 
475 861 238 40 37 36 
474 862 236 39 35 31 
474 863 236 40 35 33 
474 863 237 41 35 32 
475 862 236 39 34 31 
475 862 237 40 35 31 
474 863 238 41 36 35 
475 862 238 39 37 35 
475 862 239 34 33 34 
475 863 238 40 37 36 
475 863 239 40 36 36 
477 857 235 38 34 33 
476 858 235 40 37 36 
476 859 235 40 37 36 
477 858 235 38 36 34 
478 856 234 38 34 36 
478 856 235 38 36 35 
478 857 234 37 33 35 
478 857 235 38 34 33 
477 857 236 39 34 32 
477 857 237 41 36 32 
476 858 236 42 37 34 
476 858 237 41 37 33 
476 859 236 40 36 34 
476 859 237 41 37 33 
477 858 236 40 36 33 
477 858 237 41 37 33 
476 859 238 41 36 32 
477 858 238 42 36 32 
477 858 239 41 34 30 
477 859 238 40 34 29 
477 859 239 40 34 29 
478 856 236 38 35 34 
478 856 237 39 35 32 
478 857 236 38 34 32 
478 857 237 40 35 32 
479 856 237 40 36 33 
478 856 238 41 36 32 
478 857 238 41 35 31 
478 857 239 41 35 30 
479 856 238 41 36 33 
479 856 239 42 36 31 
478 858 239 41 34 30 
476 860 235 38 35 34 
476 860 236 40 36 34 
476 860 237 43 38 34 
476 860 238 42 37 33 
476 860 239 40 34 30 
476 861 238 40 36 34 
476 861 239 37 35 35 
476 862 239 31 31 32 
475 862 240 36 34 34 
475 863 240 39 34 33 
477 858 240 42 34 32 
477 859 240 40 34 31 
477 859 241 41 35 33 
478 857 240 41 34 30 
479 856 240 41 35 30 
479 857 240 41 35 30 
479 857 241 41 34 31 
478 858 240 41 33 30 
478 858 241 40 33 31 
478 859 241 40 34 33 
479 858 241 40 33 31 
478 859 242 39 32 31 
479 858 242 38 30 30 
479 859 242 39 33 31 
476 861 240 37 34 33 
477 860 240 39 32 30 
477 860 241 39 33 31 
477 861 240 39 34 33 
477 861 241 39 34 34 
476 862 240 35 32 33 
476 862 241 39 33 33 
476 863 241 40 33 30 
477 862 241 40 34 34 
477 863 241 41 34 33 
477 862 242 40 35 35 
477 863 242 41 35 33 
478 860 241 38 32 32 
478 861 241 39 34 34 
478 860 242 38 32 30 
478 861 242 39 34 32 
479 860 242 38 32 31 
479 861 242 38 33 29 
479 861 243 40 33 30 
478 862 242 40 35 32 
478 862 243 40 36 33 
478 863 242 40 36 33 
478 863 243 41 36 33 
479 862 243 41 36 31 
479 863 243 43 38 34 
473 865 235 35 33 31 
474 864 235 37 34 32 
473 865 236 38 34 31 
474 864 236 39 33 32 
474 864 237 41 33 32 
474 865 237 41 33 32 
474 864 238 42 36 34 
474 864 239 40 36 35 
474 865 238 42 36 34 
474 865 239 41 36 35 
475 864 239 39 34 34 
474 865 240 40 35 33 
474 865 241 41 35 32 
475 864 240 39 32 31 
475 864 241 40 34 30 
475 865 240 38 33 30 
475 865 241 40 34 30 
475 865 242 41 34 32 
475 866 241 41 35 30 
476 864 241 41 34 29 
476 864 242 41 34 29 
476 865 242 42 35 32 
477 864 242 42 36 32 
477 865 242 43 37 34 
477 865 243 45 40 36 
476 866 242 43 38 34 
476 866 243 42 37 34 
477 866 243 44 39 36 
477 867 243 45 39 36 
478 864 242 42 38 34 
478 864 243 42 37 34 
478 865 243 45 40 37 
479 864 243 45 38 35 
479 865 243 51 44 40 
478 866 243 47 41 37 
478 867 243 50 43 39 
479 866 243 55 45 41 
479 867 243 56 48 42 
478 867 244 53 45 41 
479 867 244 59 49 43 
478 868 244 53 46 40 
479 868 244 59 50 42 
487 839 232 62 52 44 
487 839 233 45 38 32 
487 839 234 42 38 37 
486 841 232 62 53 47 
487 840 232 58 48 38 
487 840 233 47 39 31 
487 841 232 56 48 41 
487 841 233 48 42 37 
487 840 234 42 39 36 
487 840 235 43 41 40 
487 841 234 44 40 38 
487 841 235 43 39 38 
486 842 233 49 43 40 
486 843 233 48 42 38 
486 842 234 44 40 38 
486 843 234 44 41 38 
486 843 235 46 40 36 
487 842 234 46 42 39 
487 842 235 44 40 37 
487 840 236 43 40 38 
487 841 236 42 38 37 
486 843 236 42 37 33 
487 842 236 42 38 35 
487 842 237 39 35 32 
487 843 236 42 37 34 
487 843 237 38 34 32 
487 842 238 38 34 31 
487 843 238 37 34 31 
485 844 233 51 44 38 
485 845 233 51 42 36 
485 844 234 45 41 40 
485 844 235 43 39 36 
485 845 234 44 39 36 
485 845 235 44 39 35 
484 846 233 51 44 37 
484 847 233 50 42 35 
485 846 233 49 42 36 
484 846 234 47 41 36 
484 847 234 43 38 34 
484 847 235 38 33 30 
485 846 234 44 38 34 
485 846 235 40 35 31 
485 847 235 39 34 30 
486 844 233 51 44 39 
486 844 234 43 39 38 
486 844 235 42 37 34 
485 845 236 41 36 32 
485 845 237 38 33 30 
484 847 236 39 34 30 
484 847 237 39 33 29 
485 846 236 38 33 29 
485 846 237 38 33 30 
485 847 236 38 33 30 
485 847 237 38 33 29 
485 847 238 37 33 30 
486 844 236 41 37 33 
486 844 237 39 35 31 
486 845 237 37 33 30 
487 844 237 38 34 30 
486 844 238 38 33 30 
486 845 238 37 33 32 
487 844 238 38 33 30 
487 844 239 41 36 32 
487 845 238 39 35 34 
487 845 239 40 36 33 
486 846 238 38 34 32 
486 847 238 37 33 31 
486 847 239 39 34 33 
487 846 239 40 36 33 
487 847 239 42 37 34 
489 832 232 40 34 29 
489 832 233 45 35 35 
489 833 232 42 35 31 
489 833 233 42 33 31 
489 832 234 48 39 36 
489 832 235 48 40 35 
489 833 234 45 36 34 
489 833 235 47 39 35 
488 834 232 46 39 34 
488 835 232 51 44 37 
488 835 233 40 33 27 
489 834 232 40 34 30 
489 834 233 41 34 30 
489 835 233 41 34 29 
489 834 234 43 34 32 
489 834 235 45 36 33 
489 835 234 43 37 32 
489 835 235 45 39 34 
489 834 236 45 38 34 
489 835 236 45 39 34 
490 833 236 45 38 32 
490 833 237 44 36 33 
490 834 236 45 39 34 
490 834 237 45 38 35 
490 835 236 46 40 35 
490 835 237 45 38 35 
491 834 237 43 37 33 
491 835 237 44 38 35 
488 836 232 57 50 43 
488 836 233 41 35 29 
488 837 232 63 55 48 
488 837 233 44 38 33 
488 836 234 42 36 32 
488 837 234 41 36 32 
488 837 235 44 40 37 
489 836 234 43 37 33 
489 836 235 44 39 35 
489 837 235 46 41 38 
488 838 232 64 56 48 
488 838 233 48 42 37 
488 838 234 39 35 33 
488 838 235 42 38 37 
488 839 234 41 37 36 
488 839 235 43 40 40 
489 836 236 44 39 34 
489 837 236 48 43 40 
488 838 236 44 40 38 
488 839 236 44 40 38 
488 839 237 44 40 37 
489 838 237 44 39 36 
489 839 237 44 39 36 
489 839 238 42 38 36 
490 836 236 44 39 34 
490 836 237 44 39 35 
490 837 237 43 38 34 
491 836 237 45 39 35 
491 837 237 46 38 35 
491 837 238 46 39 35 
490 838 237 43 38 35 
490 838 238 43 37 35 
490 839 238 43 38 35 
491 838 238 46 39 35 
491 839 238 46 38 35 
492 836 237 45 39 36 
492 836 238 46 40 36 
492 837 238 48 42 39 
492 838 238 50 44 40 
492 839 238 48 42 37 
492 839 239 51 44 38 
493 838 238 54 45 40 
493 839 238 54 46 40 
493 839 239 55 47 40 
494 839 239 61 51 42 
488 840 235 47 44 43 
488 840 236 43 40 38 
488 840 237 43 38 36 
488 841 237 40 37 35 
488 840 238 43 38 34 
488 841 238 40 36 34 
489 840 238 43 38 36 
489 841 238 41 36 34 
489 841 239 42 37 34 
488 842 238 40 35 32 
488 843 238 39 35 31 
488 843 239 41 36 32 
489 842 238 41 36 33 
489 842 239 44 38 34 
489 843 239 45 38 33 
490 840 238 44 38 36 
490 840 239 46 39 35 
490 841 239 45 39 35 
491 840 238 45 38 33 
491 840 239 47 40 35 
491 841 239 49 41 34 
490 842 239 47 41 35 
490 843 239 49 42 35 
491 842 239 51 43 36 
491 843 239 53 44 37 
488 844 239 42 36 32 
488 845 239 42 37 33 
489 844 239 45 39 32 
489 845 239 45 38 34 
488 846 239 42 37 33 
488 847 239 44 38 34 
490 844 239 51 43 36 
491 844 239 55 46 38 
492 840 239 52 44 37 
492 841 239 54 46 38 
493 840 239 57 48 40 
493 841 239 59 50 41 
492 842 239 56 46 38 
492 843 239 57 47 39 
493 842 239 61 50 40 
493 843 239 62 51 41 
494 840 239 63 53 43 
494 841 239 65 54 43 
495 841 239 70 59 48 
494 842 239 66 55 43 
494 843 239 68 57 46 
495 842 239 71 59 47 
495 843 239 72 60 48 
492 844 239 58 49 40 
493 844 239 64 54 44 
494 844 239 70 59 47 
494 845 239 73 61 49 
495 844 239 73 61 49 
495 845 239 76 63 51 
494 846 239 75 63 50 
494 847 239 75 61 48 
495 846 239 77 64 50 
495 847 239 76 63 49 
487 847 240 44 38 34 
489 845 240 47 39 35 
488 846 240 45 38 35 
488 847 240 46 39 35 
489 846 240 48 40 35 
489 847 240 52 43 36 
490 844 240 52 44 36 
490 845 240 54 44 37 
491 844 240 55 47 38 
491 845 240 57 48 39 
490 846 240 56 46 38 
490 847 240 59 48 38 
491 846 240 59 49 39 
491 847 240 61 50 39 
492 844 240 59 50 40 
492 845 240 61 51 40 
493 844 240 62 52 43 
493 845 240 66 55 45 
492 846 240 63 51 40 
492 847 240 65 53 42 
493 846 240 68 57 46 
493 847 240 70 58 47 
494 846 240 74 62 50 
494 847 240 74 61 48 
483 848 233 49 41 34 
483 849 233 50 43 36 
483 848 234 42 37 33 
483 849 234 42 37 33 
483 849 235 38 35 33 
482 850 233 46 39 32 
482 851 233 44 37 34 
482 850 234 40 35 31 
482 850 235 38 34 32 
482 851 234 37 33 34 
482 851 235 35 32 34 
483 850 234 38 35 32 
483 850 235 38 35 33 
483 849 236 37 33 31 
483 849 237 41 35 30 
482 850 236 37 34 32 
482 851 236 37 33 33 
482 851 237 40 34 31 
483 850 236 39 35 32 
483 850 237 40 35 31 
482 851 238 41 35 30 
483 850 238 40 34 30 
483 851 238 39 34 29 
483 851 239 37 32 29 
481 852 234 38 34 36 
481 852 235 38 35 37 
481 853 234 39 35 36 
481 853 235 37 35 36 
480 854 234 39 33 34 
480 854 235 37 33 34 
481 854 234 41 34 35 
481 852 236 39 35 35 
481 852 237 41 35 32 
481 853 236 38 34 35 
481 853 237 40 35 33 
481 852 238 42 34 30 
481 853 238 41 34 29 
480 854 236 38 35 35 
480 854 237 41 37 34 
480 854 238 41 36 32 
480 855 238 42 37 32 
480 855 239 42 37 32 
481 854 238 42 36 31 
481 854 239 40 35 32 
481 855 239 41 36 32 
482 852 237 42 36 32 
482 852 238 41 35 30 
482 852 239 39 33 29 
482 853 238 38 33 28 
482 853 239 37 33 29 
483 852 239 38 33 30 
482 854 239 37 33 30 
484 848 233 48 40 33 
484 848 234 41 36 32 
484 848 235 38 34 31 
484 848 236 38 33 30 
484 848 237 40 33 30 
484 849 236 37 32 29 
484 849 237 40 34 30 
484 848 238 40 34 31 
484 849 238 39 33 30 
485 848 238 39 33 30 
485 849 238 38 32 29 
485 849 239 38 32 29 
484 850 238 40 34 31 
484 850 239 40 34 30 
484 851 239 39 33 30 
485 850 239 39 33 30 
486 848 239 39 34 32 
486 849 239 39 33 31 
495 854 231 77 69 63 
495 855 231 75 67 61 
494 848 239 75 61 48 
495 848 239 76 63 49 
495 849 239 79 66 52 
495 850 239 84 71 57 
495 851 239 89 75 61 
495 854 232 77 69 63 
495 854 233 79 70 64 
495 855 232 75 66 60 
495 855 233 77 67 59 
495 854 234 79 69 60 
495 854 235 77 66 57 
495 855 234 76 66 56 
495 855 235 74 64 55 
495 852 238 89 75 61 
495 852 239 92 77 62 
495 853 238 85 72 59 
495 853 239 87 74 60 
494 855 237 78 68 58 
495 854 236 78 67 57 
495 854 237 79 67 56 
495 855 236 75 65 57 
495 855 237 76 66 57 
494 854 238 81 69 59 
494 854 239 84 72 61 
494 855 238 79 69 59 
494 855 239 82 72 63 
495 854 238 82 70 59 
495 854 239 85 73 61 
495 855 238 78 67 57 
492 859 231 78 64 58 
493 858 231 78 63 58 
493 859 231 73 60 54 
494 856 231 77 67 60 
494 857 231 79 66 58 
492 860 231 76 63 57 
492 861 231 74 62 58 
491 861 232 70 58 53 
491 862 232 69 58 54 
491 862 233 69 57 54 
491 863 232 68 57 55 
491 863 233 72 60 56 
491 862 234 74 62 60 
491 862 235 82 68 64 
491 863 234 76 63 61 
491 863 235 77 64 62 
491 863 236 86 74 67 
491 863 237 88 76 68 
491 862 239 84 73 64 
491 863 238 88 76 66 
491 863 239 82 72 63 
492 859 232 67 54 49 
493 858 232 74 59 56 
493 858 233 75 61 57 
493 859 232 69 55 49 
493 859 233 72 61 55 
493 858 234 80 68 60 
493 858 235 85 73 63 
493 859 234 79 68 61 
493 859 235 89 77 66 
494 856 232 77 66 59 
494 856 233 74 63 55 
494 857 232 76 64 58 
494 857 233 75 63 56 
495 856 232 77 67 60 
495 856 233 76 65 56 
494 856 234 73 63 54 
494 856 235 73 63 56 
494 857 234 75 65 56 
494 857 235 75 66 57 
495 856 234 73 63 54 
495 856 235 74 64 55 
494 858 232 74 61 58 
494 858 233 75 62 58 
494 858 234 77 66 58 
494 858 235 78 68 60 
493 856 239 79 71 64 
493 857 238 79 71 65 
493 857 239 80 72 66 
493 858 236 87 75 65 
493 858 237 83 73 65 
493 859 236 88 77 69 
493 859 237 87 79 72 
492 859 238 84 75 67 
492 859 239 81 72 62 
493 858 238 79 72 67 
493 858 239 79 72 66 
493 859 238 87 79 72 
493 859 239 80 72 65 
494 856 236 75 65 57 
494 856 237 78 68 59 
494 857 236 77 67 58 
494 857 237 80 69 60 
494 856 238 80 70 62 
494 856 239 80 71 64 
494 857 238 78 70 62 
494 858 236 79 68 59 
492 860 232 69 57 51 
492 860 233 69 59 54 
492 861 232 69 58 53 
492 861 233 69 58 54 
492 860 234 76 65 60 
492 860 235 83 70 62 
492 861 234 76 64 60 
492 861 235 82 69 63 
493 860 234 80 67 61 
493 860 235 86 73 63 
492 862 234 75 63 60 
492 862 235 81 68 64 
492 860 236 85 74 65 
492 860 237 86 77 69 
492 861 236 87 74 65 
492 861 237 88 77 68 
493 860 236 86 74 65 
493 860 237 87 77 70 
492 860 238 89 79 70 
492 860 239 84 73 62 
492 861 238 89 78 68 
492 861 239 83 72 61 
493 860 238 89 80 73 
492 862 236 87 75 67 
492 862 237 89 78 69 
492 862 238 89 77 67 
492 862 239 84 73 61 
480 855 240 40 35 31 
481 855 240 38 33 30 
483 852 240 39 34 31 
483 853 240 37 32 30 
482 854 240 37 33 30 
482 854 241 37 33 29 
482 855 240 37 33 30 
482 855 241 37 32 29 
483 854 240 37 32 29 
483 854 241 39 34 30 
483 855 241 41 35 31 
483 855 242 44 37 32 
484 851 240 38 33 30 
485 850 240 40 34 31 
485 851 240 40 34 31 
486 849 240 41 36 31 
487 848 240 43 36 31 
487 849 240 43 36 31 
486 850 240 42 36 32 
486 851 240 43 37 32 
486 851 241 44 37 31 
487 850 240 45 37 32 
487 850 241 46 37 34 
487 851 241 48 40 36 
484 852 240 40 34 31 
484 853 240 39 33 30 
484 853 241 41 34 31 
485 852 240 42 35 31 
485 852 241 44 37 31 
485 853 241 45 38 33 
484 854 241 42 36 30 
484 855 241 44 37 31 
485 854 241 47 39 32 
484 855 242 47 38 31 
485 854 242 51 42 34 
485 855 242 53 43 35 
486 852 241 47 40 33 
486 853 241 51 43 36 
487 852 241 53 44 41 
486 853 242 53 44 38 
487 853 242 55 47 41 
486 854 241 49 40 32 
486 854 242 56 45 37 
486 855 242 60 49 39 
487 854 242 60 50 41 
487 855 242 67 56 44 
480 856 240 39 34 30 
480 856 241 38 32 29 
480 857 241 39 33 30 
481 856 241 38 33 29 
481 857 241 38 33 29 
480 857 242 38 33 29 
481 857 242 38 33 29 
480 858 242 38 32 29 
480 859 242 40 34 32 
480 859 243 41 35 32 
481 858 242 38 32 28 
481 858 243 40 34 30 
481 859 243 44 36 33 
482 856 241 38 33 29 
482 856 242 40 34 30 
482 857 242 42 36 31 
483 856 242 45 38 32 
483 857 242 47 39 32 
483 857 243 48 40 33 
482 858 242 42 36 31 
482 858 243 45 38 33 
482 859 243 48 39 35 
483 858 243 52 43 36 
483 859 243 55 46 39 
483 859 244 56 47 39 
480 860 243 41 34 31 
480 861 243 44 36 32 
481 860 243 46 36 34 
481 861 243 49 40 33 
480 862 243 46 39 33 
480 863 243 50 43 37 
481 862 243 54 45 36 
481 863 243 58 48 39 
482 860 243 49 41 37 
482 862 243 59 49 39 
482 863 243 65 53 43 
483 863 243 73 60 50 
482 860 244 53 44 39 
482 861 244 54 45 38 
483 860 244 57 48 39 
483 861 244 62 52 44 
482 862 244 59 49 40 
483 862 244 68 56 47 
484 856 242 51 42 34 
484 857 243 55 45 36 
485 856 242 57 46 36 
485 857 243 60 49 38 
484 858 243 59 49 40 
484 859 243 63 52 43 
485 858 243 65 54 43 
485 859 243 69 57 47 
486 856 242 63 51 41 
486 856 243 66 54 43 
486 857 243 69 57 46 
487 856 242 72 60 48 
487 856 243 74 62 50 
487 857 243 78 65 54 
486 858 243 74 61 50 
486 859 243 77 63 52 
487 858 243 80 66 55 
487 859 243 81 68 56 
484 859 244 65 54 45 
485 859 244 73 60 49 
484 862 243 75 61 51 
484 863 243 76 62 53 
485 862 243 78 64 55 
485 863 243 79 64 55 
486 860 243 78 64 53 
486 861 243 80 65 55 
487 860 243 80 66 56 
487 861 243 79 65 56 
486 862 243 81 65 57 
486 863 242 81 66 56 
486 863 243 81 65 57 
487 862 242 79 65 55 
487 862 243 79 64 56 
487 863 242 81 69 58 
484 860 244 66 55 46 
484 861 244 69 58 48 
485 860 244 74 61 50 
485 861 244 75 62 51 
484 862 244 71 58 48 
485 862 244 76 62 52 
488 848 240 47 39 33 
488 849 240 50 41 35 
489 848 240 55 46 36 
489 849 240 57 47 37 
489 849 241 58 47 38 
488 850 241 51 42 35 
488 851 241 53 44 37 
489 850 241 59 48 38 
489 851 241 60 49 40 
489 851 242 64 52 41 
490 848 240 61 50 38 
490 849 241 61 50 38 
491 848 240 65 53 41 
491 849 241 66 55 43 
490 850 241 64 53 41 
490 851 241 67 55 43 
491 850 241 69 57 44 
491 851 241 70 58 45 
490 851 242 69 57 45 
491 851 242 73 61 47 
488 852 241 54 46 40 
488 852 242 56 47 40 
488 853 242 60 51 44 
489 852 242 63 53 43 
489 853 242 67 56 47 
488 854 242 67 56 46 
488 855 242 73 61 50 
489 854 242 73 61 49 
489 855 242 76 64 51 
489 855 243 79 66 53 
490 852 242 72 60 48 
490 853 242 74 62 50 
491 852 242 75 62 49 
491 853 242 78 66 53 
490 854 242 77 64 51 
490 855 242 80 67 53 
491 854 242 81 69 56 
491 854 243 81 68 55 
491 855 242 83 70 57 
492 848 240 68 56 44 
492 849 240 70 57 45 
492 849 241 70 57 44 
493 848 240 71 58 45 
493 849 240 73 60 46 
492 850 241 71 59 45 
492 851 241 75 62 48 
493 850 240 78 64 50 
493 850 241 76 63 49 
493 851 240 80 65 50 
493 851 241 79 64 49 
492 851 242 75 62 48 
494 848 240 74 61 47 
494 849 240 77 63 49 
494 850 240 81 67 53 
494 851 240 83 69 54 
495 851 240 87 72 57 
493 852 241 82 67 52 
493 853 241 84 69 55 
492 852 242 78 64 50 
492 853 242 81 67 54 
493 852 242 81 67 52 
493 853 242 82 68 53 
492 855 241 87 75 64 
493 854 241 86 74 61 
493 855 240 83 74 66 
493 855 241 86 75 65 
492 854 242 84 71 58 
492 855 242 85 72 59 
493 854 242 86 73 60 
494 852 240 87 72 57 
494 853 240 87 74 60 
494 853 241 88 74 59 
494 854 240 86 74 63 
494 854 241 87 74 62 
494 855 240 83 73 64 
488 856 243 78 66 53 
488 857 243 81 68 55 
489 856 243 80 67 54 
489 857 243 81 67 54 
488 858 243 81 67 55 
488 859 243 82 67 56 
489 858 243 81 67 54 
489 859 243 81 67 53 
490 856 242 82 69 56 
490 857 242 84 71 58 
491 856 242 85 72 59 
491 857 242 86 72 58 
491 858 241 82 70 58 
491 859 241 83 73 64 
490 858 242 84 70 57 
490 859 242 82 69 56 
491 858 242 85 72 59 
491 859 242 83 71 60 
488 860 243 81 66 55 
488 861 243 80 66 55 
489 860 243 80 66 52 
489 861 242 81 69 58 
489 861 243 79 66 53 
488 863 241 85 74 65 
489 863 241 93 82 74 
488 862 242 80 68 56 
488 862 243 80 67 56 
488 863 242 83 72 62 
489 862 242 83 71 61 
489 863 242 87 76 67 
491 860 241 82 72 65 
491 861 241 81 72 65 
490 860 242 82 70 58 
490 861 242 80 69 60 
491 860 242 82 72 62 
490 862 241 86 77 69 
490 863 240 85 76 69 
490 863 241 90 81 74 
491 862 240 83 73 65 
491 862 241 82 73 66 
491 863 240 84 75 68 
490 862 242 82 72 63 
492 856 241 84 73 62 
492 857 241 83 71 60 
493 856 240 81 73 65 
493 856 241 84 74 65 
493 857 240 82 73 66 
493 857 241 83 73 64 
492 856 242 87 73 59 
492 858 240 82 73 65 
492 858 241 83 72 64 
492 859 240 82 72 63 
492 859 241 83 74 67 
493 858 240 81 72 65 
492 860 240 82 72 64 
492 860 241 83 74 67 
492 861 240 83 73 64 
492 862 240 82 71 62 
496 843 238 82 68 54 
496 843 239 78 64 50 
496 844 238 82 69 56 
496 844 239 79 66 53 
496 845 239 82 69 57 
497 844 238 84 72 59 
497 845 238 85 73 60 
496 846 238 85 71 58 
496 846 239 84 70 57 
496 847 238 86 71 56 
496 847 239 83 69 55 
497 846 238 85 72 58 
497 847 238 88 73 56 
498 846 237 87 72 56 
498 847 236 94 77 60 
498 847 237 93 76 58 
498 846 238 86 71 56 
498 847 238 89 73 56 
497 850 230 91 75 58 
497 851 230 84 73 63 
497 851 231 86 75 64 
498 849 230 88 74 59 
498 849 231 86 72 61 
499 848 230 88 74 61 
499 848 231 90 76 63 
499 849 231 90 76 63 
498 850 230 94 78 63 
498 850 231 93 77 61 
496 852 230 81 70 63 
496 852 231 82 72 63 
496 853 231 80 71 62 
497 852 230 83 72 63 
497 852 231 83 72 63 
496 854 231 77 69 63 
497 851 232 88 76 64 
497 851 233 90 77 65 
497 851 234 89 77 65 
497 851 235 89 76 64 
498 849 232 92 79 65 
498 849 233 93 78 63 
499 848 232 88 76 63 
499 848 233 89 76 63 
499 849 232 90 77 65 
499 849 233 92 78 65 
498 848 235 93 78 64 
498 849 234 95 80 64 
498 849 235 95 81 67 
499 848 234 92 78 63 
499 848 235 93 79 64 
499 849 234 93 79 64 
498 850 232 93 78 62 
498 850 233 95 79 62 
498 850 234 97 81 64 
498 850 235 94 80 66 
497 848 237 96 79 60 
497 849 237 97 81 64 
496 848 238 90 74 58 
496 848 239 84 69 53 
496 849 238 92 76 61 
496 849 239 86 71 55 
497 848 238 94 77 59 
497 849 238 97 81 65 
496 851 237 89 75 60 
497 850 236 95 78 61 
497 850 237 95 78 61 
497 851 236 89 76 62 
497 851 237 90 75 61 
496 850 238 89 72 55 
496 850 239 87 72 57 
496 851 238 90 74 59 
497 850 238 93 77 60 
498 848 236 97 81 63 
498 848 237 98 81 63 
498 849 236 98 81 64 
498 849 237 99 82 66 
498 850 236 96 80 63 
496 852 232 83 72 62 
496 853 232 80 70 61 
496 853 233 80 70 61 
497 852 232 84 73 62 
497 852 233 83 72 61 
496 852 235 85 73 61 
496 853 234 82 71 62 
496 853 235 83 72 61 
497 852 234 84 72 61 
497 852 235 85 73 61 
496 854 232 77 68 60 
496 854 233 78 69 61 
496 854 234 79 70 60 
496 854 235 80 69 59 
496 852 236 86 72 60 
496 852 237 87 73 59 
496 853 236 83 71 59 
496 853 237 83 70 57 
497 852 236 86 73 60 
496 852 238 88 74 59 
496 853 238 85 71 57 
496 854 236 80 68 57 
487 867 239 88 76 66 
487 868 239 87 74 64 
487 869 239 83 70 60 
489 866 232 69 59 53 
489 866 233 71 61 53 
489 867 232 71 60 53 
489 867 233 72 61 54 
489 866 234 75 61 55 
489 866 235 75 61 55 
489 867 234 74 60 54 
489 867 235 76 61 56 
490 864 232 69 57 54 
490 864 233 73 59 56 
490 865 232 69 57 51 
490 865 233 72 59 55 
491 864 233 74 60 57 
490 864 234 76 63 59 
490 865 234 75 62 56 
490 865 235 76 63 57 
491 864 234 75 62 59 
491 864 235 79 66 62 
490 866 232 71 59 51 
490 866 233 73 60 53 
490 866 234 76 63 56 
490 866 235 75 61 55 
489 865 238 85 75 67 
489 865 239 87 76 68 
488 867 237 79 67 63 
489 866 236 72 58 56 
489 866 237 78 64 60 
489 867 236 75 61 57 
489 867 237 79 66 62 
488 866 239 89 78 69 
488 867 238 85 71 63 
488 867 239 85 73 63 
489 866 238 85 73 67 
489 866 239 87 76 67 
490 865 236 80 67 61 
490 865 237 81 67 61 
491 864 236 84 72 65 
491 864 237 87 75 67 
491 865 237 83 70 63 
490 864 238 82 71 63 
490 864 239 83 75 67 
490 865 238 82 72 64 
490 865 239 84 75 68 
491 864 238 84 71 62 
491 864 239 82 73 66 
490 866 236 64 50 51 
489 868 232 72 61 55 
489 868 233 72 62 55 
489 869 232 73 61 56 
489 869 233 75 63 58 
488 868 234 73 57 53 
488 868 235 74 58 56 
489 868 234 73 59 53 
489 868 235 75 59 56 
489 869 234 75 61 56 
489 869 235 73 57 55 
490 869 232 72 61 58 
490 869 233 77 64 59 
490 869 234 78 63 58 
490 869 235 74 60 57 
491 870 232 79 65 62 
491 870 233 75 62 57 
491 871 232 79 64 60 
491 871 233 73 60 56 
491 870 234 78 62 58 
491 870 235 77 63 59 
491 871 234 73 59 55 
488 868 236 73 60 56 
488 868 237 77 64 58 
488 869 237 75 63 56 
489 868 236 74 59 55 
489 869 236 72 56 53 
489 869 237 76 62 55 
488 868 238 81 66 55 
488 869 238 79 64 50 
488 869 239 82 68 55 
489 869 238 77 63 54 
489 869 239 80 67 56 
489 870 239 82 70 60 
490 869 236 72 58 55 
490 869 237 78 63 57 
491 869 236 103 82 65 
491 869 237 88 70 59 
490 869 238 85 70 61 
490 869 239 85 71 61 
491 869 238 90 69 60 
491 869 239 88 72 61 
491 870 236 76 60 58 
491 870 237 92 77 63 
492 871 233 88 70 64 
492 870 235 74 60 58 
492 871 234 86 67 61 
493 870 235 79 64 60 
493 871 234 84 65 60 
493 871 235 99 76 64 
494 871 235 110 79 66 
495 871 235 93 71 65 
492 869 238 86 69 61 
492 869 239 87 73 62 
493 869 238 88 73 63 
493 869 239 90 76 63 
492 870 236 77 62 59 
492 870 237 97 80 65 
493 870 236 81 65 58 
493 870 237 86 71 59 
493 871 236 131 95 70 
493 870 238 95 78 64 
494 869 238 81 67 62 
494 869 239 93 79 65 
495 869 238 85 72 62 
495 869 239 90 76 65 
494 870 237 88 72 61 
494 871 236 116 85 66 
495 870 236 82 65 61 
495 870 237 74 57 54 
495 871 236 92 70 65 
494 870 238 84 67 60 
495 870 238 85 69 61 
491 875 232 91 75 70 
490 876 232 82 71 66 
490 877 232 82 70 63 
491 876 232 89 74 66 
491 876 233 87 73 64 
491 877 233 87 73 63 
491 877 234 88 72 57 
490 878 232 79 66 59 
491 878 233 86 73 61 
491 878 234 87 70 54 
492 872 232 85 67 64 
492 872 233 88 69 64 
492 873 232 88 70 66 
493 872 232 85 66 63 
493 872 233 85 66 62 
493 873 233 85 67 64 
493 872 234 86 67 62 
493 873 234 89 71 66 
492 874 232 90 75 69 
492 874 233 89 73 68 
492 875 232 93 77 72 
492 875 233 89 74 69 
493 874 233 87 71 66 
492 875 234 90 74 66 
493 874 234 90 73 66 
493 875 234 89 73 63 
494 872 234 88 65 61 
494 872 235 99 73 63 
494 873 234 88 67 62 
495 872 235 90 70 65 
495 873 235 88 69 66 
494 874 234 91 73 67 
494 874 235 89 73 67 
494 875 234 89 75 63 
494 875 235 91 74 66 
495 874 235 90 72 67 
495 874 236 88 70 63 
495 875 236 91 72 65 
492 876 233 84 70 62 
492 876 234 88 72 60 
492 877 234 91 75 60 
492 877 235 92 74 57 
493 876 234 91 76 63 
493 876 235 93 76 63 
493 877 235 90 71 53 
492 878 234 90 73 58 
492 878 235 89 72 56 
492 879 235 89 70 58 
494 876 235 92 74 65 
493 877 236 87 71 56 
492 878 236 85 67 50 
492 879 236 85 68 54 
493 878 236 87 71 55 
493 878 237 83 71 62 
493 879 236 87 71 56 
493 879 237 83 72 62 
493 879 238 82 70 59 
494 876 236 87 73 64 
494 876 237 87 72 61 
494 877 236 88 73 61 
494 877 237 86 71 57 
495 876 236 88 72 63 
495 876 237 86 74 67 
494 877 238 75 68 64 
495 876 238 91 81 76 
495 877 238 81 70 63 
494 878 237 82 71 61 
494 878 238 81 71 62 
494 879 238 82 73 65 
494 879 239 78 70 65 
495 878 238 85 76 71 
495 878 239 72 60 55 
495 879 239 66 57 51 
480 864 243 53 44 39 
480 865 243 58 48 42 
481 864 243 62 50 42 
481 865 243 65 52 45 
480 866 243 61 49 42 
480 867 243 63 51 43 
481 866 243 67 52 44 
481 867 243 67 52 43 
482 864 243 70 55 45 
482 865 243 73 57 48 
483 864 243 76 61 51 
483 865 242 78 63 53 
483 865 243 77 61 52 
482 866 243 74 57 48 
482 867 242 75 59 48 
482 867 243 73 56 47 
483 866 242 79 63 52 
483 867 242 79 64 53 
480 867 244 64 51 43 
481 868 243 68 53 43 
481 869 243 70 55 45 
482 868 242 75 60 50 
482 868 243 74 59 47 
482 869 242 74 59 49 
482 869 243 74 59 48 
483 868 242 79 65 54 
483 869 242 79 66 56 
482 870 243 74 61 49 
482 871 243 77 65 53 
483 870 243 79 66 56 
483 871 243 82 69 59 
480 868 244 64 52 44 
480 869 244 65 53 44 
481 869 244 67 53 43 
481 870 244 71 57 44 
482 870 244 73 59 46 
483 871 244 84 71 59 
485 865 241 83 70 58 
484 864 242 78 64 54 
484 864 243 78 63 54 
484 865 242 78 64 54 
485 864 242 80 66 56 
485 864 243 80 65 56 
485 865 242 81 67 55 
484 866 241 82 68 57 
484 867 241 85 73 61 
485 866 241 85 72 59 
485 867 241 89 76 65 
484 866 242 80 66 55 
484 867 242 83 69 58 
486 864 241 85 73 62 
486 865 241 86 74 62 
487 864 241 88 77 67 
487 865 240 94 83 74 
487 865 241 94 83 73 
486 864 242 81 68 57 
486 866 240 92 80 70 
486 866 241 89 77 66 
486 867 240 91 80 71 
486 867 241 92 80 69 
487 866 240 93 82 73 
487 867 240 93 81 72 
484 868 241 87 76 65 
485 868 241 91 79 68 
485 869 241 86 74 63 
484 868 242 85 72 61 
484 869 242 85 74 63 
485 869 242 83 70 58 
484 870 242 84 72 62 
484 870 243 84 72 62 
484 871 243 85 73 63 
485 870 242 85 73 60 
485 870 243 85 73 62 
486 868 240 93 81 71 
486 868 241 92 80 70 
486 869 240 89 76 68 
486 869 241 91 77 65 
487 868 240 89 77 67 
487 869 240 90 78 68 
487 869 241 94 80 68 
486 870 242 92 77 63 
486 870 243 91 77 65 
487 870 242 96 83 71 
487 870 243 94 80 68 
484 871 244 88 76 66 
485 871 244 86 74 64 
485 871 245 86 73 64 
486 870 244 89 76 65 
486 871 244 85 71 61 
486 871 245 87 74 64 
487 870 244 92 78 66 
487 870 245 89 76 64 
487 871 245 85 72 61 
484 872 245 88 77 67 
485 872 245 91 80 71 
485 872 246 89 78 68 
486 872 245 91 80 71 
486 872 246 89 78 68 
486 873 246 86 76 67 
487 872 246 88 78 68 
487 873 246 89 79 70 
487 874 247 90 80 71 
488 864 241 90 79 70 
488 865 240 93 82 74 
488 865 241 93 82 74 
489 864 240 90 79 72 
489 864 241 93 83 75 
489 865 240 90 80 72 
488 866 240 93 82 74 
490 864 240 86 77 70 
488 869 240 86 73 62 
488 869 241 92 79 67 
489 869 240 82 69 56 
489 869 241 85 72 61 
488 869 242 92 79 67 
489 869 242 89 76 64 
489 869 243 92 79 68 
488 870 241 91 78 66 
489 870 240 86 73 61 
489 870 241 86 74 63 
488 870 242 94 81 69 
488 870 243 94 81 70 
489 870 242 90 77 65 
489 870 243 91 77 65 
490 869 240 82 68 57 
490 869 241 81 67 54 
491 869 240 79 66 59 
491 869 241 81 66 52 
490 869 242 85 72 59 
490 869 243 86 73 62 
491 869 242 83 68 53 
491 869 243 86 72 59 
488 870 244 91 78 65 
488 870 245 88 75 63 
488 871 245 87 75 64 
489 870 244 90 78 66 
489 870 245 90 79 68 
489 871 245 90 79 69 
488 871 246 89 78 68 
489 871 246 90 79 70 
490 869 244 94 83 72 
491 869 244 88 75 63 
490 870 244 94 83 73 
490 870 245 94 83 73 
490 871 245 96 85 76 
491 870 244 87 75 64 
491 870 245 93 81 72 
491 871 245 94 83 73 
490 871 246 95 84 75 
491 871 246 94 84 75 
492 868 241 83 71 59 
492 869 240 83 70 62 
492 869 241 83 70 58 
493 868 241 86 74 63 
493 869 240 88 75 62 
492 868 242 86 71 55 
492 868 243 87 71 56 
492 869 242 84 69 53 
492 869 243 87 74 61 
493 868 242 88 75 63 
493 868 243 90 76 63 
494 868 241 94 79 65 
494 869 240 95 80 66 
495 868 241 92 79 68 
495 869 240 90 77 65 
494 868 242 91 78 68 
494 868 243 91 78 67 
495 868 242 95 80 66 
495 868 243 93 79 67 
492 869 244 89 75 63 
492 869 245 91 79 68 
493 868 244 91 76 62 
493 868 245 94 79 65 
493 869 244 89 76 64 
493 869 245 95 83 71 
492 870 245 95 84 74 
493 870 245 97 86 76 
492 871 246 95 85 75 
492 871 247 95 85 76 
493 870 246 98 87 76 
493 870 247 98 88 78 
493 871 246 97 86 76 
493 871 247 96 86 76 
494 868 244 94 79 64 
494 868 245 96 80 65 
494 869 245 97 83 70 
495 868 244 93 81 70 
495 868 245 93 81 69 
495 869 245 97 83 70 
494 869 246 101 89 78 
495 869 246 102 90 79 
494 870 246 101 89 78 
494 870 247 100 89 79 
493 871 248 95 85 76 
488 872 246 91 81 73 
488 873 246 90 80 72 
488 873 247 89 80 72 
489 872 246 91 81 73 
489 872 247 92 82 74 
489 873 247 89 80 73 
488 874 247 90 81 73 
488 875 247 90 82 75 
489 874 247 89 81 74 
489 875 247 88 81 75 
490 872 246 93 83 75 
490 872 247 92 83 74 
490 873 247 90 81 73 
491 872 247 93 83 74 
492 872 247 93 83 74 
495 878 240 69 57 53 
495 878 241 72 58 57 
495 879 240 68 58 52 
495 879 241 67 55 51 
495 879 242 75 58 58 
495 879 243 76 59 59 
495 879 244 76 61 60 
489 875 248 89 82 75 
490 873 248 90 81 73 
491 872 248 92 82 74 
491 873 248 92 82 73 
490 874 248 91 82 73 
490 875 248 88 80 73 
490 875 249 89 81 74 
491 874 248 91 82 73 
491 874 249 90 81 74 
491 875 249 88 81 73 
490 876 248 81 75 70 
490 876 249 84 78 72 
492 872 248 92 83 75 
492 873 248 90 81 73 
493 872 248 93 84 76 
494 880 238 77 70 64 
494 880 239 77 70 65 
494 880 240 67 59 52 
494 880 241 71 59 55 
495 880 241 67 58 53 
494 880 242 75 60 57 
495 880 242 75 59 57 
495 880 243 73 57 55 
496 869 239 91 77 68 
497 869 239 102 77 71 
496 870 237 88 66 61 
496 871 236 93 73 68 
496 871 237 100 82 78 
497 871 237 101 81 74 
496 870 238 107 87 78 
496 870 239 116 85 74 
497 870 238 98 73 64 
497 871 238 92 71 62 
498 869 238 80 59 59 
498 871 237 88 72 62 
496 872 235 90 70 64 
496 873 235 89 70 64 
496 872 236 92 76 74 
496 873 236 91 76 74 
497 872 236 103 86 86 
497 872 237 99 81 76 
497 873 237 98 82 79 
496 874 236 88 73 71 
496 874 237 85 70 68 
496 875 237 82 66 63 
497 874 237 81 65 63 
496 875 238 80 64 61 
497 874 238 81 64 61 
497 875 238 79 62 60 
497 875 239 77 61 59 
498 872 237 91 76 67 
498 873 237 84 69 63 
496 876 238 79 63 57 
496 876 239 76 61 55 
496 877 238 77 61 52 
496 877 239 76 60 53 
497 876 239 76 61 57 
496 868 240 90 78 69 
496 868 241 94 80 69 
496 869 240 91 78 69 
497 868 240 90 78 69 
497 868 241 89 73 67 
497 869 240 91 78 69 
496 868 242 96 82 70 
496 868 243 101 85 71 
496 868 244 92 81 72 
496 877 240 71 56 52 
496 877 241 68 53 50 
496 878 240 72 58 54 
496 878 241 70 56 54 
494 871 248 97 87 78 
491 874 250 90 82 75 
491 875 250 90 82 75 
491 875 251 89 82 76 
491 875 252 89 82 77 
490 876 250 87 81 75 
490 876 251 87 81 75 
491 876 250 90 82 76 
491 876 251 87 81 75 
491 876 252 89 81 74 
492 873 249 90 81 74 
493 872 249 94 85 78 
493 873 249 93 85 78 
492 873 250 91 83 75 
493 873 250 92 83 76 
493 873 251 90 81 73 
492 874 249 91 82 74 
492 874 250 91 83 75 
492 874 251 91 83 77 
492 875 251 90 83 77 
493 874 251 91 82 75 
494 872 249 94 85 78 
492 875 252 90 82 74 
492 875 253 89 80 71 
492 876 252 88 80 73 
492 876 253 87 79 71 
492 877 253 84 76 68 
