ply
format ascii 1.0
comment Created by CloudCompare v2.10.1 (Zephyrus)
comment Created 1/31/20 6:09 PM
obj_info Generated by CloudCompare!
element vertex 1872
property float x
property float y
property float z
property uchar red
property uchar green
property uchar blue
end_header
175 827 239 201 146 117 
169 827 247 213 156 125 
170 827 245 213 155 122 
171 827 244 212 154 122 
171 827 245 212 154 121 
170 827 246 212 154 123 
170 827 247 212 155 124 
171 827 246 212 154 123 
170 828 247 211 152 124 
171 828 246 211 153 123 
171 828 247 210 151 122 
172 827 243 211 153 122 
173 827 242 208 153 122 
173 827 243 208 151 121 
174 827 240 205 150 119 
174 827 241 207 153 122 
175 827 240 204 148 119 
175 827 241 206 150 120 
174 827 242 206 150 120 
172 827 244 212 154 123 
173 828 243 209 151 123 
175 828 241 204 148 118 
174 828 242 206 147 119 
174 828 243 207 149 120 
174 829 243 207 150 121 
175 828 242 205 147 119 
175 829 242 204 146 118 
175 829 243 206 148 119 
175 830 243 206 150 120 
172 828 244 211 153 123 
172 828 245 211 153 122 
172 829 245 211 153 122 
173 828 244 210 152 123 
173 829 244 210 152 122 
173 829 245 210 152 123 
172 828 246 211 153 123 
172 829 246 210 152 122 
172 829 247 208 149 119 
173 829 246 208 151 121 
172 830 247 208 151 120 
173 830 246 208 151 120 
173 830 247 209 152 122 
173 831 247 209 154 122 
174 829 244 209 152 122 
174 829 245 210 153 123 
174 830 244 209 152 122 
174 830 245 209 152 122 
175 830 244 208 151 121 
175 830 245 208 151 120 
175 831 244 208 152 121 
175 831 245 209 152 122 
174 830 246 209 152 122 
174 831 246 208 151 121 
174 831 247 209 152 121 
175 831 246 208 152 121 
169 827 248 212 154 124 
169 827 249 210 153 122 
169 827 250 208 151 121 
169 827 251 206 151 120 
170 827 248 211 153 122 
170 827 249 209 152 121 
170 827 250 208 152 122 
169 827 252 205 150 119 
169 827 253 205 151 121 
169 827 254 205 152 122 
170 827 253 203 150 120 
170 827 254 203 151 121 
170 827 255 203 152 122 
170 828 248 210 153 122 
170 828 249 208 151 120 
171 828 248 210 153 122 
171 828 249 207 151 119 
171 829 248 209 151 121 
171 829 249 207 152 119 
170 828 250 207 151 120 
170 828 251 204 149 117 
171 828 250 207 151 120 
171 828 251 203 149 117 
171 829 250 205 151 119 
171 829 251 202 149 117 
170 828 252 202 148 116 
170 828 253 200 148 116 
171 828 252 200 147 115 
171 828 253 200 148 116 
171 829 252 200 148 116 
171 829 253 201 151 119 
170 828 254 201 150 119 
170 828 255 201 151 120 
171 828 254 200 151 119 
171 828 255 200 151 120 
171 829 254 200 152 120 
171 829 255 200 152 119 
172 829 248 209 152 121 
172 829 249 207 153 119 
172 829 250 206 152 119 
172 830 248 208 153 120 
172 830 249 207 154 120 
173 830 248 209 154 121 
173 831 248 208 154 119 
173 831 249 206 153 118 
172 830 250 206 153 120 
172 830 251 203 151 118 
172 831 251 203 151 119 
173 831 250 205 153 119 
173 831 251 204 152 119 
174 831 248 208 155 121 
172 829 252 201 150 118 
172 829 253 202 152 120 
172 829 254 201 152 120 
172 829 255 198 150 118 
172 830 252 201 150 118 
172 830 253 201 151 119 
172 831 252 202 151 119 
172 831 253 200 151 118 
173 831 252 202 152 120 
173 831 253 200 151 117 
172 830 254 200 151 119 
172 830 255 198 149 118 
172 831 254 199 150 118 
172 831 255 198 150 119 
173 831 254 198 150 117 
173 831 255 198 150 119 
176 827 238 194 138 105 
176 827 239 200 145 116 
177 827 238 197 142 111 
178 827 237 196 143 110 
179 827 237 195 143 109 
178 827 238 196 143 111 
176 828 239 201 146 117 
177 828 239 200 145 115 
177 829 239 200 145 116 
178 828 238 198 144 113 
178 828 239 199 145 114 
178 829 239 200 145 115 
179 828 238 196 142 110 
179 829 238 197 144 113 
179 829 239 197 144 112 
178 830 239 200 145 114 
179 830 239 198 144 112 
179 831 239 197 144 111 
183 827 235 188 139 105 
180 827 236 192 140 105 
180 827 237 193 141 107 
181 827 236 190 139 104 
181 827 237 191 140 104 
182 827 236 192 140 105 
183 827 236 189 139 105 
183 828 235 187 139 105 
180 828 237 193 140 106 
180 829 237 193 140 108 
181 828 237 191 139 104 
181 829 237 192 139 106 
180 828 238 195 141 109 
180 829 238 194 142 109 
181 830 237 191 139 105 
180 830 238 194 142 108 
180 830 239 195 143 110 
180 831 238 193 141 108 
180 831 239 195 143 111 
181 830 238 192 140 106 
181 831 238 192 140 106 
182 828 236 190 139 103 
182 829 236 189 138 104 
182 829 237 190 138 104 
183 828 236 188 139 104 
183 829 236 188 137 103 
183 829 237 189 137 104 
182 830 237 190 137 105 
182 831 237 189 137 104 
183 830 236 187 136 103 
183 830 237 189 136 104 
183 831 236 186 135 102 
183 831 237 188 136 103 
182 831 238 190 138 104 
191 827 231 209 147 110 
184 827 234 186 137 104 
184 827 235 187 138 105 
185 827 234 186 136 104 
187 827 233 190 139 104 
186 827 234 187 138 104 
187 827 234 187 137 104 
184 828 235 187 138 105 
184 829 235 186 138 104 
185 828 234 185 135 102 
185 828 235 185 136 103 
185 829 235 184 137 104 
185 830 235 184 136 103 
185 831 235 183 135 103 
186 828 234 185 136 103 
186 829 234 186 137 104 
186 829 235 184 137 103 
187 828 234 186 137 104 
187 829 234 185 136 103 
187 829 235 184 136 102 
186 830 235 183 136 103 
186 831 235 183 135 103 
187 830 235 187 138 104 
187 831 234 183 135 102 
187 831 235 183 136 103 
184 829 236 186 137 103 
184 830 236 185 135 102 
184 831 236 185 134 101 
185 830 236 184 135 102 
185 831 236 184 135 102 
188 827 233 191 139 104 
189 827 232 197 143 106 
189 827 233 192 140 104 
190 827 232 203 145 107 
191 827 232 204 146 109 
188 828 233 189 139 104 
188 829 233 187 138 105 
189 828 232 193 140 104 
189 828 233 191 139 104 
189 829 233 188 138 105 
188 828 234 188 138 104 
188 829 234 186 137 104 
189 829 234 185 136 104 
189 830 233 185 136 104 
188 830 234 185 137 104 
188 831 234 183 134 101 
189 830 234 185 136 104 
189 831 234 183 134 102 
190 828 232 197 142 106 
190 828 233 194 140 106 
190 829 232 194 140 107 
190 829 233 190 138 105 
191 828 232 204 144 108 
191 829 232 199 142 108 
191 829 233 196 140 107 
190 830 233 187 136 104 
190 831 233 186 135 102 
191 830 233 190 136 104 
191 831 233 188 135 103 
190 831 234 183 134 101 
176 828 240 202 146 117 
176 828 241 202 146 116 
176 829 240 201 145 116 
176 829 241 203 146 117 
177 829 240 202 146 116 
177 829 241 204 148 118 
176 829 242 205 147 118 
176 830 241 203 146 117 
177 830 240 203 148 117 
177 830 241 204 149 119 
177 831 241 204 150 118 
176 830 242 205 149 118 
176 830 243 207 150 120 
176 831 243 207 152 121 
177 830 242 205 150 119 
177 831 242 205 150 118 
177 831 243 206 152 120 
178 829 240 201 145 116 
178 830 240 202 147 116 
178 831 240 201 147 115 
178 831 241 202 149 117 
179 831 240 199 145 113 
176 831 244 208 153 122 
175 832 245 208 152 121 
174 832 247 209 154 122 
175 832 246 208 152 121 
175 832 247 208 154 121 
175 833 247 208 155 121 
173 832 250 205 153 120 
173 832 251 203 152 120 
174 832 248 208 154 121 
174 832 249 207 154 121 
175 833 248 206 153 119 
175 833 249 204 152 118 
174 832 250 205 154 121 
174 832 251 202 151 119 
174 833 250 203 153 119 
174 833 251 200 150 117 
175 833 250 201 151 117 
175 833 251 201 151 117 
175 834 249 202 150 116 
175 834 250 200 150 116 
175 834 251 198 149 116 
175 835 250 199 149 117 
175 835 251 197 148 116 
173 832 252 201 152 119 
173 832 253 199 151 117 
173 832 254 196 148 115 
173 832 255 194 146 114 
174 832 252 198 150 115 
174 832 253 196 149 116 
174 833 252 197 149 115 
174 833 253 194 148 115 
174 832 254 194 147 114 
174 832 255 191 143 110 
174 833 254 191 144 111 
174 833 255 190 142 110 
174 834 252 195 148 114 
174 834 253 193 146 113 
175 834 252 194 146 113 
175 834 253 191 144 112 
175 835 252 194 147 113 
175 835 253 190 144 112 
174 834 254 190 144 112 
174 834 255 189 142 111 
175 834 254 189 143 111 
175 834 255 189 143 112 
175 835 254 189 142 111 
175 835 255 189 143 111 
175 836 252 192 147 114 
175 836 253 188 143 111 
175 836 254 185 140 107 
175 836 255 185 140 108 
175 837 255 185 140 108 
180 832 239 196 143 112 
181 832 238 193 141 109 
181 832 239 194 142 112 
181 833 239 193 140 110 
183 832 237 187 137 103 
182 832 238 190 139 107 
182 833 238 191 139 108 
182 833 239 192 140 110 
183 832 238 188 137 104 
183 833 238 189 137 105 
182 834 239 193 141 110 
183 834 238 189 138 106 
183 834 239 191 140 109 
183 835 239 191 140 109 
183 836 239 191 141 108 
186 832 235 182 134 102 
186 833 235 183 135 104 
187 832 235 182 134 102 
187 833 235 183 135 103 
184 832 236 184 135 101 
184 832 237 185 135 102 
184 833 237 185 135 101 
185 832 236 183 134 102 
185 833 236 184 135 103 
185 833 237 184 135 102 
184 833 238 186 135 101 
185 834 237 184 135 101 
185 835 237 184 135 101 
184 834 238 187 136 103 
184 835 238 189 139 107 
184 835 239 190 140 108 
185 834 238 185 135 101 
185 835 238 186 137 104 
186 833 236 183 134 103 
187 833 236 187 136 104 
186 834 236 184 135 103 
186 834 237 184 135 102 
186 835 237 184 135 102 
187 834 236 183 135 103 
187 835 236 183 135 103 
187 835 237 183 135 102 
184 836 239 189 139 107 
184 837 239 187 139 106 
185 836 238 187 138 105 
185 836 239 187 138 105 
185 837 238 187 140 105 
185 837 239 187 139 106 
185 838 239 185 139 105 
186 836 237 185 136 104 
187 836 237 183 136 103 
187 837 237 183 136 102 
186 836 238 186 137 104 
186 837 238 185 138 104 
187 836 238 184 136 103 
187 837 238 183 137 102 
186 838 238 184 137 103 
186 838 239 184 138 104 
186 839 239 184 137 103 
187 838 238 184 137 102 
187 839 238 184 136 103 
187 839 239 184 136 103 
188 832 234 182 134 100 
188 832 235 182 134 101 
188 833 235 184 135 103 
189 832 234 182 134 101 
189 833 234 183 135 103 
189 833 235 186 136 103 
188 834 235 190 138 104 
189 834 235 188 137 103 
191 832 233 189 136 103 
190 832 234 193 139 104 
190 833 234 195 141 106 
190 833 235 185 136 103 
191 832 234 189 137 104 
191 833 234 192 138 104 
191 833 235 182 133 101 
190 834 235 185 135 101 
190 835 235 180 132 99 
191 834 235 183 133 100 
191 835 235 184 134 99 
188 834 236 188 137 104 
188 835 236 182 134 102 
189 834 236 182 134 102 
189 835 236 183 134 101 
190 835 236 181 133 99 
191 836 235 181 133 99 
188 836 236 182 134 101 
188 836 237 185 136 102 
188 837 237 183 135 101 
189 836 236 185 135 101 
189 836 237 182 134 101 
189 837 237 182 134 100 
188 838 237 183 135 101 
189 838 237 182 134 101 
189 839 237 184 136 104 
188 838 238 183 135 102 
188 839 238 184 136 103 
189 839 238 184 136 103 
190 836 236 182 133 100 
190 837 236 181 133 101 
191 836 236 181 132 99 
191 837 236 182 132 101 
190 838 236 181 132 100 
190 838 237 182 133 101 
190 839 237 185 136 105 
191 838 236 182 133 101 
191 839 236 182 133 102 
191 839 237 184 135 104 
186 840 239 183 136 103 
187 840 239 182 135 102 
187 841 239 183 136 105 
189 840 237 184 136 104 
188 840 238 182 134 101 
188 840 239 182 135 101 
188 841 238 183 136 104 
188 841 239 183 136 104 
189 840 238 183 135 103 
189 841 238 184 136 104 
189 841 239 182 136 103 
188 842 239 181 135 102 
189 842 238 183 135 104 
189 842 239 182 135 104 
189 843 239 181 135 104 
190 840 237 185 136 104 
190 841 237 185 137 105 
191 840 237 185 137 105 
191 841 237 185 138 106 
190 841 238 185 137 105 
191 841 238 185 138 106 
190 842 238 184 136 105 
190 843 238 183 136 105 
190 843 239 183 137 106 
191 842 238 185 138 107 
191 843 238 185 138 107 
189 844 239 180 135 103 
190 844 239 180 135 103 
190 845 239 177 132 99 
191 844 238 183 137 105 
191 844 239 181 135 102 
191 845 239 178 132 99 
191 846 239 174 129 94 
176 832 243 206 151 120 
177 832 242 206 152 119 
177 832 243 206 151 119 
177 833 243 206 152 120 
178 832 241 203 150 118 
179 832 240 201 148 117 
179 832 241 202 150 118 
179 833 241 200 147 115 
178 832 242 205 152 119 
178 833 242 205 151 117 
178 833 243 206 152 120 
179 833 242 202 149 116 
178 834 243 205 153 119 
179 834 242 202 149 116 
179 834 243 203 151 117 
179 835 243 202 150 117 
176 832 244 207 152 121 
176 832 245 208 152 121 
176 833 245 207 153 120 
177 832 244 206 151 120 
177 833 244 206 151 120 
177 833 245 205 151 119 
176 832 246 208 153 120 
176 833 246 207 153 121 
176 833 247 207 154 121 
177 833 246 205 151 118 
177 834 245 204 152 119 
176 834 247 204 151 117 
177 834 246 204 151 119 
177 834 247 204 151 118 
177 835 246 202 150 117 
177 835 247 201 150 116 
178 833 244 206 153 121 
178 834 244 204 152 119 
178 834 245 203 152 118 
178 835 244 201 149 116 
178 835 245 201 150 117 
179 835 244 201 149 116 
178 835 246 201 150 116 
179 836 243 199 148 114 
177 836 247 200 150 117 
178 836 245 200 149 117 
179 836 244 198 146 113 
179 836 245 198 147 115 
179 837 245 195 145 112 
178 836 246 200 149 116 
178 836 247 199 149 116 
178 837 247 197 147 113 
179 836 246 198 148 115 
179 837 246 196 147 113 
179 837 247 195 147 112 
179 838 246 193 146 111 
179 838 247 194 147 111 
179 839 247 191 145 110 
180 832 240 198 145 114 
180 833 240 196 143 111 
180 833 241 198 146 113 
181 833 240 194 140 109 
180 834 241 198 145 113 
181 834 240 194 141 109 
181 834 241 197 144 112 
181 835 240 195 143 111 
181 835 241 197 144 113 
180 834 242 200 148 116 
180 835 242 200 148 115 
180 835 243 200 149 114 
182 834 240 193 140 109 
182 835 240 193 141 110 
181 836 241 195 144 112 
180 836 242 198 148 114 
180 836 243 198 147 113 
180 837 243 196 146 112 
181 836 242 196 146 113 
181 837 242 194 144 111 
181 837 243 194 144 111 
181 838 243 192 144 111 
182 836 240 192 141 109 
182 836 241 193 143 110 
182 837 241 191 142 109 
183 836 240 191 141 108 
183 837 240 190 140 107 
183 837 241 189 140 107 
182 837 242 191 142 109 
183 838 241 189 140 108 
182 838 242 190 142 109 
182 838 243 191 143 110 
182 839 243 189 141 109 
183 838 242 189 140 108 
183 839 242 188 139 107 
183 839 243 188 141 109 
180 837 244 196 145 113 
180 837 245 194 145 111 
180 838 244 193 144 111 
180 838 245 193 145 111 
180 839 245 190 143 108 
181 838 244 192 144 110 
181 839 244 189 142 109 
181 839 245 189 143 108 
180 838 246 192 145 109 
180 839 246 191 145 109 
180 839 247 189 144 108 
176 833 248 205 152 118 
176 834 248 203 151 117 
176 834 249 201 150 116 
176 835 248 202 151 117 
176 835 249 201 150 116 
177 835 248 202 152 119 
176 835 250 199 149 116 
176 835 251 197 149 117 
176 836 249 198 148 115 
177 836 248 200 150 117 
177 836 249 199 149 116 
177 837 248 198 149 114 
177 837 249 197 149 115 
176 836 250 197 148 115 
176 836 251 194 147 114 
176 837 251 192 145 113 
177 837 250 195 147 114 
177 837 251 190 144 112 
177 838 250 191 145 113 
177 838 251 186 140 108 
177 839 251 186 139 108 
178 837 248 197 149 114 
178 837 249 196 150 115 
178 838 248 196 149 115 
178 838 249 195 149 115 
178 839 249 191 145 111 
179 838 248 193 147 112 
179 839 248 192 146 112 
179 839 249 189 144 110 
178 838 250 191 144 111 
178 838 251 187 139 108 
178 839 250 187 140 107 
178 839 251 185 138 107 
176 836 252 192 146 113 
176 836 253 189 144 110 
176 837 252 187 142 109 
176 837 253 186 141 108 
176 837 254 184 139 107 
176 837 255 184 139 107 
176 838 253 184 139 107 
176 839 253 183 138 105 
177 838 252 184 138 106 
177 838 253 183 138 106 
177 839 252 184 138 107 
177 839 253 182 137 105 
176 838 254 184 139 107 
176 838 255 183 139 106 
176 839 254 183 138 106 
176 839 255 183 138 107 
179 840 247 190 144 110 
182 840 243 187 140 107 
183 840 242 185 138 105 
183 840 243 185 139 106 
183 841 242 182 136 103 
183 841 243 182 136 103 
183 842 243 179 137 102 
181 840 244 187 142 107 
181 840 245 187 142 107 
181 841 245 185 143 107 
180 840 246 188 144 108 
180 840 247 189 144 109 
180 841 246 188 144 110 
180 841 247 185 141 108 
181 840 246 187 143 108 
181 841 246 185 143 108 
181 841 247 185 141 107 
180 842 247 182 138 106 
181 842 246 181 138 104 
181 842 247 182 139 106 
181 843 246 178 136 101 
181 843 247 178 136 103 
182 840 244 187 141 107 
182 841 244 184 140 106 
182 841 245 185 141 106 
183 841 244 181 138 104 
182 842 244 180 138 103 
182 842 245 181 139 104 
182 843 245 177 136 100 
183 842 244 179 137 102 
183 843 244 177 136 101 
183 843 245 177 136 101 
182 842 246 180 138 102 
182 843 246 177 135 101 
181 844 247 176 134 101 
181 845 247 173 132 99 
181 846 247 172 131 99 
181 847 247 171 130 97 
182 844 245 175 134 98 
183 844 244 175 134 101 
183 844 245 174 134 99 
183 845 244 173 133 100 
183 845 245 172 131 98 
182 844 246 176 135 100 
182 844 247 174 133 99 
182 845 246 172 131 98 
182 845 247 173 132 99 
183 846 245 170 129 95 
183 847 245 171 130 97 
182 846 246 172 131 99 
182 846 247 172 131 99 
182 847 246 172 131 100 
182 847 247 172 131 98 
183 846 246 171 130 98 
183 847 246 172 131 98 
179 840 248 188 142 109 
179 840 249 187 140 107 
179 841 248 186 139 108 
179 841 249 184 137 106 
178 840 250 186 139 107 
178 840 251 185 138 108 
178 841 251 183 137 107 
179 840 250 186 139 107 
179 841 250 183 137 107 
179 841 251 183 137 107 
179 842 249 182 137 107 
179 842 250 182 137 106 
179 842 251 182 137 107 
179 843 250 179 135 105 
179 843 251 180 137 106 
177 840 252 182 136 105 
177 840 253 182 137 106 
177 841 253 181 138 106 
176 840 254 183 139 107 
176 840 255 182 137 108 
176 841 255 180 135 105 
177 840 254 182 138 106 
177 841 254 181 137 105 
177 841 255 180 136 105 
177 842 253 182 139 107 
177 843 253 180 139 107 
177 842 254 179 138 104 
177 842 255 180 136 106 
177 843 254 179 137 105 
177 843 255 179 136 106 
178 840 252 184 137 107 
178 841 252 182 136 106 
178 841 253 181 138 107 
178 842 252 182 138 108 
178 842 253 182 140 108 
178 843 252 181 139 107 
178 843 253 181 139 107 
179 842 252 182 138 107 
179 843 252 180 138 106 
179 844 250 176 133 103 
179 844 251 177 134 103 
179 845 250 174 132 101 
179 845 251 175 134 103 
179 846 251 174 134 102 
179 847 251 174 134 102 
177 844 254 178 136 104 
177 844 255 178 135 104 
177 845 254 178 136 105 
177 845 255 177 134 103 
177 846 254 178 135 104 
177 846 255 177 133 102 
177 847 255 177 132 102 
178 844 252 179 137 105 
178 844 253 179 137 104 
178 845 252 178 138 106 
178 845 253 177 137 105 
179 844 252 178 136 105 
179 845 252 177 136 105 
178 845 254 178 137 104 
178 846 253 176 137 105 
178 847 252 177 137 106 
178 847 253 177 136 104 
179 846 252 176 136 104 
179 847 252 176 136 106 
178 846 254 177 135 103 
178 847 254 177 135 104 
178 847 255 177 134 103 
180 841 248 184 138 107 
180 841 249 181 135 105 
180 842 248 182 137 106 
180 842 249 182 137 107 
180 843 248 178 134 103 
180 843 249 179 135 104 
180 844 248 176 134 101 
180 844 249 176 133 102 
180 845 248 174 133 100 
180 845 249 174 132 100 
181 844 248 176 134 102 
181 845 248 173 132 99 
180 844 250 176 133 102 
180 845 250 173 132 99 
180 846 249 173 133 100 
180 847 249 174 135 103 
181 846 248 172 132 98 
181 847 248 172 132 99 
180 846 250 173 132 100 
180 847 250 174 133 102 
184 837 240 187 139 106 
184 838 240 186 138 106 
184 838 241 188 139 107 
184 839 240 186 139 107 
184 839 241 187 138 106 
185 838 240 185 138 105 
185 839 240 185 138 106 
184 840 241 185 137 105 
185 840 240 184 137 104 
185 840 241 184 136 104 
185 841 241 182 136 103 
184 840 242 184 136 104 
184 841 242 181 135 102 
185 841 242 180 135 102 
185 842 241 180 136 102 
184 842 242 179 135 101 
184 842 243 179 136 101 
184 843 243 176 135 100 
185 842 242 178 135 100 
185 843 242 176 134 98 
185 843 243 175 133 97 
186 840 240 183 136 104 
186 841 240 182 136 103 
186 841 241 180 135 102 
187 841 240 182 136 104 
186 842 241 179 135 101 
186 843 241 176 133 97 
187 842 240 180 135 101 
187 843 240 177 133 99 
187 843 241 176 132 97 
186 843 242 175 133 97 
184 844 243 174 133 98 
184 845 243 173 131 97 
185 844 242 173 132 96 
185 844 243 173 132 96 
185 845 243 171 130 95 
185 846 243 170 129 95 
185 847 243 170 130 95 
187 844 241 173 131 96 
187 845 241 171 130 95 
186 844 242 174 132 97 
186 845 242 171 130 95 
187 845 242 171 130 95 
187 846 241 169 127 92 
186 846 242 170 128 94 
186 846 243 170 128 94 
186 847 242 169 128 92 
186 847 243 170 129 94 
187 846 242 168 127 92 
187 847 242 168 127 91 
184 844 244 175 134 100 
184 845 244 172 131 98 
184 846 244 171 130 96 
184 847 244 171 130 96 
184 847 245 170 130 96 
188 842 240 180 134 101 
188 843 240 177 133 99 
189 843 240 178 134 101 
188 844 240 175 132 96 
188 844 241 173 131 95 
188 845 240 172 130 95 
188 845 241 172 130 94 
189 844 240 177 133 99 
189 845 240 173 130 96 
188 846 241 170 128 93 
188 847 241 168 126 91 
189 846 240 170 128 93 
189 847 240 169 127 93 
189 847 241 168 127 92 
190 845 240 174 130 96 
190 846 240 171 128 93 
190 847 240 169 127 93 
191 846 240 172 128 93 
191 847 240 171 128 94 
189 859 239 136 103 71 
191 857 239 140 102 65 
190 858 239 139 103 71 
190 859 239 140 104 70 
191 858 239 141 102 67 
191 859 238 146 102 65 
191 859 239 143 103 69 
181 848 247 172 132 99 
183 848 245 170 130 94 
183 849 245 168 128 92 
182 848 246 172 131 98 
182 848 247 172 131 97 
182 849 247 171 131 96 
183 848 246 170 129 96 
183 849 246 169 129 94 
182 850 247 171 131 97 
182 851 247 169 129 95 
183 850 246 170 130 95 
183 851 246 168 128 94 
183 851 247 168 128 93 
182 852 247 169 129 96 
183 852 246 168 128 94 
183 852 247 169 128 95 
183 853 246 168 129 96 
183 853 247 170 130 98 
183 854 247 170 131 99 
183 855 247 169 129 98 
179 848 251 175 134 104 
178 848 253 177 136 104 
179 848 252 176 135 105 
179 848 253 178 136 107 
179 849 252 175 133 104 
179 849 253 177 135 106 
178 848 254 177 135 104 
178 848 255 176 133 103 
178 849 254 178 135 106 
178 849 255 176 133 104 
179 849 254 178 135 106 
179 850 252 177 134 105 
179 850 253 178 135 106 
179 851 253 175 132 103 
178 850 255 175 132 103 
178 851 255 176 134 105 
179 850 254 176 133 104 
179 850 255 174 132 102 
179 851 254 175 132 103 
179 851 255 175 133 105 
179 852 253 169 123 91 
179 852 254 173 130 101 
179 852 255 175 134 105 
179 853 254 176 135 106 
179 853 255 175 135 106 
179 854 254 176 137 108 
179 854 255 177 138 109 
179 855 255 176 138 108 
180 848 249 175 135 104 
180 849 249 175 135 104 
181 848 248 173 134 102 
181 848 249 175 135 104 
181 849 248 172 132 99 
181 849 249 173 133 101 
180 848 250 174 133 102 
180 848 251 175 133 103 
180 849 250 174 133 102 
180 849 251 174 133 103 
181 850 248 172 131 99 
181 850 249 172 131 100 
181 851 248 172 132 101 
181 851 249 172 132 101 
180 850 250 174 133 102 
180 850 251 175 134 104 
180 851 250 174 134 103 
180 851 251 176 135 105 
181 850 250 172 132 100 
181 851 250 173 133 102 
182 849 248 171 131 97 
182 850 248 171 130 97 
182 851 248 171 131 98 
180 849 252 174 133 104 
180 850 252 176 134 105 
180 851 252 176 135 106 
180 851 253 175 132 103 
181 852 248 172 132 102 
181 852 249 174 134 103 
181 853 249 172 132 101 
180 852 251 174 134 102 
180 853 251 174 133 102 
181 852 250 174 134 104 
181 852 251 173 133 102 
181 853 250 174 134 102 
181 853 251 173 133 102 
181 854 249 172 132 100 
181 855 249 172 132 100 
181 854 250 173 133 102 
181 854 251 173 133 102 
181 855 250 173 133 102 
181 855 251 174 134 103 
182 852 248 171 131 99 
182 853 248 170 130 99 
182 854 248 171 131 100 
182 854 249 170 130 98 
182 855 248 170 131 98 
182 855 249 172 132 101 
183 854 248 171 131 100 
180 852 252 173 131 100 
180 852 253 172 127 96 
180 853 252 174 133 103 
180 853 253 175 134 106 
180 853 254 176 136 108 
180 854 252 175 135 106 
180 854 253 175 134 106 
180 855 252 175 135 105 
180 855 253 174 134 105 
181 855 252 174 135 105 
180 854 254 175 136 107 
180 855 254 175 136 107 
183 856 247 169 129 98 
183 857 247 167 130 99 
179 856 255 174 135 105 
181 856 250 173 133 103 
181 856 251 174 135 105 
181 857 250 173 134 104 
181 857 251 172 132 102 
182 856 248 171 133 101 
182 856 249 173 134 103 
182 857 248 171 133 102 
182 857 249 172 134 104 
183 856 248 171 132 101 
183 857 248 170 132 101 
182 857 250 173 134 105 
180 856 252 174 134 105 
180 856 253 174 134 105 
180 857 252 172 132 104 
180 857 253 171 132 102 
181 856 252 174 134 105 
181 857 252 171 132 103 
180 856 254 174 135 106 
180 856 255 173 135 104 
185 848 243 170 131 95 
185 849 243 170 130 94 
185 850 243 169 129 95 
186 848 242 169 129 93 
186 848 243 170 130 95 
186 849 243 170 130 95 
187 848 242 168 128 92 
187 849 242 169 130 95 
186 850 243 169 130 95 
186 851 243 167 128 95 
187 850 242 169 130 95 
187 850 243 169 130 95 
187 851 242 166 127 94 
187 851 243 166 128 94 
184 848 244 170 130 95 
184 848 245 170 129 94 
184 849 244 169 130 94 
184 849 245 169 129 93 
185 848 244 170 130 95 
185 849 244 170 130 95 
184 850 244 169 129 94 
184 850 245 169 129 94 
184 851 244 167 128 94 
184 851 245 167 128 94 
185 850 244 169 129 95 
185 851 244 167 128 96 
186 852 243 165 127 94 
186 853 243 160 124 89 
187 852 243 162 125 91 
187 853 243 158 122 87 
187 854 243 150 115 80 
187 855 243 147 112 79 
184 852 245 166 128 95 
184 853 245 167 130 96 
185 852 244 166 127 95 
185 853 244 165 128 95 
185 853 245 166 129 96 
184 852 246 167 128 95 
184 853 246 168 129 95 
184 854 245 167 130 96 
185 854 244 161 125 91 
185 854 245 164 128 93 
185 855 245 161 125 91 
184 854 246 168 130 97 
184 855 246 165 126 94 
184 855 247 167 127 96 
186 853 244 162 125 92 
186 854 244 156 120 85 
186 855 244 152 117 83 
188 848 241 167 126 91 
188 849 241 167 127 92 
189 848 241 166 126 91 
189 849 241 165 125 90 
188 848 242 167 128 92 
188 849 242 168 129 94 
189 850 241 163 123 88 
189 851 241 161 121 86 
188 850 242 166 127 92 
188 851 242 163 125 90 
189 851 242 160 122 86 
190 848 240 167 126 92 
190 848 241 166 125 90 
190 849 240 165 124 89 
190 849 241 164 123 87 
191 848 240 168 127 93 
191 849 240 165 122 86 
190 850 241 162 121 84 
190 851 241 160 119 83 
191 850 240 159 117 80 
191 850 241 160 118 80 
191 851 241 157 115 80 
189 852 241 156 117 83 
188 852 242 158 121 86 
188 853 242 154 117 84 
189 852 242 157 119 84 
189 853 242 151 113 79 
188 854 242 146 109 76 
188 854 243 148 112 78 
188 855 242 142 105 70 
188 855 243 144 109 75 
189 854 242 145 106 72 
189 855 242 142 103 67 
190 852 241 155 115 82 
190 853 241 150 110 77 
191 852 241 154 114 80 
191 853 241 148 108 75 
190 854 241 146 106 71 
190 855 241 144 104 67 
191 854 241 145 103 68 
191 855 240 149 109 73 
191 855 241 145 104 68 
187 856 243 143 108 74 
187 857 243 141 107 73 
186 858 243 144 110 76 
187 858 242 150 117 86 
187 858 243 149 115 83 
185 856 245 155 119 86 
185 857 245 149 115 82 
184 856 246 163 125 93 
184 856 247 165 126 94 
184 857 246 158 122 91 
184 857 247 163 126 96 
185 856 246 160 124 93 
185 857 246 155 119 88 
185 858 245 144 110 78 
184 858 246 152 117 87 
185 858 246 148 113 83 
186 856 244 148 113 81 
186 857 244 144 109 78 
186 858 244 142 107 74 
189 856 241 145 107 71 
189 857 241 149 114 80 
188 856 242 141 103 66 
188 856 243 141 104 68 
188 857 242 146 111 77 
188 857 243 142 106 70 
189 856 242 143 105 68 
189 857 242 147 111 76 
188 858 241 144 112 79 
189 858 240 137 107 77 
189 858 241 144 113 82 
188 858 242 146 112 78 
190 856 241 147 109 73 
190 857 240 149 115 82 
190 857 241 151 116 82 
191 856 240 154 117 81 
191 856 241 151 114 79 
191 857 240 150 114 79 
190 858 240 138 104 72 
192 827 231 213 148 111 
193 827 231 214 147 109 
194 827 231 212 145 107 
195 827 231 211 145 106 
192 828 231 210 145 109 
193 828 231 212 145 108 
193 829 231 208 143 107 
194 828 231 211 144 107 
194 829 231 209 143 107 
195 828 231 211 145 108 
195 829 231 210 144 108 
194 830 231 207 141 105 
195 830 231 206 140 103 
195 831 231 200 137 101 
196 827 231 210 145 106 
197 827 231 207 143 104 
198 827 230 205 142 103 
199 827 230 200 139 100 
196 828 231 209 143 106 
196 829 231 208 142 105 
197 828 231 206 141 105 
197 829 231 205 139 102 
196 830 231 205 140 102 
196 831 231 201 138 100 
197 830 231 202 138 100 
197 831 231 200 137 99 
198 828 230 203 141 103 
198 828 231 203 140 103 
198 829 230 198 137 98 
198 829 231 201 137 100 
199 828 230 198 138 100 
199 829 230 195 136 96 
198 830 230 195 135 96 
198 830 231 198 136 98 
198 831 231 195 135 96 
199 830 230 192 134 95 
199 831 230 190 132 91 
192 828 232 205 144 108 
192 829 232 203 143 109 
193 829 232 204 141 106 
192 830 232 196 138 105 
192 830 233 192 136 104 
192 831 232 190 134 101 
192 831 233 191 135 102 
193 830 232 201 139 105 
193 831 232 193 135 102 
193 831 233 190 133 100 
194 830 232 203 139 104 
194 831 232 194 134 101 
195 831 232 198 135 100 
196 831 232 199 136 100 
201 827 229 192 137 98 
200 827 230 195 137 97 
201 827 230 193 137 97 
202 827 229 191 137 100 
203 827 229 189 136 98 
200 828 230 194 137 97 
200 829 230 192 135 96 
201 828 230 191 136 97 
201 829 230 189 134 95 
200 830 230 189 134 95 
200 831 230 187 131 92 
201 830 230 187 132 96 
201 831 230 184 130 93 
202 828 229 189 135 98 
202 829 229 187 133 97 
203 828 229 188 134 97 
203 829 229 187 134 98 
202 828 230 190 136 97 
202 829 230 187 134 97 
203 830 229 186 133 97 
202 830 230 186 132 97 
202 831 230 183 129 93 
203 830 230 185 132 97 
203 831 230 183 130 93 
204 827 229 188 136 97 
204 828 229 189 136 99 
204 829 229 188 135 100 
204 830 229 187 135 98 
204 830 230 186 134 97 
204 831 230 185 132 94 
196 832 231 197 136 99 
197 832 231 196 135 97 
197 833 231 194 135 96 
198 832 231 194 134 95 
198 833 231 194 135 96 
199 832 230 189 132 93 
199 832 231 191 133 94 
199 833 231 192 134 95 
198 834 231 195 136 98 
199 834 231 195 137 98 
199 835 231 198 139 100 
199 836 231 202 142 102 
192 832 233 186 134 100 
193 832 233 186 134 101 
193 833 233 186 135 101 
192 832 234 184 134 101 
192 833 234 185 135 102 
193 833 234 184 134 100 
192 834 234 189 136 100 
192 834 235 189 136 101 
192 835 235 183 133 100 
193 834 234 184 135 100 
193 835 234 186 137 102 
193 835 235 187 137 102 
194 832 232 189 132 99 
194 832 233 187 134 100 
194 833 233 187 136 101 
195 832 232 191 134 99 
195 833 232 192 137 100 
195 833 233 188 136 100 
194 834 233 186 136 100 
195 834 233 188 136 99 
195 835 233 188 137 100 
194 834 234 185 136 100 
194 835 234 185 137 101 
195 835 234 186 137 100 
192 836 235 184 134 101 
192 837 235 182 132 101 
193 836 235 184 135 103 
193 837 235 184 134 103 
193 838 235 182 132 100 
194 836 234 185 136 103 
194 836 235 185 136 104 
194 837 235 185 135 104 
195 836 234 186 136 103 
195 837 234 187 136 104 
195 837 235 187 136 105 
194 838 235 184 133 100 
194 839 235 183 132 98 
195 838 234 188 136 104 
195 838 235 186 134 101 
195 839 235 186 135 101 
192 836 236 182 132 101 
192 837 236 182 132 101 
192 838 236 182 132 101 
192 839 236 183 134 103 
193 838 236 182 132 100 
193 839 236 182 132 99 
196 832 232 194 135 98 
196 833 232 192 136 99 
197 832 232 194 135 97 
197 833 232 193 135 98 
196 834 232 193 137 100 
196 834 233 192 137 100 
196 835 233 190 138 101 
197 834 232 194 137 100 
197 835 232 196 139 102 
197 835 233 193 139 103 
198 834 232 195 137 98 
198 835 232 197 139 100 
196 836 233 191 138 102 
196 837 233 191 136 101 
197 836 232 198 140 103 
197 836 233 195 139 103 
197 837 233 197 140 103 
196 836 234 190 137 102 
196 837 234 189 136 103 
197 838 233 199 142 106 
197 839 233 201 144 109 
196 838 234 191 138 105 
196 839 234 192 139 106 
197 838 234 195 141 106 
197 839 234 198 143 109 
198 836 232 200 141 103 
198 837 232 202 144 106 
199 836 232 202 143 104 
199 837 232 206 146 107 
198 838 232 206 147 110 
198 838 233 204 145 109 
198 839 233 206 148 111 
199 838 232 208 149 111 
199 839 232 211 151 113 
199 839 233 210 151 114 
194 840 235 184 133 99 
195 840 235 187 136 103 
195 841 235 189 137 103 
192 840 236 184 136 104 
192 840 237 185 136 105 
192 841 237 186 137 105 
193 840 236 184 136 103 
193 841 236 185 137 104 
193 841 237 185 137 105 
192 842 237 185 137 107 
193 842 237 185 137 105 
193 843 237 185 137 107 
192 842 238 185 138 107 
192 843 238 186 138 108 
193 843 238 186 138 108 
194 840 236 185 136 102 
194 841 236 185 137 103 
195 841 236 187 137 103 
194 842 236 185 136 104 
194 842 237 184 135 104 
194 843 237 184 135 105 
195 842 236 186 135 103 
195 843 236 186 135 103 
192 844 238 182 136 104 
192 845 239 179 133 99 
193 844 238 183 137 105 
193 845 238 181 134 100 
193 845 239 179 132 98 
192 846 239 175 129 94 
192 847 239 173 129 94 
193 846 238 180 133 100 
193 846 239 179 132 97 
193 847 239 178 132 98 
194 844 237 185 137 105 
194 845 237 184 137 103 
195 844 236 187 136 104 
195 844 237 186 137 105 
195 845 237 187 139 106 
194 845 238 183 136 102 
195 846 237 189 141 108 
194 846 238 184 137 104 
194 847 238 183 137 103 
194 847 239 182 136 101 
195 846 238 188 141 107 
195 847 238 187 141 106 
197 840 233 204 146 110 
196 840 234 194 140 107 
196 840 235 191 138 105 
196 841 235 191 138 103 
197 840 234 201 144 109 
197 841 234 199 143 107 
197 841 235 197 141 105 
196 842 235 191 137 104 
196 843 235 192 137 104 
197 842 234 200 142 107 
197 842 235 197 141 106 
197 843 234 202 143 108 
197 843 235 196 140 105 
198 840 233 208 149 113 
198 841 233 209 150 113 
199 840 233 213 153 116 
199 841 233 215 154 117 
198 841 234 205 146 110 
199 842 233 215 152 116 
198 842 234 207 147 111 
198 843 234 208 145 110 
199 842 234 213 150 114 
199 843 234 213 147 112 
196 842 236 191 136 103 
196 843 236 189 135 102 
197 844 235 197 139 104 
197 845 235 199 140 105 
198 844 234 206 142 108 
198 844 235 204 142 107 
198 845 235 203 141 106 
199 844 234 209 143 109 
199 845 234 207 140 107 
199 845 235 205 140 106 
198 846 235 202 141 107 
198 847 235 203 142 107 
199 846 235 204 139 106 
199 847 235 205 142 107 
196 844 236 189 136 103 
196 845 236 192 140 106 
196 845 237 190 140 106 
197 844 236 193 138 102 
197 845 236 195 140 104 
196 846 237 192 143 109 
196 847 237 192 144 108 
197 846 236 197 143 108 
197 847 236 200 145 109 
197 847 237 197 147 110 
198 847 236 203 144 108 
200 832 230 187 131 93 
200 833 230 187 132 94 
200 833 231 190 133 95 
201 832 230 184 129 91 
201 833 230 186 131 93 
200 834 231 195 136 98 
200 835 231 199 139 99 
201 834 230 189 132 93 
201 834 231 193 134 95 
201 835 231 198 137 98 
202 832 230 182 128 91 
202 833 230 184 130 92 
203 832 230 183 130 93 
203 833 230 185 130 93 
202 834 230 189 132 93 
202 834 231 193 133 95 
202 835 230 194 135 96 
202 835 231 196 136 97 
203 834 230 190 132 94 
203 835 230 196 136 99 
203 835 231 198 137 100 
200 836 231 205 143 103 
200 837 231 208 148 108 
201 836 231 205 143 104 
201 837 231 211 149 110 
201 838 231 214 153 114 
202 836 231 204 142 104 
202 837 231 211 148 110 
203 836 231 203 141 104 
203 837 231 211 147 111 
202 838 231 214 153 115 
203 838 231 215 152 116 
204 832 230 184 131 93 
204 833 230 187 132 96 
204 834 230 192 134 96 
204 835 230 197 136 98 
204 836 231 204 142 105 
204 837 231 211 148 111 
204 838 231 216 155 119 
200 837 232 209 148 109 
200 838 232 211 151 113 
200 839 232 214 155 116 
201 838 232 214 155 115 
201 839 232 217 158 119 
202 838 232 216 156 118 
202 839 232 219 159 121 
203 838 232 217 156 120 
203 839 232 219 159 122 
204 839 232 220 161 123 
200 840 232 217 157 119 
200 840 233 217 157 119 
200 841 233 219 157 120 
201 840 232 220 161 122 
201 840 233 220 160 122 
201 841 233 222 161 123 
200 842 233 218 155 119 
200 843 233 218 152 117 
201 842 233 221 158 122 
201 843 233 220 153 118 
200 843 234 216 148 115 
201 843 234 218 151 117 
202 840 232 222 162 124 
202 841 233 224 163 125 
203 840 232 224 163 125 
203 841 233 227 166 128 
202 842 233 224 161 124 
202 843 233 222 157 121 
203 842 233 227 165 128 
203 843 233 226 163 126 
200 844 234 212 143 110 
200 845 234 208 138 106 
201 844 234 217 148 114 
201 845 234 210 140 106 
200 846 234 205 137 103 
200 846 235 204 137 104 
200 847 235 205 140 106 
201 846 234 206 137 104 
201 846 235 205 137 103 
201 847 235 205 139 105 
203 844 233 224 159 123 
202 844 234 220 153 118 
202 845 234 215 146 111 
203 844 234 222 156 120 
203 845 234 218 150 114 
202 846 234 209 141 107 
202 847 235 207 141 105 
203 846 234 213 145 111 
203 847 235 209 144 107 
204 840 232 225 165 128 
204 841 233 228 168 131 
204 842 233 228 167 130 
204 843 233 227 163 127 
204 844 233 225 161 125 
204 844 234 224 159 123 
204 845 234 220 153 118 
204 846 234 215 147 112 
204 847 235 212 147 111 
192 847 240 172 128 94 
193 848 239 175 131 97 
193 849 239 170 125 92 
193 850 239 165 120 87 
194 848 238 183 137 102 
194 848 239 181 135 101 
194 849 239 176 130 96 
195 848 238 187 142 105 
195 849 238 186 141 105 
195 849 239 181 136 101 
194 850 239 168 123 90 
194 851 239 161 117 81 
195 850 239 176 131 97 
195 851 239 167 122 87 
194 852 239 154 111 75 
195 852 239 158 111 76 
195 853 239 156 108 73 
194 854 239 152 106 67 
194 855 239 153 109 68 
195 854 239 155 107 68 
195 855 238 152 103 62 
195 855 239 153 106 64 
199 848 235 207 145 109 
196 848 237 193 147 110 
196 849 237 199 152 115 
197 848 236 202 148 111 
197 848 237 199 149 112 
197 849 237 203 153 115 
196 848 238 192 145 108 
196 849 238 193 146 110 
197 850 237 204 152 115 
197 851 237 198 144 107 
196 850 238 192 143 106 
196 851 238 183 134 99 
198 848 236 205 147 111 
198 849 236 207 151 113 
198 849 237 206 152 115 
199 848 236 207 147 111 
199 849 236 210 151 113 
198 850 237 207 151 115 
198 851 237 202 144 107 
199 850 236 212 153 116 
199 851 236 213 151 116 
199 851 237 207 146 110 
197 852 237 187 130 91 
197 853 237 171 114 71 
196 852 238 172 120 81 
196 852 239 164 115 79 
196 853 238 161 109 68 
196 853 239 158 108 71 
196 854 237 162 110 67 
196 855 237 159 105 60 
197 854 237 166 112 69 
197 855 237 164 109 62 
196 854 238 158 108 68 
196 855 238 156 103 61 
198 852 237 189 130 91 
198 853 237 174 113 69 
199 852 236 208 143 107 
199 852 237 195 131 92 
199 853 236 173 107 61 
199 853 237 178 114 70 
198 854 237 171 112 68 
198 855 236 171 112 63 
198 855 237 168 111 65 
199 854 236 174 111 65 
199 854 237 174 111 69 
199 855 236 174 114 63 
192 856 239 145 104 62 
192 857 238 145 102 61 
192 857 239 142 101 59 
193 856 239 148 106 62 
193 857 238 149 104 62 
193 857 239 143 101 57 
192 859 237 154 104 58 
193 858 237 155 106 61 
193 859 237 158 107 58 
192 858 238 147 103 63 
192 858 239 142 101 65 
192 859 238 150 103 60 
193 858 238 153 106 64 
194 857 237 158 108 67 
195 856 237 158 106 65 
195 857 237 160 106 62 
194 856 238 150 103 59 
194 856 239 149 105 61 
194 857 238 155 106 64 
195 856 238 153 103 62 
194 858 237 158 108 63 
194 859 237 163 111 60 
195 858 237 160 107 59 
195 859 237 171 115 60 
196 856 237 162 107 63 
196 857 236 168 111 59 
196 857 237 165 108 61 
197 856 236 170 113 65 
197 856 237 167 111 65 
197 857 236 170 112 56 
196 856 238 157 104 62 
196 858 236 171 113 57 
196 858 237 164 109 58 
196 859 236 184 123 65 
197 858 236 183 122 65 
197 859 236 193 131 75 
198 856 236 174 116 65 
198 857 236 175 115 56 
199 856 236 178 117 65 
199 857 236 178 116 54 
198 858 236 186 126 69 
198 859 236 201 138 85 
199 858 236 191 130 74 
199 859 236 205 141 92 
200 848 235 208 145 110 
200 849 235 211 149 112 
201 848 235 208 144 108 
201 849 235 211 149 112 
202 848 235 208 144 107 
202 849 235 211 150 112 
203 848 235 209 146 106 
203 849 235 212 150 112 
200 849 236 212 152 114 
201 849 236 214 154 117 
200 850 236 215 155 118 
200 851 236 215 153 119 
201 850 236 217 157 121 
201 851 236 217 155 120 
202 849 236 214 154 116 
202 850 236 217 157 121 
202 851 236 216 154 119 
203 850 236 215 154 118 
203 851 236 213 149 114 
200 852 236 204 139 102 
200 853 236 182 115 71 
201 852 236 208 143 106 
201 853 236 186 119 75 
200 854 236 173 108 58 
200 855 236 177 114 60 
201 854 236 174 106 53 
201 855 236 181 116 63 
202 852 236 205 139 101 
202 853 236 189 121 75 
203 852 236 202 134 96 
203 853 236 194 125 81 
202 854 236 182 113 57 
202 855 236 189 124 70 
203 854 236 191 121 71 
203 855 236 195 129 75 
204 848 235 212 149 110 
204 849 235 213 151 112 
204 850 236 214 153 116 
204 851 236 208 143 105 
204 852 236 201 133 93 
204 853 236 197 129 85 
204 854 236 200 134 86 
204 855 236 201 135 76 
201 858 235 197 136 79 
202 857 235 194 130 70 
203 857 235 196 131 72 
202 858 235 206 145 92 
203 858 235 205 143 90 
203 859 235 217 152 103 
200 856 236 184 121 68 
200 857 236 181 115 54 
201 856 236 189 127 73 
201 857 236 186 121 59 
200 858 236 194 134 81 
200 859 236 210 144 95 
201 858 236 200 139 86 
201 859 236 213 148 99 
202 856 236 195 131 77 
202 857 236 192 127 65 
203 856 236 199 135 80 
203 857 236 197 132 72 
202 859 236 217 152 103 
203 858 236 210 148 97 
203 859 236 219 152 101 
204 858 235 212 147 94 
204 856 236 201 137 79 
204 857 236 199 132 73 
204 858 236 209 144 90 
204 859 236 217 151 99 
192 848 240 170 128 94 
192 849 240 164 121 85 
193 849 240 164 120 85 
192 850 240 160 117 81 
192 851 240 156 112 76 
193 850 240 161 117 83 
193 851 240 154 110 75 
194 851 240 157 113 78 
192 852 240 152 109 74 
192 852 241 153 112 78 
192 853 240 148 106 70 
192 853 241 148 107 73 
193 852 240 149 106 72 
193 853 240 149 107 74 
192 854 240 145 103 66 
192 855 240 149 108 69 
193 854 240 148 105 68 
193 855 240 151 110 70 
194 852 240 151 107 73 
194 853 240 150 107 74 
194 854 240 150 106 68 
194 855 240 152 109 68 
192 856 240 153 113 74 
193 856 240 154 114 74 
170 827 256 202 152 122 
170 827 257 201 151 121 
171 827 256 201 151 121 
171 827 257 200 150 121 
171 827 258 199 149 119 
171 827 259 197 147 118 
171 827 260 195 145 117 
171 828 256 200 150 120 
171 828 257 198 149 119 
171 828 258 197 148 118 
171 828 259 195 146 116 
172 827 260 194 145 117 
172 827 261 193 144 116 
172 828 257 197 149 119 
172 829 256 198 149 118 
172 829 257 198 150 120 
172 828 258 196 147 118 
172 828 259 194 145 117 
172 829 258 196 148 119 
172 829 259 193 145 118 
173 829 259 193 145 118 
172 830 256 198 150 119 
172 830 257 196 149 119 
173 831 256 197 149 119 
173 831 257 196 149 119 
172 830 258 195 148 118 
173 830 258 194 147 118 
173 830 259 193 146 118 
173 831 258 194 147 118 
173 831 259 192 145 116 
172 828 260 193 144 117 
172 828 261 191 143 116 
173 828 261 190 142 114 
173 829 260 191 143 116 
173 829 261 189 141 114 
173 830 260 190 142 116 
173 830 261 188 140 113 
173 831 260 189 142 114 
173 831 261 187 139 112 
174 831 260 188 141 113 
174 831 261 185 138 111 
173 832 256 193 146 114 
173 832 257 194 147 116 
173 832 258 193 146 117 
174 832 256 192 145 113 
174 832 257 193 146 117 
174 833 256 191 144 113 
174 833 257 192 146 116 
174 832 258 192 145 116 
174 832 259 190 143 115 
174 833 258 190 144 115 
174 833 259 190 144 116 
174 834 256 190 144 113 
174 834 257 191 144 114 
175 834 256 189 142 112 
175 834 257 190 144 114 
175 835 256 188 141 111 
175 835 257 188 141 112 
174 834 258 189 143 113 
175 834 258 189 142 114 
175 834 259 189 143 114 
175 835 258 188 141 111 
175 835 259 187 141 111 
174 832 260 188 142 114 
174 832 261 186 140 113 
174 833 260 188 142 113 
174 833 261 186 140 111 
175 833 261 185 140 110 
175 834 260 187 142 113 
175 834 261 185 139 111 
175 835 260 186 141 112 
175 835 261 184 139 111 
175 836 256 187 140 109 
175 836 257 187 140 110 
175 837 256 186 140 109 
175 837 257 186 140 110 
175 836 258 186 140 110 
175 836 259 186 140 110 
175 837 258 185 139 109 
175 837 259 184 139 109 
175 838 256 185 139 108 
175 838 257 185 139 109 
175 839 256 184 138 109 
175 839 257 184 138 108 
175 838 258 184 139 109 
175 838 259 184 139 109 
175 839 258 183 138 109 
175 839 259 182 138 107 
175 836 260 184 140 110 
175 836 261 182 137 107 
175 837 260 183 139 109 
175 837 261 181 137 107 
175 838 260 182 137 107 
175 838 261 179 135 105 
175 839 260 180 136 106 
175 839 261 179 135 106 
176 838 256 184 139 108 
176 839 256 184 139 109 
176 839 257 183 137 107 
176 839 258 182 138 107 
176 839 259 182 137 108 
176 839 260 179 136 106 
176 839 261 178 136 106 
176 840 256 182 136 107 
176 840 257 182 136 107 
176 841 256 180 135 106 
176 841 257 180 135 107 
176 840 258 181 137 107 
176 840 259 180 137 107 
176 841 258 179 135 106 
176 841 259 177 134 104 
176 842 256 180 135 106 
176 842 257 178 133 105 
176 843 257 177 133 104 
177 842 256 180 136 107 
177 843 256 178 134 104 
177 843 257 178 132 104 
176 842 258 177 133 104 
176 842 259 176 134 104 
176 843 258 176 132 103 
176 843 259 175 132 103 
176 840 260 179 136 106 
176 840 261 177 134 105 
176 841 260 175 133 104 
176 841 261 174 132 103 
176 842 260 175 133 105 
176 842 261 173 131 104 
176 843 260 174 132 103 
176 843 261 173 130 102 
177 844 256 178 133 104 
177 844 257 176 131 102 
177 845 256 178 133 104 
177 845 257 177 133 104 
177 844 258 174 130 101 
177 844 259 174 132 102 
177 845 258 175 132 103 
177 845 259 175 133 102 
177 846 256 177 132 102 
177 846 257 177 133 103 
177 847 256 176 131 101 
177 847 257 176 132 102 
177 846 258 176 133 104 
177 846 259 174 133 102 
177 847 258 174 132 102 
177 847 259 174 133 101 
176 844 260 174 132 103 
176 844 261 173 131 103 
177 844 260 175 132 103 
177 845 260 174 132 102 
177 845 261 171 130 101 
177 846 260 173 132 101 
177 846 261 171 130 100 
177 847 260 172 132 101 
177 847 261 171 131 102 
177 848 256 176 132 102 
177 848 257 175 132 102 
177 849 256 174 131 102 
177 849 257 173 131 102 
177 848 258 175 133 103 
177 848 259 174 132 102 
177 849 258 173 132 102 
177 849 259 173 133 102 
177 850 257 173 131 102 
177 851 257 173 131 103 
177 850 258 172 131 101 
177 850 259 172 132 101 
177 851 258 171 131 102 
177 851 259 171 132 102 
178 848 256 176 132 103 
178 849 256 175 132 103 
178 850 256 174 132 104 
178 850 257 174 132 104 
178 851 256 174 133 105 
178 851 257 172 131 102 
177 848 260 173 132 102 
177 848 261 172 132 104 
177 849 260 172 132 102 
177 849 261 171 132 103 
177 850 260 171 131 102 
177 850 261 170 130 101 
177 851 260 170 131 101 
177 851 261 168 129 98 
177 852 258 171 131 102 
177 852 259 170 132 102 
177 853 259 168 131 101 
177 854 259 167 130 101 
178 852 256 175 134 105 
178 852 257 172 132 103 
178 853 256 176 137 109 
178 853 257 174 135 106 
179 852 256 176 136 107 
179 853 256 176 136 107 
178 852 258 171 132 103 
178 853 258 171 132 103 
178 853 259 169 131 101 
178 854 257 173 134 104 
178 855 257 172 132 102 
179 854 256 176 137 108 
179 854 257 174 134 104 
179 855 256 173 134 104 
179 855 257 171 132 101 
178 854 258 171 132 102 
178 854 259 168 130 100 
178 855 258 170 132 102 
178 855 259 168 130 102 
177 852 260 169 131 101 
177 852 261 166 129 98 
177 853 260 166 129 100 
177 853 261 166 130 101 
177 854 260 166 129 100 
177 854 261 165 129 100 
177 855 260 166 129 102 
177 855 261 165 129 101 
178 855 260 167 129 102 
179 856 256 171 132 101 
179 856 257 171 131 101 
178 856 258 170 132 102 
178 856 259 171 133 104 
179 856 258 171 132 102 
177 856 260 167 130 102 
178 856 260 167 130 103 
