ply
format ascii 1.0
comment Created by CloudCompare v2.10.1 (Zephyrus)
comment Created 1/31/20 5:41 PM
obj_info Generated by CloudCompare!
element vertex 2174
property float x
property float y
property float z
property uchar red
property uchar green
property uchar blue
end_header
291 158 298 67 49 64 
291 159 298 64 45 59 
291 160 297 69 50 64 
291 161 297 67 39 53 
291 160 298 67 48 58 
291 161 298 62 36 46 
291 162 297 67 37 45 
291 163 297 68 42 38 
291 162 298 65 38 42 
291 164 297 65 39 37 
291 165 297 68 41 44 
291 166 297 65 39 44 
291 167 297 66 39 45 
292 161 298 64 37 42 
292 161 299 66 39 46 
292 163 297 66 38 34 
292 162 298 66 35 38 
292 162 299 73 37 34 
292 163 298 67 36 32 
292 163 299 75 35 33 
293 163 300 79 36 35 
293 163 301 79 34 38 
292 164 297 68 42 34 
292 165 297 75 44 42 
292 164 298 72 41 34 
292 164 299 79 37 36 
292 165 298 78 40 38 
292 165 299 86 38 33 
293 165 299 89 37 30 
292 166 297 74 33 38 
292 167 297 77 42 46 
292 166 298 82 34 36 
292 166 299 89 34 28 
292 167 298 91 38 37 
293 166 299 93 35 29 
293 167 299 105 39 33 
293 164 300 85 39 37 
293 164 301 87 37 39 
293 165 300 88 35 32 
293 165 301 92 36 39 
293 166 300 95 38 33 
293 166 301 96 37 40 
293 167 300 107 38 33 
293 167 301 105 40 39 
294 165 303 91 37 48 
294 166 301 100 36 39 
294 167 301 103 39 40 
294 166 302 95 36 40 
294 166 303 89 36 48 
294 167 302 94 35 40 
294 167 303 81 32 46 
291 168 297 68 33 45 
291 169 297 74 32 48 
292 168 297 81 35 44 
292 169 297 88 36 47 
292 168 298 97 40 37 
292 169 298 99 40 44 
293 168 298 107 41 35 
293 168 299 114 41 34 
293 169 298 109 41 38 
293 169 299 115 42 34 
292 170 297 95 42 53 
292 171 296 87 37 54 
292 171 297 95 40 54 
293 170 297 105 39 45 
293 171 297 103 40 52 
293 170 298 110 40 40 
293 170 299 115 39 34 
293 171 298 110 38 45 
293 171 299 114 34 33 
294 170 299 114 40 32 
294 171 298 111 39 45 
294 171 299 113 38 33 
293 168 300 113 38 32 
293 169 300 117 42 30 
294 168 300 108 36 34 
294 168 301 104 40 41 
294 169 300 111 40 33 
294 169 301 102 39 38 
294 168 302 94 41 47 
294 168 303 79 39 51 
294 169 302 91 44 48 
294 169 303 78 42 53 
295 168 303 66 39 56 
295 169 302 85 41 47 
295 169 303 67 38 53 
294 170 300 109 41 32 
294 170 301 97 38 37 
294 171 300 108 39 30 
294 171 301 97 38 34 
295 171 301 92 37 34 
294 170 302 88 39 40 
295 170 302 75 35 43 
295 170 303 54 32 48 
295 171 302 76 36 41 
295 171 303 51 41 53 
292 172 296 89 42 59 
292 172 297 92 40 56 
292 173 296 89 40 57 
293 172 297 99 39 52 
293 173 297 93 37 53 
293 172 298 106 42 48 
293 173 298 96 42 49 
294 172 298 108 42 44 
294 172 299 109 42 37 
294 173 298 101 46 46 
294 173 299 103 47 42 
294 172 300 106 42 35 
294 173 300 101 45 37 
295 172 300 100 43 34 
295 172 301 91 39 37 
295 173 300 94 43 36 
295 173 301 81 36 33 
295 172 302 72 32 40 
295 172 303 45 35 48 
295 173 302 68 34 39 
295 173 303 54 34 46 
296 173 303 52 37 50 
295 167 304 64 36 54 
295 168 304 60 35 56 
295 169 304 54 36 57 
295 170 304 43 31 53 
295 171 304 46 42 56 
295 172 304 41 39 54 
296 169 306 28 36 55 
296 170 305 35 40 60 
296 171 304 41 39 58 
296 171 305 32 39 59 
296 170 306 35 43 61 
296 171 306 27 37 59 
296 172 304 36 34 53 
296 172 305 30 34 55 
296 173 304 38 34 55 
296 173 305 39 39 58 
296 172 306 26 35 59 
296 173 306 35 39 62 
297 173 308 36 47 72 
287 110 300 106 87 71 
287 111 300 107 86 68 
287 111 301 108 88 70 
287 112 300 109 83 59 
287 112 301 108 83 60 
287 113 300 115 76 36 
287 114 300 125 64 11 
288 110 299 108 89 72 
289 110 299 109 90 75 
290 111 298 111 89 74 
290 111 299 109 91 76 
291 111 299 110 90 76 
288 110 300 108 89 74 
288 110 301 110 92 77 
288 111 301 110 91 75 
289 110 300 109 92 77 
289 110 301 111 94 79 
288 111 302 113 95 79 
289 110 302 112 95 81 
289 110 303 110 95 82 
289 111 302 113 97 82 
289 111 303 113 98 84 
290 110 300 109 91 76 
290 110 301 110 92 78 
290 111 300 109 91 76 
291 110 301 107 91 79 
291 111 300 109 91 77 
291 111 301 108 91 77 
290 110 302 109 93 80 
290 110 303 106 94 84 
291 110 302 105 93 82 
291 110 303 105 93 83 
292 111 301 105 92 81 
292 110 302 104 92 82 
292 110 303 103 92 82 
292 111 302 104 92 82 
292 111 303 104 92 82 
293 111 302 104 92 82 
293 111 303 103 91 82 
288 115 299 131 63 5 
290 112 298 112 88 74 
291 112 299 110 90 75 
288 112 301 111 89 68 
288 113 301 112 77 43 
288 112 302 115 94 74 
288 113 302 116 89 60 
289 112 303 118 101 84 
289 113 302 120 87 51 
289 113 303 120 96 67 
288 114 300 129 62 7 
288 114 301 125 72 15 
288 115 300 132 59 5 
288 115 301 133 63 5 
289 115 301 133 67 6 
288 114 302 118 79 32 
289 114 302 124 74 15 
289 114 303 121 78 30 
289 115 302 133 66 6 
289 115 303 132 63 5 
290 114 303 124 68 4 
290 115 303 130 62 4 
288 116 299 130 62 4 
288 117 299 130 63 5 
288 118 299 131 65 5 
288 119 299 131 65 5 
288 116 300 131 61 4 
288 116 301 133 64 6 
288 117 300 130 60 4 
288 117 301 132 62 6 
289 116 301 134 67 8 
289 117 301 133 65 8 
289 116 302 133 67 6 
289 117 302 134 67 7 
288 118 300 131 63 5 
288 119 300 132 64 5 
289 118 300 131 62 3 
289 118 301 132 63 7 
289 119 300 132 64 6 
289 119 301 132 64 5 
289 118 302 132 64 7 
290 116 303 131 64 8 
290 117 302 132 67 5 
290 117 303 130 67 6 
290 119 301 132 64 5 
290 118 302 131 64 5 
290 118 303 129 64 5 
290 119 302 130 64 5 
291 118 303 128 62 4 
291 119 303 126 62 4 
292 112 300 108 91 78 
292 112 301 106 91 80 
293 112 302 105 91 81 
288 120 299 129 62 4 
288 121 299 128 62 4 
288 122 299 127 60 5 
288 123 299 126 55 6 
289 120 300 129 62 5 
289 120 301 131 64 6 
289 121 300 128 62 4 
289 121 301 129 63 7 
289 122 300 128 60 6 
289 123 300 126 55 6 
290 120 301 130 64 6 
290 121 301 128 62 9 
290 120 302 128 63 5 
290 121 302 128 61 7 
291 120 302 127 62 6 
291 120 303 125 59 6 
291 121 302 126 59 6 
291 121 303 125 57 7 
290 122 301 126 58 6 
290 123 301 126 55 7 
290 122 302 126 57 5 
291 122 302 126 56 7 
291 122 303 123 56 9 
291 123 302 125 54 9 
291 123 303 123 55 11 
288 124 299 124 56 14 
288 125 299 112 66 39 
289 125 299 113 66 38 
288 126 299 100 85 83 
288 127 299 99 95 98 
289 126 299 101 85 82 
289 127 299 98 96 100 
289 124 300 125 54 10 
289 125 300 116 60 27 
289 126 300 102 81 77 
289 127 300 99 94 97 
290 124 301 126 55 12 
290 125 301 116 60 25 
290 124 302 126 55 9 
290 125 302 120 58 19 
291 124 302 125 56 8 
291 124 303 124 54 8 
291 125 302 121 55 12 
291 125 303 122 53 12 
290 126 301 106 77 69 
290 127 300 99 97 100 
290 127 301 97 90 91 
290 126 302 107 73 63 
290 127 302 97 87 87 
291 126 302 110 69 53 
291 126 303 110 65 45 
291 127 302 96 83 81 
291 127 303 97 80 77 
292 121 303 122 53 5 
292 122 303 122 54 7 
292 123 303 123 54 10 
292 124 303 123 54 11 
292 125 303 123 54 12 
289 128 299 95 97 100 
289 129 299 85 79 78 
289 130 299 90 65 58 
290 129 299 88 74 72 
290 130 299 92 67 60 
290 131 299 102 47 31 
289 128 300 100 102 105 
290 128 300 95 95 97 
290 128 301 98 100 103 
290 129 300 89 79 77 
290 129 301 94 90 89 
291 128 301 97 97 96 
291 129 301 96 83 79 
291 128 302 97 98 99 
291 128 303 93 94 95 
291 129 302 101 92 88 
291 129 303 101 98 97 
290 130 300 95 70 65 
290 131 300 104 52 35 
291 130 300 102 68 59 
291 130 301 102 71 65 
291 131 300 108 56 38 
291 131 301 110 58 41 
291 130 302 107 73 65 
291 131 302 113 58 45 
289 132 299 118 37 19 
289 133 299 122 35 18 
290 132 299 116 38 18 
290 133 299 123 37 15 
290 134 299 124 33 15 
290 135 299 126 33 17 
291 134 299 125 33 14 
291 135 299 127 34 20 
291 132 300 117 37 21 
291 132 301 117 37 20 
291 133 300 124 35 14 
291 133 301 123 35 15 
291 134 300 125 34 16 
291 134 301 124 32 14 
291 135 300 121 41 29 
292 129 303 102 95 91 
292 130 302 108 73 65 
292 130 303 108 74 68 
292 131 302 114 44 29 
292 131 303 113 53 41 
292 133 301 122 36 14 
292 132 302 117 34 18 
292 132 303 116 33 20 
292 133 302 120 36 14 
292 133 303 118 35 13 
293 132 303 117 31 17 
293 133 303 119 33 14 
292 134 301 124 31 14 
292 135 301 121 37 26 
292 134 302 120 32 14 
292 134 303 118 35 14 
292 135 302 120 33 19 
293 134 303 118 31 13 
293 135 303 118 31 15 
290 136 298 126 31 19 
290 136 299 127 33 19 
290 137 299 126 29 14 
291 136 299 124 38 21 
291 137 299 121 39 21 
290 138 298 126 29 17 
290 138 299 126 29 15 
290 139 298 126 28 18 
290 139 299 123 34 17 
291 138 299 122 37 21 
291 139 299 123 34 14 
291 136 300 120 44 28 
291 137 300 120 38 24 
291 138 300 122 38 22 
291 138 301 122 39 23 
291 139 300 123 38 17 
291 139 301 122 39 18 
290 140 298 126 30 20 
290 140 299 126 29 18 
290 141 298 125 29 18 
290 141 299 125 30 19 
291 140 299 123 37 16 
291 141 299 125 34 19 
290 142 298 124 28 15 
290 142 299 124 27 16 
290 143 298 124 33 19 
290 143 299 125 33 19 
291 142 299 124 29 15 
291 143 299 125 34 18 
291 140 300 123 39 14 
291 140 301 123 39 13 
291 141 300 125 32 17 
291 141 301 124 30 15 
291 142 300 124 37 14 
291 142 301 123 34 17 
291 143 300 124 37 17 
291 143 301 122 36 18 
292 136 301 120 46 30 
292 137 301 119 40 24 
292 136 302 117 42 23 
292 136 303 118 34 18 
292 137 302 117 40 19 
292 137 303 115 37 15 
293 136 303 116 31 17 
293 137 303 115 36 15 
292 138 301 120 37 20 
292 139 301 121 39 19 
292 138 302 118 39 17 
292 138 303 116 39 16 
292 139 302 119 38 16 
292 139 303 117 38 18 
293 138 303 115 38 15 
293 139 303 119 33 20 
292 140 301 122 38 15 
292 141 301 123 37 16 
292 140 302 120 39 18 
292 140 303 118 33 21 
292 141 302 121 30 20 
292 141 303 116 27 24 
293 140 303 118 37 21 
292 142 301 122 37 21 
292 143 301 122 36 19 
292 142 302 121 33 25 
292 142 303 116 30 27 
292 143 302 118 35 21 
292 143 303 113 30 23 
293 142 303 113 33 28 
293 143 303 109 28 24 
290 144 298 123 34 21 
290 144 299 123 33 20 
290 145 298 121 33 18 
290 145 299 121 33 17 
291 144 299 123 32 19 
291 145 299 121 30 18 
290 146 298 121 36 21 
290 146 299 120 34 20 
290 147 298 120 35 21 
290 147 299 119 33 19 
291 146 299 120 33 20 
291 147 299 117 33 21 
291 144 300 123 30 18 
291 144 301 123 32 19 
291 145 300 120 30 20 
291 145 301 118 27 23 
291 146 300 117 34 26 
291 146 301 114 33 30 
291 147 300 113 31 27 
291 147 301 107 31 30 
290 148 298 119 34 23 
290 148 299 116 35 25 
290 149 298 113 37 26 
290 149 299 105 31 24 
291 148 299 114 37 30 
291 149 299 107 35 31 
290 150 298 108 36 26 
290 150 299 102 36 30 
290 151 298 98 42 41 
290 151 299 93 41 42 
291 150 299 95 44 45 
291 151 299 88 53 57 
291 148 300 110 38 36 
291 148 301 102 37 41 
291 149 300 98 31 36 
291 150 300 89 43 48 
291 151 300 81 48 58 
291 151 301 77 48 56 
292 144 301 120 33 20 
292 145 301 116 29 24 
292 144 302 115 34 19 
292 144 303 110 34 27 
292 145 302 110 30 24 
293 144 303 107 37 30 
293 145 303 100 33 32 
292 146 301 110 32 34 
292 147 301 104 32 35 
292 146 302 101 29 33 
292 147 302 97 36 42 
293 146 303 98 37 40 
293 147 303 87 36 43 
292 148 301 99 36 41 
292 149 301 87 34 42 
292 148 302 88 32 41 
292 149 302 82 42 49 
293 148 303 82 35 44 
293 149 303 81 46 50 
292 150 301 81 46 52 
292 151 301 78 49 56 
292 150 302 79 51 56 
292 151 302 77 50 56 
293 150 303 77 51 55 
293 151 303 77 50 53 
290 152 298 83 38 50 
290 152 299 73 34 50 
290 153 298 73 40 54 
290 153 299 72 44 58 
291 152 299 75 38 50 
291 153 299 74 45 59 
290 154 298 64 41 57 
290 154 299 68 48 63 
290 155 298 65 44 59 
290 155 299 68 45 62 
291 154 299 65 43 61 
291 155 299 63 47 63 
291 152 300 76 49 61 
291 152 301 78 53 60 
291 153 300 72 47 62 
291 153 301 67 41 57 
291 154 300 68 43 60 
291 154 301 68 38 59 
291 155 300 68 42 57 
290 156 298 67 47 63 
290 157 298 64 44 62 
291 156 299 65 40 59 
291 157 299 68 41 61 
290 158 298 67 50 65 
290 159 298 64 48 63 
291 158 299 68 43 59 
291 159 299 67 42 54 
291 156 300 68 37 54 
291 157 300 70 41 58 
291 158 300 70 41 54 
291 159 300 69 39 49 
292 152 301 77 52 59 
292 153 301 70 44 57 
292 152 302 76 49 56 
292 153 302 74 46 55 
293 152 302 77 50 55 
293 152 303 76 47 50 
293 153 302 76 48 55 
293 153 303 78 46 51 
292 154 301 69 38 56 
292 155 301 68 35 53 
292 154 302 70 34 52 
292 155 302 71 35 52 
292 155 303 73 39 51 
293 154 303 71 33 40 
293 155 303 73 38 46 
292 156 301 71 36 51 
292 157 300 71 37 54 
292 157 301 70 35 50 
292 156 302 72 36 49 
292 156 303 73 37 47 
292 157 302 71 38 47 
292 157 303 74 40 44 
293 156 303 74 38 47 
293 157 303 76 37 42 
292 158 300 70 38 53 
292 158 301 71 36 49 
292 159 300 71 40 49 
292 159 301 72 38 47 
292 158 302 73 39 47 
292 158 303 74 39 41 
292 159 302 72 37 43 
292 159 303 75 37 39 
293 158 303 75 34 35 
291 160 299 68 43 51 
291 161 299 70 39 43 
291 162 299 69 33 36 
291 160 300 69 36 43 
291 161 300 70 36 41 
292 160 300 71 36 45 
292 160 301 73 39 45 
292 161 300 71 35 43 
292 161 301 75 39 43 
292 160 302 75 40 43 
292 160 303 77 37 40 
292 161 302 75 38 40 
292 161 303 77 37 42 
293 160 303 80 38 44 
293 161 303 79 36 40 
292 162 300 73 36 39 
292 162 301 74 35 38 
292 163 300 75 35 37 
292 163 301 76 34 38 
292 162 302 76 37 37 
293 162 302 79 37 38 
293 162 303 81 38 39 
293 163 302 84 37 41 
293 163 303 86 38 41 
293 164 302 88 33 38 
293 164 303 89 35 41 
293 165 302 94 37 42 
293 165 303 91 35 43 
293 166 302 95 39 45 
289 111 304 109 97 87 
290 110 304 105 94 84 
290 110 305 102 91 83 
290 111 304 105 94 85 
290 111 305 102 91 83 
291 110 304 104 93 83 
291 110 305 101 90 82 
291 111 305 100 90 82 
291 110 306 98 89 82 
291 111 306 96 87 80 
291 111 307 96 87 81 
291 111 308 97 88 83 
292 110 304 102 91 82 
292 110 305 100 90 83 
293 110 304 102 91 83 
293 110 305 100 90 83 
293 111 304 102 91 83 
293 111 305 101 90 83 
292 110 306 99 89 83 
292 110 307 98 89 83 
293 110 306 100 90 83 
293 110 307 99 90 83 
294 111 304 102 91 83 
294 111 305 101 90 83 
295 111 305 101 91 84 
294 110 306 100 90 84 
294 110 307 99 90 84 
295 110 306 100 90 84 
295 110 307 100 91 85 
295 111 306 100 91 84 
292 110 308 98 89 83 
292 110 309 97 89 84 
292 111 308 97 88 83 
292 111 309 96 88 83 
293 110 308 99 90 84 
293 110 309 98 90 84 
292 111 310 94 87 83 
293 110 310 98 90 85 
293 111 310 96 88 84 
293 111 311 98 90 85 
294 110 308 99 90 84 
294 110 309 100 91 85 
295 110 308 100 91 85 
295 110 309 101 92 86 
294 110 310 100 91 85 
294 110 311 100 92 86 
294 111 311 99 90 85 
295 110 310 101 92 86 
295 110 311 102 93 87 
294 111 312 103 93 87 
295 111 312 103 94 88 
295 111 313 105 95 88 
296 110 307 101 92 85 
296 111 307 101 92 86 
296 110 308 101 92 86 
296 110 309 102 93 86 
296 111 308 102 93 86 
297 110 309 103 94 87 
297 111 309 103 94 87 
296 110 310 103 93 87 
296 110 311 103 94 87 
297 110 310 104 94 88 
297 110 311 104 95 88 
296 110 312 104 94 88 
296 111 312 104 95 88 
296 111 313 105 96 89 
297 110 312 105 95 89 
297 111 312 106 96 89 
297 111 313 106 96 89 
297 111 314 107 97 90 
298 111 312 106 96 89 
298 111 313 107 97 90 
298 111 314 108 98 90 
289 112 304 114 100 87 
289 113 304 117 100 80 
290 112 304 110 97 85 
290 112 305 102 91 80 
290 113 304 113 93 71 
290 113 305 104 89 71 
291 112 306 94 85 76 
291 112 307 96 87 79 
291 113 306 97 82 66 
291 113 307 102 89 75 
290 114 304 118 77 32 
290 114 305 113 80 42 
290 115 304 127 62 4 
291 114 305 110 73 32 
291 115 305 123 62 5 
291 114 306 108 72 29 
291 114 307 112 82 42 
291 115 306 120 63 9 
291 115 307 120 68 4 
291 112 308 100 90 83 
291 112 309 99 91 84 
291 113 308 108 95 82 
291 113 309 108 96 84 
291 114 308 115 90 59 
291 114 309 115 94 67 
291 115 308 121 76 19 
291 115 309 120 84 41 
290 116 304 127 60 7 
290 117 304 128 64 8 
291 116 304 127 60 6 
291 116 305 123 56 5 
291 117 304 127 64 9 
291 117 305 124 59 7 
291 116 306 123 54 3 
291 116 307 124 59 2 
291 117 306 122 56 3 
291 118 304 127 61 5 
291 118 305 124 58 4 
291 119 304 124 59 2 
291 119 305 123 56 2 
291 118 306 123 56 3 
291 116 308 125 65 4 
292 112 309 95 87 83 
292 113 309 103 92 83 
292 112 310 90 84 81 
292 112 311 90 83 80 
292 113 310 97 88 81 
292 113 311 93 85 80 
293 112 311 92 85 81 
293 113 311 94 85 79 
292 114 309 113 92 67 
292 115 309 118 82 37 
292 114 310 106 89 68 
292 114 311 100 84 68 
292 115 310 113 77 38 
292 115 311 110 76 44 
292 116 306 123 55 3 
292 116 307 124 58 2 
292 117 306 123 58 2 
292 117 307 124 60 4 
292 119 305 123 56 2 
292 118 306 123 57 3 
292 118 307 125 60 4 
292 119 306 124 58 3 
292 119 307 126 60 3 
292 116 308 126 64 5 
292 116 309 126 68 8 
292 117 308 127 64 6 
292 117 309 128 64 6 
292 116 310 123 66 14 
292 116 311 121 64 15 
292 117 310 128 62 5 
292 117 311 128 62 6 
292 118 308 127 63 5 
292 118 309 128 64 7 
292 119 308 126 60 3 
292 119 309 127 60 4 
292 118 310 129 63 6 
292 118 311 129 60 5 
292 119 310 128 60 5 
292 119 311 126 58 5 
293 119 311 127 58 3 
293 112 312 98 90 84 
293 113 312 99 90 82 
293 113 313 106 95 86 
293 114 312 104 88 73 
293 114 313 112 97 82 
293 115 312 114 84 54 
293 115 313 118 93 66 
294 112 312 104 95 88 
294 112 313 106 96 89 
294 113 313 111 100 91 
295 112 313 106 97 89 
295 112 314 106 97 90 
295 113 314 109 99 91 
294 114 313 114 102 91 
294 114 314 116 103 89 
294 115 314 113 90 66 
295 114 314 113 102 92 
295 114 315 109 99 89 
295 115 315 112 91 69 
293 116 312 125 72 36 
293 116 313 123 77 40 
293 117 312 129 65 8 
293 117 313 128 68 16 
293 118 312 129 62 6 
293 118 313 131 66 8 
293 119 312 128 62 4 
293 119 313 131 66 7 
294 116 314 122 74 35 
294 117 314 125 64 11 
295 116 315 121 76 41 
295 117 315 126 66 15 
294 118 313 131 65 8 
294 119 313 132 68 10 
294 118 314 130 64 6 
294 119 314 130 64 8 
294 119 315 130 62 6 
295 118 315 129 65 6 
295 119 315 129 62 5 
295 116 316 120 78 44 
291 120 304 124 57 6 
291 121 304 124 54 9 
292 120 304 123 54 7 
292 120 305 124 54 3 
292 121 304 123 52 7 
292 121 305 123 52 5 
292 120 306 125 56 2 
292 120 307 127 59 3 
292 121 306 124 54 3 
292 121 307 125 54 1 
292 122 304 121 51 3 
292 122 305 122 53 4 
292 123 304 121 52 7 
292 123 305 123 53 5 
292 122 306 124 56 3 
292 122 307 126 57 2 
292 123 306 124 57 3 
292 123 307 127 60 4 
292 120 308 127 59 3 
292 120 309 128 60 4 
292 121 308 125 54 5 
292 121 309 126 56 5 
292 120 310 126 58 3 
292 120 311 126 58 3 
292 121 310 124 54 2 
292 121 311 124 55 3 
293 120 311 126 58 3 
292 122 308 126 55 2 
292 122 309 126 57 5 
292 123 308 128 59 4 
292 123 309 125 57 3 
292 122 310 124 55 2 
292 122 311 124 54 1 
292 123 310 125 57 5 
292 123 311 124 55 0 
292 124 304 123 52 8 
292 124 305 124 53 8 
292 125 304 123 53 14 
292 125 305 124 51 12 
292 124 306 125 58 6 
292 124 307 126 58 6 
292 125 306 125 55 10 
292 125 307 126 53 7 
292 126 304 113 57 32 
292 126 305 116 54 25 
292 127 304 98 75 70 
292 127 305 101 72 63 
292 126 306 119 55 20 
292 126 307 122 55 15 
292 127 306 103 70 53 
292 127 307 108 67 44 
292 124 308 126 57 2 
292 124 309 125 55 4 
292 125 308 126 52 5 
292 125 309 125 53 10 
292 124 310 124 54 7 
292 124 311 125 54 2 
292 125 310 126 51 10 
292 125 311 126 49 3 
293 125 311 127 50 8 
292 126 308 124 54 13 
292 126 309 124 52 14 
292 127 308 112 63 33 
292 127 309 115 60 27 
293 127 309 106 62 40 
292 126 310 126 49 11 
292 126 311 127 48 9 
292 127 310 121 55 21 
293 126 310 126 51 10 
293 126 311 128 52 13 
293 127 310 116 58 26 
293 127 311 124 61 24 
293 120 312 129 63 5 
293 120 313 131 67 6 
293 121 312 127 61 4 
293 121 313 130 67 7 
293 121 314 132 67 8 
292 123 312 127 58 4 
293 122 312 126 58 3 
293 122 313 128 63 5 
293 123 312 128 59 4 
293 123 313 129 60 5 
294 120 314 131 65 6 
294 120 315 129 61 5 
294 121 314 130 64 9 
294 121 315 129 61 8 
295 120 315 131 62 6 
295 121 315 128 59 4 
294 122 314 128 60 6 
294 122 315 128 57 4 
294 123 314 128 57 4 
294 123 315 126 54 2 
295 120 316 131 62 7 
295 121 316 130 61 7 
295 122 316 128 59 6 
295 123 316 129 58 4 
292 124 312 127 56 4 
293 124 312 127 55 5 
293 124 313 129 56 7 
293 125 312 129 53 10 
293 125 313 131 55 10 
293 126 312 132 56 16 
293 126 313 134 57 16 
293 127 312 127 62 25 
293 127 313 130 60 22 
294 124 314 129 55 6 
294 124 315 128 54 4 
294 125 314 132 56 7 
294 125 315 132 56 6 
295 124 315 131 57 6 
295 125 315 134 58 7 
294 126 314 134 54 14 
294 126 315 134 53 12 
294 127 314 130 56 21 
294 127 315 134 61 24 
295 126 315 135 56 11 
295 124 316 133 60 7 
295 125 316 137 62 8 
295 126 316 137 61 10 
295 126 317 139 65 9 
295 127 316 136 65 22 
295 127 317 136 67 22 
296 112 314 105 96 89 
296 113 314 104 95 88 
296 113 315 104 95 88 
297 112 314 107 97 90 
297 112 315 107 97 90 
297 113 315 107 97 90 
296 114 315 102 94 88 
297 114 315 106 97 89 
298 112 314 109 98 91 
298 112 315 109 99 91 
298 113 315 111 100 92 
296 114 316 105 96 87 
296 115 316 111 91 70 
297 114 316 108 98 90 
297 115 316 113 97 79 
298 114 316 114 103 94 
298 115 316 115 102 89 
298 115 317 119 100 78 
299 115 317 119 105 90 
296 116 316 120 79 44 
296 117 316 127 68 22 
297 116 316 119 89 54 
297 116 317 123 87 47 
297 117 317 128 76 26 
296 118 316 129 65 5 
296 119 316 131 64 6 
297 118 317 131 71 10 
297 119 317 134 69 9 
298 116 317 125 95 58 
298 117 317 127 80 29 
299 116 317 122 99 70 
299 117 317 126 85 34 
298 118 317 132 75 9 
298 119 317 135 70 7 
299 118 317 132 75 9 
299 119 317 134 68 6 
296 120 316 132 63 7 
296 121 316 133 63 7 
296 121 317 135 63 8 
297 120 317 136 68 7 
297 121 317 137 67 7 
296 122 316 133 63 8 
296 122 317 136 65 8 
296 123 316 132 63 6 
296 123 317 136 65 7 
297 122 317 138 68 7 
297 123 317 139 69 7 
298 120 317 138 69 7 
298 121 317 139 69 7 
299 120 317 137 67 8 
298 121 318 140 68 7 
299 120 318 140 67 8 
299 121 318 141 67 7 
298 122 317 140 71 7 
298 123 317 141 70 7 
298 122 318 141 70 7 
298 123 318 141 69 7 
299 122 318 142 69 7 
299 123 318 142 67 8 
296 124 316 134 64 7 
296 124 317 139 66 10 
296 125 317 142 68 12 
297 124 317 141 68 8 
296 125 318 143 69 11 
297 124 318 142 67 8 
297 125 318 144 68 10 
296 126 317 141 69 12 
296 127 317 138 67 19 
296 126 318 143 70 11 
296 127 318 139 67 15 
297 126 318 144 68 12 
297 127 318 139 65 15 
298 124 318 143 69 8 
298 125 318 145 67 9 
299 124 318 143 67 8 
299 125 318 145 67 10 
298 126 318 145 67 10 
298 127 318 142 65 10 
298 127 319 141 66 14 
299 126 318 146 66 13 
299 126 319 145 66 11 
299 127 319 142 65 10 
292 128 304 91 91 92 
292 128 305 90 88 89 
292 129 304 100 97 96 
292 129 305 98 96 95 
292 128 306 91 85 84 
292 128 307 92 83 81 
292 129 306 96 95 94 
293 128 307 91 90 93 
293 129 306 101 100 98 
293 129 307 96 95 95 
292 130 304 107 77 68 
292 130 305 105 80 69 
292 131 304 113 55 46 
292 131 305 110 63 54 
293 130 305 105 81 66 
293 131 305 111 59 49 
292 130 306 104 90 81 
293 130 306 106 93 83 
293 130 307 106 93 86 
293 131 306 106 61 52 
293 131 307 107 68 59 
292 128 308 95 79 72 
293 128 308 90 88 90 
293 128 309 94 81 75 
293 129 308 95 93 94 
293 129 309 95 92 94 
293 128 310 95 79 71 
293 128 311 102 78 68 
293 129 310 93 94 97 
293 129 311 94 95 99 
293 130 308 105 95 89 
293 130 309 103 97 91 
293 131 308 105 71 62 
293 131 309 103 83 71 
293 130 310 104 101 99 
293 130 311 103 102 102 
293 131 310 103 89 78 
293 131 311 105 93 85 
294 131 311 106 98 93 
293 132 304 115 32 20 
293 132 305 112 34 25 
293 133 304 117 31 17 
293 133 305 114 29 18 
293 132 306 110 35 27 
293 132 307 110 42 33 
293 133 306 112 32 18 
293 133 307 112 33 17 
293 134 304 118 28 16 
293 134 305 112 27 18 
293 135 304 115 28 19 
293 135 305 112 30 23 
293 134 306 110 31 16 
293 134 307 111 34 17 
293 135 306 110 34 19 
293 135 307 109 34 20 
293 132 308 105 48 39 
293 132 309 97 45 39 
293 133 308 103 33 18 
293 133 309 95 32 21 
293 132 310 94 59 53 
293 132 311 92 62 54 
293 134 308 104 33 18 
293 135 308 99 33 23 
294 133 309 89 36 24 
294 132 310 88 41 34 
294 132 311 86 44 37 
294 133 310 86 38 25 
294 133 311 81 37 27 
294 134 308 99 33 22 
294 134 309 94 35 26 
294 135 308 103 34 22 
294 135 309 90 34 26 
294 134 310 83 37 24 
294 134 311 77 35 25 
294 135 310 80 33 25 
294 135 311 71 29 27 
293 128 312 105 78 66 
293 128 313 107 78 64 
293 129 312 96 95 99 
293 130 312 101 102 107 
293 131 312 104 95 90 
294 128 313 110 75 57 
294 129 313 98 96 100 
294 128 314 115 72 54 
294 128 315 121 71 49 
294 129 314 103 96 100 
294 129 315 110 91 90 
294 130 312 103 102 103 
294 130 313 102 104 108 
294 131 312 106 100 97 
294 131 313 106 100 98 
294 130 314 103 105 110 
294 130 315 103 104 107 
294 131 314 108 104 103 
294 131 315 109 107 108 
295 130 315 104 106 109 
295 131 315 108 108 109 
295 128 316 126 70 40 
295 128 317 129 70 37 
295 129 316 113 88 82 
295 129 317 115 87 77 
295 130 316 104 103 106 
295 130 317 104 102 104 
295 131 316 106 107 110 
295 131 317 108 110 113 
293 132 312 93 69 61 
294 132 312 86 49 43 
294 132 313 90 64 60 
294 133 312 80 32 25 
294 133 313 83 34 30 
294 132 314 91 72 67 
294 132 315 103 96 93 
294 133 314 84 39 38 
295 132 315 92 80 74 
295 133 315 81 41 41 
294 134 312 78 32 27 
294 134 313 81 33 30 
294 135 312 73 26 33 
294 135 313 78 34 41 
294 134 314 84 32 35 
294 135 314 84 37 46 
295 134 314 82 32 34 
295 134 315 85 30 43 
295 135 314 86 35 48 
295 135 315 87 37 50 
295 132 316 99 90 89 
295 132 317 106 102 103 
295 133 316 82 47 48 
295 134 316 84 32 45 
295 135 316 86 42 54 
293 136 304 115 29 20 
293 136 305 111 29 24 
293 137 304 114 29 18 
293 137 305 109 29 24 
293 136 306 110 26 25 
293 136 307 107 27 26 
293 137 306 108 30 28 
293 137 307 104 31 28 
293 138 304 113 35 18 
293 138 305 109 28 21 
293 139 304 114 32 24 
293 139 305 110 29 24 
293 138 306 106 31 28 
293 138 307 102 35 30 
293 139 306 108 30 26 
294 138 307 99 35 29 
294 139 306 104 36 32 
294 139 307 94 37 32 
293 136 308 100 31 29 
294 136 308 96 31 30 
294 136 309 87 38 32 
294 137 308 93 30 28 
294 137 309 78 35 33 
294 136 310 71 36 33 
294 136 311 63 31 38 
294 137 310 63 36 38 
294 137 311 55 36 46 
294 138 308 88 35 30 
294 138 309 72 39 39 
294 139 308 81 35 35 
294 139 309 70 33 41 
295 139 309 64 38 48 
294 138 310 58 39 45 
294 138 311 52 40 50 
294 139 311 47 42 54 
295 138 311 49 43 53 
295 139 310 50 39 52 
295 139 311 41 40 56 
293 140 304 116 29 26 
293 140 305 109 30 28 
293 141 304 110 26 27 
293 141 305 107 30 30 
293 142 304 109 35 33 
293 142 305 103 35 37 
293 143 304 104 36 30 
294 141 305 100 33 34 
294 140 306 101 34 29 
294 140 307 89 37 34 
294 141 306 93 34 30 
294 141 307 82 40 40 
294 142 305 98 33 36 
294 143 305 94 33 38 
294 142 306 86 33 40 
294 142 307 75 37 43 
294 143 306 87 39 44 
295 142 307 71 35 47 
295 143 306 86 38 44 
295 143 307 69 35 50 
294 140 308 77 35 39 
294 140 309 73 34 43 
294 141 308 70 37 48 
295 140 309 57 37 54 
295 141 308 69 39 53 
295 141 309 57 39 60 
295 140 310 45 39 58 
295 140 311 42 41 60 
295 141 310 44 40 61 
295 141 311 40 40 60 
295 142 308 64 39 57 
295 142 309 54 38 63 
295 143 308 59 39 59 
295 143 309 52 41 61 
295 142 310 44 41 62 
295 142 311 43 42 61 
295 143 310 43 39 59 
295 143 311 46 39 59 
294 136 312 64 29 42 
294 136 313 72 37 48 
294 137 312 57 34 49 
294 137 313 66 38 51 
294 136 314 83 42 53 
294 136 315 88 41 58 
294 137 314 78 39 55 
294 137 315 86 37 59 
295 136 315 88 38 57 
295 137 315 87 39 62 
294 138 312 53 40 54 
294 138 313 62 38 54 
295 138 312 52 42 57 
295 138 313 61 42 59 
295 139 312 47 42 59 
295 139 313 54 40 60 
294 138 314 75 38 58 
295 138 314 74 40 61 
295 138 315 86 44 66 
295 139 314 64 37 60 
295 139 315 73 35 59 
295 136 316 87 38 57 
295 136 317 86 38 56 
295 137 316 88 36 59 
295 137 317 86 32 57 
295 138 316 90 43 65 
295 138 317 91 39 60 
295 139 316 87 40 58 
295 139 317 93 40 54 
295 140 312 45 44 62 
295 140 313 49 42 62 
295 141 312 47 44 63 
295 141 313 55 45 62 
295 140 314 59 37 60 
295 140 315 71 38 56 
295 141 314 62 41 60 
295 141 315 77 40 53 
295 142 312 52 42 59 
295 142 313 60 45 58 
295 143 312 55 35 55 
295 143 313 62 39 52 
295 142 314 63 45 56 
295 140 316 91 42 52 
295 140 317 102 43 50 
295 141 317 108 43 47 
296 128 317 128 70 36 
296 129 317 117 86 73 
296 128 318 128 71 39 
296 129 318 115 86 75 
297 128 318 131 70 36 
297 128 319 132 68 33 
297 129 318 117 85 74 
297 129 319 119 83 68 
296 130 317 104 101 103 
296 131 317 106 109 114 
296 130 318 104 100 101 
296 131 318 105 109 114 
297 130 318 105 100 100 
297 130 319 108 99 96 
297 131 318 105 108 113 
297 131 319 107 109 113 
298 128 319 134 70 31 
298 129 319 122 82 61 
299 128 319 136 72 30 
299 129 319 128 81 54 
298 130 319 112 95 87 
298 131 319 107 108 110 
296 132 317 102 95 95 
296 133 317 87 63 64 
296 132 318 105 103 105 
296 133 318 93 71 76 
297 132 319 109 108 111 
297 133 319 98 82 88 
296 134 317 84 32 50 
296 135 317 86 45 57 
296 134 318 87 39 58 
296 135 318 86 42 58 
297 134 318 86 39 60 
297 134 319 85 41 62 
297 135 318 86 37 59 
297 135 319 87 32 58 
298 134 319 81 39 65 
298 135 319 91 31 58 
296 143 310 44 40 58 
296 143 311 49 36 57 
296 136 317 88 41 58 
296 137 317 89 36 59 
296 136 318 90 42 60 
296 137 318 93 40 58 
297 136 318 92 42 60 
297 136 319 96 37 57 
297 137 318 98 41 56 
297 137 319 105 44 51 
296 138 317 90 36 58 
296 138 318 95 35 53 
296 138 319 102 29 46 
296 139 318 103 40 50 
296 139 319 112 38 47 
297 138 319 108 33 40 
297 139 319 116 34 39 
298 136 319 104 34 55 
296 141 314 75 41 56 
296 141 315 83 40 51 
296 143 312 62 37 56 
296 143 313 70 40 51 
296 142 314 73 40 51 
296 142 315 85 37 43 
296 143 314 79 40 46 
296 143 315 91 38 36 
296 141 316 97 40 45 
296 141 317 113 39 40 
296 140 318 114 41 44 
296 141 318 123 38 30 
297 140 319 123 31 35 
297 141 319 127 34 24 
296 142 316 101 36 37 
296 142 317 116 36 29 
296 143 316 101 38 33 
296 143 317 110 31 24 
296 142 318 126 35 23 
296 143 318 121 34 24 
297 142 319 129 34 24 
297 143 319 126 30 22 
293 144 304 102 40 37 
293 145 304 101 41 38 
293 146 304 97 44 44 
293 147 304 91 42 43 
294 144 305 95 40 43 
294 145 304 96 38 40 
294 145 305 91 41 45 
294 144 306 90 41 47 
294 145 306 78 35 50 
294 145 307 71 38 57 
295 144 306 84 41 47 
295 144 307 68 35 52 
295 145 306 84 39 49 
295 145 307 73 35 52 
294 146 304 92 43 45 
294 146 305 89 43 46 
294 147 304 81 40 45 
294 147 305 76 39 47 
294 146 306 72 34 52 
294 146 307 68 34 52 
294 147 306 71 37 50 
294 147 307 72 40 53 
295 147 307 71 34 48 
294 145 308 65 39 58 
295 144 308 56 36 59 
295 144 309 51 38 57 
295 145 308 59 38 58 
295 145 309 54 40 56 
295 144 310 49 41 57 
295 145 310 59 38 50 
295 145 311 71 38 46 
294 146 308 66 36 54 
294 147 308 67 33 48 
295 146 308 63 34 50 
295 146 309 66 39 47 
295 147 308 69 35 46 
295 147 309 74 38 43 
295 146 310 73 41 45 
295 146 311 82 43 44 
295 147 310 78 35 36 
295 147 311 83 36 34 
293 148 304 81 46 50 
293 149 304 80 44 48 
293 150 304 78 48 51 
293 151 304 77 46 49 
294 148 304 78 47 49 
294 148 305 74 40 45 
294 149 304 77 42 46 
294 149 305 77 40 45 
294 148 306 71 35 47 
294 148 307 72 35 45 
294 149 306 77 36 45 
294 149 307 77 37 41 
295 148 307 74 36 43 
295 149 307 81 40 39 
294 150 304 80 46 47 
294 150 305 80 43 44 
294 151 304 74 34 41 
294 151 305 78 35 38 
294 150 306 79 34 36 
294 150 307 80 33 32 
294 151 306 80 35 31 
295 150 307 80 32 29 
295 151 307 83 36 30 
295 148 308 75 35 40 
295 148 309 80 36 38 
295 149 308 82 39 37 
295 149 309 86 38 36 
295 148 310 83 35 35 
295 148 311 87 38 33 
295 149 310 87 33 31 
295 149 311 86 34 27 
295 150 308 82 32 25 
295 150 309 86 33 27 
295 151 308 85 39 29 
295 151 309 88 36 28 
295 150 310 89 36 31 
295 150 311 89 36 30 
295 151 310 88 34 27 
295 151 311 88 34 30 
295 145 312 77 36 44 
295 145 313 82 34 37 
295 144 314 84 29 28 
295 144 315 86 36 28 
295 145 314 86 34 31 
295 145 315 91 39 34 
295 146 312 85 41 39 
295 146 313 87 32 31 
295 147 312 86 35 31 
295 147 313 89 35 31 
295 146 314 86 29 26 
295 147 314 93 39 34 
295 144 316 92 42 33 
295 144 317 95 41 32 
295 145 316 92 41 34 
295 145 317 92 38 30 
295 146 316 87 28 27 
295 148 312 88 35 29 
295 150 312 88 34 28 
295 151 312 87 30 26 
295 151 313 89 31 29 
295 151 314 92 32 32 
295 151 315 93 34 35 
293 152 304 76 41 44 
293 153 304 78 37 38 
293 154 304 78 33 38 
293 154 305 82 33 37 
293 155 304 77 34 38 
293 155 305 81 28 34 
294 152 304 76 37 39 
294 152 305 79 37 35 
294 153 305 77 33 30 
294 152 306 82 39 30 
294 152 307 85 42 30 
294 153 306 78 31 25 
294 153 307 81 32 23 
294 154 305 82 35 35 
294 155 305 83 32 35 
294 154 306 84 36 32 
294 154 307 85 37 33 
294 155 306 83 33 31 
294 155 307 85 32 31 
294 152 308 82 32 23 
294 153 308 86 36 32 
294 153 309 90 43 40 
295 152 309 83 26 23 
295 153 309 88 36 33 
295 152 310 84 25 24 
295 152 311 87 31 28 
295 153 310 88 34 34 
295 153 311 87 31 31 
294 154 308 86 34 34 
294 154 309 85 29 31 
294 155 308 84 28 29 
294 155 309 86 30 32 
295 154 309 87 32 33 
295 154 310 85 25 30 
295 154 311 87 27 30 
295 155 310 87 33 34 
295 155 311 87 28 31 
293 156 304 75 31 35 
293 156 305 81 29 33 
293 157 304 78 35 36 
293 157 305 83 35 35 
293 157 306 85 35 33 
293 158 304 79 32 36 
293 158 305 83 33 33 
293 159 304 82 36 41 
293 159 305 85 37 40 
293 158 306 85 36 34 
293 159 306 86 38 40 
294 156 306 86 36 35 
294 156 307 86 38 35 
294 157 306 86 35 35 
294 157 307 85 36 36 
294 158 306 86 37 37 
294 158 307 86 38 40 
294 159 306 85 34 39 
294 159 307 83 33 38 
294 156 308 86 33 33 
294 156 309 86 30 31 
294 157 308 85 32 35 
294 157 309 86 28 31 
295 156 310 86 30 29 
295 156 311 87 27 29 
295 157 310 88 34 35 
295 157 311 89 34 30 
294 158 308 87 36 40 
294 158 309 88 33 36 
294 159 308 83 29 36 
294 159 309 87 36 37 
295 159 309 86 35 35 
295 158 310 86 27 30 
295 158 311 84 28 28 
295 159 310 85 34 35 
295 159 311 84 39 41 
295 152 312 90 32 31 
295 152 313 91 34 34 
295 153 312 88 27 30 
295 153 313 88 26 29 
295 152 314 90 25 30 
295 152 315 87 23 27 
295 153 314 87 22 29 
295 153 315 88 24 31 
295 154 312 88 30 33 
295 154 313 87 30 32 
295 155 312 88 29 31 
295 155 313 87 30 29 
295 154 314 88 31 34 
295 154 315 89 28 33 
295 155 314 88 27 31 
295 155 315 92 31 37 
295 152 316 90 28 28 
295 153 316 91 32 32 
295 154 316 92 32 36 
295 156 312 87 28 29 
295 156 313 88 31 32 
295 157 312 88 34 31 
295 157 313 86 28 29 
295 156 314 89 33 35 
295 156 315 93 41 44 
295 157 314 85 31 31 
295 158 312 81 32 31 
295 158 313 81 37 38 
295 159 312 77 38 39 
295 159 313 66 36 35 
295 158 314 77 36 34 
295 159 314 57 30 28 
296 144 310 53 42 57 
296 144 311 58 41 57 
296 149 311 87 35 25 
296 144 312 68 39 56 
296 144 313 77 37 51 
296 144 314 82 33 36 
296 144 315 89 32 26 
296 147 313 92 38 33 
296 146 314 87 30 26 
296 146 315 89 31 28 
296 147 314 93 39 34 
296 147 315 91 37 33 
296 144 316 92 29 27 
296 144 317 101 30 24 
296 145 317 98 35 26 
296 144 318 116 38 28 
296 145 318 103 29 25 
296 145 319 112 26 23 
297 144 319 122 35 24 
296 146 316 88 29 26 
296 146 317 92 37 30 
296 147 316 91 39 35 
296 147 317 92 40 35 
296 146 318 98 35 31 
296 146 319 104 32 29 
296 147 318 97 40 35 
296 147 319 102 33 31 
296 148 312 88 33 27 
296 148 313 89 33 29 
296 149 312 87 32 25 
296 149 313 88 31 25 
296 148 314 90 33 28 
296 148 315 89 30 26 
296 149 314 91 36 30 
296 149 315 93 33 30 
296 150 312 89 34 30 
296 150 313 89 32 29 
296 151 313 88 26 25 
296 150 314 91 30 29 
296 150 315 91 26 28 
296 151 314 91 27 28 
296 151 315 93 33 34 
296 148 316 89 30 29 
296 148 317 90 29 31 
296 149 316 92 31 31 
296 149 317 94 30 36 
296 148 318 90 27 28 
296 148 319 94 23 26 
296 149 318 96 34 39 
296 149 319 96 32 36 
296 150 316 91 26 29 
296 150 317 92 27 30 
296 151 316 93 36 36 
296 151 317 93 34 33 
296 150 318 90 23 28 
296 150 319 87 23 25 
296 151 318 92 36 35 
296 151 319 89 37 32 
296 152 317 91 29 29 
296 153 316 92 33 33 
296 153 317 94 34 36 
296 152 318 89 28 28 
296 152 319 88 29 29 
296 153 318 94 33 34 
296 153 319 90 29 30 
296 154 316 92 27 34 
296 154 317 92 26 32 
296 155 316 91 27 37 
296 155 317 92 30 38 
296 154 318 93 28 33 
296 154 319 89 28 29 
296 155 318 90 32 37 
296 155 319 86 37 37 
296 156 315 90 38 42 
296 157 315 79 32 33 
296 158 314 70 37 34 
296 158 315 66 32 31 
296 159 314 54 30 28 
296 159 315 48 30 27 
296 156 316 89 37 43 
296 156 317 87 36 41 
296 157 316 73 29 30 
296 157 317 68 29 31 
296 156 318 83 40 40 
296 156 319 76 40 38 
296 157 318 64 30 31 
296 157 319 57 30 30 
296 158 316 53 28 26 
296 158 317 45 28 27 
296 159 316 40 30 29 
296 159 317 37 33 34 
296 158 318 43 30 31 
296 158 319 42 30 32 
296 159 318 36 33 38 
296 159 319 37 32 37 
293 160 304 84 37 43 
293 160 305 86 37 41 
293 161 304 84 33 40 
293 161 305 87 35 42 
293 162 304 86 38 44 
293 162 305 86 38 46 
293 163 304 88 40 47 
293 163 305 86 38 48 
294 160 306 87 35 43 
294 160 307 86 35 43 
294 161 306 86 34 46 
294 161 307 83 29 45 
294 162 305 84 37 45 
294 163 304 87 40 49 
294 163 305 83 36 48 
294 162 306 83 36 47 
294 162 307 82 39 51 
294 163 306 77 35 49 
294 163 307 75 38 51 
294 160 308 87 39 47 
294 160 309 85 36 42 
294 161 308 81 29 42 
295 160 309 84 35 39 
295 161 309 78 30 39 
295 160 310 80 31 34 
295 160 311 74 27 33 
295 161 310 75 32 38 
295 161 311 68 27 35 
294 162 308 79 39 49 
294 162 309 77 38 49 
294 163 308 73 39 50 
295 162 309 72 37 46 
295 163 308 68 39 51 
295 163 309 60 36 47 
295 162 310 64 36 43 
295 162 311 57 35 41 
295 163 310 48 32 40 
295 163 311 40 31 38 
293 164 304 89 38 49 
294 164 304 87 39 51 
294 164 305 85 39 52 
294 165 304 86 37 51 
294 165 305 79 39 54 
294 164 306 76 35 52 
294 164 307 70 36 50 
294 165 306 74 39 57 
294 165 307 71 43 60 
295 164 307 66 40 54 
295 165 306 68 42 58 
295 165 307 61 41 59 
294 166 304 82 39 53 
294 166 305 71 41 54 
294 167 304 70 36 51 
294 167 305 63 35 52 
295 167 305 58 34 54 
294 166 306 60 36 53 
295 166 306 57 34 53 
295 166 307 46 35 54 
295 167 306 49 34 53 
295 167 307 38 37 54 
294 164 308 66 33 48 
295 164 308 59 36 52 
295 164 309 50 35 49 
295 165 308 52 37 55 
295 165 309 43 34 53 
295 164 310 39 33 44 
295 164 311 34 34 43 
295 165 310 37 36 52 
295 165 311 32 38 49 
295 166 308 38 36 55 
295 166 309 36 37 56 
295 167 308 28 38 55 
295 167 309 31 40 57 
295 166 310 32 34 54 
295 166 311 29 36 49 
295 167 310 39 44 59 
295 167 311 39 42 55 
295 160 312 65 28 31 
295 160 313 52 28 29 
295 161 312 58 25 29 
295 161 313 45 29 32 
295 160 314 45 28 27 
295 162 312 48 28 33 
295 162 313 40 29 32 
295 163 312 38 30 35 
295 164 312 33 36 43 
295 165 312 32 40 48 
295 168 305 51 36 58 
295 169 305 44 35 60 
295 168 306 43 37 56 
295 168 307 41 44 58 
295 169 306 36 37 57 
295 169 307 31 38 54 
295 170 305 35 33 59 
295 170 306 33 36 60 
295 168 308 35 47 61 
295 168 309 32 46 60 
295 169 308 29 39 56 
295 169 309 24 39 56 
296 165 311 25 36 47 
296 166 311 30 37 49 
296 167 311 42 45 58 
296 161 313 40 32 35 
296 160 314 42 28 29 
296 160 315 39 30 32 
296 161 314 38 31 34 
296 161 315 37 32 37 
296 162 313 37 31 33 
296 163 312 35 31 34 
296 163 313 36 31 32 
296 162 314 36 32 35 
296 162 315 38 33 37 
296 163 314 37 33 35 
296 163 315 37 32 36 
296 160 316 38 33 34 
296 160 317 36 33 36 
296 161 316 38 33 38 
296 161 317 38 32 37 
296 160 318 35 34 37 
296 160 319 37 34 36 
296 161 318 37 33 36 
296 161 319 38 33 35 
296 162 316 39 33 37 
296 162 317 39 33 36 
296 163 316 38 31 36 
296 163 317 38 32 35 
296 162 318 37 33 35 
296 162 319 37 34 36 
296 163 318 37 34 36 
296 163 319 35 33 37 
296 164 312 33 36 42 
296 164 313 36 34 36 
296 165 312 28 38 46 
296 165 313 33 35 40 
296 164 314 37 34 36 
296 164 315 36 34 38 
296 165 314 35 34 38 
296 165 315 33 32 37 
296 166 312 32 39 49 
296 166 313 36 38 46 
296 167 312 39 43 54 
296 167 313 36 38 50 
296 166 314 34 31 40 
296 166 315 32 29 39 
296 167 314 34 31 44 
296 167 315 31 29 43 
296 164 316 37 32 38 
296 164 317 38 33 38 
296 165 316 33 32 37 
296 165 317 35 32 38 
296 164 318 36 32 37 
296 164 319 36 34 40 
296 165 318 34 33 39 
296 165 319 34 35 42 
296 166 316 32 31 41 
296 166 317 32 33 41 
296 167 316 32 33 45 
296 167 317 38 41 52 
296 166 318 32 35 45 
296 166 319 30 35 47 
296 167 318 42 48 60 
297 166 319 30 37 53 
297 167 319 45 51 68 
296 169 307 29 36 53 
296 170 307 35 42 60 
296 171 307 27 34 58 
296 169 308 30 37 55 
296 169 309 30 37 56 
296 168 310 35 42 58 
296 168 311 36 39 55 
296 169 310 32 38 58 
296 169 311 33 35 59 
296 170 308 36 41 60 
296 170 309 35 41 59 
296 171 308 30 33 59 
296 171 309 28 36 60 
296 170 310 34 40 62 
296 170 311 32 40 69 
296 171 310 28 39 66 
296 171 311 28 42 74 
296 172 307 24 35 61 
296 173 307 31 41 66 
296 172 308 30 37 63 
296 172 309 31 43 69 
296 173 308 33 43 68 
296 173 309 36 49 75 
297 173 309 36 49 75 
296 172 310 33 48 75 
296 172 311 33 50 81 
296 173 310 35 51 78 
296 173 311 33 52 83 
297 173 311 31 50 83 
296 168 312 33 35 54 
296 168 313 27 31 53 
296 169 312 36 39 63 
296 169 313 31 40 66 
296 168 314 30 31 51 
296 168 315 32 31 51 
296 169 314 31 38 62 
296 169 315 32 38 62 
296 170 312 33 42 74 
296 170 313 34 49 81 
296 171 312 28 47 81 
296 171 313 36 52 86 
297 171 313 36 54 88 
296 170 314 33 50 79 
296 170 315 36 52 78 
296 171 314 36 53 85 
296 171 315 35 54 84 
297 171 314 35 54 88 
297 171 315 32 52 85 
296 168 316 35 36 54 
296 168 317 38 43 58 
296 169 316 33 39 62 
296 169 317 34 40 62 
296 168 318 41 47 66 
296 168 319 34 41 68 
296 169 318 25 32 62 
296 169 319 29 34 66 
297 168 319 42 49 71 
297 169 318 25 33 65 
297 169 319 23 31 66 
296 170 316 39 50 74 
297 170 316 39 53 79 
297 170 317 41 47 73 
297 171 316 31 49 81 
297 171 317 30 41 74 
297 170 318 40 42 71 
297 170 319 39 43 73 
297 171 318 35 34 71 
297 171 319 32 33 69 
296 172 312 33 53 85 
297 172 312 33 53 87 
297 172 313 32 53 88 
297 173 312 30 50 86 
297 173 313 30 51 88 
297 172 314 32 53 88 
297 172 315 31 51 86 
297 173 314 29 52 88 
297 173 315 30 51 87 
298 173 314 28 52 88 
297 172 316 29 48 83 
297 172 317 30 45 78 
297 173 316 31 50 84 
297 173 317 32 48 81 
297 172 318 36 40 75 
297 172 319 38 36 72 
297 173 318 34 44 77 
297 173 319 41 42 75 
298 173 319 37 43 74 
298 130 320 111 99 96 
298 131 320 109 111 115 
299 130 320 117 94 80 
299 131 320 107 106 109 
298 132 320 120 122 125 
298 133 320 101 97 101 
299 132 320 114 120 126 
299 133 320 100 104 108 
298 134 320 74 54 72 
299 134 320 80 56 64 
299 135 320 93 34 48 
297 139 320 124 35 36 
298 136 320 104 31 52 
298 137 320 114 41 38 
299 136 320 108 37 49 
299 137 320 123 49 35 
299 137 321 129 47 29 
298 138 320 123 39 27 
298 139 320 129 32 25 
299 138 320 128 45 22 
299 138 321 132 50 21 
299 139 320 131 37 23 
299 139 321 133 45 23 
297 140 320 129 33 36 
297 141 320 129 31 25 
297 142 320 129 35 21 
297 143 320 127 29 21 
298 140 320 133 40 36 
298 140 321 132 37 26 
298 141 320 130 34 19 
298 141 321 129 32 19 
299 140 321 133 42 24 
299 141 321 129 33 20 
298 142 320 128 33 22 
298 142 321 127 32 24 
298 143 320 127 29 21 
298 143 321 126 31 23 
299 142 321 127 32 26 
299 143 321 125 30 25 
299 142 322 126 31 28 
299 143 322 125 31 27 
300 140 322 129 36 22 
300 141 322 127 33 22 
300 142 322 126 31 26 
300 143 322 125 29 26 
297 144 320 126 32 25 
297 145 320 121 30 28 
297 146 320 114 32 31 
297 146 321 121 30 30 
297 147 320 108 29 31 
297 147 321 115 29 31 
298 144 320 126 33 24 
298 144 321 127 36 28 
298 145 320 126 34 30 
298 145 321 126 31 30 
298 145 322 125 29 27 
299 144 322 125 34 31 
299 145 322 124 30 29 
298 146 321 123 27 28 
298 147 321 120 30 31 
298 146 322 123 24 24 
298 147 322 122 26 29 
299 146 322 122 24 24 
299 147 322 121 23 28 
296 149 320 93 28 30 
297 148 320 102 25 29 
297 148 321 112 30 33 
297 149 320 98 30 33 
297 149 321 103 25 29 
296 150 320 87 29 25 
296 151 320 87 39 31 
296 151 321 89 38 30 
297 150 320 88 29 24 
297 150 321 94 26 23 
297 151 321 89 36 27 
297 150 322 94 26 23 
297 151 322 93 34 29 
298 148 322 119 30 31 
298 149 322 116 31 31 
299 148 322 121 27 31 
299 149 322 119 32 30 
299 149 323 121 31 32 
298 150 322 108 29 29 
298 150 323 107 33 28 
298 151 322 100 35 30 
298 151 323 101 35 30 
299 150 323 115 31 30 
299 151 323 109 33 35 
300 144 322 123 28 28 
300 145 322 122 24 28 
300 146 322 121 20 26 
300 147 322 121 20 28 
300 147 323 121 20 28 
300 148 323 122 23 31 
300 149 323 122 30 30 
300 150 323 120 33 33 
300 151 323 116 29 35 
300 151 324 114 31 38 
296 152 320 86 29 30 
296 152 321 89 30 33 
296 153 320 90 32 37 
296 153 321 91 34 43 
297 152 321 89 31 30 
297 152 322 90 29 34 
297 153 322 90 35 44 
297 153 323 85 36 44 
296 154 320 82 33 32 
296 154 321 76 34 35 
296 155 320 73 37 31 
296 155 321 58 33 29 
296 154 322 73 31 34 
296 155 322 52 32 27 
297 154 322 71 32 35 
297 154 323 65 33 35 
297 155 322 46 33 26 
297 155 323 41 33 30 
298 152 323 92 32 33 
298 153 323 84 35 43 
299 152 323 98 32 37 
299 153 323 82 31 37 
298 154 323 60 28 33 
298 155 323 41 31 33 
299 152 324 95 31 37 
299 153 324 75 28 32 
298 154 324 59 29 33 
298 155 324 39 34 35 
299 154 324 55 30 30 
299 155 324 41 33 37 
296 156 320 64 38 36 
296 156 321 53 35 34 
296 157 320 50 32 31 
296 157 321 44 33 34 
296 156 322 43 32 31 
296 157 322 40 33 37 
297 156 323 38 35 34 
297 157 323 39 36 39 
296 158 320 39 31 33 
296 158 321 38 34 36 
296 159 320 38 34 38 
296 159 321 39 35 39 
296 158 322 37 34 39 
296 159 322 40 36 40 
297 158 323 37 35 40 
297 159 323 38 36 40 
297 158 324 39 37 41 
297 159 324 40 38 41 
298 156 324 39 37 39 
298 157 324 40 38 41 
299 156 324 42 37 41 
299 156 325 41 35 41 
299 157 325 40 38 41 
298 158 324 39 37 42 
298 158 325 40 39 42 
298 159 325 41 38 41 
299 158 325 41 39 41 
299 159 325 42 38 41 
300 152 324 102 33 38 
300 153 324 81 32 31 
300 154 324 55 35 34 
300 154 325 67 39 36 
300 155 324 46 32 36 
300 155 325 46 35 38 
300 156 325 42 34 40 
300 157 325 39 38 42 
300 158 325 40 38 43 
300 159 325 40 39 42 
300 159 326 40 40 43 
296 160 320 37 35 36 
296 160 321 39 34 37 
296 161 320 39 36 36 
296 161 321 38 35 36 
296 160 322 40 35 37 
296 161 322 39 34 36 
297 160 323 39 34 37 
297 161 322 39 34 38 
297 161 323 40 34 38 
296 162 320 39 36 36 
296 162 321 38 35 37 
296 163 320 36 35 37 
296 163 321 36 34 40 
296 162 322 38 35 38 
297 162 322 38 35 39 
297 162 323 39 34 39 
297 163 322 34 33 41 
297 163 323 36 35 44 
297 160 324 42 35 38 
297 161 324 41 33 39 
297 162 324 38 34 41 
297 163 324 36 39 50 
298 160 325 42 34 37 
298 161 324 42 34 39 
298 161 325 41 33 44 
299 160 325 42 35 40 
299 161 325 42 35 48 
299 161 326 40 36 51 
298 162 324 36 35 43 
298 162 325 36 35 47 
298 163 324 33 41 55 
298 163 325 32 40 55 
299 162 325 40 36 52 
299 162 326 40 40 58 
299 163 326 36 45 63 
296 164 320 34 33 38 
296 164 321 32 32 42 
296 165 320 32 33 42 
297 164 321 33 35 47 
297 165 320 29 31 44 
297 165 321 33 34 50 
297 164 322 37 39 53 
297 164 323 41 45 62 
297 165 322 40 43 61 
297 165 323 45 51 70 
297 166 320 29 37 54 
297 166 321 33 39 61 
297 167 320 47 54 72 
297 167 321 45 53 75 
297 166 322 33 38 66 
297 166 323 34 40 70 
297 167 322 38 45 72 
297 167 323 40 44 74 
297 164 324 46 52 70 
297 165 324 49 57 78 
298 164 324 46 55 74 
298 164 325 47 57 76 
298 165 324 49 58 80 
298 165 325 53 64 85 
299 164 326 46 57 80 
299 164 327 54 64 89 
299 165 326 44 60 81 
299 165 327 45 60 82 
298 166 324 33 40 74 
298 166 325 32 45 76 
298 167 324 40 42 75 
298 167 325 38 45 76 
299 166 326 33 49 76 
299 166 327 33 49 76 
299 167 326 42 51 79 
299 167 327 48 59 84 
300 160 326 41 38 45 
300 161 326 41 41 56 
300 162 326 43 43 66 
300 162 327 55 57 77 
300 163 327 35 43 69 
301 162 327 51 56 78 
301 163 327 41 50 77 
300 164 327 34 48 79 
300 165 327 31 53 80 
301 164 327 39 52 82 
301 165 327 34 52 81 
300 166 327 21 41 74 
300 167 327 44 54 84 
301 166 327 19 41 73 
301 167 327 42 52 81 
301 166 328 32 49 76 
301 167 328 48 56 84 
297 168 320 38 49 73 
297 168 321 33 46 73 
297 169 320 22 37 69 
297 169 321 26 42 73 
297 168 322 35 44 73 
297 168 323 32 40 71 
297 169 322 28 40 74 
297 169 323 28 38 73 
297 170 320 37 47 74 
297 170 321 42 52 78 
297 171 320 31 37 68 
297 171 321 30 39 69 
297 170 322 42 52 80 
297 170 323 43 50 81 
298 169 323 37 43 76 
298 170 323 43 52 81 
298 171 322 28 39 71 
298 171 323 36 44 74 
298 168 324 33 40 71 
298 168 325 38 43 73 
298 169 324 31 39 71 
298 169 325 33 41 70 
299 168 326 42 53 77 
299 168 327 38 50 78 
299 169 326 35 45 72 
299 169 327 37 47 72 
298 170 324 43 51 78 
298 170 325 41 47 76 
298 171 324 37 44 73 
298 171 325 39 45 74 
299 171 325 35 43 73 
299 170 326 43 45 75 
299 170 327 51 59 79 
299 171 326 38 42 74 
299 171 327 44 40 74 
297 172 320 38 37 70 
297 172 321 34 37 68 
298 172 321 37 40 70 
298 173 320 42 41 73 
298 173 321 40 38 72 
298 172 322 36 43 70 
298 172 323 43 46 69 
298 173 322 44 40 66 
298 173 323 48 43 62 
298 172 324 47 47 69 
298 172 325 45 45 73 
298 173 324 51 46 64 
299 172 324 54 48 66 
299 172 325 50 47 70 
299 173 324 62 44 56 
299 173 325 69 41 56 
299 172 326 50 48 68 
299 173 326 79 43 54 
300 168 327 30 45 76 
300 169 327 25 43 72 
300 170 327 37 41 72 
300 171 327 42 40 74 
300 172 327 55 53 70 
300 173 326 75 43 50 
300 173 327 73 44 45 
301 173 327 77 46 41 
300 169 328 28 44 74 
301 168 328 32 43 77 
301 169 328 37 50 82 
300 171 328 41 38 71 
301 170 328 40 52 79 
301 171 328 47 38 65 
301 172 328 68 46 56 
301 173 328 59 41 45 
