ply
format ascii 1.0
comment Created by CloudCompare v2.10.1 (Zephyrus)
comment Created 1/31/20 5:51 PM
obj_info Generated by CloudCompare!
element vertex 1643
property float x
property float y
property float z
property uchar red
property uchar green
property uchar blue
end_header
85 348 260 154 63 63 
85 349 260 159 77 82 
84 350 260 155 55 71 
84 351 260 147 29 58 
85 350 261 148 54 66 
85 351 261 142 30 58 
83 352 259 156 34 60 
84 352 260 148 23 60 
83 287 250 143 122 106 
84 287 251 144 122 106 
85 287 252 145 122 105 
86 287 253 142 114 94 
87 287 254 142 108 86 
88 287 255 152 103 66 
79 290 247 147 127 111 
79 291 247 148 127 111 
79 292 247 149 128 112 
79 293 247 146 126 112 
78 294 247 149 127 110 
78 295 247 156 126 101 
79 294 247 150 128 111 
79 295 247 157 128 101 
78 296 247 166 123 82 
78 297 247 176 110 57 
79 296 247 168 121 77 
79 297 247 186 109 47 
78 298 247 189 96 35 
79 298 247 196 95 15 
78 298 248 190 97 36 
78 299 248 197 90 13 
79 298 248 200 90 3 
79 299 248 201 89 2 
77 302 248 202 89 17 
77 303 248 197 86 15 
78 300 248 201 92 9 
78 301 248 205 90 8 
79 300 248 200 89 2 
79 301 248 203 89 3 
78 302 248 207 92 6 
78 303 248 205 92 9 
79 302 248 204 89 1 
79 303 248 205 89 2 
77 304 248 195 86 13 
77 305 248 189 85 14 
76 306 248 184 82 11 
77 306 248 181 81 11 
77 307 248 177 76 13 
77 307 249 178 73 15 
78 304 248 206 91 12 
78 305 248 207 92 17 
79 304 248 207 87 5 
79 305 248 208 88 7 
78 306 248 201 91 18 
78 307 248 193 87 21 
79 306 248 207 91 3 
79 307 248 204 91 7 
77 308 248 187 80 18 
77 308 249 182 74 20 
77 309 249 182 77 25 
76 310 249 182 77 28 
77 310 249 179 81 34 
77 311 249 162 101 76 
77 311 250 167 96 63 
78 308 248 195 85 13 
78 309 248 198 84 7 
78 309 249 191 83 16 
79 308 248 201 86 2 
79 309 248 197 83 6 
79 309 249 194 84 5 
78 310 249 180 86 36 
78 311 249 160 108 91 
79 310 249 176 91 40 
79 311 249 158 122 112 
77 312 250 150 123 121 
77 313 250 138 131 140 
76 314 250 137 135 145 
77 314 250 144 141 151 
77 315 251 130 129 144 
78 312 249 146 129 134 
79 312 249 148 132 137 
78 312 250 144 136 145 
78 313 250 142 142 155 
79 312 250 141 140 153 
79 313 250 144 147 161 
78 314 250 147 142 152 
78 315 250 135 127 139 
78 315 251 120 110 127 
79 314 250 150 140 149 
79 315 250 133 113 123 
79 315 251 124 100 115 
77 316 251 91 97 126 
77 317 251 70 77 123 
77 318 251 57 79 124 
78 316 251 101 87 120 
78 317 251 79 78 121 
79 316 251 107 86 113 
79 317 251 79 82 119 
78 318 251 53 79 122 
78 319 251 51 82 128 
79 318 251 60 76 122 
79 319 251 63 84 129 
77 319 252 42 77 121 
78 319 252 55 85 129 
80 290 247 149 128 112 
80 291 247 149 129 112 
81 290 247 149 128 112 
81 291 247 150 129 113 
80 292 247 150 130 113 
80 293 247 151 131 114 
81 292 247 152 131 114 
81 293 247 154 134 116 
80 294 247 154 132 114 
80 295 247 160 130 101 
81 294 247 156 132 110 
81 295 247 165 127 88 
81 288 248 146 125 109 
81 289 248 147 127 110 
80 290 248 147 127 111 
81 290 248 149 128 111 
81 291 248 150 129 112 
82 288 249 144 123 107 
82 289 248 148 126 109 
82 289 249 145 124 106 
83 288 249 146 123 105 
83 289 249 147 124 106 
83 288 250 144 122 105 
82 290 248 149 128 110 
82 291 248 152 131 113 
83 290 248 150 127 109 
83 290 249 150 127 108 
83 291 248 154 131 112 
83 291 249 153 130 109 
81 292 248 154 133 116 
81 293 248 155 135 116 
82 292 248 158 136 117 
82 293 248 163 136 111 
83 292 248 161 137 117 
83 292 249 159 132 107 
83 293 248 166 137 108 
83 293 249 167 126 86 
82 294 248 165 126 88 
82 295 248 168 114 61 
83 294 249 171 113 63 
83 295 249 174 103 44 
84 289 249 146 122 103 
84 288 250 146 122 103 
84 288 251 146 122 104 
84 289 250 146 121 100 
85 288 251 146 121 102 
85 289 251 145 118 95 
84 290 249 148 124 103 
84 291 249 150 126 104 
84 290 250 145 119 97 
84 291 250 144 118 95 
85 290 251 142 114 90 
85 291 251 142 108 78 
85 288 252 145 120 100 
85 289 252 145 116 91 
85 290 252 141 108 76 
85 291 252 146 99 56 
86 288 252 145 117 93 
86 288 253 144 114 91 
86 289 252 145 114 87 
86 289 253 145 109 74 
87 288 254 142 104 77 
87 289 254 147 93 51 
86 290 253 149 101 51 
86 291 252 152 92 34 
86 291 253 154 90 28 
86 291 254 158 76 0 
87 290 254 151 83 24 
87 291 254 159 69 0 
87 291 255 158 72 2 
84 292 249 155 127 100 
84 293 249 163 124 88 
84 292 250 150 114 83 
84 292 251 154 103 62 
84 293 250 164 109 63 
84 293 251 165 95 43 
85 292 251 152 100 59 
85 293 251 162 91 37 
84 294 250 172 102 46 
84 294 251 168 88 27 
84 295 250 174 95 22 
84 295 251 173 86 4 
85 292 252 155 86 29 
85 293 252 162 82 14 
85 293 253 161 78 7 
85 294 252 166 78 4 
85 294 253 162 74 0 
85 295 252 169 75 0 
85 295 253 166 73 0 
86 292 253 159 78 16 
86 293 253 162 76 5 
86 292 254 159 74 1 
86 293 254 160 75 0 
87 292 254 159 72 0 
87 292 255 157 66 0 
87 293 255 156 68 0 
86 294 253 162 74 0 
86 295 253 164 74 0 
86 294 254 159 72 0 
86 295 254 159 71 0 
86 295 255 155 69 1 
87 294 255 160 73 2 
87 295 255 157 75 3 
80 296 247 171 119 68 
80 297 247 188 105 37 
81 296 247 168 115 61 
80 297 248 194 95 19 
81 296 248 178 107 39 
81 297 248 190 93 17 
80 298 248 201 87 0 
80 299 248 201 86 0 
81 298 248 197 83 0 
81 299 248 194 84 0 
82 296 248 174 100 34 
82 296 249 177 93 10 
82 297 248 186 91 5 
82 297 249 184 91 3 
83 296 249 178 96 16 
83 297 249 184 91 0 
82 298 248 190 87 0 
82 298 249 188 91 0 
82 299 248 188 85 0 
82 299 249 187 89 0 
83 298 249 186 91 0 
83 299 249 186 90 0 
80 300 248 198 87 1 
80 301 248 200 86 3 
81 300 248 190 83 0 
81 301 248 193 84 0 
81 301 249 190 85 0 
80 302 248 200 88 1 
80 302 249 199 86 0 
80 303 248 202 89 0 
80 303 249 200 85 0 
81 302 249 192 84 0 
81 303 249 192 83 0 
82 300 248 186 84 0 
82 300 249 186 86 0 
82 301 249 189 87 0 
83 300 249 184 88 0 
83 300 250 183 85 0 
83 301 250 186 88 0 
82 302 249 192 87 0 
82 303 249 192 87 0 
82 302 250 192 90 0 
82 303 250 193 89 0 
83 302 250 189 90 0 
83 303 250 192 91 0 
84 296 250 177 90 5 
84 296 251 175 84 0 
84 297 250 181 87 0 
84 297 251 178 84 0 
85 296 251 174 81 0 
85 297 251 177 82 0 
84 298 250 182 87 0 
84 298 251 179 84 0 
84 299 250 181 82 0 
84 299 251 178 81 0 
85 298 251 177 80 0 
85 299 251 176 79 0 
85 296 252 171 77 0 
85 296 253 167 75 0 
85 297 252 173 78 0 
85 297 253 168 77 0 
85 298 252 172 77 0 
85 298 253 168 74 0 
85 299 252 172 75 0 
85 299 253 168 71 0 
86 296 253 163 75 0 
86 297 253 167 76 0 
86 296 254 161 71 0 
86 296 255 154 67 0 
86 297 254 161 72 0 
86 297 255 156 69 0 
87 296 255 154 69 0 
87 297 255 153 67 0 
86 298 253 167 74 0 
86 299 253 167 71 3 
86 298 254 166 72 0 
86 298 255 159 71 2 
86 299 254 165 72 2 
86 299 255 160 72 0 
84 300 250 181 83 0 
84 300 251 178 81 0 
84 301 250 183 87 0 
84 301 251 181 84 0 
85 300 251 176 80 0 
84 302 251 185 90 0 
84 303 251 189 93 0 
85 300 252 172 75 1 
85 300 253 168 67 6 
85 301 252 175 77 0 
85 301 253 173 74 1 
84 303 252 186 91 0 
85 302 252 181 86 0 
85 302 253 178 79 1 
85 303 252 184 88 0 
85 303 253 182 83 0 
85 303 254 179 78 0 
86 300 253 166 68 6 
86 301 253 171 70 0 
86 300 254 166 69 1 
86 300 255 162 68 0 
86 301 254 170 67 0 
86 301 255 167 66 0 
86 302 254 174 73 0 
86 302 255 170 68 0 
86 303 254 175 76 7 
86 303 255 167 76 17 
88 288 255 153 97 52 
88 289 255 157 84 28 
88 290 255 158 76 9 
88 291 255 158 74 0 
88 292 255 157 68 0 
80 304 248 202 87 4 
80 304 249 199 83 0 
80 305 248 201 86 3 
80 305 249 197 83 0 
81 304 249 192 81 0 
81 305 249 191 81 1 
80 306 248 200 88 0 
80 307 248 202 91 0 
81 306 249 191 84 0 
81 307 249 189 86 0 
81 307 250 185 86 7 
82 304 250 194 86 0 
82 305 250 193 83 0 
83 304 250 194 90 0 
83 304 251 194 91 0 
83 305 250 194 87 0 
83 305 251 194 90 0 
82 306 250 191 84 0 
82 307 250 185 85 8 
83 306 250 191 86 0 
83 306 251 187 90 7 
83 307 251 178 97 39 
83 307 252 164 110 65 
80 308 248 201 86 0 
80 308 249 194 84 0 
80 309 249 184 81 7 
81 308 249 183 83 13 
81 309 249 170 80 30 
81 308 250 179 87 31 
81 309 250 159 89 52 
80 310 249 162 93 53 
80 311 249 152 120 113 
80 310 250 150 109 90 
80 311 250 146 130 132 
81 310 250 139 107 90 
81 310 251 126 126 131 
81 311 250 136 136 144 
81 311 251 134 138 148 
82 308 250 174 91 41 
82 308 251 165 98 55 
82 309 250 151 100 71 
82 309 251 138 108 92 
83 308 251 157 109 76 
83 309 251 133 116 107 
82 310 251 125 121 121 
82 311 251 137 138 146 
83 308 252 143 120 102 
83 309 252 127 125 126 
82 311 252 141 136 140 
83 310 252 130 128 131 
83 311 252 143 128 128 
84 304 251 192 93 0 
84 305 251 192 93 0 
84 304 252 189 92 0 
84 305 252 185 92 11 
85 304 252 187 89 0 
85 304 253 183 84 6 
85 305 252 187 89 0 
85 305 253 173 94 38 
85 304 254 174 84 25 
85 305 254 161 99 62 
84 306 252 171 99 48 
84 307 252 156 115 80 
84 307 253 145 124 112 
85 306 253 157 110 78 
85 307 253 144 123 111 
85 306 254 147 119 104 
85 306 255 136 127 122 
85 307 254 138 129 126 
85 307 255 139 135 134 
86 304 254 170 87 37 
86 304 255 158 90 53 
86 305 254 153 105 80 
86 305 255 145 111 93 
86 306 254 143 119 105 
86 306 255 136 129 127 
86 307 255 143 135 133 
84 308 252 138 129 124 
84 308 253 136 133 134 
84 309 252 130 131 136 
84 309 253 136 131 132 
85 308 253 135 135 137 
85 308 254 141 136 136 
85 308 255 146 131 128 
85 309 254 148 117 111 
85 309 255 153 106 99 
84 310 253 145 121 117 
84 311 253 146 104 103 
84 310 254 150 108 101 
84 311 254 147 79 77 
85 310 254 154 85 78 
85 310 255 159 65 58 
85 311 254 151 58 53 
85 311 255 154 46 32 
86 308 255 150 121 113 
86 309 255 155 88 80 
86 310 255 159 60 51 
80 312 250 140 143 156 
80 313 250 148 145 154 
81 312 250 140 144 156 
81 312 251 140 141 149 
81 313 251 144 132 134 
80 314 250 148 130 133 
80 314 251 140 113 114 
80 315 251 121 90 103 
81 314 251 136 100 104 
81 315 251 119 82 99 
82 312 251 139 133 136 
82 313 251 133 107 107 
82 314 251 132 90 95 
82 315 251 123 79 99 
82 312 252 138 124 125 
82 313 252 129 95 96 
83 312 252 136 99 98 
83 313 252 126 76 79 
83 313 253 132 65 69 
82 314 252 133 80 93 
82 315 252 125 77 95 
83 314 252 130 74 83 
83 314 253 133 69 75 
83 315 252 125 75 85 
83 315 253 128 69 76 
80 316 251 104 86 112 
80 317 251 77 80 115 
81 316 251 99 82 107 
81 317 251 79 76 107 
80 318 251 69 71 118 
80 319 251 70 80 126 
81 318 251 78 74 115 
80 319 252 70 78 119 
81 318 252 87 79 116 
81 319 252 80 73 111 
82 316 252 103 73 96 
82 317 252 94 72 99 
83 316 252 114 68 87 
83 316 253 119 66 83 
83 317 253 114 62 80 
82 318 252 97 71 99 
82 319 252 91 62 94 
82 319 253 106 63 82 
83 318 253 113 63 74 
83 319 253 109 61 67 
83 319 254 114 58 54 
84 312 253 138 65 66 
84 313 253 136 59 59 
84 312 254 143 52 53 
84 313 254 139 56 49 
85 312 254 146 45 40 
85 312 255 150 48 33 
85 313 254 142 57 44 
85 313 255 144 53 39 
84 314 253 135 69 67 
84 315 253 128 64 64 
84 314 254 136 62 54 
84 315 254 129 56 50 
85 314 255 137 51 40 
85 315 255 130 55 50 
84 316 253 119 59 68 
84 316 254 120 53 53 
84 316 255 117 52 45 
84 317 254 116 59 57 
84 317 255 115 56 49 
85 316 255 119 53 47 
85 317 255 113 51 43 
84 318 254 116 65 60 
84 318 255 115 61 53 
84 319 254 117 64 54 
84 319 255 117 63 52 
85 318 255 115 63 53 
85 319 255 115 64 56 
77 320 252 62 83 127 
77 321 252 61 83 124 
77 322 252 55 81 119 
77 323 253 67 87 124 
78 320 252 54 82 127 
78 321 252 57 82 122 
79 320 252 53 80 122 
79 321 252 61 83 118 
78 322 252 71 86 123 
78 323 252 70 80 118 
78 323 253 61 77 121 
79 322 252 77 84 117 
79 323 252 83 75 106 
77 324 253 63 76 118 
77 325 253 69 82 120 
77 326 253 79 94 126 
77 327 253 94 106 135 
77 327 254 82 109 141 
78 324 252 73 77 109 
78 324 253 69 78 117 
78 325 253 83 83 113 
79 324 252 83 76 107 
79 324 253 98 77 102 
79 325 253 100 74 99 
78 326 253 98 91 117 
78 327 253 104 102 125 
79 326 253 114 83 103 
79 327 253 110 93 109 
77 328 253 92 106 132 
77 328 254 86 107 135 
77 329 254 87 108 135 
77 330 254 99 108 132 
77 331 255 91 107 132 
78 328 253 106 110 130 
78 329 253 107 110 128 
79 328 253 115 111 124 
79 329 253 111 111 125 
78 330 253 104 102 120 
79 330 253 104 103 118 
79 331 253 107 103 120 
78 330 254 101 96 122 
78 331 254 108 102 124 
78 331 255 105 105 127 
79 331 254 105 102 120 
77 332 255 106 101 127 
77 333 255 109 101 124 
78 332 254 107 103 125 
78 332 255 108 102 126 
78 333 255 110 108 126 
79 332 254 107 106 126 
79 333 254 105 107 126 
79 333 255 103 104 126 
78 334 255 107 106 122 
78 335 255 111 106 124 
79 334 255 110 107 125 
79 335 255 118 108 126 
79 336 255 111 96 114 
79 337 255 126 100 115 
79 338 255 142 105 118 
79 339 255 162 100 104 
80 320 252 64 73 112 
80 321 252 74 79 112 
81 320 252 76 68 103 
81 321 252 96 74 100 
80 322 252 95 83 108 
80 323 252 92 72 95 
80 323 253 106 67 86 
81 322 252 112 77 98 
81 322 253 114 67 85 
81 323 253 118 66 76 
82 320 252 92 60 89 
82 320 253 104 56 68 
82 321 252 103 64 84 
82 321 253 115 61 74 
83 320 253 111 52 50 
83 321 253 114 54 55 
83 320 254 115 57 54 
83 321 254 115 54 57 
82 322 253 118 57 68 
82 323 253 115 50 58 
82 322 254 115 53 65 
82 323 254 117 54 57 
83 322 254 115 56 64 
83 322 255 116 60 65 
83 323 254 118 58 62 
83 323 255 117 60 63 
80 324 253 113 69 86 
80 325 253 115 64 79 
81 324 253 117 63 65 
81 325 253 121 68 68 
80 326 253 119 75 86 
80 327 253 116 89 97 
81 326 253 119 76 76 
81 327 253 118 91 94 
81 327 254 119 98 104 
82 324 253 119 64 60 
82 324 254 121 61 63 
82 325 254 117 59 62 
83 324 254 120 59 62 
83 324 255 116 61 61 
83 325 255 112 62 57 
82 326 254 118 72 74 
82 327 254 119 93 102 
83 326 255 113 76 79 
83 327 254 116 100 109 
83 327 255 114 96 104 
84 320 254 116 58 54 
84 320 255 113 54 50 
84 321 255 112 54 55 
85 320 255 111 50 48 
84 322 255 115 60 61 
84 323 255 113 59 58 
84 324 255 113 62 60 
84 325 255 108 61 60 
84 326 255 111 76 83 
84 327 255 115 100 108 
80 328 253 116 109 118 
80 329 253 112 112 124 
81 328 253 111 105 113 
81 329 253 106 107 116 
81 328 254 110 100 109 
81 329 254 106 103 116 
80 330 253 107 108 121 
80 330 254 103 107 117 
80 331 254 106 107 121 
81 330 254 107 107 121 
81 331 254 103 101 115 
81 331 255 101 98 115 
82 328 254 111 99 111 
82 329 254 104 100 114 
83 328 255 107 98 108 
83 329 255 100 95 110 
82 330 255 106 103 120 
82 331 255 99 96 114 
83 330 255 103 100 116 
83 331 255 97 94 112 
80 332 254 104 106 120 
80 333 254 101 102 121 
80 333 255 105 101 118 
81 332 255 103 100 114 
81 333 255 106 101 115 
80 334 255 110 105 123 
80 335 255 117 106 124 
81 334 255 106 94 110 
81 335 255 114 97 111 
82 332 255 94 91 107 
82 333 255 103 95 109 
82 334 255 102 89 102 
82 335 255 110 93 105 
84 328 255 105 93 105 
80 336 255 110 90 111 
80 337 255 124 95 114 
81 336 255 115 90 107 
81 337 255 115 87 104 
80 338 255 144 100 111 
80 339 255 166 96 89 
81 338 255 131 91 102 
81 339 255 162 100 93 
87 295 256 159 76 6 
87 296 256 157 69 0 
87 297 256 155 68 6 
87 298 256 154 70 5 
87 299 256 157 69 0 
87 299 257 157 70 0 
86 300 256 165 69 0 
86 301 256 164 67 0 
87 300 256 161 69 0 
87 300 257 156 71 2 
87 301 256 159 69 10 
87 301 257 151 74 18 
86 302 256 159 69 12 
86 303 256 149 81 45 
87 302 257 143 76 43 
87 303 257 132 88 69 
87 303 258 119 96 91 
89 289 256 154 80 21 
88 291 256 157 78 0 
89 290 256 154 80 6 
89 291 256 155 83 0 
89 291 257 150 78 0 
90 291 258 148 63 5 
88 292 256 156 76 0 
88 293 256 154 68 3 
89 292 257 152 80 4 
89 293 257 151 81 9 
88 294 256 154 68 5 
88 295 257 157 74 1 
89 294 257 154 78 5 
89 295 258 157 80 4 
90 292 258 141 66 4 
90 293 258 140 70 0 
90 295 259 150 78 9 
88 296 257 158 72 1 
88 297 257 157 70 1 
89 296 258 159 78 9 
89 297 258 158 74 7 
88 299 258 158 72 7 
88 300 258 152 78 27 
88 303 259 131 109 105 
86 304 256 144 98 76 
86 305 256 139 116 106 
86 305 257 132 120 112 
87 304 257 128 104 90 
87 305 257 131 115 105 
87 304 258 120 106 99 
87 305 258 127 112 103 
86 306 256 140 128 124 
86 306 257 141 120 114 
86 307 256 146 124 118 
86 307 257 150 102 94 
87 306 257 139 121 114 
87 306 258 140 101 91 
87 307 258 149 72 64 
87 307 259 146 47 40 
86 308 256 152 103 93 
86 308 257 154 79 68 
86 309 256 158 67 59 
86 309 257 158 48 44 
87 309 257 156 42 36 
87 308 258 152 45 38 
87 308 259 148 34 30 
87 309 258 154 36 32 
87 309 259 150 32 36 
86 310 256 160 47 38 
86 310 257 157 43 31 
86 311 256 159 46 33 
86 311 257 157 43 33 
87 310 257 157 40 31 
87 310 258 155 39 36 
87 310 259 152 34 40 
87 311 258 155 38 37 
87 311 259 152 43 38 
85 313 256 147 48 43 
85 314 256 136 50 45 
85 315 256 128 52 48 
86 312 256 154 51 39 
86 312 257 154 43 41 
86 313 256 148 45 46 
86 313 257 148 45 44 
86 313 258 146 47 43 
87 312 258 157 46 40 
87 312 259 153 50 37 
87 313 258 148 46 40 
87 313 259 145 42 38 
86 314 256 137 50 43 
86 314 257 134 45 39 
86 315 256 124 47 36 
86 315 257 119 40 32 
86 314 258 131 38 37 
86 315 258 116 35 35 
87 314 258 131 36 35 
87 314 259 131 40 39 
87 315 258 121 42 40 
87 315 259 122 47 44 
85 316 256 116 50 42 
85 317 256 108 51 43 
85 318 256 113 62 55 
85 319 256 114 62 59 
85 319 257 108 52 52 
86 316 256 112 47 36 
86 316 257 109 47 36 
86 317 256 107 48 39 
86 317 257 109 53 46 
86 316 258 110 44 40 
86 317 258 108 45 44 
87 316 258 113 42 42 
87 316 259 111 42 40 
87 317 258 107 40 38 
87 317 259 107 41 35 
86 318 257 109 54 51 
86 319 257 108 54 53 
86 318 258 105 45 45 
86 319 258 107 55 53 
86 319 259 106 50 48 
87 318 259 108 50 46 
87 319 259 106 42 43 
87 316 260 109 43 35 
87 317 260 109 47 38 
87 318 260 113 53 47 
87 319 260 108 39 41 
88 304 259 129 103 91 
88 305 259 125 93 75 
88 307 260 143 37 29 
89 307 261 143 45 33 
90 307 262 148 55 32 
88 308 259 145 32 30 
88 309 259 147 30 38 
88 310 259 148 36 34 
88 311 259 150 44 31 
88 308 260 141 31 30 
88 309 260 142 27 31 
89 308 261 142 36 31 
89 309 261 140 30 25 
88 310 260 145 34 22 
88 311 260 145 41 22 
89 310 261 141 31 22 
89 311 261 144 33 22 
90 309 261 142 35 26 
90 308 262 147 48 28 
90 309 262 146 38 24 
90 310 262 148 27 21 
90 311 262 145 22 20 
88 312 259 150 48 32 
88 312 260 147 41 26 
88 313 260 144 35 37 
88 313 261 142 26 32 
89 312 261 144 27 29 
89 313 261 138 34 36 
88 314 260 131 36 38 
88 315 260 120 41 38 
88 315 261 110 40 30 
89 314 261 123 38 32 
89 315 261 115 42 32 
88 316 260 111 42 34 
88 316 261 113 48 39 
88 317 260 114 54 43 
88 317 261 113 51 43 
89 316 261 111 41 34 
89 317 261 112 38 35 
89 316 262 113 39 34 
88 318 260 111 50 42 
88 318 261 109 44 43 
88 319 260 110 41 42 
88 319 261 109 40 44 
78 333 256 107 106 124 
78 334 256 109 108 125 
78 335 256 111 102 123 
77 338 256 146 110 97 
77 339 256 162 104 88 
77 339 257 155 99 75 
78 336 256 114 100 113 
78 337 256 119 100 101 
78 338 256 136 106 103 
78 339 256 166 106 97 
79 339 256 172 104 100 
77 340 256 173 97 74 
77 340 257 161 89 67 
77 341 257 171 101 77 
77 342 257 173 100 72 
77 343 257 177 103 72 
77 343 258 175 103 83 
78 340 256 180 100 77 
78 341 256 176 95 67 
79 340 256 186 99 72 
79 341 256 183 94 64 
78 342 256 176 89 59 
78 342 257 176 94 64 
78 343 256 183 102 69 
78 343 257 183 105 71 
79 342 256 182 91 62 
79 343 256 187 94 70 
77 344 257 178 104 69 
77 345 257 176 103 71 
77 344 258 173 103 81 
77 345 258 159 92 64 
77 346 257 177 101 72 
76 347 258 164 100 77 
77 346 258 165 93 63 
77 347 258 168 87 60 
78 344 257 181 103 69 
78 345 257 186 102 74 
79 344 256 186 93 69 
79 344 257 188 97 75 
79 345 257 187 91 68 
78 346 257 183 87 65 
78 347 257 182 86 68 
79 346 257 185 68 50 
79 347 257 196 90 78 
78 347 258 183 90 72 
77 348 258 176 97 79 
77 349 258 177 83 82 
77 349 259 175 91 86 
77 350 258 174 53 70 
77 350 259 171 62 75 
77 351 258 176 45 74 
77 351 259 173 48 77 
78 348 257 183 90 82 
79 348 257 185 78 72 
78 348 258 184 82 73 
78 349 258 182 63 69 
79 349 258 183 62 62 
78 350 258 181 54 72 
78 351 258 179 47 73 
79 350 258 184 65 78 
79 351 258 181 47 67 
85 320 256 111 51 54 
85 320 257 109 53 58 
85 321 256 114 58 61 
85 321 257 111 55 57 
84 322 256 113 58 58 
84 323 256 110 56 54 
85 322 256 112 55 55 
85 322 257 110 50 45 
85 323 256 111 56 51 
85 323 257 111 54 49 
86 320 257 111 57 61 
86 320 258 106 49 48 
86 320 259 106 45 42 
86 321 258 109 49 45 
86 321 259 112 51 45 
87 320 259 109 45 43 
87 321 259 112 50 45 
86 322 258 111 51 43 
86 322 259 111 48 39 
86 323 258 109 48 41 
86 323 259 109 46 38 
87 322 259 111 45 38 
87 323 259 116 47 47 
87 320 260 109 39 40 
87 321 260 112 45 41 
87 322 260 112 43 35 
87 323 260 113 41 47 
84 324 256 109 60 58 
84 325 256 107 59 62 
85 324 256 109 59 57 
85 324 257 110 51 53 
85 325 256 104 54 60 
85 325 257 103 48 53 
84 326 256 108 72 81 
84 327 256 113 94 105 
85 326 256 108 72 85 
85 326 257 107 69 84 
85 327 256 109 86 102 
85 327 257 103 80 99 
86 324 258 110 50 50 
86 324 259 112 55 57 
86 325 258 104 56 59 
86 325 259 107 61 64 
87 324 259 111 53 59 
87 325 259 103 64 74 
86 327 257 99 77 96 
86 326 258 103 72 85 
86 327 258 97 77 97 
87 326 259 96 70 87 
87 327 258 92 74 93 
87 327 259 92 73 93 
87 324 260 106 45 56 
87 325 260 104 60 77 
87 326 260 98 63 81 
83 330 256 101 99 117 
83 331 256 94 91 112 
82 333 256 105 94 109 
83 332 256 93 88 107 
83 333 256 101 92 107 
82 334 256 101 88 103 
82 335 256 109 92 105 
83 334 256 99 86 100 
83 335 256 108 92 106 
84 328 256 102 91 106 
84 329 256 97 93 109 
85 328 257 98 85 102 
85 329 256 96 91 110 
85 329 257 91 79 101 
84 330 256 99 96 116 
84 331 256 96 89 112 
85 330 256 97 90 113 
85 330 257 97 84 106 
85 331 257 100 87 106 
86 328 257 96 79 99 
86 329 257 93 75 97 
86 328 258 93 75 97 
86 329 258 89 75 96 
87 328 259 90 73 96 
86 330 257 96 80 102 
86 331 257 102 86 105 
86 330 258 89 75 96 
86 331 258 96 79 98 
84 332 256 98 91 107 
84 332 257 94 81 95 
84 333 256 100 90 104 
84 333 257 95 84 98 
85 332 257 97 81 93 
85 333 257 96 83 95 
84 334 256 106 93 106 
84 334 257 100 87 104 
84 335 257 104 90 106 
85 334 257 94 81 98 
85 335 257 95 82 102 
85 334 258 85 75 93 
85 335 258 91 79 97 
86 332 257 101 83 97 
86 332 258 96 79 94 
86 333 258 95 81 98 
86 334 258 89 77 97 
86 334 259 85 70 95 
86 335 258 88 74 94 
86 335 259 87 67 92 
88 320 260 108 36 36 
88 320 261 107 35 37 
88 321 260 110 41 36 
88 321 261 108 38 33 
88 322 260 110 38 32 
88 322 261 111 40 34 
88 323 260 110 40 42 
88 323 261 106 38 45 
88 324 261 100 41 56 
88 325 261 97 42 62 
81 338 256 137 96 100 
81 339 256 165 99 85 
82 336 256 113 92 105 
82 337 256 109 85 98 
83 336 256 107 88 105 
83 337 256 105 83 100 
82 338 256 125 89 98 
82 339 256 151 89 85 
83 338 256 125 84 93 
83 338 257 125 81 93 
83 339 257 147 80 82 
80 340 256 182 93 56 
80 341 256 184 92 53 
81 340 256 173 91 65 
81 341 256 170 83 60 
80 342 256 182 90 67 
80 343 256 181 82 67 
81 342 256 169 80 62 
81 343 257 175 82 70 
82 340 256 165 89 78 
82 340 257 164 84 78 
82 341 256 162 78 66 
82 341 257 158 75 68 
83 340 257 155 79 79 
83 341 257 151 69 67 
82 342 257 158 75 60 
82 343 257 162 76 63 
83 342 257 153 73 63 
83 343 257 153 68 58 
83 342 258 151 69 62 
83 343 258 149 59 62 
84 336 257 105 89 104 
84 337 257 104 79 96 
85 336 257 97 85 102 
85 336 258 100 81 100 
85 336 259 99 68 94 
85 337 258 107 67 92 
85 337 259 109 60 89 
84 338 257 124 74 92 
84 339 257 147 75 84 
84 338 258 137 75 94 
84 339 258 142 69 84 
85 338 258 125 66 87 
85 339 258 137 64 74 
85 339 259 136 66 68 
86 336 259 98 66 93 
86 337 259 105 57 82 
86 338 259 117 57 71 
84 340 257 150 73 77 
84 340 258 146 70 76 
84 341 258 146 65 65 
85 340 258 143 67 69 
85 340 259 139 66 65 
85 341 258 145 69 71 
85 341 259 141 63 62 
84 342 258 146 59 59 
84 343 258 148 57 67 
84 343 259 152 70 79 
85 342 259 141 45 54 
85 343 259 146 58 65 
86 340 260 132 65 61 
80 344 256 187 88 75 
80 344 257 187 90 82 
80 345 257 186 75 63 
81 344 257 178 82 78 
81 345 257 176 68 67 
80 346 257 186 61 47 
80 347 257 194 82 68 
81 346 257 183 71 67 
81 347 257 183 72 64 
81 347 258 177 64 57 
82 344 257 161 70 72 
82 345 257 171 78 82 
82 345 258 168 84 90 
83 344 258 152 65 76 
83 345 258 161 74 81 
82 346 257 180 79 76 
82 346 258 170 75 77 
82 347 258 170 66 58 
83 346 258 159 63 65 
83 347 258 165 68 62 
83 347 259 165 76 73 
80 348 257 186 72 65 
80 349 257 189 75 68 
80 348 258 180 57 52 
80 349 258 187 74 65 
81 348 258 177 69 61 
81 349 258 180 79 70 
80 350 258 190 73 80 
80 351 258 181 42 59 
81 350 258 178 74 76 
81 351 258 169 44 56 
82 348 258 176 86 78 
82 349 258 171 75 69 
82 349 259 166 65 64 
83 348 259 171 84 82 
83 349 259 160 54 61 
82 350 258 166 58 63 
82 350 259 160 46 57 
82 351 259 162 44 62 
83 350 259 156 40 58 
83 351 259 156 37 60 
83 351 260 153 34 60 
84 344 258 154 67 79 
84 344 259 151 66 74 
84 345 258 156 70 77 
84 345 259 151 60 61 
85 344 259 148 64 64 
85 345 259 146 53 54 
84 346 259 152 60 56 
84 347 259 161 77 73 
85 346 259 147 55 48 
85 344 260 146 59 59 
85 345 260 148 58 54 
85 346 260 152 68 60 
85 347 260 154 67 60 
84 348 259 162 68 70 
84 349 259 160 63 72 
84 348 260 156 58 59 
84 349 260 160 67 77 
81 352 258 174 48 68 
79 363 261 139 58 69 
79 364 261 131 59 74 
79 364 262 128 56 77 
79 365 262 121 61 85 
78 366 262 117 48 72 
78 367 262 110 54 75 
79 366 262 108 54 82 
79 367 262 97 51 80 
77 370 263 97 56 86 
77 371 263 78 56 87 
78 368 262 105 61 79 
78 368 263 107 62 81 
78 369 263 94 59 80 
79 368 262 89 52 76 
79 369 263 80 50 79 
78 370 263 81 53 84 
78 371 263 71 55 83 
79 370 263 75 50 85 
79 371 263 68 50 81 
78 372 263 65 65 89 
78 373 263 62 76 103 
79 372 263 68 65 90 
79 373 263 75 89 111 
77 370 264 108 60 85 
77 371 264 98 60 90 
77 372 264 77 66 97 
77 373 264 74 81 111 
77 374 264 80 100 127 
77 375 264 70 95 126 
78 372 264 64 66 93 
78 373 264 70 85 112 
79 373 264 86 104 126 
78 374 264 81 103 127 
78 375 264 63 88 120 
79 374 264 71 98 126 
79 375 264 51 82 117 
78 376 264 62 89 125 
79 376 264 81 103 135 
79 377 264 78 103 137 
83 353 260 157 40 66 
82 355 260 166 40 65 
83 354 260 160 45 68 
83 354 261 158 43 65 
83 355 260 162 40 64 
83 355 261 159 41 64 
81 358 260 166 25 58 
81 359 260 169 40 70 
82 356 260 167 41 67 
82 357 260 161 24 59 
83 356 261 162 39 66 
83 357 261 160 38 66 
82 358 260 160 16 65 
82 358 261 156 24 65 
82 359 260 160 37 71 
82 359 261 156 37 70 
83 358 261 151 35 66 
83 359 261 146 33 58 
83 359 262 143 36 59 
84 352 261 145 23 60 
84 353 260 150 33 65 
84 353 261 150 38 69 
84 354 261 153 44 70 
84 355 261 152 36 63 
84 356 261 157 39 67 
84 357 261 153 45 70 
84 356 262 147 42 63 
84 357 262 146 46 65 
84 358 262 138 40 57 
84 359 262 137 39 58 
80 360 260 177 49 77 
80 361 260 174 58 82 
80 361 261 163 56 76 
81 360 260 174 48 75 
81 360 261 167 57 79 
81 361 261 167 66 84 
80 362 261 150 37 67 
80 363 261 137 47 68 
81 362 261 147 46 72 
81 363 261 122 35 60 
82 360 261 157 41 67 
82 361 261 153 60 76 
83 360 261 148 32 58 
83 360 262 147 40 66 
83 361 262 139 46 71 
82 362 261 140 59 78 
82 363 261 111 34 57 
82 362 262 130 52 75 
82 363 262 104 52 71 
83 362 262 116 46 72 
83 363 262 94 51 76 
80 364 261 124 60 73 
81 364 261 116 56 68 
80 365 262 112 61 84 
81 364 262 105 55 69 
81 365 262 90 50 74 
80 366 262 99 58 85 
80 367 262 88 61 85 
81 366 262 79 50 77 
81 367 262 77 56 81 
82 364 262 85 47 67 
82 365 262 74 45 74 
83 364 262 74 44 68 
83 364 263 76 46 70 
83 365 263 71 44 70 
82 366 262 71 47 78 
82 366 263 68 44 76 
82 367 263 69 44 75 
83 366 263 68 44 73 
83 367 263 69 43 73 
84 360 262 136 34 59 
84 361 262 127 40 62 
84 361 263 119 39 62 
84 362 263 100 41 62 
84 363 263 79 45 67 
84 364 263 76 51 71 
84 365 264 68 50 70 
84 366 264 64 46 69 
80 368 262 73 50 78 
80 369 263 71 43 81 
81 368 262 77 54 82 
81 368 263 79 54 83 
81 369 263 80 53 85 
80 370 263 74 48 87 
80 371 263 67 47 81 
81 370 263 71 42 79 
81 371 263 69 48 77 
82 368 263 79 53 82 
82 369 263 92 71 95 
83 368 263 75 48 79 
83 369 263 79 57 86 
82 370 263 74 50 77 
82 371 263 67 41 68 
83 370 263 82 62 88 
80 372 263 67 64 90 
80 373 263 85 96 116 
81 372 263 68 61 87 
82 371 264 69 46 72 
83 370 264 76 59 83 
83 371 264 69 51 77 
80 373 264 91 107 127 
81 372 264 75 74 96 
81 373 264 82 93 117 
80 374 264 82 102 129 
80 375 264 54 78 117 
81 374 264 73 96 124 
81 375 264 66 88 122 
82 372 264 72 59 88 
82 373 264 70 74 106 
83 372 264 67 51 84 
83 373 264 66 56 96 
82 374 264 61 78 113 
82 375 264 71 94 126 
83 374 264 60 69 108 
80 376 264 78 98 129 
80 377 264 60 86 123 
81 376 264 67 89 124 
81 377 264 52 74 114 
82 376 264 61 88 125 
76 351 259 170 53 80 
77 352 259 175 43 77 
77 353 259 174 57 82 
77 354 259 172 59 86 
77 355 259 167 39 73 
78 352 258 176 47 71 
78 353 258 180 59 77 
78 353 259 178 60 80 
79 352 258 186 48 67 
79 353 258 181 54 74 
78 354 259 180 54 85 
78 355 259 170 34 72 
79 354 258 176 46 74 
79 354 259 173 45 77 
79 355 259 181 39 74 
77 353 260 168 48 81 
76 355 260 162 48 84 
77 354 260 170 58 86 
77 355 260 163 46 82 
78 356 259 166 31 65 
78 357 259 169 37 69 
79 356 259 176 36 67 
79 357 259 173 48 68 
77 356 260 163 29 69 
77 357 260 168 38 74 
77 357 261 164 44 78 
77 358 260 176 58 83 
77 358 261 169 59 85 
77 359 260 178 73 94 
77 359 261 169 64 87 
78 357 260 170 41 73 
78 358 260 175 57 84 
78 359 260 177 68 92 
79 358 260 176 57 82 
79 359 260 177 61 85 
77 360 261 157 40 75 
77 361 261 154 58 87 
77 360 262 148 39 72 
77 361 262 147 60 83 
77 362 262 146 60 85 
77 363 262 135 42 70 
78 360 260 165 52 83 
78 360 261 158 43 81 
78 361 261 156 52 81 
79 360 260 167 51 79 
79 361 260 163 47 75 
79 361 261 158 51 72 
78 362 261 150 56 81 
78 363 261 140 52 73 
79 362 261 153 49 69 
77 364 262 133 46 73 
77 364 263 126 58 76 
77 365 262 130 57 80 
76 367 263 122 62 75 
77 366 262 123 55 73 
77 366 263 123 62 73 
77 367 262 124 63 79 
77 367 263 123 66 80 
78 364 261 135 60 78 
78 364 262 135 55 79 
78 365 262 127 53 79 
76 368 263 120 62 82 
76 369 263 115 57 83 
77 368 263 116 60 82 
77 369 263 105 52 81 
76 371 264 111 69 90 
80 352 258 185 47 63 
80 353 258 184 36 64 
81 352 259 165 38 63 
81 353 258 173 41 67 
81 353 259 168 32 60 
80 354 258 181 37 64 
80 354 259 180 24 61 
80 355 259 181 35 68 
81 354 259 170 28 61 
81 355 259 172 39 66 
82 352 259 161 32 60 
82 353 259 163 33 62 
82 354 259 166 33 63 
83 352 260 153 29 60 
82 354 260 164 38 65 
80 356 259 182 31 63 
80 357 259 177 35 62 
81 356 259 171 37 62 
80 357 260 176 32 55 
81 356 260 169 40 66 
81 357 260 168 31 58 
80 358 260 177 35 64 
80 359 260 181 40 68 
77 412 275 166 159 158 
77 413 275 160 152 151 
78 412 275 158 147 143 
78 413 275 149 137 135 
79 413 275 162 145 145 
78 414 275 144 131 127 
79 414 275 147 128 129 
79 415 275 137 112 112 
78 414 276 142 133 130 
78 415 276 142 128 127 
79 415 276 142 121 120 
80 413 275 139 106 107 
81 413 274 133 74 76 
81 413 275 130 71 74 
80 414 275 137 106 109 
80 415 275 127 90 94 
81 414 275 128 52 57 
81 415 275 130 55 69 
77 416 276 167 160 158 
77 417 276 160 154 152 
77 418 276 151 150 154 
78 416 276 144 128 126 
78 417 276 141 130 128 
79 416 276 126 94 92 
79 417 276 122 98 100 
78 418 276 119 119 125 
78 419 276 101 111 126 
78 419 277 111 121 135 
79 418 276 104 101 115 
79 419 276 93 102 119 
80 416 275 124 73 80 
80 417 275 121 84 98 
80 418 275 107 104 118 
80 419 275 103 112 126 
80 416 276 137 111 117 
80 417 276 113 79 91 
80 418 276 104 96 110 
80 419 276 99 108 124 
77 373 265 75 81 112 
76 375 265 69 98 127 
77 374 265 74 101 129 
77 375 265 68 96 125 
76 376 265 68 90 123 
77 376 265 59 91 126 
77 377 265 83 112 141 
77 377 266 68 106 138 
77 378 265 66 93 122 
77 378 266 52 84 117 
77 379 266 45 71 105 
78 376 265 82 108 136 
78 377 265 86 110 135 
79 377 265 78 97 125 
78 378 265 61 85 117 
78 379 265 68 91 121 
79 378 265 66 83 115 
79 379 265 75 96 125 
77 380 266 77 105 135 
77 381 266 62 93 124 
77 381 267 60 92 124 
77 382 267 57 85 116 
77 383 267 74 107 136 
78 380 265 79 101 129 
79 380 265 77 98 125 
78 380 266 73 99 128 
78 381 266 57 88 121 
79 380 266 70 99 130 
79 381 266 65 94 126 
78 382 266 65 95 126 
78 382 267 64 95 127 
78 383 266 74 106 136 
78 383 267 74 108 138 
79 382 266 79 110 138 
79 383 266 83 113 140 
79 383 267 73 104 134 
83 375 265 52 74 112 
81 377 265 43 69 113 
80 378 265 62 79 118 
80 379 265 68 88 120 
81 378 265 53 76 113 
81 379 265 65 80 115 
82 376 265 55 83 122 
82 377 265 47 75 117 
83 376 265 51 79 119 
82 378 265 58 79 117 
82 379 265 63 77 116 
80 380 265 65 90 119 
81 380 265 44 71 109 
80 380 266 63 86 119 
80 381 266 70 96 127 
81 380 266 55 79 115 
81 381 266 72 98 128 
80 382 266 83 112 139 
80 383 266 89 116 141 
80 383 267 71 100 129 
81 382 266 83 109 136 
81 383 267 73 97 127 
82 380 266 48 69 111 
82 381 266 65 91 125 
82 382 266 82 108 136 
82 382 267 72 100 132 
82 383 267 66 95 126 
77 384 267 63 91 124 
78 384 267 69 85 117 
78 385 267 113 92 103 
79 384 267 68 82 113 
79 385 267 121 102 113 
78 386 267 139 107 112 
79 386 267 127 94 105 
77 384 268 52 78 113 
77 385 268 97 71 88 
77 386 268 141 115 106 
77 387 268 126 95 92 
78 385 268 121 95 100 
78 386 268 137 108 108 
78 387 268 110 74 83 
79 386 268 125 85 91 
79 387 268 117 71 81 
77 388 268 100 61 70 
77 388 269 113 80 82 
77 389 269 139 108 99 
77 390 269 132 89 77 
77 391 269 134 89 73 
78 388 268 121 83 79 
78 388 269 123 90 88 
78 389 268 138 96 81 
78 389 269 134 96 83 
79 388 268 138 97 86 
79 389 268 136 88 72 
78 390 269 122 73 61 
78 391 269 135 91 76 
79 390 269 124 70 61 
79 391 269 140 96 80 
77 392 269 159 118 105 
77 392 270 148 105 93 
77 393 270 135 85 83 
77 394 270 118 74 74 
77 395 270 96 66 69 
78 392 269 138 91 88 
78 393 269 125 74 76 
79 392 269 124 73 74 
79 393 269 109 66 74 
78 393 270 123 72 75 
78 394 270 109 65 68 
78 395 270 100 64 75 
79 394 270 100 62 77 
79 395 270 102 61 76 
77 396 271 112 78 90 
77 397 271 126 47 77 
77 398 271 140 20 63 
77 399 271 140 42 68 
78 396 270 113 63 78 
78 396 271 112 70 84 
78 397 270 120 39 66 
78 397 271 128 32 64 
79 396 270 125 61 80 
79 397 270 127 21 57 
79 397 271 132 14 55 
78 398 271 138 15 56 
78 399 271 131 44 63 
79 398 271 141 11 53 
79 399 271 135 45 64 
78 400 271 118 60 73 
78 401 271 110 75 91 
79 400 271 115 56 69 
79 401 271 117 68 85 
77 400 272 132 75 86 
77 401 272 120 99 104 
77 402 272 126 87 100 
77 403 272 136 34 69 
78 400 272 116 72 81 
78 401 272 111 78 89 
78 402 272 121 52 75 
78 403 272 144 8 51 
79 402 272 120 36 60 
79 403 272 148 4 46 
77 404 272 150 17 66 
77 404 273 157 36 76 
77 405 273 159 86 96 
77 406 273 169 147 138 
78 404 272 148 16 63 
78 404 273 155 46 78 
78 405 272 143 46 72 
78 405 273 152 82 93 
79 404 272 151 11 59 
79 405 272 138 49 68 
79 405 273 144 81 91 
78 406 273 167 143 134 
78 407 273 166 151 144 
79 406 273 148 114 110 
79 407 273 155 133 125 
78 407 274 168 158 151 
77 408 274 163 158 156 
77 409 274 164 157 156 
78 408 273 158 146 139 
79 408 273 158 138 133 
78 408 274 163 153 149 
78 409 274 156 146 143 
79 408 274 148 131 125 
79 409 274 147 130 129 
78 410 274 156 146 143 
78 411 274 152 139 135 
78 411 275 161 151 150 
79 410 274 150 134 133 
79 411 274 159 144 141 
79 412 275 161 145 143 
80 384 267 59 77 112 
80 385 267 109 94 112 
81 384 267 54 78 111 
81 385 267 80 82 110 
80 386 267 115 73 85 
81 386 267 103 68 87 
81 387 267 116 69 83 
82 384 267 53 85 116 
82 385 267 70 83 108 
82 386 267 90 67 86 
82 387 267 112 66 71 
80 387 268 118 67 69 
81 387 268 124 71 74 
82 388 267 124 79 68 
80 388 268 136 95 81 
80 389 268 126 81 62 
81 388 268 137 96 83 
81 389 268 129 84 66 
80 390 269 130 78 62 
80 391 269 138 87 78 
81 390 269 129 82 67 
81 391 269 137 80 79 
82 388 268 128 88 72 
82 389 268 129 85 73 
82 390 268 125 77 64 
82 390 269 127 75 69 
82 391 269 129 67 70 
80 392 269 124 74 73 
80 393 269 104 71 85 
81 392 269 115 73 78 
81 393 269 93 67 82 
81 393 270 84 67 86 
80 394 270 88 62 87 
80 395 270 95 58 80 
81 394 270 84 69 94 
81 395 270 99 63 87 
82 392 269 108 67 78 
82 393 269 90 69 86 
82 393 270 84 71 91 
82 394 269 79 76 96 
82 394 270 80 78 98 
82 395 270 100 68 85 
80 396 270 130 51 75 
80 397 270 135 19 55 
81 396 270 130 47 74 
81 397 270 140 12 53 
80 398 270 138 11 46 
80 398 271 133 31 55 
80 399 271 128 54 65 
81 398 270 139 21 52 
81 399 270 126 58 67 
81 399 271 122 61 71 
82 396 270 120 46 70 
80 400 271 116 67 76 
80 401 271 122 53 68 
81 400 271 116 74 80 
81 401 271 122 59 67 
80 402 271 139 44 61 
81 402 271 131 22 45 
81 403 271 148 13 57 
80 402 272 138 23 48 
80 403 272 135 1 45 
81 403 272 142 6 50 
80 404 272 146 23 56 
80 405 272 146 56 75 
80 405 273 134 59 74 
81 404 272 139 18 52 
81 405 272 133 50 65 
80 406 273 145 95 102 
80 407 273 143 106 104 
81 406 272 130 49 63 
81 406 273 145 91 96 
81 407 273 145 91 100 
80 408 273 145 115 112 
80 409 273 139 102 102 
81 408 273 131 59 83 
81 409 273 153 113 119 
80 409 274 143 113 112 
81 409 274 132 78 85 
80 410 274 156 134 135 
80 411 274 143 118 117 
81 410 274 135 87 91 
81 411 274 130 82 88 
80 412 274 158 138 137 
80 412 275 147 118 121 
81 412 274 131 76 83 
