ply
format ascii 1.0
comment Created by CloudCompare v2.10.1 (Zephyrus)
comment Created 1/31/20 5:41 PM
obj_info Generated by CloudCompare!
element vertex 1847
property float x
property float y
property float z
property uchar red
property uchar green
property uchar blue
end_header
264 128 251 159 128 120 
295 128 290 97 80 68 
295 128 291 97 80 69 
296 128 289 97 80 68 
297 128 289 96 79 68 
296 128 290 97 80 68 
296 128 291 97 79 68 
296 129 291 97 80 68 
297 128 290 98 81 69 
297 128 291 98 81 69 
297 129 291 100 83 70 
298 128 288 95 78 67 
298 128 289 95 78 66 
299 128 289 92 76 64 
298 128 290 96 80 68 
298 129 290 97 80 68 
298 129 291 99 82 70 
299 128 290 93 76 65 
299 129 290 94 78 66 
299 129 291 95 78 67 
298 130 291 102 86 73 
299 130 291 98 82 71 
296 129 292 97 80 69 
297 129 292 100 83 70 
297 130 292 99 83 71 
297 130 293 98 82 71 
297 131 293 102 87 76 
297 131 294 104 90 80 
298 130 292 105 88 76 
298 131 292 108 92 81 
299 131 292 100 85 75 
297 132 293 107 93 82 
297 133 293 107 87 77 
297 132 294 107 91 82 
297 133 294 100 77 70 
296 135 292 102 81 72 
297 134 292 105 84 76 
297 134 293 106 84 75 
297 135 292 104 83 75 
298 132 292 108 93 83 
298 132 293 109 94 84 
298 133 293 110 95 84 
299 132 292 108 93 83 
299 132 293 109 95 84 
299 133 293 109 95 85 
298 134 292 108 88 80 
298 135 292 108 88 80 
299 134 292 106 90 82 
299 134 293 106 93 84 
299 135 292 108 88 81 
300 128 289 90 74 62 
301 128 289 87 72 61 
300 128 290 90 74 62 
300 129 290 91 74 63 
300 129 291 92 76 64 
301 128 290 87 72 61 
301 129 290 88 72 61 
301 129 291 89 72 59 
300 130 291 92 77 67 
301 130 291 92 75 63 
302 128 290 82 69 59 
302 129 290 86 71 59 
302 129 291 85 70 58 
303 128 290 81 68 58 
303 128 291 81 69 59 
303 129 291 82 69 58 
302 130 291 86 71 59 
300 131 292 96 82 73 
301 130 292 92 77 65 
301 131 292 94 80 70 
302 130 292 90 74 61 
302 131 292 93 74 61 
303 130 292 87 73 61 
303 131 292 89 72 61 
303 131 293 91 74 62 
300 132 292 105 91 81 
300 132 293 106 93 84 
300 133 293 108 94 85 
301 132 292 99 85 75 
301 132 293 102 88 78 
301 133 293 104 91 84 
300 134 293 107 95 86 
300 135 292 110 89 81 
300 135 293 111 94 86 
301 134 293 104 92 84 
301 135 293 110 95 86 
301 135 294 107 95 86 
302 132 293 96 82 69 
302 133 293 101 89 77 
303 132 293 93 79 67 
303 133 293 94 79 65 
303 133 294 95 81 68 
302 134 293 101 90 82 
302 135 293 103 92 83 
302 134 294 97 85 75 
302 135 294 102 91 81 
303 134 294 94 81 68 
303 134 295 95 83 72 
303 135 294 98 87 77 
303 135 295 95 84 75 
296 136 292 102 81 72 
296 137 292 107 80 64 
297 136 292 101 80 72 
297 137 292 107 84 71 
296 138 292 113 77 51 
297 138 292 113 77 50 
297 139 292 118 70 38 
297 139 293 119 69 38 
298 136 292 107 86 77 
298 137 292 111 86 73 
299 136 292 110 89 79 
299 137 292 109 85 74 
298 138 292 112 79 54 
298 139 292 116 72 43 
299 138 292 110 82 64 
299 139 292 113 77 53 
299 139 293 115 72 46 
297 140 293 118 63 33 
297 140 294 118 65 33 
297 141 294 119 67 33 
298 140 293 119 66 37 
299 140 293 118 68 40 
298 141 294 118 63 35 
299 141 294 119 67 38 
298 142 294 116 62 34 
298 142 295 119 66 35 
298 143 295 120 66 31 
299 142 294 121 68 35 
299 142 295 119 67 35 
299 143 295 119 67 34 
300 136 292 111 90 80 
300 136 293 112 91 81 
300 137 292 110 86 76 
300 137 293 112 89 79 
301 136 293 112 90 82 
301 137 293 111 88 76 
301 136 294 112 91 84 
301 137 294 110 88 77 
300 138 292 110 82 66 
300 138 293 109 81 69 
300 139 292 110 76 56 
300 139 293 111 75 53 
301 138 293 108 80 69 
301 139 293 110 77 58 
301 138 294 107 81 69 
301 139 294 109 77 60 
302 136 294 108 92 84 
302 137 294 109 87 78 
303 136 294 103 92 83 
303 136 295 99 88 78 
303 137 294 104 92 82 
303 137 295 103 87 75 
302 138 294 107 83 71 
302 138 295 106 81 66 
302 139 294 109 79 63 
302 139 295 108 78 62 
303 138 295 104 80 70 
303 139 295 107 79 64 
300 140 293 116 69 42 
300 140 294 118 67 41 
300 141 294 119 68 37 
301 140 294 114 71 47 
301 141 294 119 69 40 
301 141 295 118 68 38 
300 142 294 120 68 36 
300 142 295 119 68 36 
300 143 295 119 67 32 
301 142 295 118 69 39 
301 143 295 118 69 34 
302 140 294 112 74 50 
302 140 295 108 73 49 
302 141 295 115 68 41 
302 142 295 116 69 40 
303 138 296 104 78 66 
303 139 296 103 77 61 
301 143 296 116 67 33 
303 140 296 105 71 49 
303 141 296 109 68 40 
303 141 297 110 66 35 
302 142 296 114 69 39 
302 143 296 115 68 34 
303 142 296 111 66 38 
303 142 297 111 67 34 
303 143 296 111 67 34 
303 143 297 110 66 29 
303 143 298 110 65 29 
298 144 295 121 66 29 
299 144 295 119 64 28 
300 144 295 118 65 29 
301 144 295 116 65 30 
299 144 296 119 64 30 
299 145 296 118 63 29 
299 146 296 117 52 22 
299 147 296 117 51 28 
300 144 296 117 65 30 
300 145 296 117 65 32 
301 144 296 116 65 32 
301 145 296 116 65 33 
301 145 297 115 64 28 
300 146 296 116 62 25 
300 147 297 115 60 31 
301 146 296 116 62 24 
301 146 297 115 63 30 
301 147 297 116 64 31 
302 144 296 115 65 29 
302 144 297 111 65 27 
302 145 296 114 64 28 
302 145 297 114 65 30 
303 144 297 112 65 28 
303 145 297 111 64 32 
303 144 298 110 65 30 
303 145 298 109 63 33 
302 146 297 114 64 34 
302 147 297 113 64 33 
302 147 298 112 64 32 
303 146 298 109 63 33 
303 146 299 108 62 36 
303 147 298 110 64 36 
303 147 299 108 62 37 
300 148 297 110 57 36 
300 149 297 109 59 40 
301 148 297 115 66 32 
301 149 297 111 62 39 
300 149 298 109 59 38 
301 149 298 106 59 41 
300 150 298 108 58 39 
300 151 298 105 60 42 
301 150 298 105 60 44 
301 151 298 103 63 47 
302 148 297 113 65 32 
302 148 298 112 66 34 
302 149 298 111 67 37 
303 148 298 110 65 37 
303 148 299 110 64 38 
303 149 298 110 66 38 
303 149 299 111 63 40 
302 150 298 106 62 45 
302 151 298 103 62 48 
303 150 298 112 63 42 
303 150 299 112 64 44 
303 151 299 107 63 47 
300 153 298 96 68 68 
301 152 298 98 65 56 
301 152 299 97 65 58 
301 153 298 99 66 64 
301 153 299 101 67 66 
301 154 298 95 71 73 
301 155 299 88 72 76 
302 152 298 99 66 57 
302 152 299 96 68 62 
302 153 298 93 73 73 
302 153 299 92 73 72 
303 152 299 99 67 57 
303 153 299 96 72 68 
302 154 298 94 72 74 
302 154 299 95 71 71 
302 155 298 92 71 74 
302 155 299 91 72 74 
303 154 299 95 72 73 
303 155 299 93 71 71 
303 153 300 95 76 74 
303 154 300 95 78 78 
303 155 300 91 72 73 
301 156 299 78 66 72 
301 157 299 68 59 71 
301 158 299 70 58 72 
302 156 299 81 66 72 
302 157 299 74 62 72 
303 156 299 83 66 71 
303 157 299 77 63 73 
302 158 299 73 61 73 
303 156 300 87 69 71 
303 157 300 80 67 74 
302 158 300 74 60 73 
302 159 300 72 58 72 
303 158 300 80 66 78 
303 158 301 77 69 76 
303 159 300 74 61 74 
303 159 301 73 60 73 
304 128 290 82 69 59 
304 128 291 82 69 58 
304 129 291 82 69 58 
305 128 291 83 68 57 
305 129 291 83 69 59 
306 128 291 82 67 55 
304 129 292 84 70 59 
305 129 292 84 70 58 
304 130 292 85 72 62 
304 131 293 88 75 64 
305 130 292 87 73 62 
305 130 293 88 75 65 
305 131 293 89 77 66 
306 128 292 82 66 54 
306 129 292 86 69 55 
307 128 292 81 65 51 
307 129 292 86 67 51 
307 129 293 86 67 51 
306 130 292 86 71 59 
306 130 293 89 73 60 
306 131 293 89 74 62 
307 130 293 90 70 55 
306 131 294 92 76 62 
307 130 294 92 69 52 
307 131 294 93 74 59 
304 132 293 91 81 71 
304 132 294 91 81 71 
304 133 294 96 82 71 
305 132 294 93 81 70 
305 133 294 92 81 72 
305 133 295 93 79 68 
304 134 294 95 82 70 
304 134 295 92 79 68 
304 135 295 97 83 71 
305 134 295 97 80 66 
305 135 295 98 83 69 
306 132 294 94 78 63 
306 133 294 93 80 68 
306 133 295 95 79 63 
307 132 294 94 75 59 
307 132 295 95 75 56 
307 133 295 97 78 58 
306 134 295 97 79 62 
306 135 295 96 78 59 
307 134 295 97 77 56 
308 128 292 76 62 51 
308 128 293 74 61 51 
308 129 293 82 65 51 
309 128 293 76 62 52 
309 129 293 81 64 52 
309 129 294 85 67 54 
308 130 293 90 69 54 
308 130 294 88 68 52 
308 131 294 88 68 52 
309 130 294 85 67 55 
309 131 294 89 68 52 
310 128 293 74 63 55 
310 129 293 84 65 52 
311 128 293 73 64 56 
310 128 294 74 63 55 
310 129 294 82 66 55 
311 128 294 71 63 57 
311 129 294 74 64 56 
310 130 294 81 66 55 
310 131 294 86 70 56 
310 131 295 86 66 48 
311 130 294 74 64 55 
311 131 294 74 64 56 
311 131 295 73 62 54 
308 132 295 91 71 51 
308 133 295 93 73 52 
309 132 295 87 67 48 
309 133 295 85 66 47 
308 134 295 97 76 56 
309 134 295 90 66 45 
310 132 295 83 66 49 
310 133 295 81 63 45 
311 132 295 74 61 49 
311 133 295 75 59 42 
305 135 296 97 83 69 
306 135 296 96 79 61 
307 134 296 96 76 53 
307 135 296 92 74 55 
308 134 296 100 78 56 
308 135 296 98 74 48 
309 134 296 91 66 44 
309 135 296 92 66 41 
309 135 297 84 59 27 
311 133 296 71 57 41 
310 134 296 85 63 39 
310 135 297 85 59 30 
311 134 296 77 59 37 
311 135 297 73 53 35 
304 136 295 97 85 74 
304 137 295 98 85 72 
304 136 296 96 82 69 
304 137 296 97 84 70 
305 136 296 95 82 70 
305 137 296 96 83 70 
305 137 297 96 82 68 
304 138 296 94 81 71 
304 138 297 96 80 68 
304 139 296 103 75 57 
304 139 297 100 77 59 
305 138 296 91 79 70 
305 138 297 92 78 69 
305 139 297 100 81 64 
306 136 296 93 79 65 
306 136 297 93 79 66 
306 137 297 94 81 69 
307 136 296 90 72 51 
307 136 297 90 74 56 
307 137 297 89 73 60 
306 138 297 92 78 68 
306 139 297 98 80 70 
307 138 297 91 75 64 
306 139 298 98 81 66 
307 138 298 90 72 62 
307 139 298 95 76 65 
304 140 296 106 67 39 
304 140 297 104 68 40 
304 141 297 107 65 34 
305 140 297 104 68 40 
305 140 298 104 80 58 
305 141 298 105 64 30 
304 142 297 109 66 34 
304 142 298 109 64 27 
304 143 298 109 65 28 
304 143 299 107 65 29 
305 142 298 107 64 29 
305 142 299 104 62 31 
305 143 298 106 64 29 
305 143 299 105 63 31 
306 140 298 102 77 56 
306 141 298 109 75 48 
306 141 299 108 72 47 
307 140 298 99 75 59 
307 140 299 99 71 54 
307 141 299 104 70 49 
306 142 299 110 71 44 
306 143 299 103 60 32 
307 142 299 104 66 39 
305 143 300 105 62 32 
306 142 300 108 66 26 
306 143 300 106 62 29 
307 142 300 105 64 26 
307 143 300 106 61 26 
307 143 301 102 58 23 
308 136 297 96 70 41 
308 137 297 93 65 45 
309 136 297 89 59 24 
309 137 297 85 55 34 
309 137 298 86 52 29 
308 138 298 89 62 47 
308 139 298 94 70 61 
309 138 298 89 52 31 
309 139 298 89 56 41 
309 139 299 92 61 44 
310 136 297 79 51 26 
310 137 297 79 51 25 
311 136 297 77 50 32 
310 137 298 84 52 26 
311 136 298 80 48 28 
311 137 298 86 50 25 
310 138 298 88 49 26 
310 139 298 89 50 32 
310 139 299 91 51 31 
311 138 298 91 50 22 
311 138 299 93 48 21 
311 139 299 91 46 26 
308 140 298 98 70 56 
308 140 299 98 68 53 
308 141 299 99 64 43 
309 140 299 91 57 38 
309 141 299 90 54 29 
310 140 299 89 51 31 
310 141 299 88 50 25 
311 140 299 88 48 27 
311 141 299 88 49 25 
308 142 300 100 56 28 
308 143 300 103 53 25 
308 143 301 99 54 24 
309 142 300 93 52 23 
309 143 301 100 55 28 
309 143 302 99 56 28 
310 141 300 88 48 24 
311 141 300 88 48 24 
310 142 300 88 49 24 
310 142 301 89 50 24 
310 143 301 94 55 29 
311 142 300 88 47 24 
311 142 301 89 48 24 
311 143 301 93 53 29 
310 143 302 98 55 29 
311 143 302 94 46 18 
312 128 294 69 61 57 
312 129 294 66 58 54 
312 129 295 66 57 53 
313 128 294 72 62 57 
313 128 295 72 62 56 
313 129 295 71 61 54 
312 130 294 66 58 54 
312 130 295 66 57 52 
312 131 295 67 58 51 
313 130 295 69 59 52 
313 131 295 69 58 49 
314 128 295 75 65 56 
314 129 295 75 65 55 
312 132 295 68 57 48 
313 130 296 70 60 53 
313 131 296 71 59 49 
314 128 296 75 65 57 
314 129 296 75 65 55 
315 128 296 75 65 58 
315 128 297 75 65 58 
315 129 296 76 65 55 
315 129 297 76 66 57 
315 129 298 76 66 58 
314 130 296 72 62 54 
314 130 297 73 61 53 
314 131 296 71 60 52 
314 131 297 73 61 51 
315 130 297 75 64 55 
314 131 298 74 61 49 
315 130 298 74 63 55 
315 130 299 75 62 54 
315 131 298 76 62 48 
315 131 299 78 62 48 
312 132 296 69 57 46 
312 133 296 72 56 41 
312 133 297 76 58 37 
313 132 296 71 57 45 
313 132 297 74 58 44 
313 133 297 77 58 39 
312 134 296 73 57 38 
312 134 297 74 54 34 
312 135 297 76 53 34 
313 134 297 80 54 34 
312 135 298 80 53 34 
313 134 298 81 56 36 
313 135 298 84 52 32 
313 135 299 86 48 30 
314 132 297 76 58 45 
314 132 298 78 60 44 
314 133 298 80 56 37 
315 132 298 79 60 45 
315 132 299 81 59 40 
315 133 299 84 56 35 
314 134 298 83 53 35 
314 134 299 84 53 32 
314 135 299 86 49 30 
315 134 299 85 51 32 
315 133 300 86 55 31 
315 134 300 89 49 24 
315 135 300 89 48 24 
315 135 301 92 48 18 
316 128 297 76 66 59 
316 128 298 76 66 60 
316 128 299 77 67 60 
316 129 298 76 66 58 
316 129 299 76 66 59 
317 128 299 78 68 61 
316 130 299 76 63 53 
316 131 299 78 61 48 
317 128 300 79 69 60 
317 128 301 80 69 60 
317 129 300 77 67 59 
317 129 301 79 68 59 
317 129 302 81 67 56 
316 130 300 77 62 51 
316 131 300 80 59 44 
317 130 300 76 64 54 
317 130 301 78 64 52 
317 131 301 81 56 36 
317 130 302 81 64 51 
317 131 302 83 61 41 
318 128 302 85 73 64 
318 129 302 85 71 59 
319 128 302 91 79 69 
319 128 303 93 80 69 
319 129 303 90 74 59 
318 130 302 84 65 51 
318 130 303 87 65 51 
318 131 302 88 62 36 
318 131 303 90 62 34 
319 130 303 91 68 50 
319 131 303 94 64 33 
316 132 300 83 57 36 
316 132 301 87 56 34 
316 133 300 89 54 28 
316 133 301 92 55 26 
317 132 301 89 54 28 
317 133 301 96 54 22 
317 132 302 92 55 23 
317 133 302 97 55 21 
316 134 301 93 50 17 
316 135 301 95 48 9 
317 134 301 96 52 16 
316 134 302 97 50 9 
316 135 302 97 49 8 
317 134 302 98 49 10 
317 134 303 101 46 11 
317 135 302 98 46 9 
317 135 303 101 43 16 
318 132 302 97 58 21 
318 132 303 99 58 21 
318 133 302 99 57 22 
318 133 303 101 54 16 
319 132 303 101 58 9 
318 134 303 101 48 9 
318 135 303 102 45 14 
312 136 298 82 50 30 
312 137 298 90 49 21 
312 137 299 92 46 20 
313 136 298 85 52 28 
313 136 299 87 48 28 
313 137 299 93 46 22 
312 138 299 93 46 22 
312 139 299 92 46 27 
314 136 299 87 48 25 
313 137 300 97 45 23 
312 139 300 91 46 24 
313 138 300 93 44 23 
313 139 300 92 44 21 
313 139 301 94 44 13 
314 136 300 88 48 25 
314 137 300 93 44 20 
314 137 301 90 44 20 
315 136 300 89 47 24 
315 136 301 92 46 15 
315 137 301 91 43 17 
314 138 300 91 40 20 
314 138 301 95 41 16 
314 139 300 95 43 16 
314 139 301 95 43 15 
315 138 301 99 42 15 
314 139 302 93 45 14 
315 138 302 94 38 14 
315 139 302 93 42 14 
315 139 303 93 40 13 
312 140 299 90 49 24 
312 140 300 90 48 24 
312 141 300 89 47 22 
312 141 301 90 46 20 
313 140 300 91 47 21 
313 140 301 93 46 15 
313 141 301 92 46 17 
312 142 301 90 46 21 
312 143 301 91 46 20 
313 142 301 93 47 19 
312 143 302 94 44 17 
313 142 302 93 46 20 
313 143 302 93 42 16 
314 140 301 94 48 14 
314 140 302 93 47 14 
314 141 302 92 48 16 
314 141 303 94 44 11 
315 140 303 95 45 11 
315 141 303 95 43 13 
314 142 302 93 46 15 
314 142 303 95 42 13 
314 143 302 93 43 17 
314 143 303 94 39 14 
315 142 303 94 41 12 
315 143 303 94 40 13 
316 136 301 94 47 9 
316 136 302 96 46 9 
316 137 302 95 42 12 
316 137 303 95 40 13 
317 136 302 98 43 10 
317 136 303 98 42 10 
317 137 303 96 41 11 
316 138 302 94 37 14 
316 138 303 94 37 15 
316 139 303 97 42 14 
317 138 303 95 37 13 
316 140 303 97 45 11 
304 144 298 108 64 31 
304 144 299 107 63 32 
304 145 299 105 60 33 
305 144 299 105 61 31 
304 146 299 106 62 36 
304 147 299 108 61 35 
304 145 300 104 59 33 
305 144 300 102 57 30 
305 145 300 104 57 33 
305 145 301 104 55 34 
304 146 300 106 60 35 
304 147 300 109 57 31 
305 146 300 106 57 35 
305 146 301 106 55 29 
305 147 300 108 57 30 
305 147 301 109 55 28 
306 144 300 102 54 29 
306 144 301 102 55 25 
306 145 300 103 54 31 
306 145 301 102 52 31 
307 144 301 106 60 26 
306 145 302 102 51 27 
307 144 302 107 57 19 
307 145 302 110 57 17 
307 145 303 110 54 18 
306 146 301 104 54 29 
306 146 302 107 53 25 
306 146 303 106 53 28 
306 147 302 109 56 27 
306 147 303 108 53 20 
307 146 303 106 50 23 
307 147 303 107 52 20 
304 148 299 109 59 38 
304 149 299 112 62 39 
304 148 300 110 59 35 
304 149 300 110 59 36 
304 149 301 109 58 36 
305 148 301 111 59 33 
305 149 301 110 59 35 
305 148 302 110 57 31 
305 149 302 109 57 33 
304 150 300 111 61 41 
304 150 301 109 60 39 
304 151 300 108 64 46 
304 151 301 104 63 45 
305 150 301 106 59 40 
305 151 301 104 62 44 
305 150 302 104 58 39 
305 151 302 106 60 41 
306 148 302 110 56 28 
306 148 303 109 53 21 
306 149 302 108 55 29 
306 149 303 106 53 29 
306 150 302 104 56 38 
306 150 303 103 54 34 
306 151 302 105 60 40 
306 151 303 104 58 38 
307 151 303 103 57 35 
308 144 301 103 57 23 
308 144 302 105 57 22 
308 145 302 107 55 18 
308 145 303 106 54 16 
309 144 302 100 52 20 
309 145 302 99 50 18 
309 145 303 98 47 16 
308 146 303 108 53 16 
308 147 303 109 53 17 
309 146 303 101 48 15 
310 144 302 97 47 17 
310 145 302 97 44 10 
310 145 303 96 44 14 
311 144 302 96 44 12 
311 145 303 96 44 12 
310 146 303 98 46 15 
311 146 303 96 46 14 
304 152 300 102 66 50 
304 152 301 99 70 59 
304 153 300 99 72 62 
304 153 301 97 72 64 
305 152 301 100 66 50 
305 153 301 96 72 65 
305 152 302 103 64 47 
305 153 302 97 72 64 
304 154 300 96 75 72 
304 154 301 97 73 69 
304 155 300 93 73 73 
304 155 301 91 72 74 
305 154 301 95 73 69 
305 154 302 94 74 72 
305 154 303 98 72 67 
305 155 302 93 75 77 
305 155 303 94 72 73 
306 152 302 105 66 50 
306 152 303 104 62 46 
306 153 303 98 71 64 
306 154 303 95 72 68 
306 155 303 95 73 72 
304 156 301 88 72 73 
304 157 301 83 72 75 
304 156 302 87 73 75 
304 157 302 82 71 77 
305 156 302 88 74 76 
305 156 303 85 71 75 
305 157 302 81 72 77 
305 157 303 73 66 74 
304 158 301 75 68 75 
304 159 301 72 65 73 
304 158 302 74 67 75 
304 159 302 73 67 76 
304 159 303 68 62 72 
305 158 303 69 63 73 
305 159 303 70 65 75 
306 156 303 90 76 78 
306 157 303 74 68 74 
312 144 302 95 41 12 
312 145 303 96 40 13 
313 144 302 94 40 13 
313 144 303 94 39 14 
313 145 303 93 41 17 
312 146 303 93 42 14 
313 146 303 92 46 24 
314 144 303 93 38 16 
314 145 303 91 42 19 
314 146 303 87 46 26 
303 160 301 70 61 73 
303 161 301 66 62 76 
303 162 301 66 63 77 
304 160 301 69 60 70 
304 160 302 68 60 70 
304 160 303 67 60 71 
304 161 302 68 64 76 
304 161 303 68 64 75 
305 160 303 66 60 71 
305 161 303 68 63 74 
304 162 302 64 63 76 
304 162 303 65 64 76 
304 163 302 58 61 76 
304 163 303 59 60 75 
305 162 303 65 63 74 
305 163 303 61 63 76 
304 164 303 57 64 79 
304 165 303 55 66 80 
305 164 303 58 63 77 
320 128 303 98 84 72 
323 128 303 120 104 88 
319 130 304 94 68 45 
319 131 304 99 63 18 
319 132 304 105 56 5 
319 133 304 106 53 5 
318 134 304 102 47 7 
318 135 304 102 45 12 
319 134 304 106 51 5 
319 134 305 110 51 4 
319 135 304 103 45 12 
319 135 305 105 44 10 
315 142 304 94 40 12 
315 143 304 93 39 14 
317 137 304 96 38 12 
317 138 304 95 39 12 
317 139 304 97 42 13 
318 136 304 99 45 10 
318 137 304 98 43 11 
318 137 305 99 46 10 
319 136 304 100 44 12 
319 136 305 102 46 8 
319 137 305 100 48 9 
318 138 304 101 42 11 
318 138 305 99 42 11 
318 139 305 98 41 11 
319 138 305 103 44 10 
319 139 305 100 41 12 
319 138 306 104 45 10 
319 139 306 103 43 12 
316 140 304 97 45 11 
316 141 304 95 42 13 
317 140 304 98 44 12 
317 140 305 97 41 13 
317 141 304 96 41 13 
317 141 305 96 41 13 
316 142 304 96 42 16 
316 143 304 95 41 19 
316 143 305 95 41 21 
317 142 305 96 43 16 
317 143 305 93 44 22 
318 140 305 98 42 15 
318 141 305 97 43 13 
318 141 306 98 48 15 
319 140 306 99 41 14 
319 141 306 96 46 18 
319 141 307 96 48 18 
318 142 305 96 43 14 
318 142 306 95 42 17 
318 143 306 91 45 28 
319 142 306 93 46 21 
319 142 307 95 53 32 
319 143 307 90 51 32 
307 147 304 104 49 15 
306 149 304 108 53 27 
307 148 304 106 50 17 
307 149 304 105 51 24 
307 150 304 102 53 26 
307 151 304 103 56 30 
308 147 304 106 52 16 
309 146 304 103 49 15 
309 147 304 104 51 15 
310 146 304 102 48 15 
310 147 304 101 49 18 
311 147 304 96 48 19 
308 148 304 101 49 19 
308 148 305 98 51 21 
308 149 305 99 50 23 
309 148 304 100 49 19 
309 148 305 99 49 22 
309 149 305 97 51 26 
308 150 305 99 51 22 
308 151 305 97 53 25 
309 150 305 93 55 29 
309 151 305 92 58 30 
310 148 304 97 48 21 
310 148 305 100 50 20 
310 149 305 95 48 23 
311 148 304 92 49 25 
311 148 305 93 49 23 
311 149 304 88 54 32 
311 149 305 90 51 27 
310 150 305 90 53 28 
310 151 305 91 55 29 
311 150 304 87 57 35 
311 150 305 89 56 32 
311 151 304 89 58 36 
311 151 305 90 56 31 
306 152 304 104 60 43 
306 153 304 99 67 59 
307 152 304 104 57 31 
307 152 305 103 56 27 
307 153 304 102 62 47 
307 153 305 100 61 43 
306 154 304 96 73 69 
306 155 304 97 75 70 
307 154 304 94 71 64 
307 154 305 98 70 58 
307 155 305 99 73 65 
305 158 304 66 62 73 
305 159 304 67 64 75 
306 156 304 83 74 77 
306 157 304 68 63 72 
306 157 305 68 60 67 
307 156 305 88 69 66 
307 157 305 75 62 63 
306 158 304 64 59 71 
306 158 305 64 60 69 
306 159 305 69 62 69 
307 158 305 66 57 62 
307 158 306 71 58 62 
307 159 306 69 60 65 
307 159 307 68 57 61 
308 152 305 96 55 28 
308 153 305 95 58 39 
309 152 305 93 56 29 
309 153 305 90 58 42 
308 154 305 92 64 52 
308 155 305 93 66 59 
309 154 305 85 60 50 
309 155 305 86 60 54 
310 152 305 92 57 32 
310 153 305 88 60 43 
311 152 304 86 54 33 
311 152 305 90 55 31 
311 153 304 81 54 38 
311 153 305 89 57 37 
310 154 304 79 56 45 
310 154 305 81 58 51 
310 155 304 75 53 51 
310 155 305 77 53 50 
311 154 304 78 56 42 
311 155 304 74 51 46 
308 156 305 85 63 57 
308 157 305 74 57 55 
309 156 305 81 58 54 
309 157 305 71 54 54 
308 158 305 65 52 55 
309 158 305 64 51 53 
309 159 305 61 50 53 
308 158 306 71 60 64 
308 159 306 68 57 60 
309 159 306 65 55 57 
310 156 304 73 52 50 
310 156 305 74 53 51 
310 157 305 69 52 51 
311 156 304 70 50 49 
311 157 304 66 47 46 
311 157 305 65 48 48 
310 158 305 62 48 50 
310 159 305 55 46 50 
311 158 305 60 47 48 
311 159 305 53 45 48 
310 159 306 58 51 54 
312 147 304 91 46 19 
313 147 304 89 48 26 
314 144 304 92 41 18 
314 145 304 89 44 18 
315 144 304 92 42 16 
315 145 304 89 47 20 
314 146 304 86 47 25 
314 147 304 86 52 34 
315 146 304 85 50 28 
315 146 305 82 54 40 
315 147 304 84 54 39 
315 147 305 82 57 42 
312 148 304 88 50 27 
312 149 304 86 56 35 
313 148 304 84 53 34 
313 149 304 83 61 42 
312 150 304 86 59 38 
312 151 304 86 58 38 
313 150 304 84 62 44 
313 151 304 83 60 41 
314 148 304 84 57 40 
314 149 304 83 63 47 
315 148 304 83 58 42 
315 148 305 82 62 46 
315 149 304 83 62 46 
315 149 305 82 61 47 
314 150 304 84 62 45 
314 151 304 83 59 43 
315 150 304 83 60 45 
315 150 305 83 60 44 
315 151 304 83 58 42 
315 151 305 83 58 41 
316 144 304 92 45 26 
316 144 305 89 47 28 
316 145 305 86 52 30 
317 144 305 87 48 30 
317 145 305 85 54 37 
317 144 306 86 49 31 
317 145 306 82 57 43 
316 146 305 83 57 42 
316 147 305 84 61 46 
317 146 306 85 63 50 
317 147 306 82 66 52 
318 144 306 86 53 37 
318 144 307 86 50 34 
318 145 306 83 61 50 
318 145 307 85 64 54 
319 144 307 88 62 50 
319 145 307 86 71 63 
318 146 306 85 68 56 
318 146 307 86 70 59 
318 147 306 85 71 59 
318 147 307 86 67 56 
319 146 307 86 72 62 
319 145 308 89 76 67 
319 146 308 89 74 63 
319 147 308 89 64 53 
316 148 305 83 62 47 
316 149 305 84 61 48 
316 149 306 83 61 48 
317 148 306 83 62 49 
317 149 306 85 56 46 
316 150 305 84 57 45 
316 151 305 85 56 39 
317 150 305 85 52 40 
316 150 306 85 56 46 
317 150 306 86 53 43 
317 151 306 88 53 39 
318 148 307 85 57 47 
318 149 307 88 51 41 
319 148 307 88 50 43 
318 150 307 88 50 38 
318 151 307 89 51 39 
319 148 308 89 50 43 
319 149 308 91 47 41 
319 150 308 91 45 38 
319 150 309 92 44 40 
319 151 308 91 47 42 
319 151 309 94 48 44 
312 152 304 83 54 36 
312 153 304 80 52 38 
313 152 304 82 54 39 
313 153 304 81 53 40 
312 154 304 76 53 42 
312 155 304 75 54 43 
313 154 304 79 53 41 
313 155 304 77 53 43 
314 152 304 81 55 40 
314 153 304 82 54 41 
315 152 304 83 56 41 
315 152 305 84 55 38 
315 153 304 82 54 40 
315 153 305 83 53 38 
314 154 304 80 53 41 
314 155 304 79 53 43 
315 154 305 83 55 41 
315 155 304 79 53 42 
315 155 305 79 53 42 
312 156 304 72 54 47 
312 157 304 66 49 46 
312 157 305 66 47 45 
313 156 304 74 53 46 
313 157 304 69 51 47 
313 157 305 67 50 48 
312 158 305 64 48 46 
312 159 305 60 46 47 
313 158 304 66 50 48 
313 158 305 64 48 48 
313 159 305 62 47 48 
314 156 304 77 54 46 
314 156 305 78 54 45 
314 157 304 75 54 46 
314 157 305 71 51 47 
315 156 305 79 54 45 
315 157 305 77 55 46 
315 157 306 73 53 47 
314 158 305 66 48 47 
314 159 305 63 47 47 
314 159 306 63 48 49 
315 158 306 71 52 48 
315 159 306 67 49 45 
316 152 305 85 55 37 
316 153 305 84 54 38 
316 153 306 85 53 37 
317 152 306 88 54 38 
317 153 306 86 53 38 
316 154 305 84 54 41 
316 155 305 81 53 43 
316 154 306 85 54 41 
316 155 306 83 54 43 
317 154 306 85 54 41 
317 154 307 85 54 42 
317 155 306 85 53 43 
317 155 307 86 54 42 
318 152 307 89 50 38 
318 153 307 88 49 39 
318 154 307 87 54 43 
318 155 307 87 54 42 
318 152 308 90 47 37 
318 153 308 89 49 37 
319 152 308 92 47 41 
319 152 309 90 45 38 
319 153 308 89 47 37 
319 153 309 92 48 40 
318 154 308 88 51 39 
318 155 308 87 51 40 
319 154 308 89 48 37 
319 154 309 93 52 45 
319 155 309 91 50 42 
316 156 305 80 54 46 
316 156 306 81 54 47 
316 157 306 74 52 45 
316 157 307 77 53 46 
317 156 306 83 54 43 
317 156 307 84 56 45 
317 157 307 79 54 45 
316 158 306 73 53 47 
316 158 307 76 53 46 
316 159 307 75 54 47 
317 158 307 78 54 46 
318 156 307 86 55 43 
317 156 308 83 53 42 
317 157 308 79 52 41 
317 158 308 78 52 42 
317 159 308 78 54 47 
318 156 308 85 53 41 
318 156 309 84 51 39 
318 157 308 81 51 39 
318 157 309 83 50 41 
319 156 309 88 50 41 
319 157 309 86 49 41 
319 157 310 88 51 43 
318 158 308 80 53 42 
318 158 309 82 52 42 
318 159 309 80 54 44 
319 158 309 85 52 41 
319 159 309 85 56 45 
318 159 310 85 57 44 
319 158 310 90 55 44 
319 159 310 90 61 45 
305 160 304 63 59 70 
305 161 304 66 61 73 
305 162 304 66 62 74 
305 163 304 64 66 78 
307 160 307 66 57 63 
307 161 307 62 58 64 
305 164 304 57 65 78 
305 165 304 50 61 75 
306 164 305 53 66 80 
306 165 305 53 67 80 
308 160 307 64 56 60 
308 161 307 63 56 61 
309 160 306 63 55 56 
309 160 307 59 54 58 
309 161 307 59 54 59 
309 162 307 53 52 61 
311 160 305 53 46 52 
310 160 306 54 51 55 
310 161 306 53 50 55 
310 161 307 56 50 56 
311 160 306 47 47 53 
311 161 306 49 46 52 
310 162 307 52 49 57 
310 163 307 47 47 56 
311 162 306 51 47 54 
311 162 307 48 47 55 
311 163 307 48 47 55 
308 162 308 55 55 64 
308 163 308 59 62 72 
309 162 308 54 54 64 
309 163 308 55 57 68 
310 163 308 51 51 62 
311 164 307 47 50 57 
309 164 308 53 56 66 
309 164 309 55 61 72 
309 165 309 54 60 69 
309 166 309 56 63 73 
309 167 309 56 62 71 
310 164 308 49 54 64 
310 165 308 50 56 64 
310 165 309 50 57 64 
311 164 308 50 55 64 
311 165 308 56 58 66 
310 166 308 52 59 66 
310 166 309 54 62 71 
310 167 309 55 61 70 
311 166 308 59 60 67 
311 166 309 58 62 71 
311 167 309 59 61 69 
309 168 309 56 62 73 
309 169 309 58 60 72 
309 170 309 59 60 70 
310 168 309 57 62 70 
310 169 309 55 59 68 
311 168 309 59 62 68 
311 169 309 57 59 67 
311 170 309 59 59 66 
310 170 310 58 59 70 
310 171 310 62 60 71 
311 170 310 60 58 67 
311 171 310 65 59 66 
311 172 310 68 58 63 
311 172 311 71 57 61 
311 173 311 73 59 60 
311 173 312 78 62 59 
312 160 305 59 47 50 
312 161 305 57 46 50 
313 160 305 60 48 50 
313 161 305 58 47 49 
312 161 306 58 47 51 
313 161 306 58 47 49 
312 162 306 55 46 51 
312 163 306 51 43 50 
312 163 307 56 49 52 
313 162 306 56 47 48 
313 163 307 58 47 48 
314 160 305 61 48 49 
314 160 306 63 50 50 
314 161 306 59 48 48 
315 160 306 68 52 48 
315 161 306 64 49 45 
315 161 307 66 49 44 
314 162 306 59 48 48 
314 162 307 58 48 47 
314 163 307 59 48 46 
315 162 307 65 49 45 
315 163 307 66 51 45 
312 164 307 56 52 55 
312 165 307 60 53 56 
313 164 307 59 49 49 
313 165 307 59 51 53 
314 164 307 61 50 47 
314 165 307 63 51 49 
315 164 307 66 53 46 
312 165 308 55 53 59 
313 165 308 60 52 55 
312 166 308 58 53 59 
312 167 308 58 51 58 
312 167 309 62 59 64 
313 166 308 62 53 54 
313 167 308 62 51 56 
314 165 308 63 52 50 
315 164 308 68 54 47 
315 165 308 67 54 47 
314 166 308 65 54 52 
314 167 308 65 54 50 
314 167 309 65 54 51 
315 166 309 68 57 51 
315 167 309 68 56 49 
316 160 307 73 53 46 
316 161 307 72 54 47 
316 162 307 70 52 45 
316 161 308 74 57 50 
317 160 308 76 55 48 
317 160 309 79 59 52 
317 161 308 74 56 50 
317 161 309 75 58 50 
316 162 308 72 56 49 
316 163 308 71 56 48 
317 162 308 73 56 50 
317 162 309 75 60 52 
317 163 309 76 61 53 
317 163 310 77 63 56 
318 160 309 80 57 47 
318 161 309 79 62 53 
318 160 310 84 60 46 
318 161 310 82 64 52 
319 160 310 88 64 49 
319 160 311 89 66 49 
319 161 310 86 68 54 
319 161 311 87 69 56 
318 162 310 80 66 56 
318 163 310 79 66 58 
319 162 311 85 70 59 
319 163 311 84 71 62 
316 164 308 72 58 49 
316 165 308 69 55 45 
316 165 309 71 58 49 
317 164 309 76 63 55 
317 165 309 72 62 55 
317 164 310 76 65 58 
317 165 310 75 65 59 
316 166 309 71 59 52 
316 167 309 70 58 52 
316 167 310 71 59 54 
317 166 310 74 66 60 
317 167 310 72 62 58 
318 164 310 79 68 62 
318 164 311 82 72 67 
318 165 310 78 69 64 
318 165 311 80 72 68 
319 164 311 85 74 69 
319 165 311 81 73 70 
318 166 310 75 68 63 
318 166 311 76 70 68 
318 167 311 72 66 63 
319 166 311 77 73 72 
319 167 311 79 74 73 
319 163 312 89 74 65 
319 164 312 86 74 69 
319 165 312 84 77 74 
319 166 312 81 77 76 
319 167 312 80 77 77 
312 168 309 61 58 63 
312 169 309 58 56 60 
313 168 309 63 55 56 
313 169 309 61 53 54 
312 170 309 59 55 59 
313 170 309 60 54 55 
312 171 310 64 57 62 
313 171 310 63 56 58 
314 168 309 67 56 53 
314 169 309 64 54 49 
315 168 309 69 58 53 
315 169 309 67 56 53 
315 169 310 68 55 52 
314 170 309 63 54 53 
314 171 309 64 56 55 
314 170 310 67 55 51 
314 171 310 65 57 55 
315 170 310 68 55 52 
315 171 310 67 55 52 
312 172 310 67 56 59 
312 172 311 69 56 58 
312 173 310 71 57 58 
312 173 311 73 59 59 
313 172 310 62 55 57 
313 173 310 64 55 56 
314 172 310 63 55 54 
314 173 310 64 57 56 
315 172 310 65 55 52 
315 173 310 66 55 54 
315 173 311 67 57 55 
316 168 310 71 59 54 
316 169 310 67 54 50 
317 168 310 71 59 54 
317 168 311 70 61 56 
317 169 310 68 56 51 
317 169 311 70 59 54 
316 170 310 69 55 51 
316 171 310 69 54 50 
317 170 310 69 54 50 
317 170 311 70 57 52 
317 171 311 71 54 51 
318 168 311 70 64 61 
318 169 311 71 63 59 
318 170 311 72 61 57 
316 172 310 67 53 48 
316 172 311 68 53 50 
316 173 311 67 53 51 
317 172 311 69 52 50 
318 169 312 71 63 59 
319 168 312 75 71 71 
319 168 313 78 76 78 
319 169 312 73 68 67 
319 169 313 76 73 74 
318 170 312 71 61 55 
318 171 312 72 57 53 
319 170 312 73 65 61 
319 170 313 76 69 68 
319 171 313 72 65 63 
317 172 312 69 50 49 
317 173 312 67 51 49 
318 172 312 71 54 54 
318 172 313 72 58 58 
318 173 312 69 51 50 
318 173 313 69 52 53 
319 172 313 73 62 61 
319 173 313 72 56 57 
319 173 314 71 61 63 
320 128 304 102 87 75 
320 129 304 98 80 63 
321 128 304 102 87 76 
321 129 304 105 85 66 
320 130 304 98 69 41 
320 131 304 104 64 11 
321 130 304 108 77 41 
321 131 304 110 67 9 
321 131 305 119 67 8 
322 128 304 108 92 80 
322 129 304 115 93 69 
323 128 304 117 99 84 
323 129 304 119 93 66 
322 130 304 117 78 29 
322 131 305 125 65 5 
323 130 304 124 76 17 
323 131 305 129 63 5 
320 132 304 112 58 11 
320 132 305 118 57 14 
320 133 304 114 54 9 
320 133 305 117 55 7 
321 132 305 122 59 12 
321 133 305 123 57 4 
321 133 306 126 59 4 
320 134 305 114 50 2 
320 135 305 111 47 7 
321 134 305 118 52 0 
320 135 306 114 49 7 
321 134 306 122 53 3 
321 135 306 121 55 4 
322 132 305 129 61 6 
322 133 305 130 65 6 
323 132 305 131 65 6 
323 133 305 132 68 6 
322 133 306 129 62 5 
323 133 306 131 65 6 
322 134 306 129 59 5 
322 135 306 130 60 5 
323 134 306 132 61 5 
323 135 306 135 64 6 
324 129 304 123 90 55 
324 130 304 127 75 19 
324 131 304 131 66 6 
324 131 305 132 64 6 
324 132 305 133 66 6 
324 133 305 133 69 6 
324 133 306 133 68 6 
324 134 306 134 65 6 
324 135 306 136 65 6 
325 134 306 135 68 6 
325 135 306 136 67 6 
320 136 305 110 49 8 
320 136 306 112 52 5 
320 137 306 108 51 6 
321 136 306 121 57 5 
321 137 306 118 56 4 
321 137 307 124 57 4 
320 138 306 108 50 7 
320 139 306 106 48 12 
320 139 307 108 49 14 
321 138 306 117 55 8 
321 138 307 121 56 8 
321 139 307 119 57 13 
322 136 306 129 61 6 
322 136 307 131 62 5 
322 137 307 130 60 5 
323 136 307 135 63 6 
323 137 307 134 63 7 
322 138 307 130 62 10 
322 139 307 127 64 17 
323 138 307 135 64 11 
322 139 308 131 64 17 
323 139 308 133 66 21 
320 140 306 102 44 16 
320 140 307 109 52 19 
320 141 307 101 52 28 
321 140 307 113 60 29 
321 141 307 111 62 36 
320 142 307 97 56 35 
320 143 307 94 61 42 
322 140 307 123 65 32 
321 140 308 123 65 32 
321 141 308 117 67 37 
320 143 308 99 69 53 
321 142 308 106 69 48 
321 143 308 102 78 62 
322 140 308 127 66 32 
322 141 308 123 71 40 
323 140 308 133 70 36 
323 141 308 128 74 43 
322 142 308 112 78 57 
322 142 309 115 83 62 
322 143 308 103 85 71 
322 143 309 104 91 81 
323 142 309 115 85 65 
323 143 309 105 98 93 
324 136 306 134 65 6 
324 136 307 134 65 6 
324 137 307 135 66 7 
325 136 306 137 67 6 
325 136 307 136 67 7 
325 137 306 138 70 9 
325 137 307 137 69 9 
324 138 307 136 65 9 
325 138 307 138 68 8 
325 139 307 139 70 16 
324 139 308 137 66 14 
325 139 308 138 67 13 
325 140 307 137 74 28 
324 140 308 133 71 36 
324 141 308 128 78 48 
325 140 308 134 74 40 
325 141 308 126 84 59 
324 142 309 113 92 78 
324 143 309 106 105 106 
325 142 308 112 100 90 
325 142 309 109 104 100 
325 143 308 108 111 116 
325 143 309 108 109 112 
326 141 308 115 94 75 
326 142 308 109 107 105 
326 143 308 113 119 126 
320 144 308 92 71 61 
320 145 308 91 81 76 
321 144 308 96 86 79 
321 145 308 95 88 84 
321 145 309 100 91 85 
320 146 308 96 83 74 
320 146 309 98 81 72 
320 147 308 93 66 58 
320 147 309 96 64 59 
321 146 309 103 82 74 
321 147 309 102 61 62 
322 144 309 101 98 96 
322 145 309 107 98 95 
323 144 309 106 105 108 
323 145 309 113 101 99 
322 146 309 108 81 75 
322 147 309 106 57 62 
322 146 310 109 73 69 
322 147 310 111 53 64 
323 146 310 112 72 72 
323 147 310 114 47 64 
320 148 308 93 47 44 
320 148 309 95 46 45 
320 149 309 96 46 42 
321 148 309 100 46 53 
321 149 309 101 45 49 
321 148 310 103 44 55 
321 149 310 105 46 54 
320 150 309 98 45 47 
320 151 309 98 49 51 
321 150 309 104 47 52 
321 150 310 106 49 57 
321 151 310 109 53 62 
322 148 310 109 47 61 
322 149 310 111 50 61 
323 148 310 116 47 67 
323 149 310 118 51 66 
323 149 311 118 52 64 
322 150 310 111 53 62 
322 150 311 115 51 63 
322 151 310 110 53 61 
322 151 311 113 49 61 
323 150 311 117 50 63 
323 151 311 116 47 60 
324 144 309 110 107 111 
324 145 309 116 98 96 
325 144 309 113 111 115 
325 145 309 117 92 92 
325 146 309 118 53 67 
324 146 310 115 61 68 
324 147 310 119 46 67 
325 146 310 117 48 64 
325 147 310 121 48 68 
326 144 308 118 114 118 
326 144 309 117 114 115 
326 145 308 118 84 87 
326 145 309 117 83 86 
326 146 309 120 46 66 
326 147 309 123 50 69 
326 147 310 121 50 67 
324 148 310 120 48 71 
324 149 310 120 50 68 
324 149 311 122 54 70 
325 148 310 123 55 72 
325 149 310 124 55 72 
325 149 311 124 56 71 
324 150 311 121 52 67 
324 151 311 120 48 65 
325 150 311 124 56 71 
325 151 311 123 53 70 
326 148 309 122 56 71 
326 148 310 124 58 71 
326 149 310 126 62 72 
326 149 311 124 56 69 
327 149 310 128 66 76 
326 150 310 127 64 72 
326 150 311 125 58 70 
326 151 311 126 60 71 
327 150 310 129 70 73 
327 151 310 130 67 74 
320 152 309 96 48 45 
320 153 309 96 51 42 
320 152 310 99 50 49 
320 153 310 98 53 46 
321 152 310 105 51 56 
321 153 310 102 54 52 
321 153 311 107 55 55 
320 154 309 96 55 51 
320 154 310 101 59 53 
320 155 310 97 54 48 
321 154 311 106 61 56 
321 155 311 103 58 49 
322 152 311 111 51 59 
322 153 311 115 63 63 
323 152 311 116 51 62 
322 154 311 114 67 60 
322 155 311 109 67 55 
320 156 310 94 55 47 
320 156 311 98 60 48 
320 157 310 96 60 48 
320 157 311 100 67 50 
321 156 311 103 68 52 
321 157 311 104 73 51 
320 158 311 102 70 54 
320 159 311 102 73 55 
321 158 311 105 75 56 
324 152 311 119 51 65 
325 152 311 122 55 69 
326 152 311 124 59 68 
326 153 311 128 72 72 
327 152 310 131 68 73 
327 152 311 130 66 72 
327 153 311 133 79 76 
327 154 311 136 92 76 
327 155 311 133 88 70 
327 156 311 134 86 65 
323 152 312 118 53 64 
323 153 312 121 64 69 
322 154 312 117 69 59 
322 155 312 118 78 63 
323 154 312 120 67 62 
323 155 312 124 82 64 
321 157 312 113 83 59 
320 159 312 105 78 57 
321 158 312 113 83 60 
321 159 312 112 84 60 
321 159 313 116 87 61 
322 156 312 119 87 67 
322 157 312 121 91 66 
323 156 312 128 94 72 
323 156 313 131 97 73 
323 157 313 127 95 71 
322 158 312 122 92 68 
322 158 313 124 94 69 
322 159 313 124 94 65 
323 158 313 128 97 71 
323 159 313 128 98 67 
324 153 312 124 62 71 
325 152 312 123 56 70 
325 153 312 126 65 72 
324 154 312 125 69 67 
324 155 312 132 89 73 
325 154 312 131 78 73 
325 155 312 134 92 74 
326 153 312 129 74 74 
326 154 312 132 84 71 
326 155 312 132 87 69 
327 155 312 132 86 67 
324 156 313 134 99 76 
324 157 313 133 100 72 
325 156 313 136 100 76 
325 157 313 135 100 71 
324 158 313 132 101 72 
324 159 313 133 103 71 
325 158 313 137 102 72 
325 159 313 137 106 75 
324 159 314 134 104 73 
325 159 314 138 107 75 
326 156 312 132 90 71 
326 156 313 133 94 72 
326 157 312 134 93 71 
326 157 313 134 96 71 
327 156 312 134 87 70 
327 157 312 134 90 70 
327 157 313 136 97 73 
326 158 313 136 100 71 
326 159 313 139 108 75 
327 158 312 134 94 68 
327 158 313 135 99 70 
327 159 313 138 106 76 
328 157 312 135 89 72 
328 158 312 136 91 72 
328 159 312 136 93 73 
328 159 313 135 95 71 
320 160 311 97 73 54 
320 161 311 95 76 60 
320 162 311 89 74 61 
320 160 312 104 80 59 
320 161 312 106 85 65 
321 160 312 112 86 62 
321 160 313 118 91 65 
321 161 313 116 92 68 
320 162 312 101 83 66 
320 163 312 96 80 69 
321 162 313 114 93 71 
321 163 313 110 90 71 
322 160 313 123 94 65 
322 161 313 124 98 72 
322 161 314 125 98 72 
323 160 314 128 98 68 
323 161 314 128 100 72 
322 162 313 121 96 73 
322 163 313 117 94 73 
322 162 314 124 98 73 
322 163 314 121 96 73 
323 162 314 126 99 72 
323 163 314 125 98 73 
320 164 312 91 79 72 
320 165 312 86 79 75 
320 165 313 86 79 75 
321 164 313 103 87 74 
321 165 313 97 87 81 
320 166 312 82 79 77 
320 166 313 84 80 79 
320 167 313 83 80 81 
321 166 313 91 85 82 
321 167 313 87 85 86 
321 167 314 89 87 89 
322 164 313 111 91 75 
322 164 314 117 95 75 
322 165 314 109 94 81 
323 164 314 122 97 75 
323 164 315 126 101 76 
323 165 314 116 99 84 
323 165 315 122 102 84 
322 166 314 101 91 84 
322 167 314 95 91 91 
323 166 314 108 96 88 
323 166 315 115 100 90 
323 167 314 102 95 91 
323 167 315 105 98 97 
324 160 314 132 103 72 
324 161 314 133 105 76 
325 160 314 137 107 77 
325 161 314 137 109 81 
324 162 314 133 105 77 
324 163 314 131 104 77 
324 163 315 133 106 79 
325 162 314 138 111 82 
325 162 315 137 110 82 
325 163 315 138 109 83 
326 160 313 139 108 75 
327 160 313 139 106 75 
327 161 313 139 104 73 
326 160 314 139 105 73 
326 161 314 139 108 80 
327 161 314 140 109 79 
326 162 314 141 113 86 
326 163 314 140 112 83 
326 163 315 140 110 84 
327 162 314 139 111 82 
327 163 314 137 109 79 
324 164 315 130 105 81 
324 165 315 127 106 87 
325 164 315 135 109 86 
325 165 315 130 109 93 
324 166 315 120 105 93 
324 167 315 111 103 98 
325 166 315 121 106 97 
325 167 315 115 104 100 
326 164 315 137 110 87 
326 165 315 130 109 94 
327 164 314 133 105 79 
327 164 315 134 108 85 
327 165 314 126 105 86 
327 165 315 126 107 93 
326 166 315 119 104 96 
326 167 315 115 105 103 
327 166 315 115 103 96 
327 167 315 110 105 107 
324 167 316 111 104 101 
325 167 316 115 105 104 
326 167 316 114 106 107 
320 168 313 79 79 81 
320 169 313 78 77 80 
321 168 313 84 84 88 
320 169 314 79 80 85 
321 168 314 84 87 92 
321 169 314 81 85 92 
320 170 313 78 75 78 
320 170 314 77 77 82 
320 171 314 74 73 76 
321 170 314 78 84 92 
321 170 315 77 85 95 
321 171 314 79 85 94 
321 171 315 79 88 98 
322 168 314 89 90 96 
322 168 315 90 93 100 
322 169 314 81 88 98 
322 169 315 84 93 104 
323 168 315 94 96 103 
323 169 315 85 96 109 
322 170 315 80 93 107 
322 171 315 76 90 105 
323 170 315 79 96 112 
323 171 315 74 93 111 
323 169 316 82 96 111 
323 170 316 77 96 115 
323 171 316 73 95 116 
320 172 314 74 71 75 
320 173 314 73 67 71 
320 173 315 74 73 80 
321 172 315 76 84 95 
321 173 315 72 80 91 
322 172 315 74 90 106 
322 173 315 73 89 103 
322 172 316 71 90 108 
322 173 316 73 92 110 
323 172 316 71 94 115 
323 173 316 72 96 118 
327 168 315 108 107 111 
324 168 316 102 102 106 
324 169 316 92 102 114 
325 168 316 106 103 106 
325 169 316 98 105 115 
324 170 316 83 101 119 
324 171 316 77 100 122 
325 170 316 90 106 123 
325 171 316 84 106 127 
326 168 316 108 105 111 
326 169 316 104 108 117 
327 168 316 109 107 112 
327 169 316 106 108 114 
326 170 316 99 109 122 
326 171 316 91 110 128 
327 170 316 101 108 118 
327 171 316 95 108 123 
324 172 316 75 100 123 
324 173 316 74 101 124 
324 173 317 77 104 128 
325 172 316 81 108 131 
325 173 316 79 107 132 
325 173 317 81 109 134 
326 172 316 85 110 133 
326 173 316 83 111 135 
326 173 317 84 112 137 
327 172 316 93 112 130 
327 173 316 89 112 133 
327 173 317 85 111 135 
328 160 312 135 91 71 
328 160 313 137 98 73 
328 161 313 139 103 78 
328 162 313 139 109 81 
328 163 313 133 103 78 
328 163 314 135 105 79 
328 164 313 127 101 83 
328 164 314 126 103 85 
328 165 314 117 103 91 
328 166 314 109 102 101 
328 166 315 114 105 100 
328 167 314 108 106 110 
328 167 315 108 107 110 
329 166 314 111 107 107 
329 167 314 109 109 114 
328 168 315 110 109 114 
328 169 315 107 108 115 
329 168 314 105 107 113 
329 168 315 111 111 116 
329 169 314 102 105 113 
329 169 315 110 110 116 
328 170 315 103 107 116 
328 171 315 103 110 120 
329 170 314 103 107 115 
329 171 314 108 112 120 
328 171 316 100 109 121 
328 172 315 102 111 124 
329 172 314 106 110 119 
329 172 315 106 112 122 
329 173 314 101 107 116 
329 173 315 106 114 126 
328 172 316 98 111 125 
328 173 316 97 113 129 
