ply
format ascii 1.0
comment Created by CloudCompare v2.10.1 (Zephyrus)
comment Created 1/31/20 6:08 PM
obj_info Generated by CloudCompare!
element vertex 1844
property float x
property float y
property float z
property uchar red
property uchar green
property uchar blue
end_header
205 827 229 189 137 99 
206 827 229 190 138 100 
207 827 229 193 141 103 
205 828 229 191 138 102 
205 829 229 191 138 102 
205 830 229 189 137 99 
205 831 230 188 136 98 
206 828 229 194 141 104 
206 829 229 194 141 104 
207 828 229 197 143 105 
207 829 229 199 144 107 
206 830 229 193 140 102 
206 831 229 194 139 101 
207 830 229 198 142 105 
207 831 229 197 141 103 
206 831 230 192 138 100 
207 831 230 196 139 100 
208 827 229 195 142 105 
209 827 229 197 143 105 
210 827 229 200 145 107 
211 827 229 201 143 105 
208 828 229 199 144 107 
208 829 229 203 147 111 
209 828 229 200 144 106 
209 829 229 204 147 109 
208 830 229 203 145 109 
208 831 229 202 143 106 
209 830 229 205 146 110 
209 831 229 206 145 109 
208 831 230 201 141 104 
209 831 230 206 145 108 
210 828 229 203 145 107 
210 829 229 205 145 107 
211 828 229 205 144 108 
211 829 229 208 147 110 
210 830 229 206 145 107 
210 831 229 206 145 108 
211 830 229 208 146 108 
210 831 230 207 146 107 
211 831 230 209 147 109 
212 827 229 203 142 105 
213 827 229 206 145 109 
214 827 229 208 147 110 
215 827 229 210 149 111 
212 828 229 206 144 108 
212 829 229 209 146 110 
213 828 229 208 145 110 
213 829 229 209 145 110 
213 829 230 209 144 109 
212 830 229 209 146 110 
212 830 230 210 146 110 
212 831 230 210 148 111 
213 830 230 209 144 109 
213 831 230 211 146 111 
214 828 229 209 147 111 
214 829 229 209 145 110 
214 828 230 210 147 111 
214 829 230 211 146 112 
215 828 230 212 150 113 
215 829 230 213 149 115 
214 830 230 211 145 111 
214 831 230 212 145 111 
215 830 230 212 145 111 
215 831 230 212 143 109 
216 827 229 212 148 110 
216 827 230 212 149 110 
217 827 230 214 149 113 
218 827 230 215 151 116 
219 827 230 217 153 118 
216 828 230 213 150 113 
216 829 230 213 149 113 
217 828 230 214 150 114 
217 829 230 215 150 115 
216 830 230 212 145 110 
216 831 230 213 144 110 
217 830 230 215 149 115 
217 831 230 215 149 115 
218 828 230 216 150 116 
218 829 230 215 150 116 
219 828 230 216 151 117 
219 829 230 216 151 117 
218 830 230 216 151 117 
218 831 230 217 152 117 
219 830 230 218 153 120 
219 831 230 218 154 120 
220 827 230 218 156 120 
221 827 230 219 157 120 
222 827 230 221 161 124 
223 827 230 222 163 126 
220 828 230 218 153 118 
220 829 230 217 152 117 
221 828 230 219 155 121 
221 829 230 219 155 121 
220 830 230 218 154 120 
220 831 230 219 154 120 
220 831 231 219 155 120 
221 830 230 219 155 121 
221 830 231 220 156 121 
221 831 231 221 156 121 
222 828 230 221 159 124 
222 829 230 221 158 124 
223 828 230 223 160 127 
223 829 230 223 156 123 
223 829 231 222 153 120 
222 830 230 221 158 123 
222 830 231 221 155 120 
222 831 231 222 156 121 
223 830 231 220 150 117 
223 831 231 222 154 120 
224 827 230 223 161 125 
225 827 230 223 160 124 
226 827 230 225 162 125 
227 827 230 226 163 126 
224 828 230 223 158 125 
224 829 230 223 155 121 
224 829 231 221 152 117 
225 828 230 224 160 125 
225 829 230 224 158 124 
225 829 231 224 157 121 
224 830 231 221 151 116 
224 831 231 224 156 121 
225 830 231 224 157 121 
225 831 231 225 160 124 
226 828 230 225 162 127 
226 829 230 226 161 126 
226 829 231 226 162 127 
227 828 230 226 164 128 
227 828 231 226 162 127 
227 829 231 226 162 126 
226 830 231 226 161 125 
226 831 231 226 161 124 
227 830 231 226 161 124 
228 827 230 227 164 128 
229 827 230 227 163 127 
230 827 230 227 162 128 
231 827 230 227 163 128 
231 827 231 227 163 129 
228 828 230 227 163 127 
228 828 231 226 162 125 
228 829 231 226 161 125 
229 828 230 226 160 124 
229 828 231 225 158 121 
229 829 231 226 161 124 
228 830 231 227 161 125 
229 830 231 227 163 126 
230 828 230 226 159 123 
230 828 231 226 160 124 
230 829 231 227 162 126 
231 828 231 228 163 129 
231 829 231 229 165 130 
226 831 232 227 163 125 
227 831 232 227 162 124 
228 831 232 228 164 127 
229 830 232 228 164 127 
229 831 232 229 166 129 
231 829 232 230 165 130 
230 830 232 229 165 129 
230 831 232 230 167 130 
230 831 233 231 169 131 
231 830 232 230 166 130 
231 831 232 230 168 130 
231 831 233 231 169 131 
232 827 230 227 164 129 
232 827 231 228 164 130 
233 827 231 229 165 131 
234 827 231 230 166 131 
235 827 231 231 167 131 
232 828 231 229 165 131 
232 829 231 231 167 132 
233 828 231 230 166 131 
234 828 231 232 168 132 
235 828 231 233 169 133 
236 827 231 232 167 130 
237 827 231 232 168 130 
232 829 232 231 167 131 
233 829 232 232 168 132 
232 830 232 231 168 131 
232 831 233 231 169 132 
233 830 232 232 169 133 
233 830 233 234 170 134 
233 831 233 234 170 134 
233 831 234 231 169 133 
234 828 232 233 170 134 
234 829 232 234 170 134 
235 828 232 233 170 133 
235 829 232 234 171 134 
234 830 232 235 172 135 
234 830 233 235 172 136 
234 831 233 235 172 136 
235 830 232 235 172 136 
235 830 233 236 172 136 
235 831 233 237 173 138 
234 831 234 234 171 135 
235 831 234 237 173 137 
236 827 232 233 169 131 
237 827 232 233 169 131 
238 827 232 233 169 131 
239 827 232 235 169 132 
236 828 232 234 169 132 
236 829 232 235 169 133 
237 828 232 234 169 133 
237 829 232 236 169 135 
236 830 233 236 170 134 
236 831 233 237 170 136 
237 830 233 237 169 137 
237 831 233 238 170 138 
236 831 234 237 171 136 
237 831 234 238 170 137 
238 828 232 235 170 134 
238 829 232 235 167 133 
239 828 232 236 170 134 
239 829 232 236 168 133 
238 830 233 236 165 132 
239 830 233 237 166 132 
238 831 234 240 171 139 
238 831 235 240 173 141 
239 831 234 240 172 138 
239 831 235 243 176 143 
240 827 232 235 169 134 
240 828 232 236 170 135 
240 829 232 238 171 136 
240 830 233 239 173 138 
240 831 234 241 175 139 
240 831 235 243 178 142 
205 832 230 186 132 93 
205 833 230 191 135 99 
205 834 230 195 136 99 
205 835 230 198 137 99 
206 832 230 192 135 98 
206 833 230 197 137 103 
207 832 230 197 138 100 
207 833 230 201 139 103 
206 834 230 199 137 101 
206 835 230 201 138 102 
207 834 230 203 140 105 
207 835 230 205 141 104 
205 836 231 205 143 106 
205 837 231 212 151 113 
205 838 231 217 157 119 
206 836 230 205 142 106 
206 836 231 209 147 110 
206 837 231 213 150 113 
207 836 230 207 144 107 
207 836 231 210 146 109 
207 837 231 214 150 113 
206 838 231 217 156 118 
207 838 231 218 156 119 
205 839 232 221 162 124 
206 839 232 221 160 123 
207 839 232 221 160 124 
205 840 232 225 166 127 
205 841 232 227 167 128 
205 841 233 228 167 129 
205 842 233 228 165 127 
205 843 233 228 164 128 
206 840 232 225 165 126 
206 841 232 227 167 128 
206 841 233 228 167 128 
207 840 232 224 163 126 
207 841 232 227 165 127 
207 841 233 229 167 129 
206 842 233 228 166 128 
206 843 233 228 165 129 
207 842 233 229 167 131 
207 843 233 229 167 130 
205 844 233 226 162 127 
205 844 234 225 161 126 
205 845 234 222 155 120 
205 846 234 217 150 115 
205 847 235 216 150 115 
206 844 233 228 164 128 
207 844 233 228 166 129 
206 844 234 227 163 127 
206 845 234 224 159 122 
207 844 234 228 165 129 
207 845 234 225 161 123 
206 846 234 220 154 118 
206 847 235 218 152 117 
207 846 234 221 156 119 
207 847 235 219 152 117 
205 848 235 215 152 115 
205 849 235 214 153 117 
206 848 235 216 152 117 
206 849 235 213 150 115 
207 848 235 217 152 118 
207 849 235 213 149 114 
205 850 236 212 149 112 
205 851 236 204 139 101 
207 849 236 209 146 109 
206 850 236 207 145 106 
206 851 236 203 139 98 
207 850 236 206 145 105 
207 851 236 203 141 100 
205 852 236 200 134 94 
205 853 236 199 134 92 
205 854 236 207 144 99 
205 855 236 206 140 80 
206 852 236 199 134 92 
206 853 236 199 136 97 
207 852 236 198 135 94 
207 853 236 198 136 97 
206 854 236 210 148 105 
206 855 236 211 145 89 
207 854 236 208 146 103 
207 855 236 208 142 91 
206 858 235 203 136 80 
205 856 236 202 137 78 
205 857 236 202 135 80 
205 858 236 203 135 77 
205 859 236 209 143 90 
206 856 236 203 136 79 
206 857 236 201 135 78 
207 856 236 201 133 78 
207 857 236 200 133 77 
206 858 236 202 135 79 
206 859 236 202 137 85 
206 859 237 196 135 86 
207 858 236 199 133 78 
207 858 237 192 129 78 
207 859 236 194 131 79 
207 859 237 189 130 81 
207 859 238 175 122 79 
208 832 230 200 139 102 
208 833 230 204 141 104 
209 832 230 204 142 105 
209 833 230 206 143 106 
208 834 230 206 143 107 
208 835 230 208 144 108 
209 834 230 207 145 108 
209 835 230 210 147 110 
210 832 230 207 145 107 
210 833 230 207 145 107 
211 832 230 210 149 111 
211 833 230 211 149 111 
210 834 230 210 148 109 
210 835 230 211 148 112 
211 834 230 212 149 111 
211 835 230 212 148 111 
211 835 231 213 149 112 
208 836 231 211 148 111 
208 837 231 214 151 113 
209 836 231 213 150 115 
209 837 231 216 153 116 
208 838 231 218 155 118 
209 838 231 218 156 119 
210 836 231 214 151 116 
210 837 231 217 154 119 
211 836 231 214 150 115 
211 837 231 217 153 119 
210 838 231 220 159 124 
212 832 230 211 149 112 
212 833 230 212 149 111 
213 832 230 211 147 111 
213 833 230 213 148 112 
212 834 230 213 149 112 
212 835 230 213 148 112 
212 835 231 214 150 115 
213 834 230 214 149 113 
213 834 231 214 151 114 
213 835 231 216 151 116 
214 832 230 213 146 112 
214 833 230 215 149 114 
215 832 230 214 146 112 
215 833 230 216 149 114 
215 833 231 217 150 116 
214 834 231 216 152 117 
214 835 231 217 153 117 
215 834 231 217 152 117 
215 835 231 219 155 118 
212 836 231 216 151 117 
212 837 231 218 153 120 
213 836 231 218 153 118 
213 837 231 219 153 120 
214 836 231 218 154 118 
215 836 231 221 158 121 
208 838 232 219 156 120 
208 839 232 222 161 125 
209 838 232 220 159 123 
209 839 232 223 162 126 
210 838 232 222 162 127 
210 839 232 224 164 127 
211 838 232 221 159 125 
211 839 232 224 162 127 
212 837 232 220 156 123 
213 837 232 220 155 121 
212 838 232 221 158 125 
212 839 232 224 162 128 
212 839 233 225 163 129 
213 838 232 222 158 125 
213 838 233 224 160 127 
213 839 233 226 162 129 
214 836 232 220 156 120 
214 837 232 220 157 121 
215 836 232 222 159 122 
215 837 232 222 160 123 
214 838 232 222 158 124 
214 838 233 224 161 126 
214 839 233 225 162 128 
215 838 233 223 161 126 
215 839 233 224 162 127 
214 839 234 225 162 128 
215 838 234 223 161 126 
215 839 234 223 161 126 
208 840 232 225 164 128 
208 841 232 227 166 128 
208 841 233 229 167 130 
209 840 232 225 165 128 
209 841 232 226 166 128 
209 841 233 228 166 128 
208 842 233 229 168 131 
208 843 233 229 167 131 
209 842 233 229 167 130 
209 843 233 229 167 130 
209 843 234 229 167 130 
210 840 232 225 164 127 
210 840 233 226 165 128 
210 841 233 228 166 130 
211 840 232 225 164 127 
211 840 233 226 165 130 
211 841 233 228 166 130 
210 842 233 228 167 132 
211 842 233 228 167 131 
210 842 234 229 166 131 
210 843 234 229 166 131 
211 842 234 229 167 131 
211 843 234 229 166 131 
211 843 235 229 165 129 
208 844 233 229 167 130 
208 844 234 228 165 129 
208 845 234 226 162 125 
209 844 234 229 165 129 
209 845 234 227 162 126 
208 846 234 223 156 121 
208 847 235 219 153 118 
209 846 234 224 158 124 
209 846 235 223 157 122 
209 847 235 220 154 119 
210 844 234 228 165 129 
210 845 234 228 162 127 
210 845 235 227 161 127 
211 844 234 229 164 129 
211 844 235 228 164 128 
211 845 235 228 162 127 
210 846 234 226 161 126 
210 846 235 225 158 124 
210 847 235 219 153 118 
211 846 235 224 157 122 
211 847 235 218 152 115 
212 840 233 227 165 130 
212 841 233 228 166 131 
213 840 233 226 164 130 
212 841 234 228 166 130 
213 840 234 227 164 129 
213 841 234 228 165 130 
212 842 234 229 167 131 
212 842 235 229 167 130 
212 843 235 229 166 129 
213 842 234 228 166 130 
213 842 235 228 165 129 
213 843 235 228 164 128 
214 840 234 225 163 128 
214 841 234 226 163 128 
214 841 235 226 163 128 
215 840 234 221 160 125 
215 840 235 218 158 123 
215 841 235 219 159 124 
214 842 235 225 163 128 
214 843 235 225 162 126 
215 842 235 219 158 124 
215 843 235 220 159 124 
215 843 236 218 157 123 
212 844 235 228 164 127 
212 845 235 227 162 125 
213 844 235 227 163 127 
213 845 235 226 162 126 
212 846 235 223 157 121 
212 847 235 218 151 113 
213 846 235 223 158 121 
213 847 235 218 152 113 
214 844 235 224 161 126 
214 845 235 223 159 124 
214 846 235 222 156 120 
214 847 235 218 152 115 
213 847 236 215 149 110 
215 844 236 219 157 122 
215 845 236 218 155 120 
214 846 236 220 155 119 
214 847 236 215 149 110 
215 846 236 213 150 113 
215 847 236 209 145 106 
216 832 230 216 148 114 
216 833 230 217 151 116 
217 832 230 217 151 116 
217 833 230 218 153 117 
217 833 231 219 153 119 
216 834 231 218 153 117 
216 835 231 219 155 119 
217 834 231 220 155 119 
217 835 231 220 156 119 
218 832 230 217 152 116 
218 832 231 218 153 117 
218 833 230 218 153 118 
218 833 231 219 153 119 
219 832 230 218 153 117 
219 832 231 219 153 117 
219 833 231 220 154 118 
218 834 231 220 155 120 
218 835 231 221 155 120 
219 834 231 220 155 120 
216 836 231 221 158 121 
220 832 231 219 154 118 
220 833 231 220 155 119 
221 832 231 221 157 120 
221 833 231 221 156 120 
220 834 231 220 155 119 
222 832 231 222 158 122 
223 832 231 224 158 125 
218 835 232 221 156 120 
219 835 232 219 155 120 
216 836 232 222 160 123 
216 837 232 223 161 124 
216 837 233 223 161 125 
217 836 232 222 158 122 
217 837 232 222 159 124 
217 837 233 221 159 124 
216 838 233 223 162 126 
217 838 233 221 160 125 
216 838 234 221 161 126 
216 839 234 218 159 124 
217 838 234 219 160 125 
217 839 234 211 155 121 
217 839 235 209 153 118 
218 836 232 221 156 121 
218 836 233 218 155 121 
218 837 232 220 158 122 
218 837 233 217 156 122 
219 836 232 218 156 121 
219 836 233 215 154 120 
219 837 233 213 154 121 
219 837 234 206 150 116 
218 838 234 213 155 121 
218 839 234 206 150 115 
218 839 235 207 150 114 
219 838 234 208 151 118 
219 838 235 203 148 113 
219 839 235 202 147 110 
221 833 232 220 156 120 
220 834 232 220 155 120 
220 835 232 218 155 120 
220 835 233 216 154 119 
221 834 232 219 156 120 
221 835 233 214 155 119 
221 835 234 205 151 114 
222 832 232 223 159 122 
222 833 232 221 158 122 
223 832 232 224 159 124 
223 833 232 222 159 123 
223 833 233 220 158 122 
222 834 232 219 157 120 
222 834 233 216 156 120 
222 835 233 215 156 120 
223 834 233 216 157 121 
222 835 234 206 151 114 
223 834 234 210 153 117 
223 835 234 206 151 114 
223 835 235 208 152 115 
220 836 233 213 154 119 
220 836 234 208 151 116 
220 837 234 203 148 114 
220 837 235 206 150 114 
221 836 234 206 151 116 
221 836 235 199 146 110 
221 837 234 200 147 111 
221 837 235 198 145 108 
220 838 235 201 147 110 
220 839 235 197 144 106 
221 838 235 201 147 108 
222 836 234 202 149 113 
222 836 235 199 146 109 
222 837 235 197 144 106 
223 836 235 202 148 111 
220 839 236 197 145 107 
221 838 236 199 146 107 
221 839 236 199 146 109 
222 837 236 196 144 105 
223 837 236 200 145 107 
222 838 236 198 145 106 
222 839 236 200 147 109 
222 839 237 201 148 111 
223 838 236 202 147 109 
223 839 237 198 145 109 
216 840 235 215 156 121 
216 841 235 213 154 118 
217 840 235 211 153 118 
217 841 235 207 150 115 
216 842 235 214 154 120 
218 840 235 203 148 112 
219 840 235 199 145 108 
217 841 236 206 149 114 
216 842 236 213 154 120 
216 843 236 214 156 122 
217 842 236 208 149 116 
217 843 236 209 150 117 
218 841 236 200 143 109 
219 840 236 203 147 111 
219 841 236 201 144 109 
219 841 237 196 142 108 
218 842 236 202 145 111 
218 843 236 203 146 113 
218 843 237 201 145 112 
219 842 236 197 142 109 
219 842 237 198 143 110 
219 843 237 200 145 112 
216 844 236 214 154 120 
216 845 236 210 150 115 
217 844 236 208 149 115 
217 844 237 206 147 114 
217 845 236 206 147 113 
217 845 237 204 144 109 
216 846 236 205 143 105 
216 846 237 200 139 99 
216 847 236 202 139 99 
216 847 237 201 138 97 
217 846 237 203 140 100 
217 847 237 193 135 94 
218 844 237 203 146 114 
218 845 237 201 142 108 
219 844 237 201 145 113 
219 845 237 195 140 107 
219 845 238 192 136 101 
218 846 237 192 134 96 
218 847 237 190 132 93 
219 846 237 192 134 97 
218 847 238 183 129 90 
219 846 238 187 129 93 
219 847 238 184 128 92 
220 840 236 196 143 107 
220 841 236 195 141 106 
220 841 237 197 143 108 
221 840 236 199 146 110 
221 840 237 195 142 106 
221 841 237 197 144 109 
221 841 238 197 145 109 
220 842 237 196 143 109 
220 843 237 198 145 112 
221 842 237 198 145 110 
221 842 238 200 147 111 
221 843 238 198 146 112 
222 840 237 199 145 109 
222 841 237 204 148 112 
223 840 237 199 147 112 
222 840 238 198 146 110 
222 841 238 200 147 111 
223 840 238 204 150 115 
223 841 238 203 150 114 
222 842 238 201 149 113 
222 843 238 199 147 113 
222 843 239 199 146 112 
223 842 238 202 149 113 
223 842 239 202 149 113 
223 843 239 201 147 113 
220 844 237 197 144 112 
220 844 238 199 144 112 
220 845 238 191 136 103 
221 844 238 197 144 111 
221 845 238 187 131 96 
220 846 238 181 124 88 
220 847 238 176 123 89 
220 847 239 177 126 91 
221 846 238 178 120 85 
221 846 239 175 119 84 
221 847 239 176 124 89 
222 844 238 196 143 110 
222 844 239 197 143 110 
222 845 239 186 130 95 
223 844 239 198 143 110 
223 845 239 190 132 98 
222 846 239 175 117 80 
222 847 239 171 118 80 
223 845 240 186 128 91 
222 846 240 174 117 76 
222 847 240 175 123 82 
223 846 240 178 120 79 
223 847 240 180 126 84 
223 847 241 189 138 98 
208 848 235 215 150 114 
208 849 235 211 148 110 
209 848 235 215 151 115 
209 849 235 212 149 111 
210 848 235 214 150 114 
210 849 235 213 149 112 
211 848 235 213 147 110 
208 849 236 208 147 107 
209 849 236 210 148 110 
208 850 236 207 147 107 
208 851 236 204 142 101 
209 850 236 206 144 106 
209 851 236 199 134 95 
210 849 236 209 145 108 
211 849 236 209 143 106 
210 850 236 202 137 99 
210 851 236 193 127 85 
211 850 236 200 133 91 
211 851 236 194 126 80 
211 851 237 192 124 76 
208 852 236 196 134 94 
208 853 236 195 133 93 
209 852 236 192 128 90 
209 852 237 189 123 85 
209 853 236 191 127 89 
209 853 237 191 126 86 
208 854 236 206 144 98 
208 854 237 203 141 94 
208 855 236 205 139 88 
208 855 237 201 135 81 
209 854 237 197 132 81 
209 855 237 197 130 74 
210 852 236 189 122 79 
210 852 237 188 120 75 
210 853 237 191 124 77 
211 852 237 192 123 75 
211 853 237 195 127 78 
210 854 237 195 127 75 
210 855 237 196 126 72 
211 854 237 197 132 82 
211 855 237 198 133 84 
212 848 235 214 148 109 
212 848 236 212 146 107 
212 849 236 206 140 99 
213 848 236 211 145 105 
213 849 236 205 138 96 
212 850 236 199 132 88 
212 850 237 197 129 83 
212 851 237 195 128 80 
213 850 236 200 131 89 
213 850 237 199 132 87 
213 851 237 198 133 86 
214 848 236 208 143 102 
214 849 236 205 139 97 
214 849 237 202 137 93 
215 848 236 205 141 101 
215 848 237 201 138 97 
215 849 237 199 136 92 
214 850 237 198 135 90 
214 851 237 197 135 89 
215 850 237 198 136 90 
214 851 238 196 137 89 
215 850 238 191 133 87 
215 851 238 191 136 92 
212 852 237 196 129 82 
212 853 237 198 134 89 
213 852 237 197 134 89 
212 853 238 199 141 97 
213 852 238 198 138 93 
213 853 238 201 144 101 
212 854 237 200 141 96 
212 855 237 201 144 101 
212 854 238 204 148 105 
212 855 238 204 151 108 
213 854 238 204 152 110 
213 855 238 196 149 109 
213 855 239 191 148 111 
214 852 238 196 139 93 
214 853 238 199 144 101 
214 853 239 192 140 98 
215 852 238 189 135 93 
215 852 239 187 134 93 
215 853 239 185 131 90 
214 854 239 193 146 106 
214 855 239 187 142 105 
208 856 236 200 131 76 
208 856 237 197 128 71 
208 857 236 197 129 74 
208 857 237 193 127 72 
209 856 237 195 126 68 
209 857 237 189 123 67 
208 858 236 192 128 74 
208 858 237 183 123 74 
208 859 237 183 125 78 
209 858 237 176 116 66 
208 859 238 164 115 75 
208 859 239 157 113 79 
209 858 238 161 108 63 
209 859 238 155 108 68 
209 859 239 143 104 70 
210 856 237 190 123 69 
210 857 237 184 120 68 
211 856 237 194 134 86 
211 857 237 188 133 91 
210 857 238 181 119 70 
211 857 238 180 130 90 
211 857 239 177 133 95 
210 858 238 163 110 66 
210 858 239 149 109 74 
210 859 239 147 107 73 
211 858 238 171 124 84 
211 858 239 170 126 90 
212 856 237 196 141 97 
212 857 237 190 139 98 
212 856 238 191 143 100 
212 857 238 183 137 98 
212 857 239 172 130 93 
213 856 238 182 139 99 
213 856 239 178 136 98 
213 857 239 171 129 93 
212 858 239 151 115 82 
214 856 239 180 137 102 
216 848 237 197 137 95 
216 849 237 194 135 90 
217 848 237 194 137 95 
216 849 238 189 132 84 
217 848 238 192 136 92 
217 849 238 187 131 85 
217 849 239 182 128 86 
216 850 238 189 133 89 
216 851 238 187 134 94 
216 851 239 187 134 94 
217 850 239 187 134 94 
217 851 239 185 133 95 
218 848 238 182 130 89 
218 849 238 181 127 84 
218 849 239 184 132 93 
219 848 238 181 129 91 
219 848 239 179 128 90 
219 849 239 185 134 97 
218 850 239 188 136 100 
216 852 239 182 129 90 
220 848 239 181 131 93 
220 849 239 189 142 106 
221 848 239 181 132 94 
215 853 240 187 135 95 
214 854 240 187 138 98 
214 855 240 180 133 95 
215 854 240 184 132 91 
215 855 240 184 132 92 
215 855 241 188 135 95 
211 858 240 158 118 89 
213 857 240 160 116 82 
212 858 240 149 111 82 
212 858 241 145 105 75 
213 858 240 149 107 79 
213 858 241 148 101 69 
214 856 240 175 128 91 
214 856 241 175 122 85 
214 857 240 164 116 81 
214 857 241 159 107 73 
215 856 241 184 132 93 
215 857 241 168 113 78 
215 856 242 187 134 98 
215 857 242 187 135 103 
214 858 241 152 99 62 
214 858 242 158 105 66 
215 858 242 174 122 87 
215 858 243 191 142 108 
217 851 240 186 135 99 
219 849 240 193 144 108 
218 850 240 193 143 108 
218 851 240 193 143 108 
218 851 241 199 149 115 
219 850 240 196 145 111 
219 850 241 202 151 118 
219 851 241 202 152 117 
216 852 240 182 129 92 
216 853 240 185 132 94 
217 852 240 187 135 99 
217 853 240 193 141 105 
217 853 241 200 149 114 
216 854 240 190 139 100 
216 854 241 197 147 109 
216 855 241 199 148 112 
217 854 241 202 152 117 
216 855 242 205 155 119 
217 854 242 205 155 120 
217 855 242 206 155 120 
217 855 243 206 156 119 
218 852 240 193 142 108 
218 852 241 198 147 111 
218 853 241 203 153 116 
219 852 241 201 151 114 
219 852 242 205 156 118 
219 853 242 206 156 119 
219 853 243 206 155 118 
218 854 241 205 155 120 
218 854 242 205 155 121 
218 854 243 206 156 121 
218 855 243 205 155 119 
219 854 243 205 154 118 
218 855 244 206 156 121 
219 854 244 204 154 117 
219 855 244 204 154 118 
219 855 245 204 154 119 
220 849 240 193 146 110 
220 849 241 203 152 119 
221 848 240 187 140 104 
221 849 240 195 148 114 
221 849 241 204 155 120 
220 850 240 200 151 116 
220 850 241 203 153 120 
221 850 241 204 153 121 
220 850 242 204 154 121 
220 851 242 205 155 119 
221 850 242 206 155 122 
221 851 242 206 156 121 
221 851 243 206 155 120 
222 848 240 188 139 103 
222 848 241 202 155 121 
222 849 241 206 156 121 
223 848 241 203 155 120 
222 849 242 208 157 122 
223 848 242 208 158 121 
223 849 242 208 157 122 
223 849 243 211 159 125 
222 850 242 206 156 122 
222 850 243 208 159 124 
222 851 243 209 159 124 
223 850 243 210 159 125 
222 851 244 209 159 124 
223 850 244 211 161 126 
223 851 244 210 160 125 
223 851 245 211 161 126 
223 851 246 212 161 127 
220 852 242 204 154 117 
220 852 243 206 156 119 
220 853 243 207 156 120 
221 852 243 207 157 121 
220 853 244 207 156 121 
221 852 244 210 160 125 
221 853 244 208 157 122 
221 853 245 210 160 126 
220 854 244 205 155 118 
220 854 245 205 155 119 
220 855 245 205 156 120 
221 854 245 209 159 125 
220 855 246 205 155 120 
221 854 246 210 160 125 
221 854 247 209 158 122 
221 855 246 206 156 120 
221 855 247 205 155 117 
222 852 244 211 160 125 
222 852 245 212 161 126 
222 853 245 213 162 129 
223 852 245 211 160 125 
222 853 246 214 164 130 
222 853 247 213 163 128 
223 852 246 213 162 129 
223 852 247 214 164 129 
223 853 247 214 163 128 
222 854 246 213 163 129 
222 854 247 211 161 125 
221 855 248 206 156 120 
222 853 248 213 163 127 
223 853 248 213 163 127 
223 853 249 211 161 125 
222 854 248 211 159 125 
222 855 248 207 157 122 
222 855 249 208 158 123 
223 854 248 212 160 124 
223 854 249 211 160 127 
222 855 250 205 154 120 
223 854 250 210 159 126 
223 855 250 206 155 122 
223 855 251 203 151 117 
223 855 252 199 147 113 
216 856 242 202 152 117 
216 856 243 205 155 120 
216 857 243 202 154 118 
217 856 243 205 156 119 
217 857 243 203 155 117 
216 858 243 201 154 117 
218 856 243 206 158 121 
217 857 244 203 155 114 
216 858 244 202 156 115 
217 858 244 200 153 109 
217 858 245 197 150 109 
218 856 244 205 156 119 
218 857 244 202 154 113 
218 857 245 198 149 111 
219 856 245 201 152 115 
219 857 245 198 149 111 
219 856 246 200 151 115 
219 857 246 198 148 113 
218 858 245 196 148 110 
218 858 246 193 145 110 
219 858 246 194 145 112 
220 856 246 202 153 116 
220 856 247 203 153 116 
220 857 247 198 149 115 
221 856 247 204 154 118 
220 857 248 197 148 115 
221 856 248 203 153 118 
221 856 249 200 150 116 
221 857 248 199 150 117 
221 857 249 196 148 114 
221 857 250 192 142 106 
222 856 249 201 152 117 
222 856 250 199 149 114 
222 856 251 197 146 110 
222 857 250 195 145 109 
222 857 251 194 145 108 
223 856 251 199 148 112 
222 857 252 195 146 112 
223 856 252 202 152 115 
223 856 253 201 152 117 
223 857 252 199 150 114 
223 857 253 194 145 112 
224 832 232 225 161 126 
224 833 232 225 163 126 
224 833 233 221 161 124 
225 832 232 226 164 127 
225 832 233 226 165 128 
225 833 233 224 164 127 
225 833 234 222 163 126 
224 834 234 213 156 120 
224 835 235 208 152 116 
225 834 234 214 158 121 
225 835 235 209 154 117 
226 832 232 227 165 128 
226 832 233 228 167 130 
226 833 233 225 166 128 
227 832 232 229 167 128 
227 832 233 230 170 131 
226 833 234 220 162 125 
227 833 234 224 166 129 
226 834 234 220 162 125 
226 834 235 215 158 120 
226 835 235 211 155 118 
227 834 234 223 164 126 
227 834 235 217 160 122 
227 835 235 214 158 121 
227 835 236 213 157 120 
224 836 235 202 148 111 
225 836 235 208 153 115 
224 836 236 204 148 112 
224 837 236 202 147 110 
225 836 236 206 150 113 
225 837 236 207 150 114 
224 838 236 207 151 114 
224 838 237 204 149 112 
224 839 237 202 148 114 
225 838 237 208 152 116 
225 839 237 207 151 116 
225 839 238 211 153 120 
226 836 236 213 155 119 
226 837 236 212 155 119 
226 837 237 213 155 120 
227 836 236 215 157 121 
227 836 237 212 156 121 
227 837 237 215 158 122 
226 838 237 213 155 120 
226 839 237 207 152 118 
227 838 237 209 154 119 
226 839 238 211 155 122 
227 838 238 213 156 121 
227 839 238 213 156 123 
228 832 232 230 168 130 
228 832 233 228 168 130 
229 832 233 229 168 130 
228 833 234 223 165 127 
229 832 234 226 166 128 
229 833 234 222 163 126 
228 834 235 215 159 121 
228 835 235 219 161 123 
229 834 235 220 162 124 
230 832 233 229 168 130 
231 832 233 230 169 131 
230 832 234 229 168 130 
230 833 234 224 165 127 
230 833 235 224 165 127 
231 832 234 226 167 130 
231 833 234 224 167 128 
231 833 235 226 167 129 
230 834 235 226 167 128 
231 834 235 220 164 126 
228 835 236 212 156 120 
229 835 236 218 160 123 
230 834 236 220 162 124 
230 835 236 222 164 126 
230 835 237 224 166 128 
231 834 236 223 165 126 
231 835 236 220 164 126 
231 835 237 225 167 130 
231 835 238 223 166 129 
228 836 236 220 161 125 
228 836 237 213 158 122 
228 837 237 216 159 123 
229 836 237 217 160 124 
228 837 238 214 158 122 
229 836 238 220 163 126 
229 837 238 216 160 124 
228 838 238 214 157 123 
228 839 238 213 157 124 
228 839 239 216 159 125 
229 838 238 214 158 123 
229 838 239 219 161 126 
229 839 239 220 162 127 
230 836 237 219 163 127 
230 836 238 220 164 127 
230 837 238 216 160 124 
230 837 239 223 165 128 
231 836 238 223 166 129 
231 836 239 228 169 131 
231 837 239 229 169 132 
230 838 239 221 163 128 
231 838 239 229 170 133 
224 840 237 208 152 117 
224 840 238 205 151 117 
224 841 238 205 152 117 
224 841 239 208 153 117 
225 840 238 209 154 120 
225 840 239 209 155 121 
225 841 239 210 155 120 
224 842 239 203 149 114 
224 843 239 202 147 113 
225 842 239 207 152 117 
226 840 238 211 156 123 
226 840 239 213 157 122 
226 841 239 214 158 122 
227 840 238 218 160 125 
227 840 239 214 158 123 
227 841 239 213 157 122 
228 840 239 219 161 126 
229 840 239 221 163 127 
232 832 233 232 170 133 
232 832 234 229 168 131 
232 833 235 228 168 130 
233 832 234 231 169 132 
233 832 235 230 168 132 
233 833 235 226 167 129 
232 834 235 225 168 129 
234 832 234 232 169 134 
234 832 235 232 168 134 
234 833 235 228 167 131 
235 832 234 238 174 138 
235 832 235 234 170 135 
235 833 235 231 169 134 
232 834 236 223 166 128 
232 834 237 225 168 130 
232 835 237 228 170 132 
233 834 236 224 166 128 
233 834 237 225 168 130 
233 835 237 223 167 130 
232 835 238 226 168 131 
233 835 238 231 173 134 
234 833 236 225 166 130 
235 833 236 230 169 133 
234 834 236 227 168 131 
234 834 237 224 166 131 
234 835 237 221 165 128 
235 834 237 228 169 134 
234 835 238 233 174 136 
235 835 238 235 175 138 
232 836 238 228 169 132 
232 836 239 230 170 132 
232 837 239 233 172 134 
233 836 239 234 174 134 
233 837 239 235 174 135 
234 836 239 236 176 137 
234 837 239 240 178 139 
235 836 239 236 177 140 
235 837 239 234 174 137 
236 832 235 236 172 136 
237 832 235 239 174 140 
238 832 235 241 176 143 
239 832 235 240 176 140 
236 833 236 239 175 138 
236 833 237 234 172 136 
237 832 236 242 179 142 
237 833 236 240 177 141 
237 833 237 238 177 141 
236 834 237 235 174 137 
237 834 237 246 184 147 
236 835 238 236 177 139 
236 835 239 238 179 142 
237 834 238 245 184 147 
237 835 238 236 178 141 
237 835 239 242 183 146 
238 832 236 237 173 137 
238 833 236 239 177 141 
238 833 237 244 183 148 
239 832 236 238 175 139 
239 833 236 234 173 136 
239 833 237 247 185 149 
238 834 238 246 185 149 
238 835 238 236 178 142 
238 835 239 233 176 139 
239 834 238 241 181 144 
239 835 238 235 177 141 
239 835 239 227 171 135 
236 836 239 235 176 139 
236 837 239 231 172 136 
237 836 239 231 174 137 
237 837 239 227 170 135 
238 836 239 228 171 135 
239 836 239 229 172 135 
229 839 240 223 164 128 
230 839 240 228 167 131 
231 838 240 230 170 133 
231 839 240 228 168 132 
224 843 240 202 146 113 
225 842 240 207 152 117 
225 843 240 206 150 116 
226 841 240 212 157 123 
227 841 240 214 159 123 
226 842 240 212 157 122 
226 843 240 212 156 122 
226 843 241 216 160 126 
227 842 240 215 160 125 
227 842 241 218 163 127 
227 843 241 219 163 128 
227 843 242 220 163 129 
224 844 240 199 144 111 
224 845 240 192 134 98 
224 845 241 190 131 93 
225 844 240 206 150 116 
225 844 241 207 151 117 
225 845 240 199 142 106 
225 845 241 197 140 102 
224 846 240 184 126 86 
224 846 241 187 131 90 
224 847 241 189 136 95 
225 846 241 194 137 97 
224 847 242 198 146 104 
225 846 242 199 142 104 
225 847 242 199 145 105 
225 847 243 206 151 114 
226 844 241 213 156 121 
226 845 241 206 148 111 
226 844 242 216 158 124 
226 845 242 208 149 113 
227 844 242 218 161 127 
227 845 242 214 155 121 
227 845 243 216 156 123 
226 846 242 204 146 110 
226 846 243 210 151 117 
226 847 243 211 154 117 
227 846 243 213 155 120 
226 847 244 214 158 119 
227 846 244 216 160 123 
227 847 244 217 161 123 
227 847 245 219 165 128 
227 847 246 222 168 131 
228 840 240 221 163 127 
228 841 240 216 161 125 
228 841 241 217 161 126 
229 840 240 223 164 128 
229 841 240 218 161 125 
229 841 241 221 163 128 
228 842 241 219 163 127 
228 843 241 220 164 128 
229 842 241 221 164 129 
228 843 242 221 164 130 
229 842 242 222 164 129 
229 843 242 222 165 131 
229 843 243 223 166 132 
230 840 240 224 165 129 
230 840 241 226 165 130 
230 841 241 222 164 129 
231 840 240 229 169 133 
231 840 241 226 167 132 
231 841 241 226 166 131 
231 841 242 228 168 132 
230 842 242 223 165 130 
230 842 243 228 169 134 
230 843 243 225 167 133 
231 842 242 228 168 131 
231 842 243 227 169 134 
230 843 244 225 167 134 
231 842 244 226 168 134 
231 843 244 225 167 134 
231 843 245 224 168 135 
228 844 242 221 163 130 
228 844 243 221 162 129 
228 845 243 218 159 125 
229 844 243 222 165 131 
228 845 244 219 161 127 
229 844 244 221 163 130 
229 845 244 222 164 131 
229 845 245 221 163 129 
229 845 246 219 164 128 
228 846 244 218 160 125 
228 846 245 220 165 130 
229 846 245 220 163 128 
228 846 246 223 169 134 
228 847 246 223 169 133 
228 847 247 223 169 134 
229 846 246 222 168 132 
229 846 247 221 167 132 
229 847 247 222 169 133 
230 844 244 223 165 132 
230 844 245 222 165 132 
230 845 245 221 164 131 
231 844 245 223 166 134 
230 845 246 221 165 131 
230 845 247 220 166 130 
231 844 246 222 165 131 
231 844 247 221 165 131 
231 845 247 220 165 130 
230 846 247 220 165 130 
229 847 248 220 166 131 
229 847 249 220 166 129 
231 845 248 220 165 131 
231 845 249 221 165 132 
230 846 248 220 165 130 
230 846 249 218 163 127 
230 847 249 218 165 127 
231 846 248 219 164 129 
231 846 249 218 163 127 
230 847 250 216 164 126 
230 847 251 216 164 127 
231 846 250 218 162 127 
231 846 251 216 161 126 
231 847 250 216 162 126 
231 847 251 214 161 125 
231 847 252 214 162 126 
231 847 253 216 164 128 
231 847 254 217 166 129 
232 837 240 236 174 136 
233 837 240 233 173 136 
232 838 240 234 172 134 
232 839 240 226 167 131 
233 838 240 235 173 137 
233 839 240 227 168 133 
233 839 241 228 168 133 
234 837 240 235 174 137 
235 837 240 234 174 138 
234 838 240 235 173 137 
234 839 241 226 168 132 
235 838 240 230 171 135 
235 839 241 226 167 131 
236 837 240 229 171 135 
237 837 240 226 170 134 
236 838 240 227 169 132 
236 839 241 225 166 131 
237 838 240 224 168 132 
237 838 241 226 168 132 
237 839 241 225 166 131 
236 839 242 226 167 133 
237 839 242 226 166 132 
238 837 240 227 170 134 
239 836 240 225 169 131 
239 837 240 225 169 132 
239 837 241 226 169 133 
238 838 241 226 168 132 
239 838 241 227 169 133 
238 839 242 227 167 132 
238 839 243 227 166 133 
239 838 242 228 168 133 
239 839 242 227 167 132 
239 839 243 229 167 132 
239 839 244 229 167 132 
232 840 241 226 167 131 
232 841 241 227 167 131 
233 840 241 224 165 130 
232 841 242 227 167 132 
232 841 243 224 167 132 
233 840 242 222 164 129 
233 841 242 224 165 131 
233 841 243 224 166 132 
232 842 243 225 168 133 
233 842 243 224 167 133 
234 840 241 223 165 131 
234 840 242 224 165 131 
234 841 243 224 166 132 
235 840 242 224 164 131 
235 840 243 225 165 132 
235 841 243 226 166 133 
232 842 244 225 167 133 
232 843 244 224 167 133 
232 843 245 225 167 134 
233 842 244 226 168 133 
233 842 245 226 168 134 
233 843 245 225 167 133 
232 843 246 224 167 133 
233 843 246 225 168 134 
233 843 247 225 168 134 
234 841 244 225 167 133 
235 841 244 227 168 134 
234 842 244 226 169 135 
234 842 245 227 169 135 
235 842 245 227 169 134 
234 842 246 227 169 135 
234 843 246 226 169 134 
234 843 247 226 169 135 
235 842 246 227 169 134 
235 842 247 227 169 134 
235 843 247 227 169 134 
232 844 246 223 166 132 
232 844 247 223 166 132 
233 844 247 224 167 133 
236 840 242 225 166 132 
236 840 243 225 166 133 
236 841 243 226 167 134 
237 840 242 225 166 133 
237 840 243 226 167 133 
238 840 243 227 167 133 
236 841 244 226 167 133 
236 841 245 227 168 133 
237 840 244 227 168 134 
237 841 244 226 167 132 
237 841 245 227 168 133 
236 841 246 228 170 134 
237 841 246 229 171 135 
237 841 247 229 171 136 
236 842 245 227 169 134 
236 842 246 228 170 135 
236 842 247 228 169 134 
237 842 247 228 170 134 
238 840 244 228 168 134 
238 840 245 229 170 134 
238 841 245 228 169 133 
239 840 244 230 169 135 
239 840 245 230 171 136 
238 841 246 229 171 135 
238 841 247 230 172 137 
239 840 246 230 171 136 
239 840 247 231 172 137 
239 841 247 231 173 138 
234 843 248 226 169 135 
234 843 249 225 168 135 
235 843 248 226 169 134 
235 843 249 227 170 136 
235 843 250 226 169 135 
235 843 251 225 169 135 
232 844 248 221 165 131 
232 845 248 221 165 132 
232 845 249 221 165 132 
233 844 248 224 167 134 
233 844 249 223 166 133 
232 845 250 220 164 130 
232 845 251 219 163 130 
233 844 250 222 166 133 
233 845 250 222 165 132 
233 845 251 220 164 130 
232 846 250 219 164 129 
232 846 251 218 163 129 
234 844 249 224 167 134 
234 844 250 224 168 134 
234 844 251 223 166 133 
234 845 251 221 165 132 
235 844 250 225 169 135 
235 844 251 224 167 134 
233 845 252 220 166 131 
232 846 252 218 163 129 
232 846 253 218 165 128 
232 847 253 217 164 127 
233 846 252 220 165 130 
233 846 253 220 166 130 
232 847 254 218 166 129 
232 847 255 217 166 130 
233 846 254 220 167 131 
233 846 255 221 168 132 
233 847 254 218 166 130 
233 847 255 219 167 131 
234 844 252 222 165 132 
234 845 252 222 166 132 
234 845 253 222 168 132 
235 844 252 223 167 133 
235 844 253 222 167 132 
235 845 253 223 167 133 
234 845 254 222 167 132 
234 845 255 222 167 131 
235 844 254 222 166 133 
235 845 254 222 167 132 
235 845 255 222 167 132 
234 846 254 222 168 132 
234 846 255 221 167 132 
236 842 248 227 169 134 
236 842 249 227 169 134 
236 843 249 227 170 136 
237 842 248 228 169 133 
237 842 249 228 170 135 
236 842 250 228 172 137 
236 843 250 228 172 137 
236 843 251 225 170 135 
237 842 250 228 172 136 
237 842 251 229 173 137 
237 843 251 228 173 137 
238 841 248 229 171 135 
238 841 249 229 172 136 
239 841 248 230 172 135 
239 841 249 229 171 134 
238 841 250 229 173 137 
239 841 250 230 173 136 
239 841 251 230 174 137 
238 842 249 229 172 136 
238 842 250 229 173 137 
238 842 251 229 174 138 
236 843 252 224 169 135 
237 843 252 226 171 137 
237 843 253 225 169 134 
237 843 254 225 169 135 
237 843 255 222 166 132 
239 841 252 230 174 138 
239 841 253 226 170 135 
239 841 254 223 169 134 
239 841 255 224 170 136 
238 842 252 227 172 137 
238 842 253 226 171 136 
238 843 253 225 169 135 
239 842 252 229 173 137 
239 842 253 226 171 135 
238 842 254 224 168 135 
238 842 255 223 168 134 
238 843 255 223 168 134 
239 842 254 224 168 134 
239 842 255 223 169 135 
236 844 252 224 168 134 
236 844 253 224 169 134 
236 844 254 222 166 132 
236 844 255 221 165 130 
236 845 255 221 166 130 
237 844 254 223 167 134 
237 844 255 221 165 130 
224 848 242 207 157 118 
224 848 243 212 160 125 
224 849 243 213 160 126 
225 848 243 215 161 126 
224 849 244 214 162 127 
225 848 244 216 163 128 
225 849 244 215 162 127 
225 849 245 215 162 128 
224 850 244 212 162 127 
224 850 245 214 164 129 
224 851 245 214 165 130 
225 850 245 214 163 129 
224 850 246 213 164 130 
224 851 246 213 162 128 
224 851 247 214 163 129 
225 850 246 215 164 130 
225 850 247 216 166 130 
225 851 247 215 165 130 
226 848 244 217 162 126 
226 848 245 216 162 126 
226 849 245 217 164 129 
227 848 245 218 163 128 
226 848 246 219 165 130 
226 849 246 217 165 129 
226 849 247 217 165 128 
227 848 246 220 166 131 
227 848 247 220 166 131 
227 849 247 218 165 129 
226 850 247 217 166 129 
224 852 247 215 164 128 
228 848 247 222 169 135 
225 851 248 216 165 130 
225 851 249 215 165 130 
227 849 248 218 165 129 
227 849 249 217 165 128 
226 850 248 217 166 131 
226 850 249 217 166 131 
226 851 249 216 166 131 
227 850 248 217 164 128 
227 850 249 216 165 129 
226 851 250 214 166 129 
226 851 251 213 165 127 
227 850 250 215 166 129 
227 850 251 214 166 128 
227 851 251 213 165 127 
227 850 252 214 166 128 
227 851 252 213 165 128 
227 851 253 209 160 124 
224 852 248 215 165 130 
224 852 249 214 164 129 
224 853 248 214 164 129 
224 853 249 213 163 127 
225 852 248 215 165 130 
225 852 249 215 165 130 
224 853 250 213 163 126 
225 852 250 214 165 129 
225 852 251 213 166 128 
225 853 250 213 163 126 
225 853 251 211 163 124 
224 854 249 213 162 126 
224 854 250 212 161 125 
224 854 251 209 159 123 
225 854 251 211 162 124 
226 852 250 214 166 129 
226 852 251 213 165 128 
225 853 252 209 160 122 
224 854 252 203 152 116 
224 855 252 202 151 117 
224 855 253 208 159 126 
225 854 252 204 154 115 
225 854 253 206 156 119 
225 855 253 209 160 126 
225 854 254 208 160 125 
225 855 254 207 158 125 
225 855 255 205 156 122 
226 852 252 211 162 125 
226 852 253 204 154 116 
226 853 252 207 158 120 
226 853 253 203 152 113 
227 852 252 210 162 125 
227 852 253 205 154 117 
226 853 254 208 158 121 
227 852 254 205 154 117 
227 852 255 209 159 123 
227 853 254 205 155 117 
227 853 255 210 160 124 
226 854 253 208 158 121 
226 854 254 209 161 124 
226 854 255 209 161 124 
226 855 255 205 156 120 
227 854 255 209 161 124 
228 848 248 221 168 133 
228 848 249 219 167 129 
228 849 248 218 165 129 
228 849 249 217 166 129 
229 848 248 221 168 133 
229 848 249 218 167 130 
228 849 250 216 166 129 
228 849 251 215 166 129 
229 848 250 216 165 129 
229 848 251 216 166 130 
229 849 250 216 166 130 
229 849 251 216 167 131 
228 850 250 215 166 129 
228 850 251 213 165 127 
230 848 251 216 165 129 
229 849 252 215 165 129 
229 849 253 215 165 129 
228 850 252 213 164 126 
228 850 253 212 163 127 
228 851 253 212 163 127 
229 850 252 212 163 125 
229 850 253 213 164 127 
228 850 254 212 163 127 
228 851 254 211 161 126 
228 851 255 210 160 126 
229 850 254 214 164 129 
229 850 255 212 162 127 
229 851 255 212 161 127 
230 848 252 215 165 129 
230 848 253 216 166 130 
230 849 253 216 166 130 
231 848 252 215 164 128 
231 848 253 217 166 129 
230 849 254 217 165 131 
230 849 255 215 163 128 
231 848 254 218 166 130 
231 848 255 217 165 129 
231 849 255 216 164 129 
230 850 255 214 162 128 
228 852 255 209 160 125 
224 856 252 205 155 120 
224 856 253 207 157 124 
224 856 254 203 153 120 
225 856 254 203 153 121 
225 856 255 197 146 112 
232 848 255 218 166 130 
240 832 235 242 177 142 
240 832 236 245 181 144 
240 833 237 243 180 143 
240 834 238 239 178 142 
240 835 239 232 174 138 
240 836 239 226 170 133 
240 836 240 226 169 132 
240 837 240 226 170 132 
240 837 241 227 170 133 
240 838 241 228 169 133 
240 838 242 229 169 134 
240 838 243 229 169 134 
240 839 243 230 168 133 
240 839 244 230 169 133 
240 839 245 232 172 137 
240 840 245 231 172 136 
240 840 246 231 172 136 
240 840 247 232 173 137 
240 840 248 231 173 136 
240 840 249 231 173 136 
240 841 248 231 172 135 
240 841 249 230 171 134 
240 841 250 230 172 134 
240 841 251 231 173 136 
240 841 252 229 171 136 
240 841 253 227 170 135 
240 840 255 224 170 136 
240 841 254 226 170 136 
240 841 255 224 170 136 
233 847 256 217 165 130 
233 847 257 212 160 126 
233 847 258 209 157 124 
235 845 256 220 166 131 
235 845 257 215 161 127 
235 845 258 211 157 124 
234 846 256 219 165 130 
234 846 257 212 158 125 
234 847 257 210 157 122 
235 846 257 212 159 126 
234 846 258 209 156 123 
234 847 258 207 156 122 
234 847 259 203 153 120 
235 846 258 210 156 124 
235 846 259 205 154 121 
235 845 261 197 145 116 
234 847 260 199 149 119 
234 847 261 195 146 117 
235 846 260 200 149 119 
235 846 261 195 145 116 
237 843 256 222 167 132 
237 843 258 210 157 123 
237 843 259 206 153 120 
239 841 256 221 168 134 
239 841 257 216 163 131 
239 841 258 213 159 128 
239 841 259 210 157 126 
238 842 256 221 167 134 
238 842 257 216 162 131 
238 843 256 220 166 132 
238 843 257 215 161 128 
239 842 256 221 168 134 
239 842 257 216 162 130 
238 842 258 210 158 125 
238 842 259 209 156 124 
238 843 258 209 156 124 
238 843 259 206 154 120 
239 842 258 212 158 127 
237 843 260 202 149 117 
237 843 261 200 148 116 
238 841 261 201 147 118 
239 840 261 202 150 119 
239 841 260 206 155 123 
239 841 261 202 149 119 
238 842 260 205 152 120 
238 842 261 201 147 117 
238 843 260 203 150 118 
238 843 261 199 147 115 
236 844 256 219 165 130 
236 844 257 214 160 126 
236 845 256 220 166 131 
236 845 257 216 162 128 
237 844 256 219 164 130 
237 844 257 214 160 126 
236 844 258 209 155 122 
236 844 259 207 153 121 
236 845 258 208 154 121 
236 845 259 206 153 121 
237 844 258 209 157 123 
237 844 259 207 154 121 
236 844 260 203 151 119 
236 844 261 199 148 117 
236 845 260 202 150 119 
236 845 261 198 146 117 
237 844 260 202 150 118 
237 844 261 200 149 116 
227 853 256 209 159 124 
226 854 256 208 160 124 
226 855 256 200 150 115 
226 855 257 192 141 107 
227 854 256 208 158 122 
227 854 257 201 151 117 
227 855 257 194 144 110 
227 854 258 195 145 110 
227 855 258 184 133 101 
227 855 259 173 122 93 
229 850 256 210 159 125 
229 851 256 208 157 124 
229 851 257 209 157 125 
231 849 256 215 163 129 
231 849 257 213 161 129 
230 850 256 212 161 128 
230 850 257 208 157 126 
230 851 257 208 157 125 
231 850 257 210 158 127 
230 851 258 207 156 123 
230 851 259 204 155 121 
231 850 258 204 152 121 
231 850 259 200 149 117 
231 851 259 202 153 119 
231 850 260 197 147 114 
231 851 260 199 150 115 
231 851 261 194 144 108 
228 852 256 209 159 124 
228 852 257 209 158 125 
228 853 256 209 159 125 
228 853 257 208 157 124 
229 852 256 208 157 123 
229 852 257 209 158 126 
228 853 258 205 154 120 
228 853 259 200 149 115 
229 852 258 208 158 124 
229 852 259 208 158 123 
229 853 258 207 156 121 
229 853 259 203 153 119 
228 854 257 204 153 119 
228 854 258 197 147 112 
228 854 259 193 143 109 
228 855 259 178 128 96 
230 852 258 207 157 122 
230 852 259 206 157 123 
229 853 260 197 147 115 
229 853 261 186 135 105 
228 854 260 181 130 100 
228 855 260 162 109 81 
228 855 261 144 88 64 
229 854 260 180 129 99 
229 854 261 161 107 80 
229 855 261 140 84 58 
230 852 260 203 153 118 
230 852 261 198 147 111 
230 853 260 201 150 115 
230 853 261 189 139 107 
231 852 261 196 147 112 
225 856 256 186 135 98 
226 856 256 187 136 100 
226 856 257 181 130 95 
227 856 258 172 122 89 
227 856 259 158 107 79 
228 856 259 164 113 85 
228 856 260 142 90 67 
232 848 256 216 164 130 
232 848 257 213 162 128 
232 849 257 211 159 127 
233 848 256 216 164 129 
233 848 257 213 161 128 
232 849 258 204 152 121 
232 849 259 197 145 115 
233 848 258 206 155 122 
233 848 259 201 151 118 
233 849 259 201 149 116 
232 850 259 198 146 115 
234 848 259 204 154 120 
232 849 260 195 142 113 
232 849 261 194 141 111 
233 848 260 196 146 116 
233 848 261 195 145 116 
233 849 260 196 143 115 
233 849 261 195 142 114 
232 850 260 194 143 111 
232 850 261 190 140 104 
232 851 261 190 142 105 
234 848 260 198 150 117 
234 848 261 195 146 115 
240 840 256 221 169 134 
240 840 257 216 165 131 
240 841 256 222 170 135 
240 841 257 217 164 131 
240 840 258 212 159 128 
240 840 259 209 155 125 
240 841 258 212 158 127 
240 841 259 210 156 126 
240 840 260 206 153 122 
240 840 261 202 150 119 
240 841 260 208 156 125 
